<svg version="1.1" id="Layer_1" xmlns="http://www.w3.org/2000/svg" xmlns:xlink="http://www.w3.org/1999/xlink" x="0px" y="0px" viewBox="0 0 100 100" xml:space="preserve"><desc>Copyright Opto 22</desc> 
<g>
<g id="dark">
	<path fill="#808080" d="M60.735,61.042c0.349,0.594,0.567,1.316,0.6,2.101c0.089,2.121-1.212,3.897-2.907,3.969l-35.21,6.125
		c-2.143,0.09-3.972-2.011-4.085-4.693s1.533-4.929,3.676-5.019l13.195-1.53l1.146,1.776l3.836,0.102L60.735,61.042z"></path>
	<polygon fill="#808080" points="68.507,66.412 97.968,67.835 95.835,68.546 68.507,67.022 	"></polygon>
	<polygon fill="#808080" points="40.164,70.476 79.885,72.508 80.8,73.524 81.308,73.524 80.393,72.406 88.485,69.856 
		89.841,70.781 89.74,69.46 58.247,68.038 	"></polygon>
	<path fill="#808080" d="M79.976,70.698l-16.236-0.507c0,0-0.905-6.735-0.905-5.649s-0.181-2.964,0.905-3.688l4.074-0.746
		c0.634-0.181,7.153-0.225,7.153-0.225s1.872,0.402,3.441,1.144c1.568,0.742,3.441,0.963,3.441,0.963"></path>
	<ellipse fill="#808080" cx="79.976" cy="66.081" rx="3.803" ry="4.617"></ellipse>
	<polygon fill="#808080" points="36.551,61.424 28.83,31.263 27.182,31.427 17.79,63.322 	"></polygon>
	<path fill="#808080" d="M65.188,75.575l-18.217-2.051c0,0-1.016-8.127-1.016-6.908c0,1.219-0.203-2.641,1.016-3.454l4.571-0.61
		c0.711-0.203,8.026,0.203,8.026,0.203s2.101,0.793,3.86,1.625s3.86,1.422,3.86,1.422"></path>
	<polygon fill="#808080" points="18.52,74.711 6.335,76.775 6.335,77.994 25.637,74.336 22.589,73.93 	"></polygon>
	<ellipse fill="#808080" cx="65.188" cy="70.394" rx="4.267" ry="5.181"></ellipse>
	<path d="M68.101,71.898c0,0-1.219,1.422-2.844,0.813C67.288,74.54,68.101,71.898,68.101,71.898z"></path>
	<path fill="#666666" d="M59.568,62.755c0,0,3.266-1.302,3.266,1.787l-4.079,1.464c0,0-2.438,0-2.438-1.625
		C56.317,62.755,59.568,62.755,59.568,62.755z"></path>
	<path fill="#666666" d="M66.877,75.151l2.138-0.713v-0.813l-0.472-0.039C68.107,74.263,67.536,74.805,66.877,75.151z"></path>
	
		<ellipse transform="matrix(0.4827 0.8758 -0.8758 0.4827 96.7992 -21.3951)" fill="#999999" cx="66.511" cy="71.247" rx="1.222" ry="1.484"></ellipse>
	<g>
		<path fill="#666666" d="M65.188,75.575c-1.243,0-2.356-0.652-3.135-1.682l-0.668-0.037c-0.291,0.61-0.803,1.366-1.613,1.598
			c-1.422,0.406-2.133,0.508-2.133,0.508l-0.102,0.711l3.86,0.305l4.366-1.455C65.574,75.553,65.383,75.575,65.188,75.575z"></path>
	</g>
	<path fill="#666666" d="M47.072,72c0,0,0,1.727-2.641,2.438v0.813l2.235,0.203l2.844-1.016v-1.016c0,0-0.914-0.305-1.422-1.117
		L47.072,72z"></path>
	<polygon fill="#808080" points="23.504,73.93 65.358,77.486 66.272,78.197 66.78,77.994 66.069,77.283 78.768,73.219 
		65.358,77.079 	"></polygon>
	<path fill="#666666" d="M76.33,63.67c0,0-1.117,0.203-1.625-0.305c-0.508-0.508-0.813-1.524,0.305-1.93s4.064-0.61,4.064-0.61
		s1.219-0.305,1.219,0.813s-1.016,1.321-1.016,1.321L76.33,63.67z"></path>
	
		<ellipse transform="matrix(0.9991 -0.042 0.042 0.9991 -2.8532 1.0275)" fill="#808080" cx="23.014" cy="68.381" rx="3.884" ry="4.86"></ellipse>
	
		<line fill="none" stroke="#FFFFFF" stroke-width="0.4064" stroke-linecap="round" stroke-miterlimit="10" x1="4.506" y1="25.371" x2="52.253" y2="21.104"></line>
	<path fill="#808080" d="M11.313,32.482l-0.033,8.533H9.992v1.422c0,0,0.795-0.113,1.281,0.169l-0.062,15.882l2.844-0.406V32.888
		L11.313,32.482z"></path>
</g>
<g id="shape">
	<path fill="#BC4512" d="M54.082,20.291L3.694,24.863v54.045l50.388,4.978L100,68.444V30.45L54.082,20.291z M52.694,82.019
		L5.319,77.486V26.691l0.541-0.046v1.016l46.387-3.923v-1.016l0.447-0.038V82.019z M79.073,56.663V29.927l0.899,0.185v26.454
		L79.073,56.663z M55.234,22.584l22.925,4.556v2.396v0.203v27.022L55.504,59.2v1.253l22.756-2.716v16.619l-23.026,7.358V22.584z
		 M98.984,67.733l-18.083,5.779v-16.09l18.015-2.15v-0.745l-18.015,1.939V30.304V29.41v-1.726l18.114,3.6L98.984,67.733z"></path>
	<polygon fill="#BC4512" points="98.916,32.854 55.504,25.134 55.504,26.386 98.916,33.599 	"></polygon>
	<polygon fill="#BC4512" points="5.048,59.437 53.269,59.403 53.269,61.841 5.048,61.198 	"></polygon>
</g>
<g id="hlight">

		<path fill="#E6E6E6" d="M6.674,26.928l0.135,3.251l4.436,19.63l0.028-7.202c-0.486-0.282-1.281-0.169-1.281-0.169v-1.422h1.287
			l0.033-8.534l2.743,0.406v25.194l-0.911,0.13l0.275,1.219l5.517-0.004l8.245-28l1.648-0.164l7.207,28.152l6.342-0.004
			l10.62-34.074v-2.506L6.674,26.928z"></path>
		<polygon fill="#E6E6E6" points="36.6,61.619 37.151,63.771 40.988,63.873 41.669,61.686 		"></polygon>
		<polygon fill="#E6E6E6" points="13.845,61.315 14.299,63.322 17.79,63.322 18.363,61.375 		"></polygon>

	<path fill="#E6E6E6" d="M65.155,68.444c0,0-1.422,0.914-1.619,2.153l-1.226-0.223c0,0,0.203-1.422,1.625-2.337L65.155,68.444z"></path>
	<path fill="#E6E6E6" d="M68.711,68.647c0,0-1.355-1.219-2.167-1.219c-0.271-0.406-0.474-1.287-0.474-1.287l-2.1-0.203l2.133,0.372
		l0.305,1.456C66.408,67.767,66.408,67.293,68.711,68.647z"></path>
	<path fill="#E6E6E6" d="M60.584,71.594c0.371-0.583,0.852-0.641,1.228-0.563l1.524,0.203c-0.376-0.078-0.857-0.02-1.228,0.563
		L60.584,71.594z"></path>
	<path fill="#E6E6E6" d="M9.992,42.438v-1.422h1.287l0.033-8.534l-11.48,0.813v24.991l11.378,0.203l0.062-15.882
		C10.787,42.324,9.992,42.438,9.992,42.438z"></path>
</g>
<g id="light">
	<path fill="#947365" d="M40.72,67.348c-0.299,0-0.56-0.22-0.603-0.525c-0.047-0.333,0.186-0.641,0.52-0.688l5.234-0.732
		c0.326-0.045,0.641,0.185,0.688,0.52c0.047,0.333-0.186,0.641-0.52,0.688l-5.234,0.732C40.776,67.346,40.748,67.348,40.72,67.348z"></path>
	<path fill="#947365" d="M74.095,69.765c-0.004,0-0.009,0-0.013,0l-7.416-0.305c-0.168-0.007-0.299-0.149-0.292-0.317
		c0.007-0.164,0.142-0.292,0.305-0.292c0.004,0,0.008,0,0.013,0l7.099,0.292v-5.98c0-0.12,0.071-0.229,0.181-0.278l0.914-0.406
		c0.151-0.067,0.333,0,0.402,0.154c0.068,0.154-0.001,0.334-0.154,0.402l-0.733,0.326v6.1c0,0.083-0.034,0.162-0.094,0.22
		C74.249,69.734,74.173,69.765,74.095,69.765z"></path>
	<path fill="#947365" d="M16.832,58.759c-0.034,0.013-0.065,0.033-0.102,0.033c-0.028,0-0.058-0.004-0.087-0.013
		c-0.161-0.048-0.253-0.217-0.205-0.379l0.394-1.329v-2.071c0-0.365,0.126-0.984,0.269-1.323l0.789-1.856
		c0.205-0.486,0.365-1.276,0.365-1.799v-5.107l-0.264,0.005c-0.003,0-0.006,0-0.008,0c-0.221,0-0.402-0.177-0.406-0.398
		c-0.004-0.225,0.175-0.41,0.398-0.414l0.279-0.005v-4.026l-0.264,0.005c-0.002,0-0.005,0-0.008,0c-0.221,0-0.401-0.177-0.406-0.398
		c-0.005-0.224,0.174-0.409,0.398-0.414l0.279-0.006v-3.475l-0.263,0.006c-0.22,0.02-0.41-0.173-0.415-0.397s0.173-0.41,0.397-0.415
		l0.28-0.006v-3.38l-0.263,0.006c-0.22,0.001-0.41-0.173-0.415-0.397c-0.005-0.224,0.173-0.41,0.397-0.415l0.28-0.006v-0.298
		c0-0.337-0.272-0.609-0.609-0.609s-0.609,0.272-0.609,0.609v0.333c0.161,0.058,0.275,0.209,0.271,0.388
		c-0.004,0.166-0.131,0.306-0.271,0.365v3.44c0.16,0.058,0.275,0.209,0.271,0.389c-0.005,0.174-0.112,0.317-0.271,0.37v3.528
		c0.161,0.058,0.275,0.209,0.271,0.388c-0.004,0.166-0.131,0.3-0.271,0.361v4.089c0.161,0.058,0.275,0.209,0.271,0.389
		c-0.005,0.174-0.112,0.31-0.271,0.366v5.131c0,0.365-0.126,0.984-0.269,1.323l-0.789,1.856c-0.205,0.486-0.365,1.276-0.365,1.799
		v1.712l0.366,1.712c0.035,0.164-0.069,0.326-0.234,0.361c-0.021,0.005-0.043,0.007-0.063,0.007c-0.025,0-0.044-0.018-0.068-0.024
		v0.66l1.219-0.001V58.759z"></path>
	<path fill="#947365" d="M15.613,64.72c0,0.382,0.158,0.747,0.435,1.001c0.248,0.229,0.579,0.355,0.921,0.355
		c0.038,0,0.077-0.002,0.116-0.005l3.998-0.338c0.335-0.028,0.584-0.323,0.556-0.659c-0.029-0.335-0.327-0.567-0.659-0.556
		l-3.997,0.338c-0.053-0.002-0.091-0.015-0.109-0.032s-0.041-0.05-0.041-0.104v-3.365l-1.219-0.016V64.72z"></path>
	<path fill="#947365" d="M20.228,31.552c0.35,0.001,0.895,0.189,1.154,0.413l1.206,1.039c0.306,0.264,0.768,0.539,1.16,0.707
		l0.232-0.783c-0.295-0.138-0.644-0.352-0.86-0.539l-1.207-1.04c-0.412-0.354-1.15-0.615-1.702-0.609l-1.955,0.044v0.813
		L20.228,31.552z"></path>
	<path fill="#947365" d="M24.708,34.022c0.039,0.012,0.078,0.017,0.116,0.017c0.132,0,0.24-0.079,0.316-0.186l0.083-0.28
		c-0.023-0.151-0.127-0.283-0.283-0.33l-0.385-0.115l-0.231,0.779L24.708,34.022z"></path>
	<path fill="#947365" d="M17.577,31.204c0.005,0.225,0.195,0.398,0.415,0.397l0.263-0.006v-0.813l-0.28,0.006
		C17.75,30.794,17.572,30.98,17.577,31.204z"></path>
	<path fill="#947365" d="M23.441,36.892l-0.234,0.792c0.122,0.057,0.239,0.104,0.34,0.134l0.386,0.116l0.231-0.78l-0.383-0.115
		C23.687,37.011,23.567,36.956,23.441,36.892z"></path>
	<path fill="#947365" d="M24.672,37.73c0.018-0.06,0.018-0.12,0.009-0.178l-0.084,0.284C24.622,37.801,24.659,37.775,24.672,37.73z"></path>
	<path fill="#947365" d="M21.17,36.164l0.994,0.856c0.142,0.122,0.317,0.243,0.498,0.358l0.241-0.814
		c-0.074-0.053-0.148-0.107-0.208-0.159L21.7,35.548c-0.412-0.354-1.159-0.611-1.702-0.61l-1.743,0.039v0.813l1.761-0.039
		C20.361,35.749,20.909,35.939,21.17,36.164z"></path>
	<path fill="#947365" d="M17.975,34.982c-0.225,0.005-0.402,0.19-0.397,0.415s0.195,0.417,0.415,0.397l0.263-0.006v-0.813
		L17.975,34.982z"></path>
	<path fill="#947365" d="M22.309,40.716l-0.235,0.794c0.094,0.045,0.186,0.086,0.267,0.11l0.46,0.138l0.231-0.779l-0.457-0.137
		C22.512,40.823,22.415,40.775,22.309,40.716z"></path>
	<path fill="#947365" d="M20.641,40.468l0.464,0.398c0.12,0.104,0.271,0.215,0.429,0.323l0.245-0.826
		c-0.049-0.038-0.099-0.074-0.144-0.113l-0.464-0.398c-0.412-0.355-1.189-0.604-1.702-0.612l-1.214,0.025v0.813l1.23-0.025
		C19.836,40.056,20.379,40.242,20.641,40.468z"></path>
	<path fill="#947365" d="M17.976,39.269c-0.225,0.005-0.403,0.19-0.398,0.414c0.005,0.222,0.186,0.398,0.406,0.398
		c0.003,0,0.006,0,0.008,0l0.264-0.005v-0.813L17.976,39.269z"></path>
	<path fill="#947365" d="M21.486,45.241c-0.057-0.017-0.231-0.119-0.438-0.265l-0.241,0.815c0.162,0.102,0.321,0.192,0.445,0.229
		l0.264,0.079l0.231-0.779L21.486,45.241z"></path>
	<path fill="#947365" d="M20.157,45.312c0.035,0.03,0.083,0.068,0.126,0.102l0.245-0.826c-0.423-0.295-1.048-0.515-1.535-0.499
		l-0.737,0.013v0.813l0.753-0.014C19.347,44.909,19.898,45.091,20.157,45.312z"></path>
	<path fill="#947365" d="M17.976,44.107c-0.224,0.004-0.402,0.189-0.398,0.414c0.004,0.222,0.186,0.398,0.406,0.398
		c0.002,0,0.005,0,0.008,0l0.264-0.005v-0.813L17.976,44.107z"></path>
	<path fill="#947365" d="M17.307,31.206c0.005-0.179-0.11-0.33-0.271-0.388v0.753C17.175,31.512,17.302,31.372,17.307,31.206z"></path>
	<path fill="#947365" d="M17.307,35.4c0.005-0.18-0.11-0.331-0.271-0.389v0.759C17.195,35.717,17.302,35.574,17.307,35.4z"></path>
	<path fill="#947365" d="M17.307,39.686c0.005-0.179-0.11-0.33-0.271-0.388v0.749C17.175,39.987,17.302,39.853,17.307,39.686z"></path>
	<path fill="#947365" d="M17.307,44.525c0.005-0.18-0.11-0.331-0.271-0.389v0.755C17.195,44.836,17.302,44.7,17.307,44.525z"></path>
	<path fill="#947365" d="M23.441,36.892l0.883-2.985l-0.296-0.089c-0.085-0.025-0.183-0.066-0.282-0.108l-0.845,2.854
		C23.072,36.686,23.262,36.8,23.441,36.892z"></path>
	<path fill="#947365" d="M24.556,33.128l0.526-1.778c0.048-0.162-0.044-0.331-0.205-0.379c-0.164-0.049-0.331,0.045-0.379,0.205
		l-0.518,1.752c0.104,0.048,0.201,0.088,0.283,0.113L24.556,33.128z"></path>
	<path fill="#947365" d="M21.534,41.189l-1.006,3.399c0.053,0.037,0.115,0.07,0.16,0.109c0.124,0.107,0.246,0.198,0.361,0.279
		l1.026-3.466C21.899,41.425,21.713,41.312,21.534,41.189z"></path>
	<path fill="#947365" d="M16.832,57.072v1.688c0.086-0.032,0.162-0.09,0.19-0.184l3.785-12.784
		c-0.188-0.119-0.371-0.253-0.524-0.376L16.832,57.072z"></path>
	<path fill="#947365" d="M23.207,37.683c-0.176-0.082-0.363-0.19-0.545-0.305l-0.883,2.984c0.178,0.138,0.367,0.263,0.531,0.353
		L23.207,37.683z"></path>
	<path fill="#947365" d="M16.438,58.401c-0.048,0.162,0.044,0.331,0.205,0.379c0.029,0.009,0.059,0.013,0.087,0.013
		c0.037,0,0.068-0.021,0.102-0.033v-1.688L16.438,58.401z"></path>
	<path fill="#947365" d="M24.029,33.818l0.296,0.089l0.231-0.779l-0.293-0.088c-0.082-0.025-0.18-0.064-0.283-0.113l-0.232,0.783
		C23.846,33.752,23.944,33.793,24.029,33.818z"></path>
	<path fill="#947365" d="M23.441,36.892c-0.179-0.092-0.369-0.206-0.539-0.328l-0.241,0.814c0.182,0.115,0.369,0.223,0.545,0.305
		L23.441,36.892z"></path>
	<path fill="#947365" d="M22.309,40.716c-0.164-0.09-0.353-0.215-0.531-0.353l-0.245,0.826c0.179,0.122,0.365,0.236,0.541,0.321
		L22.309,40.716z"></path>
	<path fill="#947365" d="M20.688,44.697c-0.045-0.039-0.107-0.072-0.16-0.109l-0.245,0.826c0.153,0.124,0.336,0.258,0.524,0.376
		l0.241-0.815C20.934,44.895,20.812,44.804,20.688,44.697z"></path>
	<path fill="#947365" d="M25.214,33.749c-0.013,0.043-0.049,0.069-0.073,0.104l-0.977,3.301l0.235,0.071
		c0.155,0.047,0.259,0.178,0.282,0.328l1.756-5.932c0.048-0.162-0.044-0.331-0.205-0.379c-0.166-0.05-0.331,0.045-0.379,0.205
		l-0.629,2.126C25.232,33.63,25.231,33.69,25.214,33.749z"></path>
	<path fill="#947365" d="M24.282,38.02c-0.038,0-0.077-0.005-0.116-0.017l-0.233-0.07l-0.901,3.045l0.015,0.004
		c0.215,0.065,0.336,0.292,0.271,0.507c-0.053,0.176-0.214,0.288-0.389,0.288c-0.039,0-0.079-0.006-0.118-0.018l-0.009-0.003
		l-1.054,3.561l0.078,0.023c0.215,0.063,0.338,0.289,0.274,0.505c-0.052,0.177-0.214,0.291-0.39,0.291
		c-0.038,0-0.076-0.005-0.115-0.017l-0.078-0.023l-3.722,12.574c-0.048,0.162,0.044,0.331,0.205,0.379
		c0.029,0.009,0.059,0.013,0.087,0.013c0.132,0,0.253-0.086,0.292-0.218l6.219-21.01C24.521,37.943,24.413,38.02,24.282,38.02z"></path>
	<path fill="#947365" d="M25.214,33.749c0.018-0.059,0.018-0.119,0.009-0.176l-0.083,0.28
		C25.165,33.818,25.201,33.792,25.214,33.749z"></path>
	<path fill="#947365" d="M24.398,37.225l-0.235-0.071l-0.231,0.78l0.233,0.07c0.039,0.012,0.078,0.017,0.116,0.017
		c0.131,0,0.238-0.078,0.314-0.184l0.084-0.284C24.657,37.403,24.553,37.271,24.398,37.225z"></path>
	<path fill="#947365" d="M22.81,41.761c0.039,0.012,0.079,0.018,0.118,0.018c0.175,0,0.336-0.112,0.389-0.288
		c0.065-0.215-0.056-0.441-0.271-0.507l-0.015-0.004l-0.231,0.779L22.81,41.761z"></path>
	<path fill="#947365" d="M21.709,46.139c0.176,0,0.338-0.114,0.39-0.291c0.063-0.216-0.06-0.441-0.274-0.505l-0.078-0.023
		l-0.231,0.779l0.078,0.023C21.633,46.134,21.671,46.139,21.709,46.139z"></path>
	<path fill="#947365" d="M15.745,58.786c0.165-0.035,0.27-0.197,0.234-0.361l-0.366-1.712v2.056
		c0.024,0.006,0.043,0.024,0.068,0.024C15.702,58.793,15.724,58.791,15.745,58.786z"></path>
	<path fill="#947365" d="M38.063,61.638v4.543c0,0.388,0.161,0.753,0.443,1.002c0.239,0.211,0.552,0.325,0.876,0.325
		c0.057,0,0.114-0.003,0.172-0.011l1.242-0.155c0.334-0.041,0.571-0.346,0.529-0.68c-0.041-0.334-0.35-0.582-0.68-0.529
		l-1.242,0.155c-0.001,0-0.122-0.107-0.122-0.107v-4.527L38.063,61.638z"></path>
	<path fill="#947365" d="M39.092,34.672v4.112c0.069,0.075,0.111,0.176,0.108,0.287c-0.003,0.102-0.045,0.19-0.108,0.258v4.607
		c0.126,0.071,0.213,0.203,0.21,0.359c-0.003,0.153-0.083,0.277-0.21,0.344v5.665c0,0.387-0.094,1.054-0.199,1.429l-0.584,2.058
		c-0.139,0.485-0.246,1.259-0.246,1.761v2.493l0.32,1.267c0.009,0.036-0.011,0.068-0.015,0.103l0.573,0
		c-0.004-0.039-0.024-0.075-0.012-0.115l0.353-1.191v-2.556c0-0.387,0.094-1.053,0.199-1.428l0.584-2.058
		c0.139-0.485,0.246-1.26,0.246-1.762V44.59c-0.084-0.073-0.14-0.176-0.143-0.296c-0.002-0.125,0.055-0.234,0.143-0.31v-4.621
		c-0.084-0.073-0.14-0.176-0.143-0.296c-0.003-0.125,0.055-0.233,0.143-0.31v-4.023c-0.084-0.073-0.14-0.178-0.143-0.298
		c-0.003-0.125,0.055-0.235,0.143-0.311v-3.928c-0.084-0.071-0.14-0.172-0.143-0.292c-0.003-0.125,0.055-0.235,0.143-0.311V29.13
		c0-0.337-0.272-0.609-0.609-0.609s-0.609,0.272-0.609,0.609v0.493c0.069,0.075,0.111,0.176,0.108,0.287
		c-0.003,0.102-0.045,0.189-0.108,0.256v3.987c0.069,0.075,0.111,0.176,0.108,0.286C39.198,34.531,39.152,34.608,39.092,34.672z"></path>
	<path fill="#947365" d="M40.583,30.304l2.48-0.055c0.365-0.002,0.894,0.188,1.154,0.413l1.402,1.208
		c0.308,0.266,0.794,0.55,1.213,0.724l0.231-0.781c-0.32-0.144-0.693-0.368-0.914-0.559l-1.402-1.208
		c-0.411-0.354-1.15-0.618-1.702-0.61l-2.48,0.055c-0.099,0.002-0.186,0.044-0.255,0.104v0.603
		C40.384,30.26,40.478,30.301,40.583,30.304z"></path>
	<path fill="#947365" d="M47.848,32.921c0.039,0.012,0.078,0.018,0.117,0.018c0.175,0,0.336-0.113,0.389-0.289
		c0.065-0.215-0.057-0.441-0.271-0.506l-0.441-0.132l-0.231,0.779L47.848,32.921z"></path>
	<path fill="#947365" d="M40.168,29.906c0.003,0.12,0.059,0.22,0.143,0.292v-0.603C40.223,29.672,40.165,29.781,40.168,29.906z"></path>
	<path fill="#947365" d="M46.595,37.022l0.44,0.131l0.231-0.779l-0.437-0.131c-0.109-0.033-0.247-0.097-0.39-0.169l-0.234,0.792
		C46.344,36.931,46.478,36.987,46.595,37.022z"></path>
	<path fill="#947365" d="M42.834,34.785c0.335-0.001,0.89,0.186,1.155,0.414l1.172,1.01c0.139,0.12,0.315,0.24,0.497,0.355
		l0.241-0.813c-0.075-0.053-0.148-0.106-0.208-0.157l-1.172-1.01c-0.412-0.355-1.151-0.626-1.703-0.611l-2.251,0.049
		c-0.099,0.002-0.186,0.044-0.255,0.104v0.609c0.074,0.064,0.168,0.104,0.272,0.099L42.834,34.785z"></path>
	<path fill="#947365" d="M47.768,36.95c0.017-0.057,0.02-0.114,0.013-0.17l-0.077,0.261C47.724,37.01,47.756,36.988,47.768,36.95z"></path>
	<path fill="#947365" d="M40.168,34.436c0.003,0.12,0.059,0.225,0.143,0.298v-0.609C40.223,34.202,40.165,34.311,40.168,34.436z"></path>
	<path fill="#947365" d="M45.523,40.35c-0.073-0.022-0.186-0.077-0.308-0.144l-0.236,0.796c0.11,0.054,0.215,0.098,0.31,0.126
		l0.509,0.153c0.004,0.001,0.009,0.001,0.013,0.002l0.229-0.775c-0.003-0.001-0.005-0.003-0.008-0.004L45.523,40.35z"></path>
	<path fill="#947365" d="M40.582,39.466l1.679-0.034c0.373,0.004,0.892,0.188,1.155,0.415l0.602,0.519
		c0.117,0.1,0.266,0.209,0.422,0.315l0.244-0.825c-0.046-0.035-0.094-0.07-0.136-0.106l-0.601-0.518
		c-0.411-0.354-1.2-0.626-1.702-0.612l-1.679,0.034c-0.099,0.002-0.186,0.044-0.256,0.104v0.606
		c0.071,0.062,0.162,0.103,0.264,0.103C40.577,39.466,40.58,39.466,40.582,39.466z"></path>
	<path fill="#947365" d="M40.168,39.067c0.003,0.12,0.059,0.223,0.143,0.296v-0.606C40.223,38.834,40.165,38.943,40.168,39.067z"></path>
	<path fill="#947365" d="M43.854,44.807l-0.242,0.818c0.187,0.119,0.368,0.218,0.505,0.259l0.307,0.092l0.231-0.78l-0.304-0.09
		C44.275,45.083,44.075,44.964,43.854,44.807z"></path>
	<path fill="#947365" d="M40.582,44.692l1.162-0.021c0.353-0.003,0.891,0.188,1.156,0.417l0.085,0.073
		c0.031,0.027,0.07,0.055,0.103,0.083l0.247-0.836c-0.424-0.318-1.107-0.548-1.607-0.55l-1.163,0.021
		c-0.099,0.002-0.186,0.043-0.256,0.104v0.606c0.071,0.062,0.162,0.102,0.264,0.102C40.576,44.692,40.579,44.692,40.582,44.692z"></path>
	<path fill="#947365" d="M40.168,44.294c0.002,0.12,0.059,0.223,0.143,0.296v-0.606C40.223,44.06,40.166,44.169,40.168,44.294z"></path>
	<path fill="#947365" d="M38.806,29.491l-1.822-0.051c-0.561-0.004-1.293,0.252-1.705,0.606l-1.402,1.208
		c-0.291,0.252-0.852,0.564-1.198,0.668l-0.733,0.221c-0.214,0.064-0.336,0.292-0.271,0.507c0.053,0.175,0.214,0.288,0.389,0.288
		c0.039,0,0.078-0.006,0.118-0.018l0.73-0.219c0.459-0.139,1.116-0.504,1.496-0.832l1.401-1.207c0.261-0.224,0.84-0.401,1.152-0.41
		l1.821,0.051c0.126-0.005,0.234-0.058,0.31-0.138v-0.543C39.02,29.545,38.919,29.494,38.806,29.491z"></path>
	<path fill="#947365" d="M39.092,29.623v0.543c0.063-0.068,0.106-0.154,0.108-0.256C39.203,29.799,39.161,29.698,39.092,29.623z"></path>
	<path fill="#947365" d="M33.434,37.021c0.422-0.126,1.051-0.483,1.431-0.813l1.175-1.01c0.26-0.225,0.811-0.408,1.151-0.409
		l1.593,0.044c0.104-0.006,0.223-0.069,0.309-0.161v-0.52c-0.072-0.078-0.173-0.128-0.287-0.131l-1.592-0.044
		c-0.552,0.009-1.292,0.251-1.704,0.606l-1.175,1.01c-0.292,0.252-0.822,0.556-1.134,0.649l-0.604,0.181l0.199,0.788L33.434,37.021z
		"></path>
	<path fill="#947365" d="M39.2,34.438c0.003-0.11-0.039-0.21-0.108-0.286v0.52C39.152,34.608,39.198,34.531,39.2,34.438z"></path>
	<path fill="#947365" d="M34.111,41.299c0.039,0,0.078-0.006,0.117-0.018l0.508-0.152c0.384-0.115,0.942-0.479,1.274-0.765
		l0.601-0.518c0.259-0.224,0.782-0.408,1.151-0.409l1.02,0.028c0.126-0.001,0.234-0.054,0.31-0.136v-0.545
		c-0.072-0.078-0.172-0.128-0.286-0.131l-1.02-0.028c-0.553,0.007-1.293,0.251-1.706,0.606l-0.6,0.517
		c-0.326,0.28-0.776,0.542-0.978,0.603l-0.509,0.153c-0.156,0.047-0.261,0.18-0.283,0.331l0.063,0.247
		C33.846,41.209,33.967,41.299,34.111,41.299z"></path>
	<path fill="#947365" d="M39.2,39.071c0.003-0.11-0.039-0.211-0.108-0.287v0.545C39.155,39.261,39.198,39.173,39.2,39.071z"></path>
	<path fill="#947365" d="M35.342,45.993l0.366-0.11c0.295-0.089,0.792-0.43,1.131-0.722l0.085-0.073
		c0.261-0.225,0.845-0.412,1.152-0.413l0.811,0.018c0.08,0,0.146-0.022,0.205-0.053v-0.703c-0.056-0.032-0.118-0.055-0.188-0.056
		l-0.81-0.018c-0.569-0.003-1.29,0.255-1.702,0.61l-0.085,0.073c-0.33,0.284-0.721,0.525-0.834,0.56l-0.364,0.108
		c-0.107,0.032-0.192,0.105-0.241,0.196l0.133,0.526c0.066,0.044,0.142,0.074,0.224,0.074C35.264,46.01,35.303,46.005,35.342,45.993
		z"></path>
	<path fill="#947365" d="M39.302,44.295c0.003-0.155-0.084-0.287-0.21-0.359v0.703C39.219,44.572,39.298,44.448,39.302,44.295z"></path>
	<path fill="#947365" d="M47.641,32.011l0.578-1.954c0.048-0.162-0.044-0.331-0.205-0.379c-0.165-0.05-0.332,0.045-0.379,0.205
		l-0.571,1.93c0.103,0.046,0.201,0.085,0.285,0.11L47.641,32.011z"></path>
	<path fill="#947365" d="M43.517,44.546c0.111,0.096,0.226,0.182,0.337,0.261l1.126-3.805c-0.178-0.087-0.364-0.202-0.54-0.322
		l-1.104,3.728c0.03,0.022,0.069,0.041,0.095,0.064L43.517,44.546z"></path>
	<path fill="#947365" d="M45.216,40.205l0.988-3.339c-0.18-0.084-0.366-0.189-0.546-0.303l-0.974,3.291
		C44.861,39.992,45.048,40.113,45.216,40.205z"></path>
	<path fill="#947365" d="M39.53,59.412l4.081-13.788c-0.18-0.115-0.36-0.248-0.523-0.381l-3.808,12.863v1.306L39.53,59.412z"></path>
	<path fill="#947365" d="M46.833,32.594l-0.934,3.156c0.167,0.118,0.356,0.23,0.539,0.324l0.972-3.284l-0.295-0.088
		C47.029,32.676,46.931,32.635,46.833,32.594z"></path>
	<path fill="#947365" d="M39.281,58.107l-0.353,1.191c-0.012,0.04,0.008,0.076,0.012,0.115l0.341,0V58.107z"></path>
	<path fill="#947365" d="M47.116,32.702l0.295,0.088l0.231-0.779l-0.292-0.088c-0.085-0.025-0.182-0.064-0.285-0.11l-0.231,0.781
		C46.931,32.635,47.029,32.676,47.116,32.702z"></path>
	<path fill="#947365" d="M45.658,36.564c0.18,0.113,0.366,0.218,0.546,0.303l0.234-0.792c-0.184-0.094-0.373-0.206-0.539-0.324
		L45.658,36.564z"></path>
	<path fill="#947365" d="M45.216,40.205c-0.168-0.092-0.355-0.214-0.532-0.35L44.44,40.68c0.176,0.12,0.362,0.235,0.54,0.322
		L45.216,40.205z"></path>
	<path fill="#947365" d="M43.517,44.546l-0.085-0.073c-0.027-0.023-0.066-0.042-0.095-0.064l-0.247,0.836
		c0.162,0.133,0.343,0.266,0.523,0.381l0.242-0.818C43.742,44.728,43.627,44.641,43.517,44.546z"></path>
	<path fill="#947365" d="M47.78,36.781l1.903-6.43c0.048-0.162-0.044-0.331-0.205-0.379c-0.165-0.05-0.332,0.045-0.379,0.205
		l-1.835,6.198l0.231,0.069C47.654,36.492,47.76,36.627,47.78,36.781z"></path>
	<path fill="#947365" d="M47.379,37.239c-0.039,0-0.078-0.006-0.117-0.018l-0.227-0.068l-0.993,3.354
		c0.209,0.068,0.328,0.29,0.263,0.502c-0.053,0.176-0.214,0.289-0.389,0.289c-0.035,0-0.069-0.006-0.104-0.016l-1.158,3.913
		l0.061,0.018c0.215,0.064,0.337,0.29,0.273,0.506c-0.053,0.176-0.215,0.29-0.39,0.29c-0.038,0-0.077-0.005-0.116-0.017
		l-0.059-0.018l-3.977,13.437l0.636,0l6.622-22.37C47.628,37.156,47.516,37.239,47.379,37.239z"></path>
	<path fill="#947365" d="M47.262,37.222c0.039,0.012,0.078,0.018,0.117,0.018c0.137,0,0.249-0.083,0.324-0.197l0.077-0.261
		c-0.02-0.154-0.126-0.289-0.284-0.336l-0.231-0.069l-0.231,0.779L47.262,37.222z"></path>
	<path fill="#947365" d="M45.916,41.299c0.175,0,0.336-0.113,0.389-0.289c0.065-0.212-0.054-0.433-0.263-0.502l-0.229,0.775
		C45.847,41.292,45.881,41.299,45.916,41.299z"></path>
	<path fill="#947365" d="M44.482,45.993c0.039,0.012,0.078,0.017,0.116,0.017c0.175,0,0.337-0.114,0.39-0.29
		c0.063-0.216-0.059-0.441-0.273-0.506l-0.061-0.018l-0.231,0.78L44.482,45.993z"></path>
	<path fill="#947365" d="M38.063,58.044l-3.061-12.108c-0.076-0.051-0.137-0.122-0.165-0.216c-0.032-0.108-0.017-0.218,0.032-0.31
		l-1.094-4.327c-0.015-0.026-0.042-0.042-0.051-0.073c-0.018-0.059-0.019-0.118-0.011-0.174l-0.916-3.622l-0.029,0.009
		c-0.04,0.012-0.079,0.018-0.118,0.018c-0.175,0-0.336-0.113-0.389-0.288c-0.065-0.215,0.056-0.442,0.271-0.507l0.066-0.02
		l-1.522-6.02c-0.042-0.163-0.211-0.262-0.37-0.222c-0.164,0.042-0.263,0.207-0.222,0.37l7.297,28.861l0.283,0V58.044z"></path>
	<path fill="#947365" d="M38.063,58.044v1.37l0.305,0c0.004-0.035,0.024-0.067,0.015-0.103L38.063,58.044z"></path>
	<path fill="#947365" d="M32.26,36.951c0.053,0.175,0.214,0.288,0.389,0.288c0.039,0,0.078-0.006,0.118-0.018l0.029-0.009
		l-0.199-0.788l-0.066,0.02C32.315,36.509,32.194,36.736,32.26,36.951z"></path>
	<path fill="#947365" d="M33.723,41.01c0.009,0.03,0.036,0.046,0.051,0.073l-0.063-0.247C33.703,40.892,33.705,40.951,33.723,41.01z
		"></path>
	<path fill="#947365" d="M34.836,45.72c0.028,0.094,0.09,0.166,0.165,0.216l-0.133-0.526C34.819,45.501,34.804,45.612,34.836,45.72z
		"></path>
	<path fill="#947365" d="M29.611,30.697c-0.041-0.164-0.211-0.262-0.37-0.222c-0.164,0.042-0.263,0.207-0.222,0.37l7.222,28.569
		l0.629,0L29.611,30.697z"></path>
	<path fill="#947365" d="M39.513,59.472l0.018-0.059l-0.249,0v0.257C39.386,59.646,39.48,59.581,39.513,59.472z"></path>
	<path fill="#947365" d="M38.941,59.413c0.013,0.119,0.072,0.228,0.193,0.264c0.029,0.009,0.059,0.013,0.087,0.013
		c0.022,0,0.039-0.015,0.061-0.02v-0.257L38.941,59.413z"></path>
	<path fill="#947365" d="M38.063,59.681v-0.268l-0.283,0l0.011,0.045C37.824,59.588,37.937,59.67,38.063,59.681z"></path>
	<path fill="#947365" d="M38.063,59.681c0.009,0.001,0.015,0.008,0.024,0.008c0.024,0,0.05-0.003,0.074-0.009
		c0.127-0.033,0.193-0.145,0.207-0.267l-0.305,0V59.681z"></path>
	<path fill="#947365" d="M44.427,71.414l2.084-0.332c0.166-0.026,0.279-0.183,0.253-0.349s-0.177-0.281-0.349-0.253l-4.47,0.711
		c-0.151,0.023-0.262,0.157-0.257,0.311s0.123,0.279,0.276,0.294l10.729,1.003v-0.613L44.427,71.414z"></path>
	<path fill="#947365" d="M57.236,64.498l-1.22,0.406c-0.124,0.041-0.208,0.158-0.208,0.289v7.284l-0.575-0.054v0.613l0.851,0.08
		c0.01,0.001,0.019,0.001,0.028,0.001c0.075,0,0.148-0.028,0.205-0.079c0.063-0.058,0.1-0.14,0.1-0.226v-7.399l1.012-0.337
		c0.159-0.053,0.246-0.226,0.192-0.386C57.569,64.531,57.396,64.444,57.236,64.498z"></path>
	<path fill="#947365" d="M88.08,57.338c-0.337,0-0.609,0.272-0.609,0.609v2.627l-6.569-0.146v1.219l7.165,0.159
		c0.005,0,0.009,0,0.014,0c0.159,0,0.313-0.063,0.426-0.174c0.117-0.114,0.184-0.271,0.184-0.436v-3.25
		C88.689,57.61,88.417,57.338,88.08,57.338z"></path>
	<path fill="#947365" d="M16.911,30.789l-1.625-0.045c-0.553,0.001-1.292,0.25-1.704,0.605l-1.208,1.039
		c-0.07,0.06-0.154,0.123-0.245,0.185l1.088,0.161l0.896-0.77c0.253-0.218,0.781-0.408,1.126-0.408c0.008,0,0.017,0,0.025,0
		l1.626,0.045c0.047,0.002,0.098-0.01,0.146-0.03v-0.753C16.996,30.803,16.956,30.79,16.911,30.789z"></path>
	<path fill="#947365" d="M15.497,34.942c-0.399-0.006-0.897,0.132-1.298,0.342v0.987l0.124-0.107c0.261-0.224,0.792-0.41,1.151-0.41
		l1.414,0.04c0.053,0.002,0.102-0.009,0.147-0.024v-0.759c-0.039-0.014-0.08-0.028-0.124-0.029L15.497,34.942z"></path>
	<path fill="#947365" d="M16.028,39.245c-0.549,0.011-1.293,0.251-1.706,0.606l-0.123,0.106v1.059
		c0.066-0.051,0.135-0.103,0.191-0.151l0.464-0.399c0.253-0.219,0.782-0.409,1.127-0.409c0.008,0,0.017,0,0.025,0l0.884,0.024
		c0.047-0.001,0.098-0.014,0.146-0.035v-0.749c-0.04-0.014-0.08-0.028-0.125-0.029L16.028,39.245z"></path>
	<path fill="#947365" d="M16.303,44.091c-0.401-0.007-1.08,0.247-1.496,0.606c-0.225,0.193-0.448,0.346-0.608,0.442v0.894
		l0.04-0.012c0.309-0.093,0.825-0.474,1.097-0.708c0.281-0.241,0.729-0.402,0.944-0.409l0.608,0.017
		c0.053-0.001,0.102-0.013,0.147-0.029v-0.755c-0.039-0.014-0.08-0.028-0.124-0.029L16.303,44.091z"></path>
	<path fill="#947365" d="M10.154,31.199c-0.034-0.164-0.192-0.274-0.361-0.234C9.628,31,9.523,31.162,9.559,31.326l0.271,1.264
		l0.614-0.043L10.154,31.199z"></path>
	<path fill="#947365" d="M14.199,53.013l1.185,5.538c0.025,0.118,0.12,0.19,0.229,0.217v-2.056l-1.414-6.611V53.013z"></path>
	<path fill="#947365" d="M8.8,31.471c-0.034-0.164-0.192-0.273-0.361-0.234c-0.165,0.035-0.27,0.197-0.234,0.361l0.234,1.091
		l0.614-0.043L8.8,31.471z"></path>
	<path fill="#947365" d="M13.87,58.08l0.159,0.744c0.03,0.144,0.157,0.241,0.298,0.241c0.021,0,0.042-0.002,0.063-0.007
		c0.165-0.035,0.27-0.197,0.234-0.361l-0.426-1.992v1.328L13.87,58.08z"></path>
</g>
<g id="shadow">
	<path fill="#000000" d="M28.704,22.594l-0.613-1.983c-8.085-1.2-13.221,0.976-13.221,0.976l-0.494,2.306L28.704,22.594z M22.284,20.697
		c2.438-0.203,5.892,0.508,5.892,0.508c-0.61-0.203-5.892,0.102-5.892,0.102V20.697z M22.284,21.713
		c2.438-0.203,5.892,0.508,5.892,0.508c-0.61-0.203-5.892,0.102-5.892,0.102V21.713z M21.269,20.697v0.61
		c0,0-5.283,0.609-5.892,0.813C15.376,22.12,18.83,20.494,21.269,20.697z M21.269,21.713v0.61c0,0-5.283,0.61-5.892,0.813
		C15.376,23.136,18.83,21.51,21.269,21.713z"></path>
	<path fill="#000000" d="M49.83,20.677l-0.57-1.743c-8.929-1.133-14.53,1.112-14.53,1.112l-0.463,2.044L49.83,20.677z M42.816,19.128
		c2.659-0.21,6.427,0.524,6.427,0.524c-0.665-0.21-6.427,0.105-6.427,0.105V19.128z M42.816,20.175
		c2.659-0.21,6.427,0.524,6.427,0.524c-0.665-0.21-6.427,0.105-6.427,0.105V20.175z M41.708,19.128v0.629
		c0,0-5.762,0.629-6.427,0.838C35.282,20.594,39.049,18.918,41.708,19.128z M41.708,20.175v0.629c0,0-5.762,0.629-6.427,0.838
		C35.282,21.642,39.049,19.966,41.708,20.175z"></path>
	<g>
		<path d="M67.454,23.25c-0.514-0.15-1.798-0.421-2.975-0.658L67.454,23.25z"></path>
		<path d="M58.859,21.348c0.793-0.019,1.628,0.004,2.365,0.118v0.405l0.943,0.209v-0.551c2.091-0.05,4.982,1.511,5.409,1.748
			l0.857,0.19l-0.329-1.674c0,0-5.057-2.719-13.306-1.748l-0.077,0.389L58.859,21.348z M62.166,20.512
			c2.263-0.055,5.468,1.781,5.468,1.781c-0.566-0.24-5.468-1.172-5.468-1.172V20.512z M61.223,20.45v0.61
			c0,0-4.903-0.627-5.468-0.461C55.755,20.6,58.961,20.099,61.223,20.45z"></path>
	</g>
	<path d="M73.984,24.694c0.741-0.022,1.53-0.005,2.222,0.101v0.391l0.844,0.187v-0.523c2.024-0.048,4.892,1.562,4.892,1.562
		c-0.42-0.175-3.511-0.767-4.548-0.963l5.275,1.167l-0.307-1.536c0,0-4.525-2.385-11.905-1.533l-0.055,0.355L73.984,24.694z
		 M77.05,23.958c2.024-0.048,4.892,1.562,4.892,1.562c-0.506-0.211-4.892-1.028-4.892-1.028V23.958z M76.206,23.904v0.535
		c0,0-4.386-0.549-4.892-0.404C71.314,24.035,74.182,23.596,76.206,23.904z"></path>
	<path d="M86.474,27.457c0.839-0.072,1.938-0.115,2.845,0.032v0.481c0,0-0.531-0.071-1.213-0.152l6.697,1.482l-0.292-1.554
		c0,0-3.816-2.145-10.041-1.379l-0.137,0.616L86.474,27.457z M90.03,26.737c1.708-0.043,4.126,1.405,4.126,1.405
		c-0.427-0.19-4.126-0.924-4.126-0.924V26.737z M90.03,27.538c1.708-0.043,4.126,1.405,4.126,1.405
		c-0.427-0.19-4.126-0.924-4.126-0.924V27.538z M89.319,26.688v0.481c0,0-3.7-0.494-4.126-0.363
		C85.192,26.806,87.611,26.411,89.319,26.688z"></path>
	<path d="M68.914,68.546l7.721,0.61l-0.508-4.165c0,0-1.422,1.829,0.102,3.86L68.914,68.546z"></path>
	<polygon points="87.397,38.689 94.253,39.691 95.903,34.581 93.994,39.303 	"></polygon>
	<polygon points="85.262,45.06 92.322,45.383 93.768,40.273 92.063,44.995 	"></polygon>
	<polygon points="83.16,51.851 90.321,51.69 91.666,46.58 90.063,51.302 	"></polygon>
	<polygon points="65.863,36.891 74.61,38.17 76.714,31.651 74.28,37.675 	"></polygon>
	<polygon points="63.14,45.019 72.146,45.431 73.991,38.912 71.816,44.936 	"></polygon>
	<polygon points="60.052,53.683 69.187,53.477 71.208,46.958 68.857,52.982 	"></polygon>
	<path d="M48.081,67.009c-0.247-0.039-0.425-0.289-0.484-0.62c-0.001,0.007-0.004,0.014-0.005,0.021
		c-0.088,0.554,0.131,1.05,0.489,1.107c0.358,0.057,0.721-0.346,0.809-0.9c0.027-0.172,0.022-0.337-0.005-0.487
		C48.79,66.673,48.434,67.066,48.081,67.009z"></path>
	<path d="M50.434,67.246c-0.247-0.039-0.425-0.289-0.484-0.62c-0.001,0.007-0.004,0.014-0.005,0.021
		c-0.088,0.554,0.131,1.05,0.489,1.107c0.358,0.057,0.721-0.346,0.809-0.9c0.027-0.172,0.022-0.337-0.005-0.487
		C51.144,66.91,50.788,67.303,50.434,67.246z"></path>
	<path d="M49.206,63.873c0,0-1.016-0.102-1.727,0.914L49.206,63.873z"></path>
	<path d="M51.474,64.042c0,0-1.016-0.102-1.727,0.914L51.474,64.042z"></path>
	<path d="M65.706,64.319c-0.247-0.039-0.425-0.289-0.484-0.62c-0.001,0.007-0.004,0.014-0.005,0.021
		c-0.088,0.554,0.131,1.05,0.489,1.107c0.358,0.057,0.721-0.346,0.809-0.9c0.027-0.172,0.022-0.337-0.005-0.487
		C66.416,63.983,66.06,64.375,65.706,64.319z"></path>
	<path d="M68.06,64.556c-0.247-0.039-0.425-0.289-0.484-0.62c-0.001,0.007-0.004,0.014-0.005,0.021
		c-0.088,0.554,0.131,1.05,0.489,1.107c0.358,0.057,0.721-0.346,0.809-0.9c0.027-0.172,0.022-0.337-0.005-0.487
		C68.77,64.22,68.413,64.612,68.06,64.556z"></path>
	<path d="M70.413,64.793c-0.247-0.039-0.425-0.289-0.484-0.62c-0.001,0.007-0.004,0.014-0.005,0.021
		c-0.088,0.554,0.131,1.05,0.489,1.107c0.358,0.057,0.721-0.346,0.809-0.9c0.027-0.172,0.022-0.337-0.005-0.487
		C71.123,64.457,70.767,64.849,70.413,64.793z"></path>
	<path d="M72.767,65.03c-0.247-0.039-0.425-0.289-0.484-0.62c-0.001,0.007-0.004,0.014-0.005,0.021
		c-0.088,0.554,0.131,1.05,0.489,1.107c0.358,0.057,0.721-0.346,0.809-0.9c0.027-0.172,0.022-0.337-0.005-0.487
		C73.477,64.694,73.12,65.086,72.767,65.03z"></path>
	<g>
		<path d="M66.73,61.182c0,0-1.016-0.102-1.727,0.914L66.73,61.182z"></path>
		<path d="M69.235,61.25c0,0-1.016-0.102-1.727,0.914L69.235,61.25z"></path>
		<path d="M71.741,61.318c0,0-1.016-0.102-1.727,0.914L71.741,61.318z"></path>
		<path d="M74.247,61.385c0,0-1.016-0.102-1.727,0.914L74.247,61.385z"></path>
	</g>
	<polygon points="49.917,73.727 49.917,72.711 52.761,73.016 52.761,74.133 	"></polygon>
	<polygon points="57.129,74.54 57.129,73.524 59.974,73.828 59.974,74.946 	"></polygon>
	<polygon fill="#1A1A1A" points="41.451,65.397 41.451,63.974 39.281,63.95 39.281,65.809 41.451,66.074 43.618,65.769 
		43.618,65.092 	"></polygon>
	<polygon points="52.247,24.755 6.739,28.501 6.739,27.587 52.247,23.739 	"></polygon>
	<polygon fill="#1A1A1A" points="55.234,23.599 78.158,27.85 78.158,27.139 55.234,22.584 	"></polygon>
	<polygon fill="#1A1A1A" points="80.901,28.294 99.015,31.69 99.015,31.284 80.901,27.684 	"></polygon>
	<polygon points="43.308,59.41 52.863,25.845 42.381,59.41 	"></polygon>
	<polygon points="90.806,57.269 91.123,56.202 90.63,56.261 90.417,56.931 80.901,58.123 80.901,58.582 	"></polygon>
	<polygon points="78.26,58.454 55.234,61.338 55.234,61.985 78.26,58.932 	"></polygon>
	<polygon points="51.416,61.816 42.297,62.958 42.656,61.699 41.67,61.686 40.988,63.873 52.694,62.321 52.694,61.833 	"></polygon>
	<polygon points="91.379,55.338 97.833,33.565 90.906,55.389 	"></polygon>
	<g>
		<polygon points="73.756,52.156 72.402,52.258 71.995,53.477 73.35,53.375 		"></polygon>
		<polygon points="74.309,50.517 72.955,50.593 72.548,51.812 73.903,51.736 		"></polygon>
		<polygon points="75.415,47.238 74.061,47.263 73.655,48.482 75.009,48.457 		"></polygon>
		<polygon points="79.84,34.121 79.073,34.021 79.073,35.293 79.434,35.34 		"></polygon>
		<polygon points="79.972,33.699 79.972,32.419 79.073,32.284 79.073,33.564 		"></polygon>
		<polygon points="78.158,35.173 78.158,34.925 78.079,35.163 		"></polygon>
		<polygon points="76.42,40.157 77.775,40.259 78.158,39.108 78.158,39.038 76.826,38.938 		"></polygon>
		<polygon points="74.862,48.877 73.508,48.928 73.102,50.147 74.456,50.096 		"></polygon>
		<polygon points="75.969,45.598 74.614,45.598 74.208,46.817 75.562,46.817 		"></polygon>
		<polygon points="77.38,37.273 76.973,38.492 78.158,38.604 78.158,37.346 		"></polygon>
		<polygon points="79.073,35.737 79.073,36.404 79.287,35.761 		"></polygon>
		<polygon points="77.933,35.608 77.526,36.828 78.158,36.899 78.158,35.634 		"></polygon>
		<polygon points="76.522,43.959 75.167,43.933 74.761,45.152 76.115,45.178 		"></polygon>
		<polygon points="77.075,42.319 75.72,42.268 75.314,43.487 76.668,43.538 		"></polygon>
		<polygon points="77.628,40.679 76.273,40.603 75.867,41.822 77.221,41.899 		"></polygon>
	</g>
	<g>
		<polygon points="83.351,46.87 81.343,51.839 80.901,51.876 80.901,52.264 81.615,52.247 		"></polygon>
		<polygon points="80.901,45.126 80.901,45.371 83.827,45.509 85.563,40.131 83.555,45.1 		"></polygon>
		<polygon points="74.4,52.417 78.158,52.329 78.158,52.104 		"></polygon>
		<polygon points="79.073,52.028 79.073,52.307 79.972,52.286 79.972,51.953 		"></polygon>
		<polygon points="79.972,45.327 79.972,45.135 79.073,45.144 79.073,45.284 		"></polygon>
		<polygon points="78.158,45.241 78.158,45.153 76.612,45.168 		"></polygon>
		<polygon points="86.074,38.909 87.809,33.735 85.801,38.501 80.901,38.188 80.901,38.298 		"></polygon>
		<polygon points="79.972,38.189 79.972,38.128 79.073,38.071 79.073,38.082 		"></polygon>
	</g>
	<g>
		<polygon points="52.694,44.82 49.971,44.842 52.694,44.946 		"></polygon>
		<polygon points="63.523,38.416 60.962,44.755 55.234,44.8 55.234,45.043 61.309,45.276 		"></polygon>
		<polygon points="60.599,47.391 58.038,53.73 55.234,53.898 55.234,54.303 58.385,54.251 		"></polygon>
		<polygon points="64.175,37.172 66.389,30.571 63.827,36.651 55.234,36.124 55.234,36.226 		"></polygon>
		<polygon points="45.853,54.459 52.694,54.345 52.694,54.05 		"></polygon>
	</g>
	<g>
		<path d="M52.303,66.864c-0.001,0.007-0.004,0.014-0.005,0.021c-0.08,0.5,0.098,0.935,0.395,1.06v-0.498
			C52.498,67.365,52.355,67.149,52.303,66.864z"></path>
		<path d="M55.234,67.707v0.508c0.326-0.019,0.636-0.381,0.716-0.886c0.028-0.172,0.022-0.337-0.005-0.487
			C55.859,67.337,55.555,67.688,55.234,67.707z"></path>
		<path d="M52.016,65.126l0.678-0.359v-0.274C52.464,64.63,52.227,64.824,52.016,65.126z"></path>
		<path d="M55.234,64.525v0.267l0.778-0.412C56.012,64.381,55.663,64.352,55.234,64.525z"></path>
	</g>
	<g>
		<polygon points="48.799,70.984 52.694,71.426 52.694,71.196 		"></polygon>
		<path d="M58.145,66.819c-2.235,2.641,0,4.673,0,4.673l-2.912-0.158v0.38l3.42,0.388L58.145,66.819z"></path>
	</g>
	<g>
		<path d="M82.425,69.562c-0.444,0.385-0.983,0.603-1.524,0.722v0.7l0.609-0.102C81.511,70.882,81.511,70.882,82.425,69.562z"></path>
		<path d="M76.533,70.882l1.727,0.167v-0.777C77.854,70.781,76.533,70.882,76.533,70.882z"></path>
	</g>
	<polygon points="77.312,32.018 76.907,33.235 78.158,33.423 78.158,32.145 	"></polygon>
	<polygon points="77.69,35.117 76.321,34.94 76.735,33.714 78.104,33.892 	"></polygon>
	<polygon points="77.121,36.796 75.735,36.644 76.157,35.41 77.543,35.562 	"></polygon>
	<polygon points="76.552,38.475 75.149,38.349 75.58,37.106 76.983,37.233 	"></polygon>
	<polygon points="75.983,40.154 74.563,40.053 75.002,38.802 76.422,38.904 	"></polygon>
	<polygon points="75.414,41.834 73.977,41.757 74.425,40.498 75.862,40.574 	"></polygon>
	<polygon points="74.845,43.513 73.391,43.462 73.847,42.194 75.301,42.245 	"></polygon>
	<polygon points="74.275,45.192 72.805,45.166 73.27,43.89 74.74,43.915 	"></polygon>
	<polygon points="73.706,46.871 72.219,46.871 72.692,45.586 74.18,45.586 	"></polygon>
	<polygon points="73.137,48.55 71.633,48.575 72.115,47.282 73.619,47.257 	"></polygon>
	<polygon points="72.568,50.229 71.047,50.28 71.537,48.978 73.058,48.927 	"></polygon>
	<polygon points="71.999,51.908 70.461,51.984 70.96,50.674 72.498,50.598 	"></polygon>
	<polygon points="71.43,53.587 69.875,53.688 70.382,52.37 71.937,52.268 	"></polygon>
</g>
</g>
</svg>