<?xml version="1.0" standalone="no"?>
<!DOCTYPE svg PUBLIC "-//W3C//DTD SVG 1.1//EN" "http://www.w3.org/Graphics/SVG/1.1/DTD/svg11.dtd">
<svg xmlns="http://www.w3.org/2000/svg">
<defs >
<font id="AlegreyaSans" horiz-adv-x="517" ><font-face
    font-family="Alegreya Sans"
    units-per-em="1000"
    panose-1="0 0 5 0 0 0 0 0 0 0"
    ascent="900"
    descent="-300"
    alphabetic="0" />
<glyph unicode=" " glyph-name="space" horiz-adv-x="165" />
<glyph unicode="!" glyph-name="exclam" horiz-adv-x="256" d="M177 650L154 218L107 213L99 222L98 647L106 657L167 660L177 650ZM140 88T151 76T163 43Q163 21 151 8T117 -5Q95 -5 84 7T72 41Q72 62 85 75T120 88Q140 88 151 76Z" />
<glyph unicode="&quot;" glyph-name="quotedbl" horiz-adv-x="280" d="M124 632L100 449L59 443L52 450L57 634L118 639L124 632ZM238 632L214 449L173 443L167 450L171 634L232 639L238 632Z" />
<glyph unicode="#" glyph-name="numbersign" horiz-adv-x="516" d="M375 365L349 249H455L460 243L456 200H338L300 32H254L249 39L285 200H175L138 32H91L86 39L122 200H26L20 205L24 249H133L159 365H61L55 371L59 414H170L206 574H252L257 566L223 414H332L368
574H414L420 566L386 414H490L496 408L491 365H375ZM322 365H212L186 249H296L322 365Z" />
<glyph unicode="$" glyph-name="dollar" horiz-adv-x="428" d="M376 85T335 45T223 -4L214 -129H175L167 -122L176 -4Q106 0 49 28L57 98L66 101Q89 79 119 66T180 48L195 226Q153 244 126 260T81 301T62 363Q62 418 104 456T217 500L228 642H267L276 634L265
500Q316 495 360 477L349 413L338 410Q299 439 261 446L247 274Q308 248 342 219T376 139Q376 85 335 45ZM127 346T146 328T201 294L213 448Q174 444 151 421T127 371Q127 346 146 328ZM265 55T288 77T311 128Q311 154 293 172T241 206L228 48Q265 55 288 77Z"
/>
<glyph unicode="%" glyph-name="percent" horiz-adv-x="824" d="M644 658L650 644L178 -91L143 -71L138 -59L609 678L644 658ZM260 646T296 602T333 474Q333 385 294 339T182 292Q114 292 77 336T40 465Q40 553 79 599T192 646Q260 646 296 602ZM96 587T96 470Q96
347 187 347Q278 347 278 465Q278 587 186 587Q96 587 96 470ZM710 349T746 305T783 178Q783 89 745 43T632 -4Q564 -4 527 40T490 168Q490 256 529 302T642 349Q710 349 746 305ZM546 291T546 173Q546 51 637 51Q728 51 728 169Q728 291 636 291Q546 291 546 173Z"
/>
<glyph unicode="&amp;" glyph-name="ampersand" horiz-adv-x="694" d="M523 358L521 352Q543 293 543 234Q543 170 519 120L651 3V-3Q631 -25 606 -38L601 -37L484 68Q415 -7 286 -7Q185 -7 123 40T60 169Q60 224 89 266T175 338V343Q138 378 122 413T105 489Q105
563 154 605T296 647Q378 647 453 611L434 552H423Q362 589 294 589Q235 589 205 562T174 484Q174 452 188 426T239 370L474 160Q489 196 489 242Q489 302 461 358H391L386 364L392 416H678L684 409L677 358H523ZM388 51T440 106L212 310Q172 288 150 255T128 181Q128
120 173 86T294 51Q388 51 440 106Z" />
<glyph unicode="&apos;" glyph-name="quotesingle" horiz-adv-x="166" d="M124 632L100 449L59 443L52 450L57 634L118 639L124 632Z" />
<glyph unicode="(" glyph-name="parenleft" horiz-adv-x="288" d="M283 636V628Q210 570 179 485T147 257Q148 118 179 34T283 -107V-115L254 -141H247Q159 -77 121 14T82 256Q83 411 121 504T247 662H254L283 636Z" />
<glyph unicode=")" glyph-name="parenright" horiz-adv-x="306" d="M7 -115V-107Q80 -49 111 36T143 264Q142 403 111 487T7 628V636L36 662H43Q131 598 169 507T208 265Q207 110 169 17T43 -141H36L7 -115Z" />
<glyph unicode="*" glyph-name="asterisk" horiz-adv-x="374" d="M225 727L203 607L169 603L164 610L162 724Q190 733 222 733L225 727ZM149 595L144 562L137 558L36 592Q36 631 44 653L51 655L149 595ZM339 601T346 579L341 574L230 558L215 588L219 597L319
633Q339 601 346 579ZM226 537L287 447Q274 424 246 403L238 404L192 517L216 539L226 537ZM173 522L172 513L115 420Q96 426 60 448V454L143 538L173 522Z" />
<glyph unicode="+" glyph-name="plus" horiz-adv-x="480" d="M268 468V293H443L449 287L444 237H268V60L218 56L212 62V237H37L31 243L36 293H212V470L262 475L268 468Z" />
<glyph unicode="," glyph-name="comma" horiz-adv-x="229" d="M169 61T169 20Q169 -45 75 -114L48 -89V-82Q103 -39 103 6Q103 33 72 53V61Q100 80 127 87Q169 61 169 20Z" />
<glyph unicode="-" glyph-name="hyphen" horiz-adv-x="307" d="M278 293V243L37 208L29 216V266L271 300L278 293Z" />
<glyph unicode="." glyph-name="period" horiz-adv-x="229" d="M136 88T148 76T160 43Q160 21 148 8T113 -5Q92 -5 81 7T69 41Q69 62 81 75T116 88Q136 88 148 76Z" />
<glyph unicode="/" glyph-name="slash" horiz-adv-x="287" d="M288 669L83 -113H28L22 -105L227 678H282L288 669Z" />
<glyph unicode="0" glyph-name="zero" horiz-adv-x="528" d="M371 504T426 439T482 252Q482 128 424 61T260 -7Q158 -7 103 58T47 242Q47 368 105 436T270 504Q371 504 426 439ZM187 431T149 385T110 248Q110 156 149 110T264 63Q340 63 379 108T419 243Q419 336
380 383T263 431Q187 431 149 385Z" />
<glyph unicode="1" glyph-name="one" horiz-adv-x="344" d="M225 494L220 207L224 0H144L149 197L148 411L19 375L11 379V442L213 502L225 494Z" />
<glyph unicode="2" glyph-name="two" horiz-adv-x="455" d="M290 502T328 472T367 391Q367 351 339 302T250 181L149 66L151 62H336L420 68L426 63L415 -4L313 0H89L52 -2L47 2V52L186 203Q240 263 265 302T290 372Q290 399 270 416T214 434Q178 434 143 416T78
366H68L55 427Q94 463 139 482T230 502Q290 502 328 472Z" />
<glyph unicode="3" glyph-name="three" horiz-adv-x="412" d="M259 503T301 468T343 376Q343 333 318 293T243 228V224Q303 210 334 176T365 91Q365 36 337 -7T256 -73T137 -97Q91 -97 39 -88L34 -20L40 -15Q87 -35 142 -35Q208 -35 249 -4T290 81Q290 128 257
155T161 184H102L97 190L99 245L143 246Q170 246 198 261T244 302T263 359Q263 395 239 416T176 437Q145 437 116 423T52 378H43L31 441Q106 503 191 503Q259 503 301 468Z" />
<glyph unicode="4" glyph-name="four" horiz-adv-x="481" d="M352 77H350L353 -86L348 -92L288 -97L283 -91L285 77H98L32 75L27 83V134L278 498H351L349 139H443L449 131L444 75L352 77ZM286 139V402H279L97 139H286Z" />
<glyph unicode="5" glyph-name="five" horiz-adv-x="418" d="M375 496L367 433L361 427L288 433H140L136 277L199 264Q292 244 331 206T370 106Q370 46 340 0T255 -72T131 -98Q89 -98 37 -88L31 -18L38 -11Q94 -35 147 -35Q215 -35 255 0T295 93Q295 138 265 165T165
205L80 221L73 228L78 489L91 500L144 498H279L371 502L375 496Z" />
<glyph unicode="6" glyph-name="six" horiz-adv-x="470" d="M342 349T384 303T427 180Q427 97 375 45T232 -8Q140 -8 93 49T46 211Q46 338 123 438T342 594H347L409 558V550Q289 508 222 450T131 312L137 305Q197 349 267 349Q342 349 384 303ZM294 47T325 78T356
169Q356 227 327 258T245 290Q179 290 119 238Q118 229 118 211Q118 129 147 88T238 47Q294 47 325 78Z" />
<glyph unicode="7" glyph-name="seven" horiz-adv-x="417" d="M117 498H346L388 500L389 441L195 17L150 -102L86 -84L81 -71L314 432H103L27 424L22 433L27 501L117 498Z" />
<glyph unicode="8" glyph-name="eight" horiz-adv-x="474" d="M318 592T359 555T401 452Q401 401 375 368T304 309V304Q358 278 388 247T419 158Q419 83 366 38T225 -7Q143 -7 96 34T48 143Q48 199 80 234T165 296V301Q123 323 97 355T71 439Q71 510 119 551T245
592Q318 592 359 555ZM194 534T166 509T138 441Q138 398 164 375T241 331Q286 350 311 375T337 445Q337 487 312 510T241 534Q194 534 166 509ZM176 253T146 226T116 151Q116 106 147 78T232 50Q287 50 319 78T352 153Q352 185 335 206T295 240T227 271Q176 253
146 226Z" />
<glyph unicode="9" glyph-name="nine" horiz-adv-x="470" d="M128 150T86 196T43 319Q43 402 95 454T238 507Q330 507 377 450T424 288Q424 161 347 61T128 -95H123L61 -59V-51Q181 -9 248 49T339 187L333 194Q273 150 203 150Q128 150 86 196ZM176 452T145 421T114
330Q114 272 143 241T225 209Q291 209 351 261Q352 270 352 288Q352 370 323 411T232 452Q176 452 145 421Z" />
<glyph unicode=":" glyph-name="colon" horiz-adv-x="229" d="M388 88T400 76T412 43Q412 21 400 8T365 -5Q344 -5 333 7T321 41Q321 62 333 75T368 88Q388 88 400 76ZM132 358T144 346T156 313Q156 291 144 278T109 265Q88 265 77 277T65 311Q65 332 77 345T112
358Q132 358 144 346Z" />
<glyph unicode=";" glyph-name="semicolon" horiz-adv-x="229" d="M421 61T421 20Q421 -45 327 -114L300 -89V-82Q355 -39 355 6Q355 33 324 53V61Q352 80 379 87Q421 61 421 20ZM132 358T144 346T156 313Q156 291 144 278T109 265Q88 265 77 277T65 311Q65 332
77 345T112 358Q132 358 144 346Z" />
<glyph unicode="&lt;" glyph-name="less" horiz-adv-x="480" d="M442 417L438 410L98 269V263L440 131L428 85L419 80L36 232V297L43 306L424 463L442 417Z" />
<glyph unicode="=" glyph-name="equal" horiz-adv-x="480" d="M449 370L444 320H37L31 326L36 376H443L449 370ZM449 459L444 409H37L31 415L36 465H443L449 459Z" />
<glyph unicode="&gt;" glyph-name="greater" horiz-adv-x="480" d="M437 306L444 297V232L61 80L52 85L40 131L382 263V269L42 410L38 417L56 463L437 306Z" />
<glyph unicode="?" glyph-name="question" horiz-adv-x="331" d="M206 653T271 613T336 504Q336 465 314 430T251 370L168 316L166 312L172 216L116 209L109 216L102 331L107 341L202 398Q232 415 248 439T264 492Q264 592 66 604L60 612L76 656L85 661Q206 653
271 613ZM167 88T179 76T191 43Q191 21 179 8T144 -5Q123 -5 112 7T100 41Q100 62 112 75T147 88Q167 88 179 76Z" />
<glyph unicode="@" glyph-name="at" horiz-adv-x="825" d="M794 158T706 80T455 -4L484 203H474Q397 71 313 -8H298Q222 37 222 151Q222 223 249 291T330 406T460 465H465L529 442L575 465L585 461L535 110L533 55Q631 67 685 130T739 296Q739 375 705 435T606
528T456 561Q348 561 266 515T137 387T91 198Q91 90 138 12T272 -108T475 -150L477 -158L453 -198Q328 -197 234 -150T88 -17T36 187Q36 311 88 408T236 559T457 614Q558 614 634 575T752 465T794 299Q794 158 706 80ZM332 75T362 108T430 203T505 351L506 357L508
382L445 404Q397 404 362 373T308 288T289 170Q289 119 298 97T320 75Q332 75 362 108Z" />
<glyph unicode="A" glyph-name="A" horiz-adv-x="578" d="M556 0H474L459 64L423 174L279 177L149 174L110 68L94 0H14L249 641H342L556 0ZM401 242L297 558H290L174 242L286 240L401 242Z" />
<glyph unicode="B" glyph-name="B" horiz-adv-x="537" d="M498 307T498 179Q498 88 432 42T235 -4Q147 -4 94 0H93L98 193L93 641L271 642Q361 642 409 602T458 486Q458 432 433 393T362 334Q498 307 498 179ZM376 529T348 552T255 576H174L172 361L282 358Q376
380 376 477Q376 529 348 552ZM329 63T373 94T417 183Q417 281 294 295L171 294L170 200L173 66Q212 63 247 63Q329 63 373 94Z" />
<glyph unicode="C" glyph-name="C" horiz-adv-x="520" d="M423 646T497 598L481 525L472 523Q405 579 318 579Q223 579 172 514T121 322Q121 195 172 128T316 61Q360 61 403 77T483 122L493 117L486 41Q399 -7 309 -7Q180 -7 109 76T38 315Q38 474 112 560T322
646Q423 646 497 598Z" />
<glyph unicode="D" glyph-name="D" horiz-adv-x="646" d="M462 645T535 567T608 343Q608 174 529 84T302 -6Q261 -6 203 -5T94 0H93L98 193L93 641H94L325 645Q462 645 535 567ZM417 61T471 127T526 326Q526 578 319 578Q256 578 174 574L170 200L173 67Q204 64
247 63T315 61Q417 61 471 127Z" />
<glyph unicode="E" glyph-name="E" horiz-adv-x="482" d="M459 62L453 0H93L98 193L93 641H454L458 633L452 571L301 574L174 572L172 362L292 360L398 363L404 356L397 294L285 296L171 295L170 200L173 67L300 66L454 70L459 62Z" />
<glyph unicode="F" glyph-name="F" horiz-adv-x="434" d="M174 572L172 349L280 347L384 350L390 342L383 281L272 284L171 283L170 200L174 0H93L98 193L93 641H434L440 633L433 569L286 574L174 572Z" />
<glyph unicode="G" glyph-name="G" horiz-adv-x="600" d="M451 646T538 601L522 525L512 523Q464 553 424 566T338 579Q121 579 121 311Q121 182 171 122T328 61Q356 61 384 66T458 85L460 160L459 256L534 262L532 171L536 31Q471 11 421 2T324 -7Q181 -7 110
74T38 308Q38 473 119 559T350 646Q451 646 538 601Z" />
<glyph unicode="H" glyph-name="H" horiz-adv-x="684" d="M586 200L588 0H509L513 193L512 289L334 290L171 289L170 200L173 0H94L97 193L94 641H174L171 357L341 356L512 357L509 641H590L586 200Z" />
<glyph unicode="I" glyph-name="I" horiz-adv-x="268" d="M170 200L174 0H93L98 193L93 641H175L170 200Z" />
<glyph unicode="J" glyph-name="J" horiz-adv-x="310" d="M213 212L215 118Q215 42 177 -7T45 -102L14 -57V-47Q83 -10 112 26T141 117V204L137 576L14 575L6 582L11 641H217L213 212Z" />
<glyph unicode="K" glyph-name="K" horiz-adv-x="547" d="M170 200L173 0H94L97 193L94 641H174L170 200ZM269 340Q402 168 547 17L546 7Q516 -2 471 -9L461 -4Q303 175 185 336V342L399 585L439 641H529L269 340Z" />
<glyph unicode="L" glyph-name="L" horiz-adv-x="416" d="M413 60L406 0H90L95 193L90 641H172L167 200L170 67H407L413 60Z" />
<glyph unicode="M" glyph-name="M" horiz-adv-x="789" d="M728 0H656L641 195L607 514H600L422 74H356L187 514H179L145 201L128 0H60L127 641H218L251 543L390 178H396L542 549L575 641H665L728 0Z" />
<glyph unicode="N" glyph-name="N" horiz-adv-x="683" d="M585 188L587 0H503L171 513H166L165 211L166 0H94L97 190L95 641H178L509 128H516L515 637L590 643L585 188Z" />
<glyph unicode="O" glyph-name="O" horiz-adv-x="635" d="M457 647T527 566T598 333Q598 169 523 81T309 -8Q179 -8 109 76T38 315Q38 475 112 561T325 647Q457 647 527 566ZM120 582T120 324Q120 187 168 121T315 55Q515 55 515 318Q515 452 467 517T320 582Q120
582 120 324Z" />
<glyph unicode="P" glyph-name="P" horiz-adv-x="520" d="M383 642T434 594T485 454Q485 347 422 286T246 225H170V200L174 0H93L98 193L93 641L289 642Q383 642 434 594ZM338 300T370 340T403 447Q403 571 271 576L174 573L171 292L276 290Q338 300 370 340Z" />
<glyph unicode="Q" glyph-name="Q" horiz-adv-x="639" d="M733 -138Q723 -157 715 -168T696 -189L689 -192Q592 -167 502 -120T336 -7Q328 -8 312 -8Q180 -8 109 76T38 315Q38 475 112 561T326 647Q457 647 527 566T598 330Q598 201 549 118T409 6Q553 -95 730
-128L733 -138ZM120 59T317 59Q414 59 464 125T515 323Q515 581 318 581Q218 581 169 517T120 322Q120 59 317 59Z" />
<glyph unicode="R" glyph-name="R" horiz-adv-x="555" d="M420 150T520 19L519 9Q483 -5 445 -9L434 -2Q352 121 287 238H170V200L174 0H93L98 193L93 641L289 642Q383 642 434 595T486 459Q486 393 452 341T354 259Q420 150 520 19ZM171 306L291 303Q403 335
403 452Q403 513 370 543T271 576L174 573L171 306Z" />
<glyph unicode="S" glyph-name="S" horiz-adv-x="472" d="M336 646T410 616L397 539L383 535Q354 557 322 569T257 581Q220 581 193 566T151 527T136 477Q136 450 152 430T194 394T262 358Q316 333 349 312T405 257T429 177Q429 127 402 85T326 18T214 -7Q172
-7 127 4T42 38L52 120L63 125Q98 91 140 75T222 58Q260 58 289 73T334 113T350 166Q350 208 318 233T221 289Q168 315 136 335T81 388T58 468Q58 517 84 558T158 622T267 646Q336 646 410 616Z" />
<glyph unicode="T" glyph-name="T" horiz-adv-x="490" d="M469 633L463 571L351 577H286L283 200L286 0H205L211 193L206 577H141L27 571L22 579L28 641H463L469 633Z" />
<glyph unicode="U" glyph-name="U" horiz-adv-x="626" d="M551 315L550 243Q552 125 488 59T306 -7Q193 -7 133 56T74 234L75 321L74 641H153L150 244Q149 154 190 109T312 63Q393 63 435 106T476 234L472 641H552L551 315Z" />
<glyph unicode="V" glyph-name="V" horiz-adv-x="564" d="M322 0H229L15 641H97L112 576L275 81H281L461 572L477 641H557L322 0Z" />
<glyph unicode="W" glyph-name="W" horiz-adv-x="893" d="M655 0H572L447 372H440L308 0H225L21 641H101L112 579L268 89H275L413 479L359 641H441L456 572L614 89H620L794 575L809 641H885L655 0Z" />
<glyph unicode="X" glyph-name="X" horiz-adv-x="594" d="M347 334L566 0H469L442 52L293 271L140 47L115 0H29L247 324L37 641H134L161 590L299 385L437 591L463 641H550L347 334Z" />
<glyph unicode="Y" glyph-name="Y" horiz-adv-x="528" d="M292 187L294 0H215L219 187L218 229L15 641H101L114 605L254 317H261L415 603L430 641H514L293 232L292 187Z" />
<glyph unicode="Z" glyph-name="Z" horiz-adv-x="528" d="M486 582L127 65H393L488 72L492 66L485 -2L369 0H88L31 -3V56L391 575H144L48 568L43 574L49 642L437 641L486 642V582Z" />
<glyph unicode="[" glyph-name="bracketleft" horiz-adv-x="288" d="M282 641V603L163 592V-75L282 -86V-124L277 -129L98 -119L102 259L98 637L277 647L282 641Z" />
<glyph unicode="\" glyph-name="backslash" horiz-adv-x="287" d="M6 669L12 678H66L271 -105L266 -113H210L6 669Z" />
<glyph unicode="]" glyph-name="bracketright" horiz-adv-x="288" d="M6 -123V-85L125 -74V593L6 604V642L11 647L190 637L186 259L190 -119L11 -129L6 -123Z" />
<glyph unicode="^" glyph-name="asciicircum" horiz-adv-x="424" d="M404 134L398 126L352 115L220 432H214L74 117L66 112L20 130L178 487L186 492H252L404 134Z" />
<glyph unicode="_" glyph-name="underscore" horiz-adv-x="450" d="M465 -94L460 -141H-9L-15 -134L-10 -88H459L465 -94Z" />
<glyph unicode="`" glyph-name="grave" horiz-adv-x="389" d="M206 626T296 552L274 520L265 519Q194 569 95 646L93 654L123 696L132 697Q206 626 296 552Z" />
<glyph unicode="a" glyph-name="a" horiz-adv-x="462" d="M296 466T333 434T371 346Q371 329 365 223Q359 117 359 99Q359 77 366 69T390 60Q405 60 424 66L432 59L424 14Q395 -3 367 -6Q336 -3 318 16T298 68H291Q237 13 184 -7Q117 -7 80 26T42 118Q42 162 65
188T135 225L297 263L298 328Q298 367 278 388T219 409Q185 409 151 393T78 343L70 347L60 404Q143 466 231 466Q296 466 333 434ZM151 177Q131 171 122 161T113 129Q113 96 131 78T181 59Q236 59 293 130L296 212L151 177Z" />
<glyph unicode="b" glyph-name="b" horiz-adv-x="514" d="M380 463T425 406T471 243Q471 123 413 58T251 -8Q203 -8 153 14L98 -11L84 -3L90 192L85 695L164 702L161 395H167Q201 423 229 438T293 463Q380 463 425 406ZM322 50T359 95T396 228Q396 309 368 353T286
398Q255 398 225 381T160 328L159 201L162 82Q210 50 258 50Q322 50 359 95Z" />
<glyph unicode="c" glyph-name="c" horiz-adv-x="385" d="M276 466T309 459T368 439L354 370L345 367Q293 401 242 401Q183 401 150 356T117 230Q117 149 151 103T247 56Q274 56 303 65T359 90L368 85L359 18Q298 -8 237 -8Q146 -8 94 54T42 226Q42 337 96 401T245
466Q276 466 309 459Z" />
<glyph unicode="d" glyph-name="d" horiz-adv-x="518" d="M423 201L426 98Q427 77 433 69T455 60Q471 60 489 66L497 59L489 14Q462 -3 433 -6Q402 -3 385 15T363 64H356Q326 38 302 23T247 -5Q148 -5 95 55T42 228Q42 341 101 403T264 466Q311 466 352 456L351
695L430 702L423 201ZM191 410T154 367T117 241Q117 156 150 109T243 62Q271 62 297 76T353 123L355 195L352 385Q299 410 255 410Q191 410 154 367Z" />
<glyph unicode="e" glyph-name="e" horiz-adv-x="461" d="M116 232V230Q116 146 154 101T262 56Q297 56 332 67T396 100L404 94L392 26Q322 -8 252 -8Q154 -8 98 54T42 226Q42 336 98 401T249 466Q329 466 373 421T417 294Q417 267 413 243L403 233L116 232ZM199
410T166 378T121 286L342 290L344 304Q344 355 320 382T249 410Q199 410 166 378Z" />
<glyph unicode="f" glyph-name="f" horiz-adv-x="303" d="M308 704T350 695L344 633L338 628Q302 646 265 646Q226 646 205 622T183 549L182 457H302L305 451L300 404H181L179 201L184 0H105L111 195L109 404H40L36 410L41 457H109L108 537Q107 618 150 661T272
704Q308 704 350 695Z" />
<glyph unicode="g" glyph-name="g" horiz-adv-x="487" d="M454 410T393 398L391 394Q413 359 413 309Q413 236 365 193T233 150Q200 150 171 158Q154 145 148 137T142 119Q142 98 168 90T253 72Q311 64 348 54T412 22T439 -41Q439 -83 411 -118T333 -173T224 -193Q144
-193 100 -157T55 -62Q79 -14 143 25V30Q107 41 88 59T68 110Q89 145 129 171V175Q97 195 81 227T64 303Q64 378 112 420T242 463Q295 463 332 445Q401 458 477 479L485 473V419Q454 410 393 398ZM287 204T314 232T342 310Q342 358 316 384T241 410Q191 410 163
383T135 306Q135 258 161 231T237 204Q287 204 314 232ZM369 -23T336 -10T234 13L202 18Q164 -5 145 -26T125 -70Q125 -99 153 -118T233 -137Q291 -137 330 -114T369 -56Q369 -23 336 -10Z" />
<glyph unicode="h" glyph-name="h" horiz-adv-x="520" d="M373 311Q374 352 354 375T295 398Q229 398 160 327L158 201L163 0H84L90 195L85 695L164 702L160 393H166Q228 448 293 464Q369 464 408 429T446 329L444 199L448 0H368L373 311Z" />
<glyph unicode="i" glyph-name="i" horiz-adv-x="242" d="M85 194L82 453L159 460L157 201L159 0H81L85 194ZM142 663T154 651T166 618Q166 596 154 583T119 570Q98 570 87 582T75 616Q75 637 87 650T122 663Q142 663 154 651Z" />
<glyph unicode="j" glyph-name="j" horiz-adv-x="265" d="M182 458L175 201L180 19Q180 -59 149 -106T41 -194L11 -158V-149Q64 -118 84 -82T105 15L107 194L103 404H11L5 411L10 457H104L179 460L182 458ZM148 663T160 651T172 618Q172 596 160 583T125 570Q104
570 93 582T81 616Q81 637 93 650T128 663Q148 663 160 651Z" />
<glyph unicode="k" glyph-name="k" horiz-adv-x="456" d="M158 201L163 0H84L90 195L85 695L164 702L158 201ZM256 248Q325 155 448 14V5Q429 -1 407 -4T377 -9L367 -5Q254 129 177 241V248L320 417L346 458H436L256 248Z" />
<glyph unicode="l" glyph-name="l" horiz-adv-x="247" d="M158 201L163 0H84L90 195L85 695L164 702L158 201Z" />
<glyph unicode="m" glyph-name="m" horiz-adv-x="800" d="M653 311Q654 352 634 375T575 398Q511 398 442 329L440 199L444 0H363L369 311Q370 352 350 375T291 398Q228 398 155 327V201L159 0H80L85 194L81 453L156 460V393H162Q224 448 289 464Q345 464 381
445T432 388H438Q501 445 573 464Q649 464 688 429T726 329L724 199L728 0H648L653 311Z" />
<glyph unicode="n" glyph-name="n" horiz-adv-x="516" d="M369 311Q370 352 350 375T291 398Q228 398 155 327V201L159 0H80L85 194L81 453L156 460V393H162Q224 448 289 464Q364 464 403 429T442 329L440 199L444 0H364L369 311Z" />
<glyph unicode="o" glyph-name="o" horiz-adv-x="491" d="M344 466T395 406T447 235Q447 119 393 56T239 -8Q145 -8 94 52T42 223Q42 339 96 402T251 466Q344 466 395 406ZM183 410T150 367T117 241Q117 145 149 97T244 49Q307 49 340 91T373 217Q373 312 341
361T246 410Q183 410 150 367Z" />
<glyph unicode="p" glyph-name="p" horiz-adv-x="509" d="M374 463T420 406T466 243Q466 123 408 58T243 -8Q201 -8 156 1L158 -185H80L85 194L80 453L156 460L155 395H162Q197 424 225 439T288 463Q374 463 420 406ZM319 50T355 96T391 227Q391 310 363 354T281
398Q250 398 220 381T155 328L154 201L155 76Q204 50 253 50Q319 50 355 96Z" />
<glyph unicode="q" glyph-name="q" horiz-adv-x="510" d="M422 464L430 459L423 199L429 -185H351L354 35V54H346Q319 32 297 19T243 -5Q146 -5 94 55T42 225Q42 341 100 403T263 466Q320 466 382 448L422 464ZM190 409T154 366T117 238Q117 155 149 109T239 62Q268
62 295 76T354 123L355 191L352 382Q300 409 254 409Q190 409 154 366Z" />
<glyph unicode="r" glyph-name="r" horiz-adv-x="323" d="M302 459T316 457V380L307 377Q290 382 270 382Q237 382 210 356T155 271L154 201L159 0H80L85 194L81 453L156 460L155 366H161Q189 416 223 437T290 459Q302 459 316 457Z" />
<glyph unicode="s" glyph-name="s" horiz-adv-x="370" d="M262 465T315 443L304 378L292 375Q242 408 196 408Q162 408 141 389T120 343Q120 316 141 300T208 262Q247 244 270 230T311 191T328 132Q328 95 309 63T253 12T165 -8Q95 -8 32 25L42 93L51 99Q79 75
111 62T173 49Q210 49 233 69T256 118Q256 145 235 161T168 199Q129 217 105 231T64 271T47 333Q47 391 89 428T205 465Q262 465 315 443Z" />
<glyph unicode="t" glyph-name="t" horiz-adv-x="319" d="M257 61T296 81L305 75L297 23Q243 -2 197 -6Q140 5 115 36T90 126L93 197L92 404H29L25 410L30 457H91V531L160 561L168 554L166 457H302L306 451L301 404H166L161 133Q160 93 175 77T224 61Q257 61 296 81Z" />
<glyph unicode="u" glyph-name="u" horiz-adv-x="510" d="M490 59L482 14Q453 -3 425 -6Q396 -2 379 14T354 64H348Q288 10 224 -6Q150 -6 112 29T74 129L75 256L72 453L152 460L146 148Q146 107 165 84T223 61Q285 61 347 121V453L423 460L418 98Q418 77 424
69T447 60Q463 60 482 66L490 59Z" />
<glyph unicode="v" glyph-name="v" horiz-adv-x="423" d="M107 400L206 79H212L328 396L344 458H415L247 0H162L20 456L94 461L107 400Z" />
<glyph unicode="w" glyph-name="w" horiz-adv-x="674" d="M104 402L188 86H194L291 398L306 458H384L395 402L479 86H485L582 398L597 458H666L515 0H440L344 355H337L226 0H148L20 456L93 461L104 402Z" />
<glyph unicode="x" glyph-name="x" horiz-adv-x="435" d="M128 418L223 279L310 417L333 458H407L264 234L417 4L333 -4L311 43L213 188L117 39L97 0H23L170 233L24 455L109 461L128 418Z" />
<glyph unicode="y" glyph-name="y" horiz-adv-x="427" d="M99 402L209 86H216L330 395L345 458H416L252 16Q227 -52 199 -91T130 -152T23 -191H16Q-5 -170 -17 -144L-15 -135Q61 -120 101 -93T177 0L9 456L84 461L99 402Z" />
<glyph unicode="z" glyph-name="z" horiz-adv-x="412" d="M129 458H334L372 459L374 411L118 56H299L374 63L379 56L372 -2L280 0H80L33 -2V46L290 403H117L46 395L40 402L47 460L129 458Z" />
<glyph unicode="{" glyph-name="braceleft" horiz-adv-x="288" d="M243 655T273 648L277 641L269 598Q246 603 232 603Q200 603 185 585T170 530Q170 498 181 445Q191 387 191 366Q191 292 124 263V259Q191 230 191 157Q191 134 181 78Q170 23 170 -7Q170 -45
185 -63T232 -81Q246 -81 269 -76L277 -119L273 -126Q248 -132 221 -132Q165 -132 136 -104T106 -20Q106 7 111 39T117 78Q126 128 126 154Q126 227 45 240V281Q87 289 106 310T126 368Q126 393 117 443Q116 449 111 482T106 542Q106 597 135 626T221 655Q243 655
273 648Z" />
<glyph unicode="|" glyph-name="bar" horiz-adv-x="314" d="M188 792L187 288V-259L132 -262L125 -254V283L126 793L183 797L188 792Z" />
<glyph unicode="}" glyph-name="braceright" horiz-adv-x="288" d="M45 -133T15 -126L11 -119L19 -76Q42 -81 56 -81Q88 -81 103 -63T118 -8Q118 24 107 77Q97 135 97 156Q97 230 164 259V263Q97 292 97 365Q97 388 107 444Q118 499 118 529Q118 567 103 585T56
603Q42 603 19 598L11 641L15 648Q40 654 67 654Q123 654 152 626T182 542Q182 515 177 483T171 444Q162 394 162 368Q162 295 243 282V241Q201 233 182 212T162 154Q162 129 171 79Q172 73 177 40T182 -20Q182 -75 153 -104T67 -133Q45 -133 15 -126Z" />
<glyph unicode="~" glyph-name="asciitilde" horiz-adv-x="480" d="M139 257T129 250T96 221Q96 221 81 206H72L50 233V242L123 315L133 319Q158 316 231 294Q263 285 292 278T333 270Q343 270 354 278T379 300T401 321H409L431 294V285L358 211L348 209Q326 212
241 235Q235 237 199 247T149 257Q139 257 129 250Z" />
<glyph unicode="&#xa0;" glyph-name="uni00A0" horiz-adv-x="165" />
<glyph unicode="&#xa1;" glyph-name="exclamdown" horiz-adv-x="256" d="M81 -187L104 245L151 250L159 241L160 -184L152 -194L91 -197L81 -187ZM118 375T107 387T95 420Q95 442 107 455T141 468Q163 468 174 456T186 422Q186 401 173 388T138 375Q118 375 107 387Z" />
<glyph unicode="&#xa2;" glyph-name="cent" horiz-adv-x="383" d="M358 73Q331 57 297 47T229 36L216 -119H178L170 -112L182 41Q115 56 77 115T39 266Q39 372 87 436T218 506L229 652H268L276 644L265 505Q319 498 362 471L350 420L341 419Q305 444 262 451L233
90H239Q268 90 299 99T357 125L365 121L358 73ZM101 206T123 162T187 100L214 451Q161 443 131 396T101 272Q101 206 123 162Z" />
<glyph unicode="&#xa3;" glyph-name="sterling" horiz-adv-x="416" d="M384 52L378 -2L277 0H30L25 6L30 51Q100 64 100 156V289H31L27 294L31 336H100V429Q100 509 142 551T265 593Q317 593 372 576L366 518L360 515Q308 539 261 539Q170 539 170 439V336H309L313
330L308 289H169V168Q169 129 160 104T129 58V56H297L379 58L384 52Z" />
<glyph unicode="&#xa4;" glyph-name="currency" horiz-adv-x="435" d="M398 510V501L331 438Q358 403 358 358Q358 314 332 280L400 218L401 209L366 173L358 174L295 241Q278 228 257 221T214 213Q172 213 137 240L74 172H66L29 207L30 215L97 278Q70 313 70
358Q70 400 96 436L28 499L29 507L62 543H71L135 475Q170 502 214 502Q256 502 291 477L354 544L363 545L398 510ZM174 455T146 427T117 358Q117 316 145 289T214 261Q256 261 284 288T312 358Q312 399 284 427T214 455Q174 455 146 427Z" />
<glyph unicode="&#xa5;" glyph-name="yen" horiz-adv-x="481" d="M460 161L464 156L461 121H270L272 0H207L210 121H25L21 126L24 161H210V172L166 254H25L21 259L24 294H144L35 497H106L117 469L239 249H244L376 467L390 497H460L341 294H460L464 290L461 254H317L271
176V161H460Z" />
<glyph unicode="&#xa6;" glyph-name="brokenbar" horiz-adv-x="314" d="M188 792L187 373L132 366L125 372V793L183 797L188 792ZM187 151V-259L132 -262L125 -254V153L180 160L187 151Z" />
<glyph unicode="&#xa7;" glyph-name="section" horiz-adv-x="419" d="M378 223T353 188T284 132Q332 87 332 35Q332 -1 311 -32T251 -82T165 -101Q134 -101 98 -93T32 -69L43 -1L51 5Q111 -49 174 -49Q215 -49 239 -27T264 23Q264 50 242 71T170 125Q129 152 104
172T60 220T42 283Q42 324 67 359T135 417Q88 461 88 511Q88 547 109 578T167 627T251 646Q308 646 360 625L349 557L338 554Q284 592 239 592Q202 592 179 571T156 522Q156 496 179 475T249 423Q291 396 316 376T360 327T378 264Q378 223 353 188ZM310 199T310
248Q310 280 285 304T209 362L181 381Q109 347 109 297Q109 268 133 245T206 190L239 167Q310 199 310 248Z" />
<glyph unicode="&#xa8;" glyph-name="dieresis" horiz-adv-x="389" d="M137 651T148 640T160 609Q160 588 148 575T116 562Q95 562 84 573T73 606Q73 626 85 638T118 651Q137 651 148 640ZM295 651T306 640T317 609Q317 588 305 575T273 562Q253 562 242 574T230
606Q230 626 242 638T275 651Q295 651 306 640Z" />
<glyph unicode="&#xa9;" glyph-name="copyright" horiz-adv-x="685" d="M430 598T497 560T600 453T637 293Q637 202 601 133T497 26T342 -12Q254 -12 187 26T83 133T46 293Q46 384 83 453T187 560T342 598Q430 598 497 560ZM264 564T205 531T113 436T80 293Q80
212 112 151T204 56T342 22Q419 22 478 56T571 151T604 293Q604 374 571 435T479 530T342 564Q264 564 205 531ZM405 465T451 442L439 397L434 395Q418 406 397 412T355 418Q253 418 253 299Q253 237 279 205T355 173Q375 173 398 179T440 196L446 194L441 149Q398
126 351 126Q274 126 235 169T195 294Q195 376 237 420T357 465Q405 465 451 442Z" />
<glyph unicode="&#xaa;" glyph-name="ordfeminine" horiz-adv-x="320" d="M214 649T240 627T266 564L263 483Q260 435 260 413Q260 386 277 386Q289 386 296 392L302 388L294 348Q275 333 252 333Q230 333 219 344T203 381H200Q165 341 125 332Q82 334 58 357T34
421Q34 483 99 495L200 514L201 551Q201 598 153 598Q115 598 62 561L57 563L48 610Q107 649 165 649Q214 649 240 627ZM129 463Q98 457 98 427Q98 407 109 395T139 383Q153 383 168 392T198 419L199 479L129 463Z" />
<glyph unicode="&#xab;" glyph-name="guillemotleft" horiz-adv-x="396" d="M210 216V232L355 406L393 384L394 374L270 225L394 76L393 67L355 45L210 216ZM44 216V232L189 406L227 384L228 374L104 225L228 76L227 67L189 45L44 216Z" />
<glyph unicode="&#xac;" glyph-name="logicalnot" horiz-adv-x="480" d="M424 286V60L374 56L368 62V237H34L29 243L33 293H418L424 286Z" />
<glyph unicode="&#xad;" glyph-name="uni00AD" horiz-adv-x="307" d="M278 293V243L37 208L29 216V266L271 300L278 293Z" />
<glyph unicode="&#xae;" glyph-name="registered" horiz-adv-x="439" d="M302 702T351 653T401 521Q401 439 352 389T220 339Q138 339 88 389T38 521Q38 603 88 652T220 702Q302 702 351 653ZM291 365T333 408T376 521Q376 591 334 633T221 676Q150 676 108 634T65
521Q65 451 108 408T221 365Q291 365 333 408ZM292 549T282 534T253 508Q271 479 305 438L304 434Q291 430 269 428L265 431Q241 466 222 499H188V492L190 431H154L155 489L154 624H227Q292 624 292 567Q292 549 282 534ZM189 529L225 527Q255 538 255 564Q255
596 216 597L190 596L189 529Z" />
<glyph unicode="&#xaf;" glyph-name="overscore" horiz-adv-x="389" d="M342 629L337 582H54L48 588L52 634H335L342 629Z" />
<glyph unicode="&#xb0;" glyph-name="degree" horiz-adv-x="293" d="M200 647T236 611T273 523Q273 471 237 435T147 398Q94 398 57 434T20 523Q20 575 57 611T147 647Q200 647 236 611ZM111 608T86 583T60 523Q60 488 85 463T146 438Q182 438 207 463T233 523Q233
558 208 583T146 608Q111 608 86 583Z" />
<glyph unicode="&#xb1;" glyph-name="plusminus" horiz-adv-x="480" d="M268 468V293H443L449 287L444 237H268V60L218 56L212 62V237H37L31 243L36 293H212V470L262 475L268 468ZM449 -42L444 -92H37L31 -86L36 -36H443L449 -42Z" />
<glyph unicode="&#xb2;" glyph-name="uni00B2" horiz-adv-x="349" d="M223 705T253 682T284 619Q284 590 265 556T199 465L132 380L134 378H257L321 381L324 375L316 320L236 323H70L43 322L39 325V367L137 481Q178 531 195 557T212 604Q212 623 199 635T161 648Q136
648 110 635T63 597H54L43 650Q108 705 177 705Q223 705 253 682Z" />
<glyph unicode="&#xb3;" glyph-name="uni00B3" horiz-adv-x="308" d="M191 706T220 683T250 620Q250 593 235 568T188 529V525Q225 515 244 492T264 434Q264 382 221 351T106 319Q67 319 38 326L33 376L39 381Q75 372 107 372Q148 372 171 389T195 435Q195 462
177 476T125 492H82L78 497L79 544H109Q134 544 156 562T179 607Q179 628 165 639T127 651Q93 651 48 620H41L30 667Q81 706 142 706Q191 706 220 683Z" />
<glyph unicode="&#xb4;" glyph-name="acute" horiz-adv-x="389" d="M267 696L297 654L295 646Q196 569 125 519L116 520L94 552Q192 632 258 697L267 696Z" />
<glyph unicode="&#xb5;" glyph-name="uni00B5" horiz-adv-x="532" d="M501 59L493 14Q466 -3 436 -6Q407 -2 390 14T365 64H359Q299 10 236 -6Q178 -6 146 21L158 -185H83L87 194L83 453L158 460V148Q157 107 176 84T234 61Q295 61 359 122V453L434 460L429 98Q429
77 435 69T458 60Q475 60 493 66L501 59Z" />
<glyph unicode="&#xb6;" glyph-name="paragraph" horiz-adv-x="485" d="M459 633L453 578H379L376 183L377 129Q377 63 341 14T218 -77L195 -41V-31Q251 4 276 40T302 124V170L301 579H242Q184 574 153 538T121 440Q121 379 155 337T255 275L230 230Q138 248 88
302T38 443Q38 537 95 589T257 641H453L459 633Z" />
<glyph unicode="&#xb7;" glyph-name="middot" horiz-adv-x="229" d="M136 292T148 280T160 247Q160 225 148 212T113 199Q92 199 81 211T69 245Q69 266 81 279T116 292Q136 292 148 280Z" />
<glyph unicode="&#xb8;" glyph-name="cedilla" horiz-adv-x="389" d="M200 -51L234 -71Q272 -93 272 -127Q272 -156 250 -174T191 -193Q148 -193 119 -162L126 -122L131 -121Q145 -137 158 -144T188 -152Q202 -152 210 -145T219 -125Q219 -117 214 -112T198 -100L150
-71L175 19H221L200 -51Z" />
<glyph unicode="&#xb9;" glyph-name="uni00B9" horiz-adv-x="258" d="M169 698L167 458L169 323H98L100 449V628L20 607L14 610V666L160 707L169 698Z" />
<glyph unicode="&#xba;" glyph-name="ordmasculine" horiz-adv-x="339" d="M239 649T273 609T308 494Q308 416 271 374T166 331Q101 331 66 371T31 486Q31 565 68 607T173 649Q239 649 273 609ZM135 598T117 573T99 493Q99 381 170 381Q243 381 243 487Q243 598
171 598Q135 598 117 573Z" />
<glyph unicode="&#xbb;" glyph-name="guillemotright" horiz-adv-x="396" d="M351 236V220L206 46L168 68L167 78L291 227L167 376L168 385L206 407L351 236ZM441 236V220L296 46L258 68L257 78L381 227L257 376L258 385L296 407L441 236Z" />
<glyph unicode="&#xbc;" glyph-name="onequarter" horiz-adv-x="685" d="M169 638L167 398L169 263H98L100 389V568L20 547L14 550V606L160 647L169 638ZM528 658L534 644L62 -91L27 -71L22 -59L493 678L528 658ZM647 98L589 101L593 6L589 0L533 -3L529 1L530
101H416L365 98L360 105V149L524 379H589L588 153H646L651 147L647 98ZM422 153H531V300H526L422 153Z" />
<glyph unicode="&#xbd;" glyph-name="onehalf" horiz-adv-x="683" d="M169 638L167 398L169 263H98L100 389V568L20 547L14 550V606L160 647L169 638ZM528 658L534 644L62 -91L27 -71L22 -59L493 678L528 658ZM557 382T587 359T618 296Q618 267 599 233T533 142L466
57L468 55H591L655 58L658 52L650 -3L570 0H404L377 -1L373 2V44L471 158Q512 208 529 234T546 281Q546 300 533 312T495 325Q470 325 444 312T397 274H388L377 327Q442 382 511 382Q557 382 587 359Z" />
<glyph unicode="&#xbe;" glyph-name="threequarters" horiz-adv-x="735" d="M191 646T220 623T250 560Q250 533 235 508T188 469V465Q225 455 244 432T264 374Q264 322 221 291T106 259Q67 259 38 266L33 316L39 321Q75 312 107 312Q148 312 171 329T195 375Q195
402 177 416T125 432H82L78 437L79 484H109Q134 484 156 502T179 547Q179 568 165 579T127 591Q93 591 48 560H41L30 607Q81 646 142 646Q191 646 220 623ZM578 658L584 644L112 -91L77 -71L72 -59L543 678L578 658ZM697 98L639 101L643 6L639 0L583 -3L579 1L580
101H466L415 98L410 105V149L574 379H639L638 153H696L701 147L697 98ZM472 153H581V300H576L472 153Z" />
<glyph unicode="&#xbf;" glyph-name="questiondown" horiz-adv-x="331" d="M129 -190T64 -150T-1 -41Q-1 -2 21 33T84 93L167 147L169 151L163 247L219 254L226 247L233 132L228 122L133 65Q103 48 87 24T71 -29Q71 -129 269 -141L275 -149L259 -193L250 -198Q129
-190 64 -150ZM168 375T156 387T144 420Q144 442 156 455T191 468Q212 468 223 456T235 422Q235 401 223 388T188 375Q168 375 156 387Z" />
<glyph unicode="&#xc0;" glyph-name="Agrave" horiz-adv-x="578" d="M556 0H474L459 64L423 174L279 177L149 174L110 68L94 0H14L249 641H342L556 0ZM401 242L297 558H290L174 242L286 240L401 242ZM295 813T400 761L386 725L377 721Q273 764 182 807L179 815L199
862L209 864Q295 813 400 761Z" />
<glyph unicode="&#xc1;" glyph-name="Aacute" horiz-adv-x="578" d="M556 0H474L459 64L423 174L279 177L149 174L110 68L94 0H14L249 641H342L556 0ZM401 242L297 558H290L174 242L286 240L401 242ZM401 862L421 815L419 807Q324 763 223 721L214 725L200 761Q305
813 391 864L401 862Z" />
<glyph unicode="&#xc2;" glyph-name="Acircumflex" horiz-adv-x="578" d="M556 0H474L459 64L423 174L279 177L149 174L110 68L94 0H14L249 641H342L556 0ZM401 242L297 558H290L174 242L286 240L401 242ZM163 768Q236 819 279 859H301Q353 814 418 768L403 734H393Q330
773 291 800Q265 782 188 734H179L163 768Z" />
<glyph unicode="&#xc3;" glyph-name="Atilde" horiz-adv-x="578" d="M556 0H474L459 64L423 174L279 177L149 174L110 68L94 0H14L249 641H342L556 0ZM401 242L297 558H290L174 242L286 240L401 242ZM447 825V817L386 748L376 745Q354 747 292 765Q235 782 221
782Q214 782 206 776T181 752L165 735H156L132 761V768L193 837L203 840Q227 838 286 820Q293 818 320 811T358 804Q366 804 375 811T398 833L415 850H423L447 825Z" />
<glyph unicode="&#xc4;" glyph-name="Adieresis" horiz-adv-x="578" d="M556 0H474L459 64L423 174L279 177L149 174L110 68L94 0H14L249 641H342L556 0ZM401 242L297 558H290L174 242L286 240L401 242ZM233 834T244 823T256 792Q256 771 244 758T212 745Q191
745 180 756T169 789Q169 809 181 821T214 834Q233 834 244 823ZM391 834T402 823T413 792Q413 771 401 758T369 745Q349 745 338 757T326 789Q326 809 338 821T371 834Q391 834 402 823Z" />
<glyph unicode="&#xc5;" glyph-name="Aring" horiz-adv-x="578" d="M556 0H474L459 64L423 174L279 177L149 174L110 68L94 0H14L249 641H342L556 0ZM401 242L297 558H290L174 242L286 240L401 242ZM329 880T351 858T373 799Q373 760 349 738T287 715Q251 715
228 736T205 797Q205 835 228 857T290 880Q329 880 351 858ZM266 841T255 830T243 798Q243 776 255 765T289 753Q309 753 321 764T334 796Q334 817 323 829T288 841Q266 841 255 830Z" />
<glyph unicode="&#xc6;" glyph-name="AE" horiz-adv-x="807" d="M792 62L785 0H437L432 64L403 259L165 205L92 68L67 0H-16L322 641H695L701 633L693 571L531 575H434L469 338L684 383L691 377L695 319L478 276L509 65H622L786 70L792 62ZM393 322L358 558H352L205
281L393 322Z" />
<glyph unicode="&#xc7;" glyph-name="Ccedilla" horiz-adv-x="520" d="M423 646T497 598L481 525L472 523Q405 579 318 579Q223 579 172 514T121 322Q121 195 172 128T316 61Q360 61 403 77T483 122L493 117L486 41Q399 -7 309 -7Q180 -7 109 76T38 315Q38 474
112 560T322 646Q423 646 497 598ZM317 -51L351 -71Q389 -93 389 -127Q389 -156 367 -174T308 -193Q265 -193 236 -162L243 -122L248 -121Q262 -137 275 -144T305 -152Q319 -152 327 -145T336 -125Q336 -117 331 -112T315 -100L267 -71L292 19H338L317 -51Z" />
<glyph unicode="&#xc8;" glyph-name="Egrave" horiz-adv-x="482" d="M459 62L453 0H93L98 193L93 641H454L458 633L452 571L301 574L174 572L172 362L292 360L398 363L404 356L397 294L285 296L171 295L170 200L173 67L300 66L454 70L459 62ZM279 813T384 761L370
725L361 721Q257 764 166 807L163 815L183 862L193 864Q279 813 384 761Z" />
<glyph unicode="&#xc9;" glyph-name="Eacute" horiz-adv-x="482" d="M459 62L453 0H93L98 193L93 641H454L458 633L452 571L301 574L174 572L172 362L292 360L398 363L404 356L397 294L285 296L171 295L170 200L173 67L300 66L454 70L459 62ZM385 862L405 815L403
807Q308 763 207 721L198 725L184 761Q289 813 375 864L385 862Z" />
<glyph unicode="&#xca;" glyph-name="Ecircumflex" horiz-adv-x="482" d="M459 62L453 0H93L98 193L93 641H454L458 633L452 571L301 574L174 572L172 362L292 360L398 363L404 356L397 294L285 296L171 295L170 200L173 67L300 66L454 70L459 62ZM147 768Q220
819 263 859H285Q337 814 402 768L387 734H377Q314 773 275 800Q249 782 172 734H163L147 768Z" />
<glyph unicode="&#xcb;" glyph-name="Edieresis" horiz-adv-x="482" d="M459 62L453 0H93L98 193L93 641H454L458 633L452 571L301 574L174 572L172 362L292 360L398 363L404 356L397 294L285 296L171 295L170 200L173 67L300 66L454 70L459 62ZM217 834T228 823T240
792Q240 771 228 758T196 745Q175 745 164 756T153 789Q153 809 165 821T198 834Q217 834 228 823ZM375 834T386 823T397 792Q397 771 385 758T353 745Q333 745 322 757T310 789Q310 809 322 821T355 834Q375 834 386 823Z" />
<glyph unicode="&#xcc;" glyph-name="Igrave" horiz-adv-x="268" d="M170 200L174 0H93L98 193L93 641H175L170 200ZM139 813T244 761L230 725L221 721Q117 764 26 807L23 815L43 862L53 864Q139 813 244 761Z" />
<glyph unicode="&#xcd;" glyph-name="Iacute" horiz-adv-x="268" d="M170 200L174 0H93L98 193L93 641H175L170 200ZM245 862L265 815L263 807Q168 763 67 721L58 725L44 761Q149 813 235 864L245 862Z" />
<glyph unicode="&#xce;" glyph-name="Icircumflex" horiz-adv-x="268" d="M170 200L174 0H93L98 193L93 641H175L170 200ZM7 768Q80 819 123 859H145Q197 814 262 768L247 734H237Q174 773 135 800Q109 782 32 734H23L7 768Z" />
<glyph unicode="&#xcf;" glyph-name="Idieresis" horiz-adv-x="268" d="M170 200L174 0H93L98 193L93 641H175L170 200ZM101 834T112 823T123 792Q123 770 111 758T79 745Q59 745 48 756T37 789Q37 809 49 821T82 834Q101 834 112 823ZM210 834T221 823T232 792Q232
770 221 758T189 745Q168 745 157 756T146 789Q146 809 158 821T191 834Q210 834 221 823Z" />
<glyph unicode="&#xd0;" glyph-name="Eth" horiz-adv-x="668" d="M484 645T557 567T630 343Q630 174 551 84T324 -6Q283 -6 225 -5T116 0H115L120 193L115 641H116L347 645Q484 645 557 567ZM439 61T493 127T548 326Q548 578 341 578Q278 578 196 574L192 200L195
67Q226 64 269 63T337 61Q439 61 493 127ZM341 346L339 297H16L12 303L15 353H338L341 346Z" />
<glyph unicode="&#xd1;" glyph-name="Ntilde" horiz-adv-x="683" d="M585 188L587 0H503L171 513H166L165 211L166 0H94L97 190L95 641H178L509 128H516L515 637L590 643L585 188ZM496 825V817L435 748L425 745Q403 747 341 765Q284 782 270 782Q263 782 255 776T230
752L214 735H205L181 761V768L242 837L252 840Q276 838 335 820Q342 818 369 811T407 804Q415 804 424 811T447 833L464 850H472L496 825Z" />
<glyph unicode="&#xd2;" glyph-name="Ograve" horiz-adv-x="635" d="M457 647T527 566T598 333Q598 169 523 81T309 -8Q179 -8 109 76T38 315Q38 475 112 561T325 647Q457 647 527 566ZM120 582T120 324Q120 187 168 121T315 55Q515 55 515 318Q515 452 467 517T320
582Q120 582 120 324ZM324 813T429 761L415 725L406 721Q302 764 211 807L208 815L228 862L238 864Q324 813 429 761Z" />
<glyph unicode="&#xd3;" glyph-name="Oacute" horiz-adv-x="635" d="M457 647T527 566T598 333Q598 169 523 81T309 -8Q179 -8 109 76T38 315Q38 475 112 561T325 647Q457 647 527 566ZM120 582T120 324Q120 187 168 121T315 55Q515 55 515 318Q515 452 467 517T320
582Q120 582 120 324ZM430 862L450 815L448 807Q353 763 252 721L243 725L229 761Q334 813 420 864L430 862Z" />
<glyph unicode="&#xd4;" glyph-name="Ocircumflex" horiz-adv-x="635" d="M457 647T527 566T598 333Q598 169 523 81T309 -8Q179 -8 109 76T38 315Q38 475 112 561T325 647Q457 647 527 566ZM120 582T120 324Q120 187 168 121T315 55Q515 55 515 318Q515 452 467
517T320 582Q120 582 120 324ZM192 768Q265 819 308 859H330Q382 814 447 768L432 734H422Q359 773 320 800Q294 782 217 734H208L192 768Z" />
<glyph unicode="&#xd5;" glyph-name="Otilde" horiz-adv-x="635" d="M457 647T527 566T598 333Q598 169 523 81T309 -8Q179 -8 109 76T38 315Q38 475 112 561T325 647Q457 647 527 566ZM120 582T120 324Q120 187 168 121T315 55Q515 55 515 318Q515 452 467 517T320
582Q120 582 120 324ZM476 825V817L415 748L405 745Q383 747 321 765Q264 782 250 782Q243 782 235 776T210 752L194 735H185L161 761V768L222 837L232 840Q256 838 315 820Q322 818 349 811T387 804Q395 804 404 811T427 833L444 850H452L476 825Z" />
<glyph unicode="&#xd6;" glyph-name="Odieresis" horiz-adv-x="635" d="M457 647T527 566T598 333Q598 169 523 81T309 -8Q179 -8 109 76T38 315Q38 475 112 561T325 647Q457 647 527 566ZM120 582T120 324Q120 187 168 121T315 55Q515 55 515 318Q515 452 467
517T320 582Q120 582 120 324ZM262 834T273 823T285 792Q285 771 273 758T241 745Q220 745 209 756T198 789Q198 809 210 821T243 834Q262 834 273 823ZM420 834T431 823T442 792Q442 771 430 758T398 745Q378 745 367 757T355 789Q355 809 367 821T400 834Q420
834 431 823Z" />
<glyph unicode="&#xd7;" glyph-name="multiply" horiz-adv-x="480" d="M403 398V388L280 265L403 142V133L365 100L240 225L114 100L77 133V141L201 265L77 388V398L114 430L240 305L365 430L403 398Z" />
<glyph unicode="&#xd8;" glyph-name="Oslash" horiz-adv-x="635" d="M538 569T568 500T598 333Q598 169 523 81T309 -8Q249 -8 202 10L149 -102L100 -85L97 -77L150 38Q95 76 67 146T38 315Q38 475 112 561T325 647Q381 647 428 632L471 724L519 706L523 696L481
606Q538 569 568 500ZM120 170T182 105L399 569Q366 582 320 582Q120 582 120 324Q120 170 182 105ZM515 55T515 318Q515 474 449 537L230 71Q265 55 315 55Q515 55 515 318Z" />
<glyph unicode="&#xd9;" glyph-name="Ugrave" horiz-adv-x="626" d="M551 315L550 243Q552 125 488 59T306 -7Q193 -7 133 56T74 234L75 321L74 641H153L150 244Q149 154 190 109T312 63Q393 63 435 106T476 234L472 641H552L551 315ZM320 813T425 761L411 725L402
721Q298 764 207 807L204 815L224 862L234 864Q320 813 425 761Z" />
<glyph unicode="&#xda;" glyph-name="Uacute" horiz-adv-x="626" d="M551 315L550 243Q552 125 488 59T306 -7Q193 -7 133 56T74 234L75 321L74 641H153L150 244Q149 154 190 109T312 63Q393 63 435 106T476 234L472 641H552L551 315ZM426 862L446 815L444 807Q349
763 248 721L239 725L225 761Q330 813 416 864L426 862Z" />
<glyph unicode="&#xdb;" glyph-name="Ucircumflex" horiz-adv-x="626" d="M551 315L550 243Q552 125 488 59T306 -7Q193 -7 133 56T74 234L75 321L74 641H153L150 244Q149 154 190 109T312 63Q393 63 435 106T476 234L472 641H552L551 315ZM188 768Q261 819 304
859H326Q378 814 443 768L428 734H418Q355 773 316 800Q290 782 213 734H204L188 768Z" />
<glyph unicode="&#xdc;" glyph-name="Udieresis" horiz-adv-x="626" d="M551 315L550 243Q552 125 488 59T306 -7Q193 -7 133 56T74 234L75 321L74 641H153L150 244Q149 154 190 109T312 63Q393 63 435 106T476 234L472 641H552L551 315ZM258 834T269 823T281
792Q281 771 269 758T237 745Q216 745 205 756T194 789Q194 809 206 821T239 834Q258 834 269 823ZM416 834T427 823T438 792Q438 771 426 758T394 745Q374 745 363 757T351 789Q351 809 363 821T396 834Q416 834 427 823Z" />
<glyph unicode="&#xdd;" glyph-name="Yacute" horiz-adv-x="528" d="M292 187L294 0H215L219 187L218 229L15 641H101L114 605L254 317H261L415 603L430 641H514L293 232L292 187ZM369 862L389 815L387 807Q292 763 191 721L182 725L168 761Q273 813 359 864L369 862Z" />
<glyph unicode="&#xde;" glyph-name="Thorn" horiz-adv-x="525" d="M386 531T437 483T488 342Q488 234 426 175T248 116L172 115L174 0H94L97 193L94 641H175L174 530L291 531Q386 531 437 483ZM405 203T405 336Q405 460 273 466L173 463L171 200V182L277 180Q405
203 405 336Z" />
<glyph unicode="&#xdf;" glyph-name="germandbls" horiz-adv-x="564" d="M354 337T376 316T446 266Q482 245 503 229T540 189T555 131Q555 93 536 62T479 11T391 -8Q321 -8 259 25L269 93L278 99Q305 75 336 62T397 49Q436 49 459 69T482 118Q482 146 461 165T397
210Q359 233 337 250T298 294T281 357Q281 394 297 417T344 468Q373 494 387 514T401 565Q401 604 375 625T304 646Q247 646 215 612T183 513L179 198L184 0H105L111 190L109 404H40L36 410L41 457H108V505Q108 600 161 652T307 704Q383 704 425 669T467 575Q467
536 451 511T404 455Q379 431 367 413T354 370Q354 337 376 316Z" />
<glyph unicode="&#xe0;" glyph-name="agrave" horiz-adv-x="462" d="M296 466T333 434T371 346Q371 329 365 223Q359 117 359 99Q359 77 366 69T390 60Q405 60 424 66L432 59L424 14Q395 -3 367 -6Q336 -3 318 16T298 68H291Q237 13 184 -7Q117 -7 80 26T42 118Q42
162 65 188T135 225L297 263L298 328Q298 367 278 388T219 409Q185 409 151 393T78 343L70 347L60 404Q143 466 231 466Q296 466 333 434ZM151 177Q131 171 122 161T113 129Q113 96 131 78T181 59Q236 59 293 130L296 212L151 177ZM234 626T324 552L302 520L293
519Q222 569 123 646L121 654L151 696L160 697Q234 626 324 552Z" />
<glyph unicode="&#xe1;" glyph-name="aacute" horiz-adv-x="462" d="M296 466T333 434T371 346Q371 329 365 223Q359 117 359 99Q359 77 366 69T390 60Q405 60 424 66L432 59L424 14Q395 -3 367 -6Q336 -3 318 16T298 68H291Q237 13 184 -7Q117 -7 80 26T42 118Q42
162 65 188T135 225L297 263L298 328Q298 367 278 388T219 409Q185 409 151 393T78 343L70 347L60 404Q143 466 231 466Q296 466 333 434ZM151 177Q131 171 122 161T113 129Q113 96 131 78T181 59Q236 59 293 130L296 212L151 177ZM322 696L352 654L350 646Q251
569 180 519L171 520L149 552Q247 632 313 697L322 696Z" />
<glyph unicode="&#xe2;" glyph-name="acircumflex" horiz-adv-x="462" d="M296 466T333 434T371 346Q371 329 365 223Q359 117 359 99Q359 77 366 69T390 60Q405 60 424 66L432 59L424 14Q395 -3 367 -6Q336 -3 318 16T298 68H291Q237 13 184 -7Q117 -7 80 26T42
118Q42 162 65 188T135 225L297 263L298 328Q298 367 278 388T219 409Q185 409 151 393T78 343L70 347L60 404Q143 466 231 466Q296 466 333 434ZM151 177Q131 171 122 161T113 129Q113 96 131 78T181 59Q236 59 293 130L296 212L151 177ZM90 555Q147 613 212 689H236Q298
612 357 555L335 523H326Q264 582 224 627Q186 585 122 523H112L90 555Z" />
<glyph unicode="&#xe3;" glyph-name="atilde" horiz-adv-x="462" d="M296 466T333 434T371 346Q371 329 365 223Q359 117 359 99Q359 77 366 69T390 60Q405 60 424 66L432 59L424 14Q395 -3 367 -6Q336 -3 318 16T298 68H291Q237 13 184 -7Q117 -7 80 26T42 118Q42
162 65 188T135 225L297 263L298 328Q298 367 278 388T219 409Q185 409 151 393T78 343L70 347L60 404Q143 466 231 466Q296 466 333 434ZM151 177Q131 171 122 161T113 129Q113 96 131 78T181 59Q236 59 293 130L296 212L151 177ZM380 642V634L319 565L309 562Q287
564 225 582Q168 599 154 599Q147 599 139 593T114 569L98 552H89L65 578V585L126 654L136 657Q160 655 219 637Q226 635 253 628T291 621Q299 621 308 628T331 650L348 667H356L380 642Z" />
<glyph unicode="&#xe4;" glyph-name="adieresis" horiz-adv-x="462" d="M296 466T333 434T371 346Q371 329 365 223Q359 117 359 99Q359 77 366 69T390 60Q405 60 424 66L432 59L424 14Q395 -3 367 -6Q336 -3 318 16T298 68H291Q237 13 184 -7Q117 -7 80 26T42
118Q42 162 65 188T135 225L297 263L298 328Q298 367 278 388T219 409Q185 409 151 393T78 343L70 347L60 404Q143 466 231 466Q296 466 333 434ZM151 177Q131 171 122 161T113 129Q113 96 131 78T181 59Q236 59 293 130L296 212L151 177ZM166 651T177 640T189
609Q189 588 177 575T145 562Q124 562 113 573T102 606Q102 626 114 638T147 651Q166 651 177 640ZM324 651T335 640T346 609Q346 588 334 575T302 562Q282 562 271 574T259 606Q259 626 271 638T304 651Q324 651 335 640Z" />
<glyph unicode="&#xe5;" glyph-name="aring" horiz-adv-x="462" d="M296 466T333 434T371 346Q371 329 365 223Q359 117 359 99Q359 77 366 69T390 60Q405 60 424 66L432 59L424 14Q395 -3 367 -6Q336 -3 318 16T298 68H291Q237 13 184 -7Q117 -7 80 26T42 118Q42
162 65 188T135 225L297 263L298 328Q298 367 278 388T219 409Q185 409 151 393T78 343L70 347L60 404Q143 466 231 466Q296 466 333 434ZM151 177Q131 171 122 161T113 129Q113 96 131 78T181 59Q236 59 293 130L296 212L151 177ZM262 697T284 675T306 616Q306
577 282 555T220 532Q184 532 161 553T138 614Q138 652 161 674T223 697Q262 697 284 675ZM199 658T188 647T176 615Q176 593 188 582T222 570Q242 570 254 581T267 613Q267 634 256 646T221 658Q199 658 188 647Z" />
<glyph unicode="&#xe6;" glyph-name="ae" horiz-adv-x="678" d="M563 465T607 417T648 277L639 266L356 218Q360 137 394 95T491 52Q523 52 556 64T619 98L627 94L618 29Q589 12 554 2T485 -8Q429 -8 388 17T322 91Q267 21 186 -7Q118 -7 79 26T39 119Q39 164
63 192T132 228L292 255V328Q292 367 272 388T215 409Q154 409 76 343L68 347L56 404Q139 466 224 466Q271 466 301 447T344 394Q370 429 408 447T490 465Q563 465 607 417ZM445 411T417 392T372 342T356 272V266L576 308Q573 357 547 384T479 411Q445 411 417
392ZM209 60T235 76T300 135Q293 184 292 207L161 181Q134 176 122 163T110 127Q110 95 130 78T181 60Q209 60 235 76Z" />
<glyph unicode="&#xe7;" glyph-name="ccedilla" horiz-adv-x="385" d="M276 466T309 459T368 439L354 370L345 367Q293 401 242 401Q183 401 150 356T117 230Q117 149 151 103T247 56Q274 56 303 65T359 90L368 85L359 18Q298 -8 237 -8Q146 -8 94 54T42 226Q42
337 96 401T245 466Q276 466 309 459ZM245 -51L279 -71Q317 -93 317 -127Q317 -156 295 -174T236 -193Q193 -193 164 -162L171 -122L176 -121Q190 -137 203 -144T233 -152Q247 -152 255 -145T264 -125Q264 -117 259 -112T243 -100L195 -71L220 19H266L245 -51Z"
/>
<glyph unicode="&#xe8;" glyph-name="egrave" horiz-adv-x="461" d="M116 232V230Q116 146 154 101T262 56Q297 56 332 67T396 100L404 94L392 26Q322 -8 252 -8Q154 -8 98 54T42 226Q42 336 98 401T249 466Q329 466 373 421T417 294Q417 267 413 243L403 233L116
232ZM199 410T166 378T121 286L342 290L344 304Q344 355 320 382T249 410Q199 410 166 378ZM249 626T339 552L317 520L308 519Q237 569 138 646L136 654L166 696L175 697Q249 626 339 552Z" />
<glyph unicode="&#xe9;" glyph-name="eacute" horiz-adv-x="461" d="M116 232V230Q116 146 154 101T262 56Q297 56 332 67T396 100L404 94L392 26Q322 -8 252 -8Q154 -8 98 54T42 226Q42 336 98 401T249 466Q329 466 373 421T417 294Q417 267 413 243L403 233L116
232ZM199 410T166 378T121 286L342 290L344 304Q344 355 320 382T249 410Q199 410 166 378ZM337 696L367 654L365 646Q266 569 195 519L186 520L164 552Q262 632 328 697L337 696Z" />
<glyph unicode="&#xea;" glyph-name="ecircumflex" horiz-adv-x="461" d="M116 232V230Q116 146 154 101T262 56Q297 56 332 67T396 100L404 94L392 26Q322 -8 252 -8Q154 -8 98 54T42 226Q42 336 98 401T249 466Q329 466 373 421T417 294Q417 267 413 243L403
233L116 232ZM199 410T166 378T121 286L342 290L344 304Q344 355 320 382T249 410Q199 410 166 378ZM105 555Q162 613 227 689H251Q313 612 372 555L350 523H341Q279 582 239 627Q201 585 137 523H127L105 555Z" />
<glyph unicode="&#xeb;" glyph-name="edieresis" horiz-adv-x="461" d="M116 232V230Q116 146 154 101T262 56Q297 56 332 67T396 100L404 94L392 26Q322 -8 252 -8Q154 -8 98 54T42 226Q42 336 98 401T249 466Q329 466 373 421T417 294Q417 267 413 243L403 233L116
232ZM199 410T166 378T121 286L342 290L344 304Q344 355 320 382T249 410Q199 410 166 378ZM181 651T192 640T204 609Q204 588 192 575T160 562Q139 562 128 573T117 606Q117 626 129 638T162 651Q181 651 192 640ZM339 651T350 640T361 609Q361 588 349 575T317
562Q297 562 286 574T274 606Q274 626 286 638T319 651Q339 651 350 640Z" />
<glyph unicode="&#xec;" glyph-name="igrave" horiz-adv-x="242" d="M85 194L82 453L159 460L157 201L159 0H81L85 194ZM131 626T221 552L199 520L190 519Q119 569 20 646L18 654L48 696L57 697Q131 626 221 552Z" />
<glyph unicode="&#xed;" glyph-name="iacute" horiz-adv-x="242" d="M85 194L82 453L159 460L157 201L159 0H81L85 194ZM219 696L249 654L247 646Q148 569 77 519L68 520L46 552Q144 632 210 697L219 696Z" />
<glyph unicode="&#xee;" glyph-name="icircumflex" horiz-adv-x="242" d="M85 194L82 453L159 460L157 201L159 0H81L85 194ZM-13 555Q44 613 109 689H133Q195 612 254 555L232 523H223Q161 582 121 627Q83 585 19 523H9L-13 555Z" />
<glyph unicode="&#xef;" glyph-name="idieresis" horiz-adv-x="242" d="M85 194L82 453L159 460L157 201L159 0H81L85 194ZM87 651T98 640T109 609Q109 587 97 575T65 562Q45 562 34 573T23 606Q23 626 35 638T68 651Q87 651 98 640ZM196 651T207 640T218 609Q218
587 207 575T175 562Q154 562 143 573T132 606Q132 626 144 638T177 651Q196 651 207 640Z" />
<glyph unicode="&#xf0;" glyph-name="eth" horiz-adv-x="489" d="M369 522T406 435T444 246Q444 125 391 59T241 -8Q149 -8 96 53T43 224Q43 335 96 397T246 459Q292 459 331 444Q296 509 238 560L116 499L108 502L92 540L196 592Q143 629 69 660V670L114 706H120Q202
670 259 624L375 683L382 680L399 642L297 591Q369 522 406 435ZM311 46T343 94T375 241Q375 307 362 360Q314 405 250 405Q183 405 148 359T112 224Q112 137 147 92T246 46Q311 46 343 94Z" />
<glyph unicode="&#xf1;" glyph-name="ntilde" horiz-adv-x="516" d="M369 311Q370 352 350 375T291 398Q228 398 155 327V201L159 0H80L85 194L81 453L156 460V393H162Q224 448 289 464Q364 464 403 429T442 329L440 199L444 0H364L369 311ZM430 642V634L369 565L359
562Q337 564 275 582Q218 599 204 599Q197 599 189 593T164 569L148 552H139L115 578V585L176 654L186 657Q210 655 269 637Q276 635 303 628T341 621Q349 621 358 628T381 650L398 667H406L430 642Z" />
<glyph unicode="&#xf2;" glyph-name="ograve" horiz-adv-x="491" d="M344 466T395 406T447 235Q447 119 393 56T239 -8Q145 -8 94 52T42 223Q42 339 96 402T251 466Q344 466 395 406ZM183 410T150 367T117 241Q117 145 149 97T244 49Q307 49 340 91T373 217Q373
312 341 361T246 410Q183 410 150 367ZM257 626T347 552L325 520L316 519Q245 569 146 646L144 654L174 696L183 697Q257 626 347 552Z" />
<glyph unicode="&#xf3;" glyph-name="oacute" horiz-adv-x="491" d="M344 466T395 406T447 235Q447 119 393 56T239 -8Q145 -8 94 52T42 223Q42 339 96 402T251 466Q344 466 395 406ZM183 410T150 367T117 241Q117 145 149 97T244 49Q307 49 340 91T373 217Q373
312 341 361T246 410Q183 410 150 367ZM345 696L375 654L373 646Q274 569 203 519L194 520L172 552Q270 632 336 697L345 696Z" />
<glyph unicode="&#xf4;" glyph-name="ocircumflex" horiz-adv-x="491" d="M344 466T395 406T447 235Q447 119 393 56T239 -8Q145 -8 94 52T42 223Q42 339 96 402T251 466Q344 466 395 406ZM183 410T150 367T117 241Q117 145 149 97T244 49Q307 49 340 91T373 217Q373
312 341 361T246 410Q183 410 150 367ZM113 555Q170 613 235 689H259Q321 612 380 555L358 523H349Q287 582 247 627Q209 585 145 523H135L113 555Z" />
<glyph unicode="&#xf5;" glyph-name="otilde" horiz-adv-x="491" d="M344 466T395 406T447 235Q447 119 393 56T239 -8Q145 -8 94 52T42 223Q42 339 96 402T251 466Q344 466 395 406ZM183 410T150 367T117 241Q117 145 149 97T244 49Q307 49 340 91T373 217Q373
312 341 361T246 410Q183 410 150 367ZM403 642V634L342 565L332 562Q310 564 248 582Q191 599 177 599Q170 599 162 593T137 569L121 552H112L88 578V585L149 654L159 657Q183 655 242 637Q249 635 276 628T314 621Q322 621 331 628T354 650L371 667H379L403 642Z"
/>
<glyph unicode="&#xf6;" glyph-name="odieresis" horiz-adv-x="491" d="M344 466T395 406T447 235Q447 119 393 56T239 -8Q145 -8 94 52T42 223Q42 339 96 402T251 466Q344 466 395 406ZM183 410T150 367T117 241Q117 145 149 97T244 49Q307 49 340 91T373 217Q373
312 341 361T246 410Q183 410 150 367ZM189 651T200 640T212 609Q212 588 200 575T168 562Q147 562 136 573T125 606Q125 626 137 638T170 651Q189 651 200 640ZM347 651T358 640T369 609Q369 588 357 575T325 562Q305 562 294 574T282 606Q282 626 294 638T327
651Q347 651 358 640Z" />
<glyph unicode="&#xf7;" glyph-name="divide" horiz-adv-x="480" d="M459 287L454 237H47L41 243L46 293H453L459 287ZM280 136T291 125T302 93Q302 73 291 61T258 48Q238 48 228 59T217 92Q217 111 228 123T261 136Q280 136 291 125ZM280 486T291 475T302 443Q302
423 291 411T258 398Q238 398 228 409T217 442Q217 461 228 473T261 486Q280 486 291 475Z" />
<glyph unicode="&#xf8;" glyph-name="oslash" horiz-adv-x="491" d="M447 366T447 235Q447 119 393 56T239 -8Q197 -8 163 4L103 -116L59 -96L56 -88L116 31Q80 60 61 108T42 223Q42 339 96 402T251 466Q295 466 327 453L376 551L418 532L422 523L374 427Q447
366 447 235ZM117 147T149 98L299 398Q277 410 246 410Q183 410 150 367T117 241Q117 147 149 98ZM307 49T340 91T373 217Q373 311 341 360L191 60Q215 49 244 49Q307 49 340 91Z" />
<glyph unicode="&#xf9;" glyph-name="ugrave" horiz-adv-x="510" d="M490 59L482 14Q453 -3 425 -6Q396 -2 379 14T354 64H348Q288 10 224 -6Q150 -6 112 29T74 129L75 256L72 453L152 460L146 148Q146 107 165 84T223 61Q285 61 347 121V453L423 460L418 98Q418
77 424 69T447 60Q463 60 482 66L490 59ZM266 626T356 552L334 520L325 519Q254 569 155 646L153 654L183 696L192 697Q266 626 356 552Z" />
<glyph unicode="&#xfa;" glyph-name="uacute" horiz-adv-x="510" d="M490 59L482 14Q453 -3 425 -6Q396 -2 379 14T354 64H348Q288 10 224 -6Q150 -6 112 29T74 129L75 256L72 453L152 460L146 148Q146 107 165 84T223 61Q285 61 347 121V453L423 460L418 98Q418
77 424 69T447 60Q463 60 482 66L490 59ZM354 696L384 654L382 646Q283 569 212 519L203 520L181 552Q279 632 345 697L354 696Z" />
<glyph unicode="&#xfb;" glyph-name="ucircumflex" horiz-adv-x="510" d="M490 59L482 14Q453 -3 425 -6Q396 -2 379 14T354 64H348Q288 10 224 -6Q150 -6 112 29T74 129L75 256L72 453L152 460L146 148Q146 107 165 84T223 61Q285 61 347 121V453L423 460L418
98Q418 77 424 69T447 60Q463 60 482 66L490 59ZM122 555Q179 613 244 689H268Q330 612 389 555L367 523H358Q296 582 256 627Q218 585 154 523H144L122 555Z" />
<glyph unicode="&#xfc;" glyph-name="udieresis" horiz-adv-x="510" d="M490 59L482 14Q453 -3 425 -6Q396 -2 379 14T354 64H348Q288 10 224 -6Q150 -6 112 29T74 129L75 256L72 453L152 460L146 148Q146 107 165 84T223 61Q285 61 347 121V453L423 460L418 98Q418
77 424 69T447 60Q463 60 482 66L490 59ZM198 651T209 640T221 609Q221 588 209 575T177 562Q156 562 145 573T134 606Q134 626 146 638T179 651Q198 651 209 640ZM356 651T367 640T378 609Q378 588 366 575T334 562Q314 562 303 574T291 606Q291 626 303 638T336
651Q356 651 367 640Z" />
<glyph unicode="&#xfd;" glyph-name="yacute" horiz-adv-x="427" d="M99 402L209 86H216L330 395L345 458H416L252 16Q227 -52 199 -91T130 -152T23 -191H16Q-5 -170 -17 -144L-15 -135Q61 -120 101 -93T177 0L9 456L84 461L99 402ZM316 696L346 654L344 646Q245
569 174 519L165 520L143 552Q241 632 307 697L316 696Z" />
<glyph unicode="&#xfe;" glyph-name="thorn" horiz-adv-x="513" d="M379 463T424 406T470 243Q470 123 412 58T250 -8Q206 -8 160 11L162 -185H84L90 194L84 695L163 702L160 395H166Q200 423 228 438T292 463Q379 463 424 406ZM321 50T358 95T395 228Q395 309
367 353T285 398Q253 398 223 381T159 327L158 201L159 83Q208 50 257 50Q321 50 358 95Z" />
<glyph unicode="&#xff;" glyph-name="ydieresis" horiz-adv-x="427" d="M99 402L209 86H216L330 395L345 458H416L252 16Q227 -52 199 -91T130 -152T23 -191H16Q-5 -170 -17 -144L-15 -135Q61 -120 101 -93T177 0L9 456L84 461L99 402ZM160 651T171 640T183 609Q183
588 171 575T139 562Q118 562 107 573T96 606Q96 626 108 638T141 651Q160 651 171 640ZM318 651T329 640T340 609Q340 588 328 575T296 562Q276 562 265 574T253 606Q253 626 265 638T298 651Q318 651 329 640Z" />
<glyph unicode="&#x2013;" glyph-name="endash" horiz-adv-x="476" d="M492 277L489 228H-10L-16 234L-11 284H487L492 277Z" />
<glyph unicode="&#x2014;" glyph-name="emdash" horiz-adv-x="929" d="M946 277L941 228H-10L-16 234L-11 284H939L946 277Z" />
<glyph unicode="&#x2018;" glyph-name="quoteleft" horiz-adv-x="167" d="M33 455T33 510Q33 572 106 644L136 623L137 616Q95 571 95 532Q95 492 134 477V469Q115 451 87 435Q33 455 33 510Z" />
<glyph unicode="&#x2019;" glyph-name="quoteright" horiz-adv-x="167" d="M137 622T137 567Q137 505 64 433L34 454L33 461Q75 506 75 545Q75 585 36 600V608Q55 626 83 642Q137 622 137 567Z" />
<glyph unicode="&#x201a;" glyph-name="quotesinglbase" horiz-adv-x="229" d="M169 61T169 20Q169 -45 75 -114L48 -89V-82Q103 -39 103 6Q103 33 72 53V61Q100 80 127 87Q169 61 169 20Z" />
<glyph unicode="&#x201c;" glyph-name="quotedblleft" horiz-adv-x="298" d="M164 455T164 510Q164 572 237 644L267 623L268 616Q226 571 226 532Q226 492 265 477V469Q246 451 218 435Q164 455 164 510ZM33 455T33 510Q33 572 106 644L136 623L137 616Q95 571
95 532Q95 492 134 477V469Q115 451 87 435Q33 455 33 510Z" />
<glyph unicode="&#x201d;" glyph-name="quotedblright" horiz-adv-x="296" d="M266 622T266 567Q266 505 193 433L163 454L162 461Q204 506 204 545Q204 585 165 600V608Q184 626 212 642Q266 622 266 567ZM137 622T137 567Q137 505 64 433L34 454L33 461Q75 506
75 545Q75 585 36 600V608Q55 626 83 642Q137 622 137 567Z" />
<glyph unicode="&#x201e;" glyph-name="quotedblbase" horiz-adv-x="360" d="M300 61T300 20Q300 -45 206 -114L179 -89V-82Q234 -39 234 6Q234 33 203 53V61Q231 80 258 87Q300 61 300 20ZM169 61T169 20Q169 -45 75 -114L48 -89V-82Q103 -39 103 6Q103 33 72
53V61Q100 80 127 87Q169 61 169 20Z" />
<glyph unicode="&#x2022;" glyph-name="bullet" horiz-adv-x="241" d="M145 291T158 278T172 240Q172 216 158 201T119 186Q96 186 83 199T70 238Q70 262 84 276T122 291Q145 291 158 278Z" />
<glyph unicode="&#x2039;" glyph-name="guilsinglleft" horiz-adv-x="229" d="M44 216V232L189 406L227 384L228 374L104 225L228 76L227 67L189 45L44 216Z" />
<glyph unicode="&#x203a;" glyph-name="guilsinglright" horiz-adv-x="229" d="M189 236V220L44 46L6 68L5 78L129 227L5 376L6 385L44 407L189 236Z" />
</font>
</defs>
</svg>
