<?xml version="1.0" standalone="no"?>
<!DOCTYPE svg PUBLIC "-//W3C//DTD SVG 1.1//EN" "http://www.w3.org/Graphics/SVG/1.1/DTD/svg11.dtd">
<svg xmlns="http://www.w3.org/2000/svg">
<defs >
<font id="Alegreya" horiz-adv-x="550" ><font-face
    font-family="Alegreya"
    units-per-em="1000"
    panose-1="0 0 5 0 0 0 0 0 0 0"
    ascent="1016"
    descent="-345"
    alphabetic="0" />
<glyph unicode=" " glyph-name="space" horiz-adv-x="198" />
<glyph unicode="!" glyph-name="exclam" horiz-adv-x="285" d="M106 210L98 666L105 676L188 694L197 683L145 209L117 202L106 210ZM90 -12T76 4T61 45Q61 71 78 89T123 107Q150 107 165 91T180 50Q180 24 163 6T117 -12Q90 -12 76 4Z" />
<glyph unicode="&quot;" glyph-name="quotedbl" horiz-adv-x="298" d="M60 417Q61 435 61 471Q61 527 58 574T54 635L124 649L131 641Q129 622 119 558T96 429L71 415L60 417ZM182 417Q183 435 183 471Q183 527 180 574T176 635L246 649L253 641Q251 622 241 558T218
429L193 415L182 417Z" />
<glyph unicode="#" glyph-name="numbersign" horiz-adv-x="498" d="M88 41L125 209L14 208L11 218L26 255L135 254L148 311L160 363L51 362L48 372L63 409L170 408L207 568L247 573L255 567L216 407H269L322 406L359 568L399 573L407 567L368 406H476L480 397L461
361L357 362L348 323L332 252H439L443 243L424 207L322 208L286 43L247 35L240 41L277 209L207 210L171 209L134 43L95 35L88 41ZM300 311L312 363L244 364L206 363L196 323L180 253H232L287 252L300 311Z" />
<glyph unicode="$" glyph-name="dollar" horiz-adv-x="459" d="M400 82T351 41T219 -8L206 -151L180 -154L175 -147L188 -9Q154 -9 125 -3T79 9T58 18L53 27Q54 32 56 49T61 98T64 162L109 166Q109 116 116 90T140 53T193 39L209 214L195 221Q131 252 97 282T62
359Q62 418 111 459T236 506L250 654L276 658L282 649L268 507Q299 506 325 502T367 494T387 488L391 481Q389 470 382 432T372 349L333 345L327 349Q327 352 328 361T329 385Q329 419 314 434T263 454L247 288L250 287Q299 264 328 247T379 204T400 144Q400 82
351 41ZM139 362T159 343T217 303L231 455Q191 453 165 434T139 386Q139 362 159 343ZM267 42T292 62T318 116Q318 142 298 161T239 199L224 39Q267 42 292 62Z" />
<glyph unicode="%" glyph-name="percent" horiz-adv-x="671" d="M77 -76L72 -64Q94 -31 157 66T292 275L548 678L587 659L592 645Q563 602 474 468T330 245Q259 131 198 35T115 -95L77 -76ZM108 326T72 369T35 482Q35 529 54 567T107 627T186 649Q251 649 285
605T320 500Q320 454 302 414T250 350T170 326Q108 326 72 369ZM219 390T246 409T273 477Q273 523 245 553T169 583Q129 583 106 559T82 496Q82 443 112 417T184 390Q219 390 246 409ZM447 -12T411 31T374 144Q374 191 393 229T446 289T525 311Q590 311 624 267T659
162Q659 116 641 76T589 12T509 -12Q447 -12 411 31ZM558 52T585 71T612 139Q612 185 584 215T508 245Q468 245 445 221T421 158Q421 105 451 79T523 52Q558 52 585 71Z" />
<glyph unicode="&amp;" glyph-name="ampersand" horiz-adv-x="700" d="M586 -28T468 78Q426 36 373 12T269 -12Q171 -12 113 34T55 160Q55 211 84 248T150 307T187 326V333Q105 419 105 490Q105 535 131 571T202 628T304 649Q336 649 363 644T405 634T425 626L427
611L379 537L369 536Q333 569 312 579T263 590Q223 590 199 570T175 514Q175 480 188 451T233 388T326 301L486 163Q504 199 504 249Q504 309 485 338T426 367Q409 367 392 364T369 358L355 401Q357 402 363 406T382 414T408 419L614 431Q652 434 670 436T691 442L701
418L688 387Q681 374 669 371T618 367H518L515 361Q535 343 546 318T557 263Q557 199 517 137L657 19V3Q650 -2 627 -15T595 -28Q586 -28 468 78ZM338 51T375 64T441 102L216 303Q177 285 154 252T130 180Q130 121 175 86T297 51Q338 51 375 64Z" />
<glyph unicode="&apos;" glyph-name="quotesingle" horiz-adv-x="176" d="M60 417Q61 435 61 471Q61 527 58 574T54 635L124 649L131 641Q129 622 119 558T96 429L71 415L60 417Z" />
<glyph unicode="(" glyph-name="parenleft" horiz-adv-x="275" d="M242 -153T191 -118T98 -14T57 163V336Q57 445 99 514T193 620T245 649H249L262 620L261 616Q261 622 223 592T155 502T124 351V178Q124 79 156 14T227 -86T267 -115V-120L246 -146H242Q242 -153
191 -118Z" />
<glyph unicode=")" glyph-name="parenright" horiz-adv-x="274" d="M12 -117L13 -113Q13 -119 51 -89T119 1T150 152V325Q150 424 118 489T47 589T7 618V623L28 649H32Q32 656 83 621T176 517T217 340V167Q217 58 175 -11T81 -117T29 -146H25L12 -117Z" />
<glyph unicode="*" glyph-name="asterisk" horiz-adv-x="456" d="M199 615Q199 649 197 682T194 725Q200 727 221 732T261 737L268 730Q266 720 258 685T239 616L205 611L199 615ZM142 576T110 584T68 594Q68 600 69 621T77 662L86 666Q95 661 126 643T186 603L180
570L174 565Q142 576 110 584ZM253 599L254 607Q286 617 317 629T357 646Q361 641 372 623T389 586L385 577Q374 575 338 572T267 570L253 599ZM276 418Q271 428 257 461T232 528L256 551L264 552Q283 525 304 499T332 466Q328 461 315 445T285 417L276 418ZM148
436T128 444T92 464L91 473Q98 481 125 505T182 549L211 533L214 526Q194 499 177 471T154 434Q148 436 128 444Z" />
<glyph unicode="+" glyph-name="plus" horiz-adv-x="506" d="M221 36L222 235L24 234L18 243L29 292L222 291L223 492L274 500L284 494Q283 474 281 408T278 291Q328 291 394 293T482 297L488 287L480 236L278 235L279 41L230 30L221 36Z" />
<glyph unicode="," glyph-name="comma" horiz-adv-x="294" d="M63 -142V-132Q98 -108 120 -75T142 -11Q142 9 133 27T110 59L112 73Q146 99 170 99Q192 99 206 79T221 21Q221 -31 179 -77T81 -157L63 -142Z" />
<glyph unicode="-" glyph-name="hyphen" horiz-adv-x="380" d="M64 218L70 270L244 290Q274 293 289 295T309 299L316 290L311 236L71 210L64 218Z" />
<glyph unicode="." glyph-name="period" horiz-adv-x="305" d="M122 -12T108 4T93 45Q93 71 110 89T155 107Q182 107 197 91T212 50Q212 24 195 6T149 -12Q122 -12 108 4Z" />
<glyph unicode="/" glyph-name="slash" horiz-adv-x="329" d="M34 -102Q43 -72 72 29T126 226L241 675H287L295 665Q282 617 246 486T173 215Q142 95 119 7T89 -110H41L34 -102Z" />
<glyph unicode="0" glyph-name="zero" horiz-adv-x="533" d="M189 -12T141 19T65 106T38 235Q38 312 69 373T156 470T281 505Q343 505 392 475T468 389T495 263Q495 185 464 122T377 24T253 -12Q189 -12 141 19ZM346 64T392 111T439 235Q439 290 416 333T353 400T260
424Q185 424 140 377T94 250Q94 196 116 154T179 88T271 64Q346 64 392 111Z" />
<glyph unicode="1" glyph-name="one" horiz-adv-x="342" d="M55 34Q93 37 112 47T138 80T145 148V376Q145 411 133 422T91 433Q78 433 61 431T38 427L35 430L39 472Q49 473 79 477T149 487Q229 500 239 502T250 505L256 488Q236 471 229 455T219 404Q213 245 213
112Q213 72 223 58T262 44Q280 44 295 45T315 47L317 43L308 -3Q294 -2 255 -1T175 0Q143 0 102 -5T49 -12L55 34Z" />
<glyph unicode="2" glyph-name="two" horiz-adv-x="475" d="M106 94Q190 189 229 254T269 362Q269 398 249 418T194 438Q160 438 127 414T71 349H62L51 394Q76 442 124 473T220 505Q282 505 319 472T357 385Q357 355 338 317T273 220T144 68L148 61H301Q339 61
359 68T391 94T413 152L453 157Q449 143 439 95T424 0L412 -7Q374 -6 260 -3T91 0L37 -12L27 6L106 94Z" />
<glyph unicode="3" glyph-name="three" horiz-adv-x="416" d="M53 -105T39 -88T23 -32L28 -26Q70 -35 108 -35Q157 -35 197 -18T261 30T285 98Q285 149 242 173T106 199L101 204L96 239L161 255Q201 274 226 306T252 372Q252 403 230 422T174 442Q146 442 115
428T60 391H50L40 433Q40 434 69 453T135 489T205 505Q264 505 299 475T335 393Q335 353 305 315T225 251V246Q360 215 360 122Q360 70 319 17T213 -70T87 -105Q53 -105 39 -88Z" />
<glyph unicode="4" glyph-name="four" horiz-adv-x="453" d="M254 -96Q255 -79 257 -28T260 85Q106 89 13 89L17 126L293 504L297 505L329 495V143H422L428 135L420 80L329 83Q330 32 332 -19T336 -86L331 -93L260 -105L254 -96ZM260 143V367H251L90 143H260Z" />
<glyph unicode="5" glyph-name="five" horiz-adv-x="430" d="M48 -105T33 -90T16 -32L21 -26Q63 -35 102 -35Q154 -35 196 -18T263 29T288 98Q288 131 269 154T204 193T79 224L70 235Q76 309 81 383T87 479L95 487L284 495Q314 497 326 504T347 534L380 538L356
420L350 414Q332 415 268 418T131 422L124 296Q239 269 301 232T364 128Q364 70 319 16T207 -71T79 -105Q48 -105 33 -90Z" />
<glyph unicode="6" glyph-name="six" horiz-adv-x="462" d="M304 344T343 323T406 264T429 180Q429 126 403 82T332 13T230 -12Q178 -12 137 14T73 88T50 197Q50 330 138 436T382 598L389 593L400 563Q297 520 231 451T142 294L145 292Q183 316 213 330T256 344Q304
344 343 323ZM299 36T327 68T355 156Q355 191 339 220T295 267T234 285Q210 285 182 275T133 248Q130 226 130 203Q130 126 162 81T250 36Q299 36 327 68Z" />
<glyph unicode="7" glyph-name="seven" horiz-adv-x="420" d="M102 -87L92 -65L342 425L169 418Q135 416 118 408T93 382T77 325L38 319Q40 335 47 389T57 492L63 497Q73 496 109 495T185 493H396L418 465Q325 279 269 151T204 5Q203 2 194 -19L169 -105H162L102 -87Z" />
<glyph unicode="8" glyph-name="eight" horiz-adv-x="485" d="M156 -12T106 24T56 124Q56 186 95 226T185 289Q133 317 104 350T74 435Q74 477 97 514T161 575T254 598Q294 598 330 583T388 538T410 464Q410 412 381 376T311 319Q368 289 399 254T431 166Q431
118 404 77T331 12T227 -12Q156 -12 106 24ZM335 373T335 443Q335 495 308 523T237 552Q196 552 170 526T144 465Q144 436 161 414T203 377T275 337Q335 373 335 443ZM296 31T329 61T362 137Q362 169 343 192T298 230T220 271Q184 256 157 227T129 148Q129 118
145 91T189 48T251 31Q296 31 329 61Z" />
<glyph unicode="9" glyph-name="nine" horiz-adv-x="455" d="M286 505T327 479T391 405T414 296Q414 163 326 57T82 -105L75 -100L64 -70Q167 -27 233 42T322 199L319 201Q281 177 251 163T208 149Q160 149 121 170T58 229T35 313Q35 367 61 411T132 480T234 505Q286
505 327 479ZM254 208T282 218T331 245Q334 268 334 290Q334 367 302 412T214 457Q165 457 137 425T109 337Q109 302 125 273T169 226T230 208Q254 208 282 218Z" />
<glyph unicode=":" glyph-name="colon" horiz-adv-x="238" d="M374 -12T360 4T345 45Q345 71 362 89T407 107Q434 107 449 91T464 50Q464 24 447 6T401 -12Q374 -12 360 4ZM118 268T104 284T89 325Q89 351 106 369T151 387Q178 387 193 371T208 330Q208 304 191
286T145 268Q118 268 104 284Z" />
<glyph unicode=";" glyph-name="semicolon" horiz-adv-x="238" d="M63 -142V-132Q98 -108 120 -75T142 -11Q142 9 133 27T110 59L112 73Q146 99 170 99Q192 99 206 79T221 21Q221 -31 179 -77T81 -157L63 -142ZM118 268T104 284T89 325Q89 351 106 369T151 387Q178
387 193 371T208 330Q208 304 191 286T145 268Q118 268 104 284Z" />
<glyph unicode="&lt;" glyph-name="less" horiz-adv-x="506" d="M407 78T348 105T237 155Q175 182 118 206T39 239L31 250L33 297L236 383Q293 407 355 432T437 464L446 459L453 409Q434 402 372 380T259 336L105 276V270L273 200L454 121L455 110L425 70Q407
78 348 105Z" />
<glyph unicode="=" glyph-name="equal" horiz-adv-x="506" d="M18 323L29 372L268 371Q318 371 389 373T482 377L488 367L480 316L253 315L24 314L18 323ZM18 166L29 215L268 214Q318 214 389 216T482 220L488 210L480 159L253 158L24 157L18 166Z" />
<glyph unicode="&gt;" glyph-name="greater" horiz-adv-x="506" d="M60 75L53 125Q72 132 134 154T247 198L401 258V264L233 334L52 413L51 424L81 464Q99 456 158 429T269 379Q331 352 388 328T467 295L475 284L473 237L270 151Q213 127 151 102T69 70L60 75Z" />
<glyph unicode="?" glyph-name="question" horiz-adv-x="360" d="M108 203L84 323L87 337L206 413Q263 452 263 499Q263 558 209 589T60 626L58 637L91 690L105 694Q166 692 217 670T299 611T329 529Q329 486 312 455T271 404T204 356Q176 338 163 328L160 319L181
224L178 216L117 199L108 203ZM116 -12T102 4T87 45Q87 71 104 89T149 107Q176 107 191 91T206 50Q206 24 189 6T143 -12Q116 -12 102 4Z" />
<glyph unicode="@" glyph-name="at" horiz-adv-x="832" d="M305 -203T215 -149T79 -6T33 188Q33 298 86 396T236 553T460 613Q558 613 635 572T756 461T799 304Q799 221 762 149T652 32T477 -12Q441 -12 441 17Q441 29 459 112T484 225L478 227Q430 136 385 79T291
-12Q252 -12 232 25T211 124Q211 206 245 284T333 411T440 460L540 444L549 469L554 470L585 455L593 443Q588 427 573 370T540 227T509 58L513 54Q619 54 674 115T730 280Q730 367 694 429T591 524T435 557Q337 557 262 509T145 381T104 206Q104 106 142 25T259
-108T457 -166V-173L431 -209Q305 -203 215 -149ZM328 69T360 108T433 217T510 373Q493 384 465 395T409 406Q378 406 348 374T300 287T281 173Q281 131 289 100T310 69Q328 69 360 108Z" />
<glyph unicode="A" glyph-name="A" horiz-adv-x="584" d="M329 -3L333 36Q384 40 403 48T422 74Q422 94 413 122L380 231Q356 232 276 232Q228 232 167 224L130 120Q121 93 121 81Q121 59 135 50T181 40H238L240 36L234 -7Q222 -6 179 -3T95 0Q58 0 27 -1T-15
-3L-7 44Q21 47 38 63T71 121L266 632L329 649H337Q343 625 367 538T427 332T496 113Q508 76 528 61T592 42L594 38L587 -3Q575 -3 544 -2T481 0Q433 0 389 -4T332 -10L329 -3ZM273 273Q309 273 366 278L287 540H280L185 273H273Z" />
<glyph unicode="B" glyph-name="B" horiz-adv-x="597" d="M141 0T105 -5T58 -12L64 34Q110 43 126 60T142 120L143 540Q143 572 136 583T106 594Q96 594 86 593T72 592L70 596L77 640Q89 639 122 638T188 637Q222 637 257 638T306 641Q401 641 452 602T503 489Q503
439 473 399T387 335Q460 319 501 279T542 183Q542 132 510 88T423 17T307 -10Q280 -10 245 -5Q188 0 172 0Q141 0 105 -5ZM234 350T269 347T328 343Q328 340 354 353T401 395T422 472Q422 536 379 567T246 598Q236 598 233 594T228 575Q222 479 219 351Q234 350
269 347ZM213 111Q213 73 239 57T327 41Q387 41 421 74T456 165Q456 219 422 253T321 300L217 298L213 111Z" />
<glyph unicode="C" glyph-name="C" horiz-adv-x="626" d="M249 -12T181 26T77 133T40 297Q40 397 85 477T209 603T389 649Q426 649 464 644T529 633T563 625L567 619Q565 613 561 590T551 530T542 452L494 448Q495 453 496 466T497 497Q497 590 350 590Q284 590
234 558T157 468T130 330Q130 243 158 177T239 75T359 38Q427 38 468 76T529 196L577 200Q574 185 564 134T550 37L544 28Q544 27 514 17T438 -3T339 -12Q249 -12 181 26Z" />
<glyph unicode="D" glyph-name="D" horiz-adv-x="703" d="M302 -10T254 -5T173 0Q142 0 106 -5T58 -12L64 34Q110 43 126 60T142 120L143 540Q143 572 136 583T106 594Q96 594 86 593T72 592L70 596L77 640Q88 639 119 638T182 637Q225 637 271 638T334 641Q430
641 505 604T621 498T663 342Q663 244 617 163T492 35T317 -12Q302 -10 254 -5ZM244 592T237 588T229 570Q214 185 214 131Q214 93 224 74T261 47T340 39Q448 39 510 113T572 318Q572 450 493 521T265 592Q244 592 237 588Z" />
<glyph unicode="E" glyph-name="E" horiz-adv-x="591" d="M532 167Q515 86 505 -1L500 -7Q290 0 197 0Q123 0 58 -10L64 36Q109 42 125 59T142 120L143 540Q143 572 136 583T106 594L72 592L70 596L77 640Q179 637 216 637Q335 637 401 639T516 649L519 643Q501
564 496 477L448 473L450 516Q450 551 441 564T402 582T297 587Q262 587 249 585T232 576T227 548L219 354L322 353Q361 353 444 364L448 359L434 300Q323 303 294 303Q261 303 217 296L213 105Q213 76 218 65T238 49T292 45Q376 45 411 53T462 85T485 167L529
172L532 167Z" />
<glyph unicode="F" glyph-name="F" horiz-adv-x="512" d="M64 34Q110 43 126 60T142 120L143 540Q143 572 136 583T106 594Q96 594 86 593T72 592L70 596L77 640Q90 639 129 638T216 637Q413 637 497 649L500 643Q499 637 495 615T485 554T477 474L429 470Q429
475 430 489T431 516Q431 551 423 564T388 582T297 587Q262 587 249 585T232 576T227 548L219 337L322 336Q341 336 378 340T427 347L431 342L417 282Q404 283 369 284T294 285Q257 285 217 278L213 112Q213 71 222 58T257 44Q277 44 298 45T328 47L330 43L321
-4Q305 -3 262 -2T172 0Q141 0 105 -5T58 -12L64 34Z" />
<glyph unicode="G" glyph-name="G" horiz-adv-x="667" d="M244 -12T178 26T76 133T40 297Q40 400 84 480T208 604T391 649Q428 649 471 644T545 633T585 625L589 619Q587 613 582 590T572 530T563 452L516 448Q517 453 518 467T519 502Q519 548 484 569T368 590Q254
590 191 522T127 329Q127 242 155 176T235 74T355 38Q391 38 421 46T471 65T492 76V198Q492 232 482 242T437 252H368L366 256L375 306Q387 305 426 304T502 302Q529 302 555 304T588 307L592 285Q574 270 568 238T561 131Q561 73 568 43L562 34Q562 33 527 21T440
-2T332 -12Q244 -12 178 26Z" />
<glyph unicode="H" glyph-name="H" horiz-adv-x="754" d="M64 34Q110 43 126 60T142 120L143 540Q143 572 136 583T106 594L72 592L70 596L77 640Q90 640 97 639Q157 637 188 637Q230 637 295 646L291 601Q261 596 249 589T232 566T225 511L219 349L387 348Q450
348 535 358L536 540Q536 572 529 583T499 594Q485 594 465 592L463 596L470 640Q481 639 510 638T568 637Q616 637 688 646L684 601Q647 596 634 585T620 544Q614 431 610 302T606 106Q606 69 615 57T650 44Q662 44 695 47L697 43L688 -3Q674 -3 666 -2Q600 0
565 0L450 -2L459 43Q492 44 507 52T529 82T535 150V301L383 302Q358 301 313 299T217 291L213 112Q213 71 222 58T257 44Q269 44 302 47L304 43L295 -3Q286 -2 261 -1T210 0Q164 0 112 -4T58 -12L64 34Z" />
<glyph unicode="I" glyph-name="I" horiz-adv-x="361" d="M62 34Q109 43 125 60T142 120L143 540Q143 572 136 583T106 594L64 592L62 596L69 640Q85 640 94 639L188 637Q233 637 303 646L299 601Q258 596 244 585T227 544Q221 427 217 300T213 112Q213 71 222
58T257 44Q274 44 310 47L312 43L303 -3Q289 -3 281 -2Q211 0 172 0Q123 0 56 -12L62 34Z" />
<glyph unicode="J" glyph-name="J" horiz-adv-x="327" d="M23 -111L26 -103Q67 -78 89 -51T121 15T131 115L132 540Q132 572 125 582T95 593Q83 593 69 592T48 589L46 593L53 637H161Q188 637 226 640T277 646L273 601Q248 597 237 592T222 577T216 544Q212 451
209 328T203 116Q202 14 164 -47T40 -144L23 -111Z" />
<glyph unicode="K" glyph-name="K" horiz-adv-x="628" d="M143 572T136 583T106 594Q96 594 86 593T72 592L70 596L77 640Q89 639 122 638T188 637Q215 637 249 640T295 646L291 601Q254 595 240 583T225 541L213 112Q212 72 221 58T257 44Q272 44 285 45T302
47L304 43L295 -3Q282 -2 246 -1T172 0L57 -1L67 44Q99 47 114 54T136 76T142 120L143 540Q143 572 136 583ZM422 515Q453 546 453 567Q453 593 390 597L388 601L395 644Q407 643 444 640T505 637Q529 637 558 638T597 641L601 634L594 593Q568 588 546 572T479
509L318 340L486 121Q522 74 550 55T614 36L618 32L612 -2Q601 -4 569 -9T529 -14Q505 -14 476 8T417 72L242 315L243 329L422 515Z" />
<glyph unicode="L" glyph-name="L" horiz-adv-x="507" d="M74 36Q113 42 127 59T142 120L143 540Q143 572 136 583T106 594Q96 594 86 593T72 592L70 596L77 640Q89 639 122 638T189 637Q216 637 250 640T296 646L292 601Q259 597 247 588T232 567T226 508Q220
423 217 314T214 122Q214 86 220 71T242 50T299 45Q360 45 388 55T431 94T458 187L502 192L505 187Q502 171 493 115T476 -3L471 -9Q442 -7 352 -4T202 0Q155 0 117 -4T68 -10L74 36Z" />
<glyph unicode="M" glyph-name="M" horiz-adv-x="847" d="M205 520H200Q194 454 179 273T164 75Q164 44 195 44L236 45L238 41L229 -4Q218 -3 190 -2T132 0Q107 0 81 -3T46 -8L51 38Q83 42 97 58T115 115Q125 209 141 368T158 547Q158 573 138 586T72 602L69 607L77
642Q90 641 128 639T186 637Q204 637 225 638T254 641Q294 512 331 402T393 226T423 145H428Q442 182 492 321T601 639Q601 640 628 638L667 637Q686 637 724 639T775 643L777 639L772 602Q729 597 711 585T693 547Q693 525 702 384T719 139Q724 98 729 79T743
52T768 44Q777 44 785 45T796 46L798 42L789 -3Q779 -2 752 -1T694 0Q667 0 634 -3T590 -8L594 38Q625 42 639 54T653 88Q653 109 639 283T619 520H614L421 -12L397 -19L205 520Z" />
<glyph unicode="N" glyph-name="N" horiz-adv-x="719" d="M483 95T401 217T265 415T198 511H193L188 84Q188 62 195 53T219 44L270 45L272 41L263 -4Q252 -3 218 -2T157 0Q132 0 103 -3T64 -8L69 38Q100 42 115 56T131 101L144 538Q144 569 126 582T57 600L54
605L62 642Q71 641 101 639T148 637Q169 637 189 638T215 641Q289 526 363 416T488 235T551 145H556V550Q556 593 523 593L485 592L483 596L492 641Q502 640 530 639T587 637Q613 637 644 640T686 645L681 599Q646 594 630 580T613 536L599 -26L570 -40Q483 95
401 217Z" />
<glyph unicode="O" glyph-name="O" horiz-adv-x="692" d="M236 -12T173 27T75 136T40 297Q40 395 83 475T202 602T369 649Q452 649 516 610T616 501T652 341Q652 243 608 162T487 35T317 -12Q236 -12 173 27ZM411 39T460 72T536 164T563 299Q563 384 534 449T454
552T335 589Q274 589 227 556T153 464T126 329Q126 244 154 179T232 76T348 39Q411 39 460 72Z" />
<glyph unicode="P" glyph-name="P" horiz-adv-x="551" d="M70 38Q114 46 128 61T142 120L143 540Q143 572 136 583T106 594Q96 594 86 593T72 592L70 596L77 640Q89 639 122 638T188 637Q219 637 258 638T314 641Q418 641 473 595T528 463Q528 407 496 357T410
275T299 244H215L213 146Q213 98 216 78T227 51T257 44Q274 44 289 45T311 47L313 43L304 -3Q294 -2 268 -1T212 0Q172 0 119 -3T63 -8L70 38ZM383 298T413 337T444 444Q444 521 399 556T256 592Q238 592 234 590T229 578Q220 451 217 303L323 288Q383 298 413
337Z" />
<glyph unicode="Q" glyph-name="Q" horiz-adv-x="697" d="M659 -216T616 -201T506 -144T317 -12Q236 -12 173 27T75 136T40 297Q40 395 83 475T202 602T369 649Q452 649 516 610T616 501T652 341Q652 259 621 189T534 69T407 0V-5Q513 -77 583 -107T714 -137Q743
-137 768 -133T794 -127L798 -130L804 -148Q798 -153 779 -169T739 -201T709 -216Q659 -216 616 -201ZM411 39T460 72T536 164T563 299Q563 384 534 449T454 552T335 589Q274 589 227 556T153 464T126 329Q126 244 154 179T232 76T348 39Q411 39 460 72Z" />
<glyph unicode="R" glyph-name="R" horiz-adv-x="611" d="M487 -16T459 9T406 79L299 273H216L213 124Q213 86 218 70T237 48T285 42L287 38L278 -4Q266 -3 230 -2T155 -1Q120 -1 93 -2T57 -4L66 41Q98 45 114 52T136 74T142 120L143 540Q143 572 136 583T106
594Q96 594 86 593T72 592L70 596L77 640Q89 639 122 638T188 637Q222 637 259 638T311 641Q404 641 458 599T512 484Q512 424 474 374T365 292L475 118Q504 70 531 52T599 33L603 29L597 -5L512 -16Q487 -16 459 9ZM321 316T351 332T405 381T429 466Q429 598 246
598Q236 598 233 594T228 575Q219 422 218 329L321 319Q321 316 351 332Z" />
<glyph unicode="S" glyph-name="S" horiz-adv-x="530" d="M177 -12T142 -5T85 12T62 22L57 32Q58 38 61 62T66 124T69 206L114 211Q114 136 124 100T161 51T244 37Q307 37 345 66T383 147Q383 177 363 201T314 242T231 288Q179 315 146 337T91 391T68 463Q68 515
98 557T181 624T298 649Q338 649 372 644T426 632T451 624L454 618Q453 612 449 590T440 529T432 449L393 445L387 450Q388 454 389 468T390 502Q390 555 364 575T271 595Q216 595 181 568T145 499Q145 459 179 430T281 365Q346 332 380 311T440 257T466 183Q466
127 435 83T347 13T219 -12Q177 -12 142 -5Z" />
<glyph unicode="T" glyph-name="T" horiz-adv-x="546" d="M133 39Q183 43 202 51T227 82T233 162V598Q148 595 118 589T76 560T56 472L9 468Q21 563 24 641L33 649L116 638H426L511 649L520 641Q523 559 535 472L488 468Q477 534 466 557T427 587T319 598Q313
538 308 386T303 112Q303 75 316 60T360 44Q390 44 415 47L418 43L409 -3L376 -2L262 0Q207 0 125 -4L133 39Z" />
<glyph unicode="U" glyph-name="U" horiz-adv-x="681" d="M222 -12T165 45T108 209V540Q108 572 101 583T71 594Q61 594 51 593T37 592L35 596L42 640Q54 639 87 638T155 637Q182 637 216 640T260 646L256 601Q219 596 207 585T192 544L184 250Q184 151 227 98T351
45Q433 45 476 88T519 214Q518 294 516 396T513 540Q511 575 505 584T476 594Q464 594 451 593T433 592L431 596L438 640Q450 639 483 638T551 637Q578 637 608 640T648 646L644 601Q614 597 600 592T580 576T575 544V208Q575 103 510 46T327 -12Q222 -12 165 45Z"
/>
<glyph unicode="V" glyph-name="V" horiz-adv-x="610" d="M243 33T191 203T85 536Q76 565 54 578T-7 593L-9 597L-2 640Q11 640 46 639T114 637Q147 637 197 641T264 648L267 641L263 602Q209 598 192 590T174 560Q174 540 227 353T300 97H309Q475 525 475 557Q475
578 459 587T406 597H354L352 601L358 644Q371 643 415 640T501 637Q538 637 569 638T611 640L603 593Q572 592 560 583T537 545L322 5L258 -17Q243 33 191 203Z" />
<glyph unicode="W" glyph-name="W" horiz-adv-x="932" d="M237 33T187 203T84 536Q75 565 53 578T-6 593L-7 597L-1 640Q12 640 46 639T112 637Q156 637 200 641T257 648L260 641L256 602Q205 598 188 590T170 561Q170 544 197 441T254 233T293 97H299L440 481L422
536Q412 565 391 578T332 593L330 597L337 640Q350 640 384 639T450 637Q488 637 534 641T595 648L598 641L594 602Q542 598 525 590T507 560Q507 539 559 352T631 97H637Q639 103 641 109T647 125Q799 533 799 562Q799 581 783 589T731 597H681L679 601L686 644Q699
643 742 640T825 637Q861 637 891 638T931 640L924 593Q894 591 882 583T860 545L650 5L588 -17Q578 18 542 144T463 407H457L315 5L251 -17Q237 33 187 203Z" />
<glyph unicode="X" glyph-name="X" horiz-adv-x="656" d="M362 -1L366 38Q407 40 425 48T444 73Q444 88 424 117L315 281L223 159Q192 118 182 101T172 70Q172 57 186 50T230 40L232 36L225 -7Q213 -6 176 -3T115 0Q91 0 59 -1T16 -4L12 3L19 44Q60 56 95 87T181
182L291 318L160 514Q135 551 102 571T23 597L21 601L27 640Q43 640 86 639T171 637Q220 637 258 640T306 645L309 638L306 603Q264 600 246 592T228 567Q228 556 255 511T341 377L379 428Q422 484 447 520T472 571Q472 584 459 591T414 601L412 605L418 644Q430
643 467 640T528 637Q552 637 583 638T625 641L629 634L623 597Q580 588 556 569T487 493L366 340L512 127Q539 87 570 68T649 44L651 40L644 -3Q631 -2 595 -1T520 0Q485 0 433 -3T365 -8L362 -1Z" />
<glyph unicode="Y" glyph-name="Y" horiz-adv-x="538" d="M150 34Q186 41 202 52T223 82T228 142V186Q228 217 222 240T199 299L109 482Q83 535 72 553T41 583T-17 597L-19 601L-13 640Q-2 639 29 638T97 637Q132 637 178 640T239 645L242 638L239 603Q194 599
179 592T163 567Q163 554 188 496T239 382T275 309H280L394 521Q410 550 410 571Q410 597 347 601L345 605L351 644Q363 643 401 640T462 637Q486 637 515 638T554 641L558 634L552 597Q520 591 502 581T471 551T431 485Q425 473 421 467L321 291Q308 268 305 239T299
134V112Q298 73 307 59T343 44Q359 44 373 45T392 47L394 43L385 -3Q371 -2 334 -1T258 0Q227 0 191 -5T144 -12L150 34Z" />
<glyph unicode="Z" glyph-name="Z" horiz-adv-x="568" d="M34 29L407 593L234 587Q187 585 160 572T119 529T99 449L52 445Q53 453 57 480T65 553T70 640L80 649L255 638L513 631L524 602Q333 348 138 40L341 47Q393 48 425 88T473 213L520 218Q518 209 514 181T503
104T495 13L480 -3L118 3L48 -3L34 29Z" />
<glyph unicode="[" glyph-name="bracketleft" horiz-adv-x="309" d="M96 -126Q98 -81 102 53T107 250Q107 313 103 448T96 629L280 640L284 634L278 603L164 579V-76L280 -100L284 -107L278 -137L96 -126Z" />
<glyph unicode="\" glyph-name="backslash" horiz-adv-x="329" d="M236 -82T213 6T159 215Q122 354 86 485T37 665L45 675H91L206 226Q230 131 259 30T298 -102L291 -110H243Q236 -82 213 6Z" />
<glyph unicode="]" glyph-name="bracketright" horiz-adv-x="309" d="M25 -131L31 -100L145 -76V579L29 603L25 610L31 640L213 629Q211 584 207 450T202 253Q202 191 206 55T213 -126L29 -137L25 -131Z" />
<glyph unicode="^" glyph-name="asciicircum" horiz-adv-x="506" d="M290 452T314 395T365 275Q387 224 414 165T450 87L410 57L399 58L320 239L250 407H244L184 253Q163 202 141 140T111 59L61 66L56 75Q63 94 88 156T137 276L223 479L270 481L281 473Q290 452 314 395Z" />
<glyph unicode="_" glyph-name="underscore" horiz-adv-x="458" d="M-6 -135L5 -86L244 -87Q315 -87 381 -84Q458 -82 458 -81L464 -91L456 -142L100 -143Q51 -144 0 -144L-6 -135Z" />
<glyph unicode="`" glyph-name="grave" horiz-adv-x="398" d="M187 568T137 608T72 660L71 671L109 712L119 714Q132 698 178 645T269 542L249 523L240 521Q187 568 137 608Z" />
<glyph unicode="a" glyph-name="a" horiz-adv-x="466" d="M291 -12T283 69L279 70Q243 34 214 13T169 -8Q113 -8 77 27T41 116Q41 145 55 167T94 196L284 248L285 292Q285 342 262 370T197 398Q169 398 138 385T77 348L72 351L60 394Q107 421 154 442T223 464Q288
464 325 430T362 335Q362 313 355 245Q344 135 344 105Q344 83 355 71T385 59Q401 59 418 66T445 84L459 68Q444 43 421 20T372 -12Q291 -12 283 69ZM205 60T230 73T277 108L282 210L146 169Q117 160 117 127Q117 98 136 79T186 60Q205 60 230 73Z" />
<glyph unicode="b" glyph-name="b" horiz-adv-x="508" d="M181 -12T138 -7T94 0L85 8V626Q85 680 48 680Q40 680 34 679T26 677L23 680L27 713Q70 719 116 729T175 742L181 729Q174 719 168 628T158 394Q203 426 235 445T279 464Q335 464 379 437T447 362T472
250Q472 178 439 118T348 23T223 -12Q181 -12 138 -7ZM318 43T356 88T395 213Q395 263 378 305T330 371T263 396Q243 396 212 381T156 342L153 64Q171 55 199 49T251 43Q318 43 356 88Z" />
<glyph unicode="c" glyph-name="c" horiz-adv-x="424" d="M150 -12T93 48T36 209Q36 280 66 338T149 430T267 464Q295 464 321 460T363 452T384 445L387 438Q386 433 382 415T372 366T366 300L325 297V328Q325 365 303 387T243 410Q182 410 149 367T116 243Q116
156 152 106T252 55Q277 55 302 62T344 77T365 88L371 86L382 55Q375 50 352 34T298 3T245 -12Q150 -12 93 48Z" />
<glyph unicode="d" glyph-name="d" horiz-adv-x="537" d="M372 -12T361 59L354 62Q250 -9 229 -9Q172 -9 128 17T60 92T36 202Q36 273 69 333T160 428T285 464Q317 464 354 460V626Q354 680 317 680Q310 680 302 679T292 676L296 713Q339 719 385 729T444 742L450
729Q439 712 431 518T422 105Q422 83 433 71T463 59Q477 59 490 64T512 76T523 84L537 68Q534 63 522 47T491 12T450 -12Q372 -12 361 59ZM266 56T290 68T332 92T354 109V383Q351 385 339 390T306 401T257 406Q190 406 152 361T113 236Q113 186 130 145T178 80T245
56Q266 56 290 68Z" />
<glyph unicode="e" glyph-name="e" horiz-adv-x="448" d="M184 -12T136 15T62 93T36 209Q36 276 66 335T148 429T257 464Q330 464 368 427T406 319Q406 290 400 270L387 258H111Q110 161 149 109T260 56Q316 56 382 87L388 85L399 56Q363 30 320 9T246 -12Q184
-12 136 15ZM296 304Q311 306 316 311T321 331Q321 371 300 392T238 413Q191 413 158 381T115 295L296 304Z" />
<glyph unicode="f" glyph-name="f" horiz-adv-x="330" d="M51 35Q108 43 108 94V364Q107 388 95 395T45 405L41 411L48 445L108 456V460Q108 546 136 610T216 708T338 742Q368 742 393 738T433 730T452 723L454 714Q451 709 442 691T423 649L412 646Q408 649 393
658T352 675T297 683Q240 683 212 638T182 498L181 449Q233 449 270 450T319 452L322 449L312 396Q301 397 266 398T180 399L176 98Q176 70 188 57T227 43Q251 43 266 44T287 45L289 41L282 -2Q268 -2 231 -1T158 0Q123 0 90 -1T46 -4L51 35Z" />
<glyph unicode="g" glyph-name="g" horiz-adv-x="501" d="M456 420T389 414L385 409Q425 365 425 307Q425 259 399 218T327 154T228 130Q199 130 172 138Q149 125 139 114T129 92Q129 69 160 60T257 43Q322 35 362 27T431 -4T460 -65Q460 -109 425 -150T332 -216T213
-242Q142 -242 102 -207T61 -109Q75 -91 101 -67T160 -19V-13Q108 -4 80 21T51 85Q90 122 135 149V153Q100 173 81 206T61 282Q61 331 86 372T154 439T247 464Q270 464 304 458Q329 453 345 453Q390 458 483 483L486 479L475 423Q456 420 389 414ZM297 174T323
203T350 283Q350 341 318 377T235 413Q189 413 163 383T136 302Q136 245 168 210T251 174Q297 174 323 203ZM173 -42T157 -67T141 -118Q141 -152 170 -172T247 -193Q285 -193 319 -180T375 -143T396 -94Q396 -74 381 -62T326 -41T203 -21Q173 -42 157 -67Z" />
<glyph unicode="h" glyph-name="h" horiz-adv-x="534" d="M64 42T75 54T87 94V626Q87 653 78 665T50 678H29L25 681L29 713Q63 717 106 725T177 742L183 729Q176 718 170 622T159 386Q273 464 309 464Q374 464 410 430T446 335Q446 315 439 243Q430 126 430 98Q430
69 438 56T465 42L500 44L502 40L494 -3Q428 0 405 0Q365 0 302 -12L306 29Q336 37 349 52T362 94L368 292Q368 342 347 369T285 396Q260 396 224 380T158 341Q155 229 155 98Q155 67 163 55T191 42L226 44L228 40L219 -3Q150 0 128 0Q85 0 29 -2L35 39Q64 42 75
54Z" />
<glyph unicode="i" glyph-name="i" horiz-adv-x="282" d="M48 29Q78 37 91 52T104 94V348Q104 402 67 402Q60 402 52 401T42 398L46 435Q88 441 132 451T190 464L195 452Q186 431 179 324T172 98Q172 69 180 56T207 42Q218 42 228 43T242 44L244 40L236 -3Q227
-2 202 -1T147 0Q121 0 88 -5T44 -12L48 29ZM109 582T96 597T83 633Q83 657 100 674T142 692Q165 692 178 677T191 641Q191 617 174 600T132 582Q109 582 96 597Z" />
<glyph unicode="j" glyph-name="j" horiz-adv-x="250" d="M99 602T86 616T72 653Q72 678 89 695T131 712Q152 712 166 698T180 661Q180 636 163 619T121 602Q99 602 86 616ZM15 -222L17 -214Q60 -171 75 -118T91 38V348Q91 379 83 390T51 402Q42 402 35 401T24
399L28 436Q66 441 112 451T172 464L177 452Q160 423 160 -14Q160 -86 127 -145T33 -241L15 -222Z" />
<glyph unicode="k" glyph-name="k" horiz-adv-x="497" d="M60 39T71 49T84 77T87 135V626Q87 680 50 680Q43 680 35 679T25 676Q25 682 27 694L29 713Q72 719 118 729T177 742L183 729Q172 712 164 517T155 98Q155 67 163 55T191 42Q202 42 212 43T226 44L228
40L219 -3Q210 -2 184 -1T128 0Q102 0 71 -2T29 -6L34 35Q60 39 71 49ZM182 250L301 364Q315 377 320 384T325 399Q325 410 312 415T270 420L267 425L276 454Q287 454 316 453T377 452Q401 452 432 454T472 458L475 453L467 422Q426 410 385 376T285 284Q285 284
254 253L359 118Q393 74 421 55T480 36L483 31L477 2Q468 -1 440 -7T403 -14Q388 -14 368 -4Q353 4 338 20T298 71L180 234L182 250Z" />
<glyph unicode="l" glyph-name="l" horiz-adv-x="244" d="M31 29Q59 37 70 49T84 78T87 135V626Q87 657 80 668T51 679Q46 679 28 677L25 679L29 713Q113 725 177 742L183 729Q172 712 164 515T155 98Q155 68 163 55T190 42L225 44L227 40L219 -3Q153 0 130 0Q96
0 27 -12L31 29Z" />
<glyph unicode="m" glyph-name="m" horiz-adv-x="832" d="M355 37T368 52T381 94L385 292Q385 342 364 369T302 396Q270 396 237 380T179 344Q170 137 170 98Q170 67 178 55T206 42Q217 42 227 43T241 44L243 40L234 -3Q225 -2 199 -1T143 0Q110 0 82 -1T44 -2L50
39Q79 42 90 54T102 94V338Q102 372 91 385T53 399H42L39 403L42 436Q85 443 127 452T182 465L188 457Q186 451 182 432T177 391L179 388Q291 464 326 464Q374 464 407 444T454 385Q490 411 535 437T605 464Q668 464 705 429T742 335Q742 325 736 243Q728 139 728
98Q728 67 736 55T764 42Q775 42 785 43T799 44L801 40L792 -3Q783 -2 757 -1T701 0Q675 0 644 -2T602 -6L607 35Q636 40 648 53T660 94L664 292Q664 342 643 369T581 396Q529 396 460 346L449 98Q449 69 457 56T484 42Q495 42 505 43T519 44L521 40L513 -3Q504
-2 479 -1T424 0Q398 0 365 -5T321 -12L325 29Q355 37 368 52Z" />
<glyph unicode="n" glyph-name="n" horiz-adv-x="548" d="M357 37T370 52T383 94L387 292Q387 342 366 369T304 396Q272 396 239 380T181 344Q172 137 172 98Q172 67 180 55T208 42Q219 42 229 43T243 44L245 40L236 -3Q227 -2 201 -1T145 0Q119 0 88 -2T46 -6L51
35Q80 40 92 53T104 94V338Q104 372 93 385T55 399H44L41 403L44 436Q87 443 129 452T184 465L190 457Q188 451 184 432T179 391L181 388Q295 464 328 464Q391 464 428 429T465 335Q465 325 459 243Q451 139 451 98Q451 69 459 56T486 42Q497 42 507 43T521 44L523
40L515 -3Q506 -2 481 -1T426 0Q400 0 367 -5T323 -12L327 29Q357 37 370 52Z" />
<glyph unicode="o" glyph-name="o" horiz-adv-x="498" d="M173 -12T129 16T61 94T36 210Q36 280 66 338T150 430T268 464Q324 464 368 436T437 358T462 242Q462 172 432 114T348 22T230 -12Q173 -12 129 16ZM314 37T347 82T380 206Q380 265 362 311T312 384T238
410Q182 410 149 364T116 239Q116 180 134 134T184 63T258 37Q314 37 347 82Z" />
<glyph unicode="p" glyph-name="p" horiz-adv-x="528" d="M50 -198Q72 -195 82 -189T97 -169T101 -126Q101 -84 102 -54L103 40V338Q103 372 92 385T54 399H43L40 403L43 436Q86 443 128 452T183 465L189 457Q188 452 185 436T179 403L183 396Q277 461 299 461Q356
461 400 435T468 360T492 250Q492 179 458 119T367 24T243 -12Q221 -12 200 -11T170 -8L171 -111Q171 -157 180 -173T218 -190L252 -189L254 -192L246 -230H151Q115 -230 85 -233T45 -237L50 -198ZM338 43T376 88T415 213Q415 263 398 304T350 369T283 393Q263
393 234 380T179 344Q171 213 171 62Q191 54 218 49T271 43Q338 43 376 88Z" />
<glyph unicode="q" glyph-name="q" horiz-adv-x="516" d="M284 -196Q313 -194 326 -190T344 -173T350 -135L354 60Q250 -12 229 -12Q173 -12 129 15T61 90T36 202Q36 273 69 333T160 428T285 464Q332 464 377 455Q398 463 413 469T432 478L440 469Q431 447 426
294T421 -106Q421 -144 423 -161T433 -184T457 -190Q467 -190 474 -190T483 -189L485 -191L478 -230H386Q357 -230 323 -231T279 -234L284 -196ZM266 53T290 65T332 91T354 109V383Q351 385 339 390T306 401T257 406Q190 406 152 361T113 236Q113 186 130 144T178
78T245 53Q266 53 290 65Z" />
<glyph unicode="r" glyph-name="r" horiz-adv-x="383" d="M89 39T99 55T109 119V339Q109 372 100 386T71 400Q63 400 58 399T50 397L45 404L48 435Q86 442 128 452T183 465L190 459Q188 450 184 418T181 356L185 353Q215 400 255 430T326 460Q340 460 347 459T357
456L360 452Q358 438 352 393T344 309L305 306Q305 347 300 360T278 374Q256 374 231 356T185 306Q184 277 181 210T177 102Q177 68 187 56T225 44Q238 44 251 45T269 46L270 42L261 -2Q251 -2 221 -1T159 0Q122 0 92 -1T54 -4L59 36Q89 39 99 55Z" />
<glyph unicode="s" glyph-name="s" horiz-adv-x="402" d="M139 -12T113 -8T71 2T52 9L49 16Q52 31 56 78T61 150L96 155Q96 89 118 62T193 35Q231 35 257 52T283 94Q283 119 260 139T167 197Q110 226 84 256T58 322Q58 362 82 394T148 445T242 464Q266 464 288
461T324 453T342 448L344 443Q342 433 335 398T325 321L288 318Q288 321 289 330T290 347Q290 383 271 399T208 416Q174 416 151 400T127 361Q127 337 147 316T214 271Q295 228 324 199T354 131Q354 93 329 60T262 8T171 -12Q139 -12 113 -8Z" />
<glyph unicode="t" glyph-name="t" horiz-adv-x="330" d="M138 -12T110 15T82 109V355Q82 382 70 393T25 405L21 411L26 441Q55 455 82 475T127 511T150 532L170 524Q169 519 167 500T162 449L309 452L312 449L303 396L158 399Q151 289 151 149Q151 98 168 77T229
56Q244 56 259 60T284 68T297 74L307 48Q301 43 282 29T240 2T206 -12Q138 -12 110 15Z" />
<glyph unicode="u" glyph-name="u" horiz-adv-x="541" d="M90 401T53 401Q46 401 38 400T28 397L32 434Q71 440 116 450T175 464L181 452Q171 426 163 334T155 155Q155 57 235 57Q265 57 291 71T356 114V346Q356 376 345 388T306 400L282 399L286 435Q330 441
378 451T440 464L446 452Q437 429 431 327T424 105Q424 83 435 71T465 59Q479 59 492 64T514 76T525 84L539 68Q535 62 521 43T487 6T452 -12Q371 -12 363 69L358 71Q310 34 272 11T219 -12Q155 -12 121 18T86 104L90 347Q90 401 53 401Z" />
<glyph unicode="v" glyph-name="v" horiz-adv-x="445" d="M167 31T123 171T60 366Q43 414 -8 416L-10 420L-4 453L79 452Q117 452 153 455T199 459L201 454L195 423Q161 422 149 417T136 397Q136 379 172 255T221 86H225L280 220Q307 286 325 333T343 392Q343
405 334 410T300 416H262L258 422L263 453L370 452L452 453L445 416Q424 413 412 399T381 341L238 0L182 -17Q167 31 123 171Z" />
<glyph unicode="w" glyph-name="w" horiz-adv-x="705" d="M168 31T125 171T64 366Q47 415 -2 416L-4 420L2 453L82 452Q120 452 154 455T199 459L201 454L195 423Q162 422 150 417T138 397Q138 378 173 254T221 85H225L284 233Q316 310 330 350Q319 384 304 400T259
416L257 420L263 453L343 452Q380 452 415 454T460 457L462 452L456 421Q422 420 411 415T399 397Q399 379 434 255T482 85H486Q530 198 544 230Q569 292 585 336T602 392Q602 406 593 411T561 417H524L520 423L525 454Q534 454 561 453T624 452L706 453L699 416Q679
414 667 400T637 341L497 0L443 -17L353 278H347L237 0L182 -17Q168 31 125 171Z" />
<glyph unicode="x" glyph-name="x" horiz-adv-x="475" d="M254 -1L260 30Q285 31 295 35T306 51Q306 64 289 88L216 190Q167 130 141 97T115 51Q115 41 123 38T159 33L161 29L155 -4Q145 -3 120 -2T72 0Q51 0 35 -1T12 -3L9 2L15 33Q37 45 52 59T84 93T108 121L194
221L118 329Q84 378 65 394T10 416L8 420L14 454Q25 454 55 453T115 452Q151 452 180 453T217 456L219 451L213 420Q189 420 179 416T168 401Q168 392 175 380T192 354L247 274L308 351Q326 372 332 382T339 402Q339 410 330 412T296 415L294 419L299 452H372Q394
452 415 453T443 455L446 450L440 418Q413 409 356 343L270 242L362 111Q388 73 411 56T463 36L465 32L459 -2Q449 -2 423 -1T368 0Q343 0 306 -2T256 -6L254 -1Z" />
<glyph unicode="y" glyph-name="y" horiz-adv-x="446" d="M28 -241T10 -218T-8 -184L-3 -177Q53 -177 101 -131T185 0Q108 244 61 368Q52 393 36 404T-7 416L-9 420L-3 453L80 452Q117 452 153 455T200 459L202 454L196 423Q162 422 151 417T139 397Q139 381 158
314T199 181T227 94H231Q346 369 346 393Q346 419 308 419H262L260 423L266 456Q275 455 306 454T368 452L453 453L446 416Q424 412 413 401T390 359L263 55Q211 -71 178 -132T113 -217T36 -241Q28 -241 10 -218Z" />
<glyph unicode="z" glyph-name="z" horiz-adv-x="460" d="M308 414L183 408Q134 405 116 387T92 318L53 312Q55 326 59 371T64 457L70 462L198 454L408 449L416 428Q324 310 247 203T130 35L278 44Q318 47 340 75T372 166L412 171Q411 164 407 139T399 78T395
10L379 -6L98 3L46 -2L36 23L308 414Z" />
<glyph unicode="{" glyph-name="braceleft" horiz-adv-x="309" d="M169 -133T136 -100T102 -17Q102 4 108 27T125 86Q143 136 143 159Q143 225 46 247L50 268Q90 279 116 300T143 351Q143 374 124 431Q112 471 107 492T102 533Q102 582 135 615T228 649Q244 649
262 647T285 643L288 638L280 608Q275 609 260 611T234 613Q203 613 188 594T173 544Q173 518 186 459Q200 391 200 365Q200 323 179 299T127 265V259Q200 232 200 154Q200 126 186 56Q173 -3 173 -29Q173 -59 188 -78T235 -97Q248 -97 264 -95T285 -91L288 -97L280
-125Q276 -126 261 -129T226 -133Q169 -133 136 -100Z" />
<glyph unicode="|" glyph-name="bar" horiz-adv-x="372" d="M152 -263Q152 -204 152 -44T153 276L154 796L214 807L225 801Q224 745 222 570T219 291L220 -258L161 -269L152 -263Z" />
<glyph unicode="}" glyph-name="braceright" horiz-adv-x="309" d="M65 -133T47 -131T24 -127L21 -122L29 -92Q34 -93 49 -95T75 -97Q106 -97 121 -78T136 -28Q136 -2 123 57Q109 125 109 151Q109 193 130 217T182 251V257Q109 284 109 362Q109 390 123 460Q136
519 136 545Q136 575 121 594T74 613Q62 613 46 611T24 607L21 613L29 641Q33 642 48 645T83 649Q140 649 173 616T207 533Q207 512 201 489T184 430Q166 380 166 357Q166 291 263 269L259 248Q219 237 193 216T166 165Q166 142 185 85Q197 45 202 24T207 -17Q207
-66 174 -99T81 -133Q65 -133 47 -131Z" />
<glyph unicode="~" glyph-name="asciitilde" horiz-adv-x="506" d="M43 223V228L119 317L135 321Q160 321 208 311T264 298Q297 290 328 284T375 278Q386 278 400 290T424 315T438 333H444L466 312V307L390 218L374 214Q349 214 301 224T245 237Q212 245 181 251T134
257Q123 257 109 245T85 220T71 202H65L43 223Z" />
<glyph unicode="&#xa0;" glyph-name="uni00A0" horiz-adv-x="198" />
<glyph unicode="&#xa1;" glyph-name="exclamdown" horiz-adv-x="285" d="M135 345T120 361T105 402Q105 428 122 446T168 464Q195 464 209 448T224 407Q224 381 207 363T162 345Q135 345 120 361ZM88 -231L140 243L168 250L179 242L187 -214L180 -224L97 -242L88 -231Z" />
<glyph unicode="&#xa2;" glyph-name="cent" horiz-adv-x="424" d="M371 86L382 55Q375 50 352 34T298 3T245 -12Q231 -12 224 -11L211 -151L185 -154L180 -147L193 -7Q120 9 78 66T36 209Q36 275 62 330T134 420T237 462L255 654L281 658L287 649L269 464Q297
464 322 460T364 452T384 445L387 438Q386 433 382 415T372 366T366 300L325 297V328Q325 359 309 380T264 408L231 57Q245 55 252 55Q277 55 302 62T344 77T365 88L371 86ZM116 176T138 130T200 66L232 410Q176 405 146 362T116 243Q116 176 138 130Z" />
<glyph unicode="&#xa3;" glyph-name="sterling" horiz-adv-x="525" d="M372 -12T347 -7T276 10Q227 22 199 27T144 33Q100 33 60 3L53 7L38 41Q142 110 142 204V252Q141 275 129 283T79 293L75 299L82 333L142 344V361Q142 432 166 485T235 568T337 598Q367 598
396 594T440 583L445 572L422 509L403 506Q342 539 300 539Q213 539 209 415L206 337Q264 337 308 338T367 340L370 337L360 284Q346 285 304 286T204 287L202 208Q197 127 138 78L193 89Q225 89 285 77Q343 67 365 67Q433 67 440 142L458 140Q471 110 471 82Q471
42 449 15T395 -12Q372 -12 347 -7Z" />
<glyph unicode="&#xa4;" glyph-name="currency" horiz-adv-x="475" d="M73 176L50 215L115 277Q90 313 90 359Q90 406 117 444L47 513L49 525L88 551Q94 545 112 526T155 482Q192 506 236 506Q280 506 317 482L385 557L398 554L425 514L355 445Q383 408 383 359Q383
317 360 281L431 215L428 204L388 174L322 240Q284 213 236 213Q189 213 151 240Q126 214 108 196T84 173L73 176ZM277 261T306 289T335 359Q335 400 306 429T236 458Q195 458 167 429T138 359Q138 319 167 290T236 261Q277 261 306 289Z" />
<glyph unicode="&#xa5;" glyph-name="yen" horiz-adv-x="532" d="M163 33Q198 39 211 49T226 77T229 148L49 147L44 154L49 183H226Q217 215 205 236L181 279L49 278L44 285L49 314H161L137 361Q117 400 105 418T73 448T20 460L18 469L25 505Q35 504 62 503T122
502Q155 502 196 505T242 509L247 499L244 465Q204 461 193 456T181 441Q181 431 193 405H192L272 248L365 407Q378 429 378 444Q378 459 325 464L324 471L329 508Q339 507 371 505T427 502Q453 502 476 503T507 505L512 498L506 461Q479 457 465 450T441 430T409
384L367 316L482 318L488 309L485 279H344L309 222Q301 205 299 183L482 187L488 178L485 148H298L297 90Q297 62 303 52T329 42L348 43L375 44L377 36L368 -2Q356 -2 324 -1T258 0Q233 0 201 -4T158 -10L163 33Z" />
<glyph unicode="&#xa6;" glyph-name="brokenbar" horiz-adv-x="372" d="M153 370L154 796L214 807L225 801Q224 759 222 638T219 376L157 367L153 370ZM152 -263V166L216 178L219 175L220 -258L161 -269L152 -263Z" />
<glyph unicode="&#xa7;" glyph-name="section" horiz-adv-x="512" d="M477 158T444 110T360 35Q358 4 336 -28T276 -83T194 -105Q144 -105 111 -82T77 -25Q77 -3 82 24T92 60H107Q117 7 149 -25T225 -58Q257 -58 279 -37T302 14Q302 52 273 83T183 155Q135 190
106 215T56 274T35 350Q35 394 66 437T151 513Q153 550 173 581T227 630T298 649Q337 649 367 634T397 600Q397 582 391 556T378 522H364Q350 556 321 578T262 600Q238 600 222 583T206 538Q206 499 237 468T330 394Q378 360 407 336T456 279T477 208Q477 158 444
110ZM419 111T419 173Q419 208 390 239T296 320Q234 367 199 402T154 478Q120 458 106 436T91 383Q91 346 121 314T214 232Q275 186 310 151T356 73Q419 111 419 173Z" />
<glyph unicode="&#xa8;" glyph-name="dieresis" horiz-adv-x="398" d="M92 546T81 559T70 589Q70 610 84 624T120 639Q139 639 150 627T161 596Q161 575 147 561T111 546Q92 546 81 559ZM258 546T247 559T236 589Q236 610 250 624T286 639Q305 639 316 627T327
596Q327 575 313 561T277 546Q258 546 247 559Z" />
<glyph unicode="&#xa9;" glyph-name="copyright" horiz-adv-x="693" d="M263 -12T193 29T83 140T42 293Q42 376 82 446T193 557T346 598Q429 598 499 557T610 446T651 293Q651 210 610 140T499 29T346 -12Q263 -12 193 29ZM417 28T477 63T573 160T609 293Q609
365 574 426T478 522T346 558Q275 558 215 523T119 426T84 293Q84 221 119 160T214 64T346 28Q417 28 477 63ZM266 131T228 175T189 287Q189 337 210 377T271 440T362 463Q391 463 420 458T458 451L460 447Q458 440 454 415T447 357L414 355L415 379Q415 423 351
423Q306 423 281 393T255 304Q255 240 279 204T353 167Q387 167 405 185T432 242L464 244Q462 236 457 209T451 157L447 150Q443 148 429 144T391 135T339 131Q266 131 228 175Z" />
<glyph unicode="&#xaa;" glyph-name="ordfeminine" horiz-adv-x="321" d="M195 343T190 393L186 394Q136 346 115 346Q79 346 55 370T30 432Q30 451 40 465T66 484L188 514L189 534Q189 563 175 579T134 595Q116 595 99 589T72 575T58 565L53 567L44 600Q50 604
71 615T117 636T155 647Q204 647 229 624T254 563Q254 548 249 506Q242 438 242 427Q242 414 248 407T266 400Q277 400 287 405T301 413L310 401Q308 397 300 385T278 360T251 343Q195 343 190 393ZM144 399T158 405T185 422L187 484L111 462Q94 457 94 439Q94
422 105 411T134 399Q144 399 158 405Z" />
<glyph unicode="&#xab;" glyph-name="guillemotleft" horiz-adv-x="427" d="M315 95T261 146T190 212V227Q206 242 260 295T362 400L384 385L385 375L278 226L385 71L384 61L362 46Q315 95 261 146ZM149 95T95 146T24 212V227Q40 242 94 295T196 400L218 385L219
375L112 226L219 71L218 61L196 46Q149 95 95 146Z" />
<glyph unicode="&#xac;" glyph-name="logicalnot" horiz-adv-x="506" d="M393 36L394 236L253 235L24 234L18 243L29 292L268 291Q318 291 376 293T452 297L458 287Q457 276 454 241T450 177Q450 126 450 89T451 41L402 30L393 36Z" />
<glyph unicode="&#xad;" glyph-name="uni00AD" horiz-adv-x="380" d="M64 218L70 270L244 290Q274 293 289 295T309 299L316 290L311 236L71 210L64 218Z" />
<glyph unicode="&#xae;" glyph-name="registered" horiz-adv-x="468" d="M178 303T132 330T58 404T30 507Q30 563 57 609T131 683T234 711Q290 711 336 684T410 610T438 507Q438 451 411 405T337 331T234 303Q178 303 132 330ZM280 338T318 361T380 422T403 507Q403
553 380 591T319 653T234 676Q188 676 150 653T88 592T65 507Q65 461 88 423T149 361T234 338Q280 338 318 361ZM277 407T260 439L231 494H206Q205 480 205 461Q205 442 208 438T229 433L231 429L229 412L197 413H185Q170 413 157 412T140 411L142 432Q159 433
163 440T167 470V581Q167 592 165 595T155 599H144L142 603L145 620L188 619H199L230 621Q268 621 289 607T311 566Q311 542 298 528T263 503L292 460Q313 428 333 428L336 424Q336 412 328 410T297 407Q277 407 260 439ZM267 529T267 559Q267 597 215 597Q211
597 210 596T209 589Q207 543 207 520Q206 520 236 517Q267 529 267 559Z" />
<glyph unicode="&#xaf;" glyph-name="overscore" horiz-adv-x="398" d="M50 583L60 628L214 627Q245 627 287 629T343 633L349 623L342 576L200 575L56 574L50 583Z" />
<glyph unicode="&#xb0;" glyph-name="degree" horiz-adv-x="302" d="M99 397T62 434T25 523Q25 576 62 612T151 649Q204 649 240 613T277 523Q277 471 241 434T151 397Q99 397 62 434ZM186 439T210 464T235 523Q235 558 211 582T151 607Q117 607 92 583T67 523Q67
489 92 464T151 439Q186 439 210 464Z" />
<glyph unicode="&#xb1;" glyph-name="plusminus" horiz-adv-x="506" d="M221 59L222 248L24 247L18 256L29 305L222 304L223 495L274 503L284 497Q283 478 281 416T278 304Q328 304 394 306T482 310L488 300L480 249L278 248L279 64L230 53L221 59ZM18 -66L29
-17L268 -18Q339 -18 405 -15Q482 -13 482 -12L488 -22L480 -73L124 -74Q75 -75 24 -75L18 -66Z" />
<glyph unicode="&#xb2;" glyph-name="uni00B2" horiz-adv-x="329" d="M93 446Q188 562 188 622Q188 669 137 669Q82 669 45 607H38L28 648Q48 682 84 705T155 728Q204 728 233 705T263 643Q263 605 231 553T119 407L122 402H204Q236 402 249 413T270 459L308 463Q306
453 299 418T289 352L280 346Q256 347 193 349T72 351L30 344L24 369L93 446Z" />
<glyph unicode="&#xb3;" glyph-name="uni00B3" horiz-adv-x="293" d="M53 343T43 356T31 400L37 407Q64 399 90 399Q131 399 158 417T186 463Q186 494 161 508T82 523L77 528L73 560L115 569Q139 580 153 598T168 635Q168 654 156 665T124 676Q107 676 88 669T52
648H45L35 685Q49 696 83 712T148 728Q187 728 212 707T237 653Q237 627 218 604T167 565V560Q254 536 254 472Q254 442 228 412T161 363T78 343Q53 343 43 356Z" />
<glyph unicode="&#xb4;" glyph-name="acute" horiz-adv-x="398" d="M149 523L129 542Q174 591 220 645T279 715L289 713L327 672L326 661Q311 650 261 610T158 521L149 523Z" />
<glyph unicode="&#xb5;" glyph-name="uni00B5" horiz-adv-x="547" d="M537 87Q524 24 475 -11Q422 -11 395 19T364 116L359 118Q328 48 298 21T225 -7Q166 27 135 87L130 84L129 80Q134 -56 177 -224Q162 -229 94 -240L78 -229L98 187Q75 273 75 341Q75 387 84
448L104 461H118L172 433L140 174Q155 123 173 102T218 80Q260 80 292 118T353 230Q354 352 371 446L397 463Q434 441 456 414Q427 299 399 205L398 190Q396 135 412 110T469 85Q496 85 532 95L537 87Z" />
<glyph unicode="&#xb6;" glyph-name="paragraph" horiz-adv-x="561" d="M169 -105T130 -81T91 -11Q91 9 102 34T129 78H144Q144 12 170 -23T240 -58Q282 -58 303 -40T333 19T341 134V578Q340 588 337 590T314 592Q265 592 241 552T216 445Q216 374 232 326T285
227V212Q180 221 111 279T42 445Q42 499 68 544T142 615T253 641Q287 641 337 639L382 637Q418 637 455 638T507 640L501 598L499 594Q454 596 438 587T419 549Q413 511 411 381T408 154Q408 64 394 9T341 -75T225 -105Q169 -105 130 -81Z" />
<glyph unicode="&#xb7;" glyph-name="middot" horiz-adv-x="238" d="M89 168T75 184T60 225Q60 251 77 269T122 287Q149 287 164 271T179 230Q179 204 162 186T116 168Q89 168 75 184Z" />
<glyph unicode="&#xb8;" glyph-name="cedilla" horiz-adv-x="398" d="M142 -233T121 -223T99 -197Q99 -181 124 -141H133Q134 -168 148 -183T188 -198Q208 -198 222 -188T236 -160Q236 -144 213 -126T151 -85L184 23H227L202 -50Q209 -55 233 -71T272 -105T287
-139Q287 -164 269 -185T223 -220T167 -233Q142 -233 121 -223Z" />
<glyph unicode="&#xb9;" glyph-name="uni00B9" horiz-adv-x="249" d="M39 379Q70 381 83 392T96 430V639Q96 661 89 667T63 674Q52 674 43 673T30 671L27 674L30 706Q83 713 104 716Q188 728 182 728L187 713Q175 703 170 693T163 662Q160 609 159 544T157 429Q157
405 163 396T187 386Q198 386 207 387T219 388L221 385L214 349Q205 349 179 350T126 351Q103 351 74 348T35 344L39 379Z" />
<glyph unicode="&#xba;" glyph-name="ordmasculine" horiz-adv-x="338" d="M100 343T64 382T28 486Q28 532 47 568T102 626T180 647Q239 647 274 608T310 504Q310 434 268 389T159 343Q100 343 64 382ZM205 384T222 408T239 478Q239 536 219 568T163 601Q132 601
115 577T98 507Q98 449 118 417T174 384Q205 384 222 408Z" />
<glyph unicode="&#xbb;" glyph-name="guillemotright" horiz-adv-x="427" d="M209 61L208 71L315 220L208 375L209 385L231 400Q278 351 332 300T403 234V219Q387 204 333 151T231 46L209 61ZM43 61L42 71L149 220L42 375L43 385L65 400Q112 351 166 300T237 234V219Q221
204 167 151T65 46L43 61Z" />
<glyph unicode="&#xbc;" glyph-name="onequarter" horiz-adv-x="685" d="M39 295Q70 297 83 308T96 346V555Q96 577 89 583T63 590Q52 590 43 589T30 587L27 590L30 622Q83 629 104 632Q188 644 182 644L187 629Q175 619 170 609T163 578Q160 525 159 460T157
345Q157 321 163 312T187 302Q198 302 207 303T219 304L221 301L214 265Q205 265 179 266T126 267Q103 267 74 264T35 260L39 295ZM73 -76L68 -64Q90 -31 153 66T288 275L544 678L583 659L588 645Q559 602 470 468T326 245Q255 131 194 35T111 -95L73 -76ZM534
-1Q535 9 536 42T538 104L384 107L386 141L558 376L561 377L600 371V152H655L660 145L654 101L600 103Q601 68 602 41T604 6L600 0L539 -7L534 -1ZM538 152V277H532L442 152H538Z" />
<glyph unicode="&#xbd;" glyph-name="onehalf" horiz-adv-x="713" d="M39 295Q70 297 83 308T96 346V555Q96 577 89 583T63 590Q52 590 43 589T30 587L27 590L30 622Q83 629 104 632Q188 644 182 644L187 629Q175 619 170 609T163 578Q160 525 159 460T157 345Q157
321 163 312T187 302Q198 302 207 303T219 304L221 301L214 265Q205 265 179 266T126 267Q103 267 74 264T35 260L39 295ZM73 -76L68 -64Q90 -31 153 66T288 275L544 678L583 659L588 645Q559 602 470 468T326 245Q255 131 194 35T111 -95L73 -76ZM477 95Q572 211
572 271Q572 318 521 318Q466 318 429 256H422L412 297Q432 331 468 354T539 377Q588 377 617 354T647 292Q647 254 615 202T503 56L506 51H588Q620 51 633 62T654 108L692 112Q690 102 683 67T673 1L664 -5Q640 -4 577 -2T456 0L414 -7L408 18L477 95Z" />
<glyph unicode="&#xbe;" glyph-name="threequarters" horiz-adv-x="689" d="M53 259T43 272T31 316L37 323Q64 315 90 315Q131 315 158 333T186 379Q186 410 161 424T82 439L77 444L73 476L115 485Q139 496 153 514T168 551Q168 570 156 581T124 592Q107 592 88
585T52 564H45L35 601Q49 612 83 628T148 644Q187 644 212 623T237 569Q237 543 218 520T167 481V476Q254 452 254 388Q254 358 228 328T161 279T78 259Q53 259 43 272ZM77 -76L72 -64Q94 -31 157 66T292 275L548 678L587 659L592 645Q563 602 474 468T330 245Q259
131 198 35T115 -95L77 -76ZM538 -1Q539 9 540 42T542 104L388 107L390 141L562 376L565 377L604 371V152H659L664 145L658 101L604 103Q605 68 606 41T608 6L604 0L543 -7L538 -1ZM542 152V277H536L446 152H542Z" />
<glyph unicode="&#xbf;" glyph-name="questiondown" horiz-adv-x="360" d="M184 345T169 361T154 402Q154 428 171 446T217 464Q244 464 258 448T273 407Q273 381 256 363T211 345Q184 345 169 361ZM194 -240T143 -218T61 -159T31 -77Q31 -34 48 -3T89 48T156
96Q184 114 197 124L200 133L179 228L182 236L243 253L252 249L276 129L273 115L154 39Q97 0 97 -47Q97 -106 151 -137T300 -174L302 -185L269 -238L255 -242Q194 -240 143 -218Z" />
<glyph unicode="&#xc0;" glyph-name="Agrave" horiz-adv-x="584" d="M329 -3L333 36Q384 40 403 48T422 74Q422 94 413 122L380 231Q356 232 276 232Q228 232 167 224L130 120Q121 93 121 81Q121 59 135 50T181 40H238L240 36L234 -7Q222 -6 179 -3T95 0Q58 0
27 -1T-15 -3L-7 44Q21 47 38 63T71 121L266 632L329 649H337Q343 625 367 538T427 332T496 113Q508 76 528 61T592 42L594 38L587 -3Q575 -3 544 -2T481 0Q433 0 389 -4T332 -10L329 -3ZM273 273Q309 273 366 278L287 540H280L185 273H273ZM289 728T228 749T149
777L145 787L161 835L170 841Q188 831 249 797T369 732L363 708L355 703Q289 728 228 749Z" />
<glyph unicode="&#xc1;" glyph-name="Aacute" horiz-adv-x="584" d="M329 -3L333 36Q384 40 403 48T422 74Q422 94 413 122L380 231Q356 232 276 232Q228 232 167 224L130 120Q121 93 121 81Q121 59 135 50T181 40H238L240 36L234 -7Q222 -6 179 -3T95 0Q58 0
27 -1T-15 -3L-7 44Q21 47 38 63T71 121L266 632L329 649H337Q343 625 367 538T427 332T496 113Q508 76 528 61T592 42L594 38L587 -3Q575 -3 544 -2T481 0Q433 0 389 -4T332 -10L329 -3ZM273 273Q309 273 366 278L287 540H280L185 273H273ZM240 708L234 732Q293
763 354 797T433 841L442 835L458 787L454 777Q437 771 376 750T248 703L240 708Z" />
<glyph unicode="&#xc2;" glyph-name="Acircumflex" horiz-adv-x="584" d="M329 -3L333 36Q384 40 403 48T422 74Q422 94 413 122L380 231Q356 232 276 232Q228 232 167 224L130 120Q121 93 121 81Q121 59 135 50T181 40H238L240 36L234 -7Q222 -6 179 -3T95 0Q58
0 27 -1T-15 -3L-7 44Q21 47 38 63T71 121L266 632L329 649H337Q343 625 367 538T427 332T496 113Q508 76 528 61T592 42L594 38L587 -3Q575 -3 544 -2T481 0Q433 0 389 -4T332 -10L329 -3ZM273 273Q309 273 366 278L287 540H280L185 273H273ZM167 713L153 735Q194
766 236 800T291 846H305Q317 835 359 801T443 735L429 713L420 712Q353 751 298 777Q246 753 176 712L167 713Z" />
<glyph unicode="&#xc3;" glyph-name="Atilde" horiz-adv-x="584" d="M329 -3L333 36Q384 40 403 48T422 74Q422 94 413 122L380 231Q356 232 276 232Q228 232 167 224L130 120Q121 93 121 81Q121 59 135 50T181 40H238L240 36L234 -7Q222 -6 179 -3T95 0Q58 0
27 -1T-15 -3L-7 44Q21 47 38 63T71 121L266 632L329 649H337Q343 625 367 538T427 332T496 113Q508 76 528 61T592 42L594 38L587 -3Q575 -3 544 -2T481 0Q433 0 389 -4T332 -10L329 -3ZM273 273Q309 273 366 278L287 540H280L185 273H273ZM135 720V725L211 804L227
808Q245 808 305 790Q314 788 338 782T373 775Q383 775 397 785T422 806T436 820H442L464 799V794L388 715L372 711Q354 711 294 729Q285 731 261 737T226 744Q215 744 201 734T177 713T163 699H157L135 720Z" />
<glyph unicode="&#xc4;" glyph-name="Adieresis" horiz-adv-x="584" d="M329 -3L333 36Q384 40 403 48T422 74Q422 94 413 122L380 231Q356 232 276 232Q228 232 167 224L130 120Q121 93 121 81Q121 59 135 50T181 40H238L240 36L234 -7Q222 -6 179 -3T95 0Q58
0 27 -1T-15 -3L-7 44Q21 47 38 63T71 121L266 632L329 649H337Q343 625 367 538T427 332T496 113Q508 76 528 61T592 42L594 38L587 -3Q575 -3 544 -2T481 0Q433 0 389 -4T332 -10L329 -3ZM273 273Q309 273 366 278L287 540H280L185 273H273ZM191 715T180 728T169
758Q169 779 183 793T219 808Q238 808 249 796T260 765Q260 744 246 730T210 715Q191 715 180 728ZM357 715T346 728T335 758Q335 779 349 793T385 808Q404 808 415 796T426 765Q426 744 412 730T376 715Q357 715 346 728Z" />
<glyph unicode="&#xc5;" glyph-name="Aring" horiz-adv-x="584" d="M329 -3L333 36Q384 40 403 48T422 74Q422 94 413 122L380 231Q356 232 276 232Q228 232 167 224L130 120Q121 93 121 81Q121 59 135 50T181 40H238L240 36L234 -7Q222 -6 179 -3T95 0Q58 0 27
-1T-15 -3L-7 44Q21 47 38 63T71 121L266 632L329 649H337Q343 625 367 538T427 332T496 113Q508 76 528 61T592 42L594 38L587 -3Q575 -3 544 -2T481 0Q433 0 389 -4T332 -10L329 -3ZM273 273Q309 273 366 278L287 540H280L185 273H273ZM257 674T237 696T217 754Q217
791 240 814T301 838Q339 838 358 816T378 762Q378 726 355 700T293 674Q257 674 237 696ZM344 712T344 751Q344 773 331 786T293 799Q272 799 261 789T249 760Q249 736 265 724T300 712Q344 712 344 751Z" />
<glyph unicode="&#xc6;" glyph-name="AE" horiz-adv-x="810" d="M342 39T362 44T390 58T398 87Q398 105 395 125T391 153L373 276L274 268L183 258L112 120Q96 89 96 74Q96 40 151 40H208L203 -7Q190 -6 148 -3T65 0Q45 0 25 -1T-3 -4L-10 31Q-7 34 2 45T26 77T53
121L300 578Q296 594 275 594Q265 594 255 593T241 592L239 596L246 640H269Q350 637 405 637Q525 637 591 639T703 649L706 643Q705 637 701 615T691 555T683 477L635 473Q635 478 636 490T637 516Q637 551 628 564T587 582T480 587Q447 587 434 585T416 577T410
556L441 328L559 339L651 352L655 347L642 294L556 291L447 282L475 113Q481 75 499 60T559 45Q636 45 669 53T715 85T737 167L781 172L784 167Q781 153 772 103T757 -1L752 -7L702 -6Q588 0 483 0H449Q401 0 357 -4T301 -10L299 -3L301 36Q342 39 362 44ZM367
321L337 539H328L210 310L294 315L367 321Z" />
<glyph unicode="&#xc7;" glyph-name="Ccedilla" horiz-adv-x="626" d="M249 -12T181 26T77 133T40 297Q40 397 85 477T209 603T389 649Q426 649 464 644T529 633T563 625L567 619Q565 613 561 590T551 530T542 452L494 448Q495 453 496 466T497 497Q497 590 350
590Q284 590 234 558T157 468T130 330Q130 243 158 177T239 75T359 38Q427 38 468 76T529 196L577 200Q574 185 564 134T550 37L544 28Q544 27 514 17T438 -3T339 -12Q249 -12 181 26ZM289 -233T268 -223T246 -197Q246 -181 271 -141H280Q281 -168 295 -183T335
-198Q355 -198 369 -188T383 -160Q383 -144 360 -126T298 -85L331 23H374L349 -50Q356 -55 380 -71T419 -105T434 -139Q434 -164 416 -185T370 -220T314 -233Q289 -233 268 -223Z" />
<glyph unicode="&#xc8;" glyph-name="Egrave" horiz-adv-x="591" d="M532 167Q515 86 505 -1L500 -7Q290 0 197 0Q123 0 58 -10L64 36Q109 42 125 59T142 120L143 540Q143 572 136 583T106 594L72 592L70 596L77 640Q179 637 216 637Q335 637 401 639T516 649L519
643Q501 564 496 477L448 473L450 516Q450 551 441 564T402 582T297 587Q262 587 249 585T232 576T227 548L219 354L322 353Q361 353 444 364L448 359L434 300Q323 303 294 303Q261 303 217 296L213 105Q213 76 218 65T238 49T292 45Q376 45 411 53T462 85T485
167L529 172L532 167ZM301 728T240 749T161 777L157 787L173 835L182 841Q200 831 261 797T381 732L375 708L367 703Q301 728 240 749Z" />
<glyph unicode="&#xc9;" glyph-name="Eacute" horiz-adv-x="591" d="M532 167Q515 86 505 -1L500 -7Q290 0 197 0Q123 0 58 -10L64 36Q109 42 125 59T142 120L143 540Q143 572 136 583T106 594L72 592L70 596L77 640Q179 637 216 637Q335 637 401 639T516 649L519
643Q501 564 496 477L448 473L450 516Q450 551 441 564T402 582T297 587Q262 587 249 585T232 576T227 548L219 354L322 353Q361 353 444 364L448 359L434 300Q323 303 294 303Q261 303 217 296L213 105Q213 76 218 65T238 49T292 45Q376 45 411 53T462 85T485
167L529 172L532 167ZM252 708L246 732Q305 763 366 797T445 841L454 835L470 787L466 777Q449 771 388 750T260 703L252 708Z" />
<glyph unicode="&#xca;" glyph-name="Ecircumflex" horiz-adv-x="591" d="M532 167Q515 86 505 -1L500 -7Q290 0 197 0Q123 0 58 -10L64 36Q109 42 125 59T142 120L143 540Q143 572 136 583T106 594L72 592L70 596L77 640Q179 637 216 637Q335 637 401 639T516
649L519 643Q501 564 496 477L448 473L450 516Q450 551 441 564T402 582T297 587Q262 587 249 585T232 576T227 548L219 354L322 353Q361 353 444 364L448 359L434 300Q323 303 294 303Q261 303 217 296L213 105Q213 76 218 65T238 49T292 45Q376 45 411 53T462
85T485 167L529 172L532 167ZM179 713L165 735Q206 766 248 800T303 846H317Q329 835 371 801T455 735L441 713L432 712Q365 751 310 777Q258 753 188 712L179 713Z" />
<glyph unicode="&#xcb;" glyph-name="Edieresis" horiz-adv-x="591" d="M532 167Q515 86 505 -1L500 -7Q290 0 197 0Q123 0 58 -10L64 36Q109 42 125 59T142 120L143 540Q143 572 136 583T106 594L72 592L70 596L77 640Q179 637 216 637Q335 637 401 639T516 649L519
643Q501 564 496 477L448 473L450 516Q450 551 441 564T402 582T297 587Q262 587 249 585T232 576T227 548L219 354L322 353Q361 353 444 364L448 359L434 300Q323 303 294 303Q261 303 217 296L213 105Q213 76 218 65T238 49T292 45Q376 45 411 53T462 85T485
167L529 172L532 167ZM203 715T192 728T181 758Q181 779 195 793T231 808Q250 808 261 796T272 765Q272 744 258 730T222 715Q203 715 192 728ZM369 715T358 728T347 758Q347 779 361 793T397 808Q416 808 427 796T438 765Q438 744 424 730T388 715Q369 715 358
728Z" />
<glyph unicode="&#xcc;" glyph-name="Igrave" horiz-adv-x="361" d="M62 34Q109 43 125 60T142 120L143 540Q143 572 136 583T106 594L64 592L62 596L69 640Q85 640 94 639L188 637Q233 637 303 646L299 601Q258 596 244 585T227 544Q221 427 217 300T213 112Q213
71 222 58T257 44Q274 44 310 47L312 43L303 -3Q289 -3 281 -2Q211 0 172 0Q123 0 56 -12L62 34ZM163 718T102 739T23 767L19 777L35 825L44 831Q62 821 123 787T243 722L237 698L229 693Q163 718 102 739Z" />
<glyph unicode="&#xcd;" glyph-name="Iacute" horiz-adv-x="361" d="M62 34Q109 43 125 60T142 120L143 540Q143 572 136 583T106 594L64 592L62 596L69 640Q85 640 94 639L188 637Q233 637 303 646L299 601Q258 596 244 585T227 544Q221 427 217 300T213 112Q213
71 222 58T257 44Q274 44 310 47L312 43L303 -3Q289 -3 281 -2Q211 0 172 0Q123 0 56 -12L62 34ZM95 708L89 732Q148 763 209 797T288 841L297 835L313 787L309 777Q292 771 231 750T103 703L95 708Z" />
<glyph unicode="&#xce;" glyph-name="Icircumflex" horiz-adv-x="361" d="M62 34Q109 43 125 60T142 120L143 540Q143 572 136 583T106 594L64 592L62 596L69 640Q85 640 94 639L188 637Q233 637 303 646L299 601Q258 596 244 585T227 544Q221 427 217 300T213
112Q213 71 222 58T257 44Q274 44 310 47L312 43L303 -3Q289 -3 281 -2Q211 0 172 0Q123 0 56 -12L62 34ZM50 713L36 735Q77 766 119 800T174 846H188Q200 835 242 801T326 735L312 713L303 712Q236 751 181 777Q129 753 59 712L50 713Z" />
<glyph unicode="&#xcf;" glyph-name="Idieresis" horiz-adv-x="361" d="M62 34Q109 43 125 60T142 120L143 540Q143 572 136 583T106 594L64 592L62 596L69 640Q85 640 94 639L188 637Q233 637 303 646L299 601Q258 596 244 585T227 544Q221 427 217 300T213 112Q213
71 222 58T257 44Q274 44 310 47L312 43L303 -3Q289 -3 281 -2Q211 0 172 0Q123 0 56 -12L62 34ZM74 715T63 728T52 758Q52 779 66 793T102 808Q121 808 132 796T143 765Q143 744 129 730T93 715Q74 715 63 728ZM240 715T229 728T218 758Q218 779 232 793T268 808Q287
808 298 796T309 765Q309 744 295 730T259 715Q240 715 229 728Z" />
<glyph unicode="&#xd0;" glyph-name="Eth" horiz-adv-x="713" d="M309 -10T261 -5T180 0Q149 0 113 -5T65 -12L71 34Q108 41 123 51T144 83T149 157V304H16L9 311L16 343H149L150 540Q150 572 143 583T113 594Q103 594 93 593T79 592L77 596L84 640Q95 639 126
638T189 637Q232 637 278 638T341 641Q436 641 511 603T628 496T670 342Q670 244 624 163T499 35T324 -12Q309 -10 261 -5ZM397 343L402 336L396 304H226L221 131Q221 94 232 75T269 47T347 39Q455 39 517 113T579 318Q579 450 500 521T272 592Q251 592 244 588T236
570L227 343H397Z" />
<glyph unicode="&#xd1;" glyph-name="Ntilde" horiz-adv-x="719" d="M483 95T401 217T265 415T198 511H193L188 84Q188 62 195 53T219 44L270 45L272 41L263 -4Q252 -3 218 -2T157 0Q132 0 103 -3T64 -8L69 38Q100 42 115 56T131 101L144 538Q144 569 126 582T57
600L54 605L62 642Q71 641 101 639T148 637Q169 637 189 638T215 641Q289 526 363 416T488 235T551 145H556V550Q556 593 523 593L485 592L483 596L492 641Q502 640 530 639T587 637Q613 637 644 640T686 645L681 599Q646 594 630 580T613 536L599 -26L570 -40Q483
95 401 217ZM208 720V725L284 804L300 808Q318 808 378 790Q387 788 411 782T446 775Q456 775 470 785T495 806T509 820H515L537 799V794L461 715L445 711Q427 711 367 729Q358 731 334 737T299 744Q288 744 274 734T250 713T236 699H230L208 720Z" />
<glyph unicode="&#xd2;" glyph-name="Ograve" horiz-adv-x="692" d="M236 -12T173 27T75 136T40 297Q40 395 83 475T202 602T369 649Q452 649 516 610T616 501T652 341Q652 243 608 162T487 35T317 -12Q236 -12 173 27ZM411 39T460 72T536 164T563 299Q563 384
534 449T454 552T335 589Q274 589 227 556T153 464T126 329Q126 244 154 179T232 76T348 39Q411 39 460 72ZM333 728T272 749T193 777L189 787L205 835L214 841Q232 831 293 797T413 732L407 708L399 703Q333 728 272 749Z" />
<glyph unicode="&#xd3;" glyph-name="Oacute" horiz-adv-x="692" d="M236 -12T173 27T75 136T40 297Q40 395 83 475T202 602T369 649Q452 649 516 610T616 501T652 341Q652 243 608 162T487 35T317 -12Q236 -12 173 27ZM411 39T460 72T536 164T563 299Q563 384
534 449T454 552T335 589Q274 589 227 556T153 464T126 329Q126 244 154 179T232 76T348 39Q411 39 460 72ZM284 708L278 732Q337 763 398 797T477 841L486 835L502 787L498 777Q481 771 420 750T292 703L284 708Z" />
<glyph unicode="&#xd4;" glyph-name="Ocircumflex" horiz-adv-x="692" d="M236 -12T173 27T75 136T40 297Q40 395 83 475T202 602T369 649Q452 649 516 610T616 501T652 341Q652 243 608 162T487 35T317 -12Q236 -12 173 27ZM411 39T460 72T536 164T563 299Q563
384 534 449T454 552T335 589Q274 589 227 556T153 464T126 329Q126 244 154 179T232 76T348 39Q411 39 460 72ZM211 713L197 735Q238 766 280 800T335 846H349Q361 835 403 801T487 735L473 713L464 712Q397 751 342 777Q290 753 220 712L211 713Z" />
<glyph unicode="&#xd5;" glyph-name="Otilde" horiz-adv-x="692" d="M236 -12T173 27T75 136T40 297Q40 395 83 475T202 602T369 649Q452 649 516 610T616 501T652 341Q652 243 608 162T487 35T317 -12Q236 -12 173 27ZM411 39T460 72T536 164T563 299Q563 384
534 449T454 552T335 589Q274 589 227 556T153 464T126 329Q126 244 154 179T232 76T348 39Q411 39 460 72ZM179 720V725L255 804L271 808Q289 808 349 790Q358 788 382 782T417 775Q427 775 441 785T466 806T480 820H486L508 799V794L432 715L416 711Q398 711
338 729Q329 731 305 737T270 744Q259 744 245 734T221 713T207 699H201L179 720Z" />
<glyph unicode="&#xd6;" glyph-name="Odieresis" horiz-adv-x="692" d="M236 -12T173 27T75 136T40 297Q40 395 83 475T202 602T369 649Q452 649 516 610T616 501T652 341Q652 243 608 162T487 35T317 -12Q236 -12 173 27ZM411 39T460 72T536 164T563 299Q563
384 534 449T454 552T335 589Q274 589 227 556T153 464T126 329Q126 244 154 179T232 76T348 39Q411 39 460 72ZM235 715T224 728T213 758Q213 779 227 793T263 808Q282 808 293 796T304 765Q304 744 290 730T254 715Q235 715 224 728ZM401 715T390 728T379 758Q379
779 393 793T429 808Q448 808 459 796T470 765Q470 744 456 730T420 715Q401 715 390 728Z" />
<glyph unicode="&#xd7;" glyph-name="multiply" horiz-adv-x="506" d="M102 83L75 125Q88 138 126 175T213 261L68 405L70 416L113 442L253 301Q299 348 338 391T392 449L403 446L434 404L292 261Q328 225 375 182T437 126L434 114L392 84L253 222Q204 173 165
133T113 80L102 83Z" />
<glyph unicode="&#xd8;" glyph-name="Oslash" horiz-adv-x="692" d="M577 575T614 504T652 341Q652 243 608 162T487 35T317 -12Q250 -12 196 15L136 -98L109 -92L107 -82L166 31Q107 71 74 140T40 297Q40 395 83 475T202 602T369 649Q427 649 478 629L520 708L549
701L552 689L511 613Q577 575 614 504ZM126 258T146 200T203 102L442 560Q395 589 335 589Q274 589 227 556T153 464T126 329Q126 258 146 200ZM411 39T460 72T536 164T563 299Q563 376 539 438T471 538L230 78Q281 39 348 39Q411 39 460 72Z" />
<glyph unicode="&#xd9;" glyph-name="Ugrave" horiz-adv-x="681" d="M222 -12T165 45T108 209V540Q108 572 101 583T71 594Q61 594 51 593T37 592L35 596L42 640Q54 639 87 638T155 637Q182 637 216 640T260 646L256 601Q219 596 207 585T192 544L184 250Q184
151 227 98T351 45Q433 45 476 88T519 214Q518 294 516 396T513 540Q511 575 505 584T476 594Q464 594 451 593T433 592L431 596L438 640Q450 639 483 638T551 637Q578 637 608 640T648 646L644 601Q614 597 600 592T580 576T575 544V208Q575 103 510 46T327 -12Q222
-12 165 45ZM338 728T277 749T198 777L194 787L210 835L219 841Q237 831 298 797T418 732L412 708L404 703Q338 728 277 749Z" />
<glyph unicode="&#xda;" glyph-name="Uacute" horiz-adv-x="681" d="M222 -12T165 45T108 209V540Q108 572 101 583T71 594Q61 594 51 593T37 592L35 596L42 640Q54 639 87 638T155 637Q182 637 216 640T260 646L256 601Q219 596 207 585T192 544L184 250Q184
151 227 98T351 45Q433 45 476 88T519 214Q518 294 516 396T513 540Q511 575 505 584T476 594Q464 594 451 593T433 592L431 596L438 640Q450 639 483 638T551 637Q578 637 608 640T648 646L644 601Q614 597 600 592T580 576T575 544V208Q575 103 510 46T327 -12Q222
-12 165 45ZM289 708L283 732Q342 763 403 797T482 841L491 835L507 787L503 777Q486 771 425 750T297 703L289 708Z" />
<glyph unicode="&#xdb;" glyph-name="Ucircumflex" horiz-adv-x="681" d="M222 -12T165 45T108 209V540Q108 572 101 583T71 594Q61 594 51 593T37 592L35 596L42 640Q54 639 87 638T155 637Q182 637 216 640T260 646L256 601Q219 596 207 585T192 544L184 250Q184
151 227 98T351 45Q433 45 476 88T519 214Q518 294 516 396T513 540Q511 575 505 584T476 594Q464 594 451 593T433 592L431 596L438 640Q450 639 483 638T551 637Q578 637 608 640T648 646L644 601Q614 597 600 592T580 576T575 544V208Q575 103 510 46T327 -12Q222
-12 165 45ZM216 713L202 735Q243 766 285 800T340 846H354Q366 835 408 801T492 735L478 713L469 712Q402 751 347 777Q295 753 225 712L216 713Z" />
<glyph unicode="&#xdc;" glyph-name="Udieresis" horiz-adv-x="681" d="M222 -12T165 45T108 209V540Q108 572 101 583T71 594Q61 594 51 593T37 592L35 596L42 640Q54 639 87 638T155 637Q182 637 216 640T260 646L256 601Q219 596 207 585T192 544L184 250Q184
151 227 98T351 45Q433 45 476 88T519 214Q518 294 516 396T513 540Q511 575 505 584T476 594Q464 594 451 593T433 592L431 596L438 640Q450 639 483 638T551 637Q578 637 608 640T648 646L644 601Q614 597 600 592T580 576T575 544V208Q575 103 510 46T327 -12Q222
-12 165 45ZM240 715T229 728T218 758Q218 779 232 793T268 808Q287 808 298 796T309 765Q309 744 295 730T259 715Q240 715 229 728ZM406 715T395 728T384 758Q384 779 398 793T434 808Q453 808 464 796T475 765Q475 744 461 730T425 715Q406 715 395 728Z" />
<glyph unicode="&#xdd;" glyph-name="Yacute" horiz-adv-x="538" d="M150 34Q186 41 202 52T223 82T228 142V186Q228 217 222 240T199 299L109 482Q83 535 72 553T41 583T-17 597L-19 601L-13 640Q-2 639 29 638T97 637Q132 637 178 640T239 645L242 638L239 603Q194
599 179 592T163 567Q163 554 188 496T239 382T275 309H280L394 521Q410 550 410 571Q410 597 347 601L345 605L351 644Q363 643 401 640T462 637Q486 637 515 638T554 641L558 634L552 597Q520 591 502 581T471 551T431 485Q425 473 421 467L321 291Q308 268 305
239T299 134V112Q298 73 307 59T343 44Q359 44 373 45T392 47L394 43L385 -3Q371 -2 334 -1T258 0Q227 0 191 -5T144 -12L150 34ZM227 708L221 732Q280 763 341 797T420 841L429 835L445 787L441 777Q424 771 363 750T235 703L227 708Z" />
<glyph unicode="&#xde;" glyph-name="Thorn" horiz-adv-x="543" d="M62 34Q109 43 125 60T142 120L143 540Q143 572 136 583T106 594Q93 594 81 593T64 592L62 596L69 640Q82 639 117 638T188 637Q217 637 254 640T303 646L299 601Q257 596 243 585T227 544L226
524Q224 508 225 503H307Q410 503 465 461T521 340Q521 290 488 246T401 175T284 148H213V112Q213 71 222 58T257 44Q275 44 290 45T310 47L312 43L303 -3Q289 -2 251 -1T172 0Q140 0 104 -5T56 -12L62 34ZM376 199T406 232T437 321Q437 390 392 422T249 454Q232
454 228 453T222 446Q216 306 214 209Q232 203 263 198T316 192Q376 199 406 232Z" />
<glyph unicode="&#xdf;" glyph-name="germandbls" horiz-adv-x="591" d="M355 -12T322 3T288 41Q288 55 301 83T326 127H340Q340 82 365 57T435 32Q465 32 488 57T511 115Q511 148 487 172T412 227Q372 253 349 272T308 317T291 378Q291 411 309 436T362 495Q391
523 406 543T422 588Q422 632 388 657T295 683Q238 683 211 638T182 498L176 98Q175 72 185 58T215 43Q235 43 247 43T262 44L264 40L257 -2Q246 -2 216 -1T158 0Q123 0 90 -1T46 -4L51 35Q86 39 97 54T108 108V364Q107 386 94 394T45 405L41 411L48 445L108 456Q108
591 169 666T339 742Q378 742 413 725T469 679T491 620Q491 579 473 551T419 485Q392 458 379 439T365 397Q365 371 387 351T456 302Q496 277 521 258T564 210T582 147Q582 105 558 69T492 10T404 -12Q355 -12 322 3Z" />
<glyph unicode="&#xe0;" glyph-name="agrave" horiz-adv-x="466" d="M291 -12T283 69L279 70Q243 34 214 13T169 -8Q113 -8 77 27T41 116Q41 145 55 167T94 196L284 248L285 292Q285 342 262 370T197 398Q169 398 138 385T77 348L72 351L60 394Q107 421 154 442T223
464Q288 464 325 430T362 335Q362 313 355 245Q344 135 344 105Q344 83 355 71T385 59Q401 59 418 66T445 84L459 68Q444 43 421 20T372 -12Q291 -12 283 69ZM205 60T230 73T277 108L282 210L146 169Q117 160 117 127Q117 98 136 79T186 60Q205 60 230 73ZM208
568T158 608T93 660L92 671L130 712L140 714Q153 698 199 645T290 542L270 523L261 521Q208 568 158 608Z" />
<glyph unicode="&#xe1;" glyph-name="aacute" horiz-adv-x="466" d="M291 -12T283 69L279 70Q243 34 214 13T169 -8Q113 -8 77 27T41 116Q41 145 55 167T94 196L284 248L285 292Q285 342 262 370T197 398Q169 398 138 385T77 348L72 351L60 394Q107 421 154 442T223
464Q288 464 325 430T362 335Q362 313 355 245Q344 135 344 105Q344 83 355 71T385 59Q401 59 418 66T445 84L459 68Q444 43 421 20T372 -12Q291 -12 283 69ZM205 60T230 73T277 108L282 210L146 169Q117 160 117 127Q117 98 136 79T186 60Q205 60 230 73ZM169
523L149 542Q194 591 240 645T299 715L309 713L347 672L346 661Q331 650 281 610T178 521L169 523Z" />
<glyph unicode="&#xe2;" glyph-name="acircumflex" horiz-adv-x="466" d="M291 -12T283 69L279 70Q243 34 214 13T169 -8Q113 -8 77 27T41 116Q41 145 55 167T94 196L284 248L285 292Q285 342 262 370T197 398Q169 398 138 385T77 348L72 351L60 394Q107 421 154
442T223 464Q288 464 325 430T362 335Q362 313 355 245Q344 135 344 105Q344 83 355 71T385 59Q401 59 418 66T445 84L459 68Q444 43 421 20T372 -12Q291 -12 283 69ZM205 60T230 73T277 108L282 210L146 169Q117 160 117 127Q117 98 136 79T186 60Q205 60 230
73ZM87 528L73 550Q114 592 156 640T211 703H225Q237 689 279 641T363 550L349 528L340 527Q302 561 239 608L218 624Q140 566 96 527L87 528Z" />
<glyph unicode="&#xe3;" glyph-name="atilde" horiz-adv-x="466" d="M291 -12T283 69L279 70Q243 34 214 13T169 -8Q113 -8 77 27T41 116Q41 145 55 167T94 196L284 248L285 292Q285 342 262 370T197 398Q169 398 138 385T77 348L72 351L60 394Q107 421 154 442T223
464Q288 464 325 430T362 335Q362 313 355 245Q344 135 344 105Q344 83 355 71T385 59Q401 59 418 66T445 84L459 68Q444 43 421 20T372 -12Q291 -12 283 69ZM205 60T230 73T277 108L282 210L146 169Q117 160 117 127Q117 98 136 79T186 60Q205 60 230 73ZM63 572V577L139
666L155 670Q173 670 223 652Q232 649 252 643T281 637Q291 637 305 649T330 674T344 692H350L372 671V666L296 577L280 573Q262 573 212 591Q203 594 183 600T154 606Q143 606 129 594T105 569T91 551H85L63 572Z" />
<glyph unicode="&#xe4;" glyph-name="adieresis" horiz-adv-x="466" d="M291 -12T283 69L279 70Q243 34 214 13T169 -8Q113 -8 77 27T41 116Q41 145 55 167T94 196L284 248L285 292Q285 342 262 370T197 398Q169 398 138 385T77 348L72 351L60 394Q107 421 154
442T223 464Q288 464 325 430T362 335Q362 313 355 245Q344 135 344 105Q344 83 355 71T385 59Q401 59 418 66T445 84L459 68Q444 43 421 20T372 -12Q291 -12 283 69ZM205 60T230 73T277 108L282 210L146 169Q117 160 117 127Q117 98 136 79T186 60Q205 60 230
73ZM110 546T99 559T88 589Q88 610 102 624T138 639Q157 639 168 627T179 596Q179 575 165 561T129 546Q110 546 99 559ZM276 546T265 559T254 589Q254 610 268 624T304 639Q323 639 334 627T345 596Q345 575 331 561T295 546Q276 546 265 559Z" />
<glyph unicode="&#xe5;" glyph-name="aring" horiz-adv-x="466" d="M291 -12T283 69L279 70Q243 34 214 13T169 -8Q113 -8 77 27T41 116Q41 145 55 167T94 196L284 248L285 292Q285 342 262 370T197 398Q169 398 138 385T77 348L72 351L60 394Q107 421 154 442T223
464Q288 464 325 430T362 335Q362 313 355 245Q344 135 344 105Q344 83 355 71T385 59Q401 59 418 66T445 84L459 68Q444 43 421 20T372 -12Q291 -12 283 69ZM205 60T230 73T277 108L282 210L146 169Q117 160 117 127Q117 98 136 79T186 60Q205 60 230 73ZM178
544T158 565T137 624Q137 661 160 684T221 708Q256 708 277 688T298 632Q298 594 274 569T213 544Q178 544 158 565ZM241 582T252 592T264 621Q264 643 250 656T213 669Q192 669 181 659T169 630Q169 610 183 596T220 582Q241 582 252 592Z" />
<glyph unicode="&#xe6;" glyph-name="ae" horiz-adv-x="653" d="M417 -12T369 16T297 95Q258 53 221 26T158 -8Q102 -8 66 27T30 116Q30 145 44 166T83 195L274 247L275 297Q275 347 253 374T189 401Q160 401 133 389T86 363T66 348L61 351L49 394Q58 399 89 416T157
448T212 464Q310 464 336 384Q365 422 405 443T488 464Q552 464 588 427T625 322Q625 315 624 310T623 303L614 289L344 225Q349 148 390 100T493 52Q520 52 547 60T592 76T616 87L622 85L633 56Q626 51 601 35T541 3T480 -12Q417 -12 369 16ZM518 312Q538 318
538 330Q538 363 517 385T465 408Q410 408 377 370T343 269V262L518 312ZM212 57T285 125Q273 163 273 210L135 169Q119 165 111 154T103 127Q103 99 123 78T170 57Q212 57 285 125Z" />
<glyph unicode="&#xe7;" glyph-name="ccedilla" horiz-adv-x="424" d="M150 -12T93 48T36 209Q36 280 66 338T149 430T267 464Q295 464 321 460T363 452T384 445L387 438Q386 433 382 415T372 366T366 300L325 297V328Q325 365 303 387T243 410Q182 410 149 367T116
243Q116 156 152 106T252 55Q277 55 302 62T344 77T365 88L371 86L382 55Q375 50 352 34T298 3T245 -12Q150 -12 93 48ZM181 -233T160 -223T138 -197Q138 -181 163 -141H172Q173 -168 187 -183T227 -198Q247 -198 261 -188T275 -160Q275 -144 252 -126T190 -85L223
23H266L241 -50Q248 -55 272 -71T311 -105T326 -139Q326 -164 308 -185T262 -220T206 -233Q181 -233 160 -223Z" />
<glyph unicode="&#xe8;" glyph-name="egrave" horiz-adv-x="448" d="M184 -12T136 15T62 93T36 209Q36 276 66 335T148 429T257 464Q330 464 368 427T406 319Q406 290 400 270L387 258H111Q110 161 149 109T260 56Q316 56 382 87L388 85L399 56Q363 30 320 9T246
-12Q184 -12 136 15ZM296 304Q311 306 316 311T321 331Q321 371 300 392T238 413Q191 413 158 381T115 295L296 304ZM232 568T182 608T117 660L116 671L154 712L164 714Q177 698 223 645T314 542L294 523L285 521Q232 568 182 608Z" />
<glyph unicode="&#xe9;" glyph-name="eacute" horiz-adv-x="448" d="M184 -12T136 15T62 93T36 209Q36 276 66 335T148 429T257 464Q330 464 368 427T406 319Q406 290 400 270L387 258H111Q110 161 149 109T260 56Q316 56 382 87L388 85L399 56Q363 30 320 9T246
-12Q184 -12 136 15ZM296 304Q311 306 316 311T321 331Q321 371 300 392T238 413Q191 413 158 381T115 295L296 304ZM193 523L173 542Q218 591 264 645T323 715L333 713L371 672L370 661Q355 650 305 610T202 521L193 523Z" />
<glyph unicode="&#xea;" glyph-name="ecircumflex" horiz-adv-x="448" d="M184 -12T136 15T62 93T36 209Q36 276 66 335T148 429T257 464Q330 464 368 427T406 319Q406 290 400 270L387 258H111Q110 161 149 109T260 56Q316 56 382 87L388 85L399 56Q363 30 320
9T246 -12Q184 -12 136 15ZM296 304Q311 306 316 311T321 331Q321 371 300 392T238 413Q191 413 158 381T115 295L296 304ZM111 528L97 550Q138 592 180 640T235 703H249Q261 689 303 641T387 550L373 528L364 527Q326 561 263 608L242 624Q164 566 120 527L111
528Z" />
<glyph unicode="&#xeb;" glyph-name="edieresis" horiz-adv-x="448" d="M184 -12T136 15T62 93T36 209Q36 276 66 335T148 429T257 464Q330 464 368 427T406 319Q406 290 400 270L387 258H111Q110 161 149 109T260 56Q316 56 382 87L388 85L399 56Q363 30 320
9T246 -12Q184 -12 136 15ZM296 304Q311 306 316 311T321 331Q321 371 300 392T238 413Q191 413 158 381T115 295L296 304ZM134 546T123 559T112 589Q112 610 126 624T162 639Q181 639 192 627T203 596Q203 575 189 561T153 546Q134 546 123 559ZM300 546T289 559T278
589Q278 610 292 624T328 639Q347 639 358 627T369 596Q369 575 355 561T319 546Q300 546 289 559Z" />
<glyph unicode="&#xec;" glyph-name="igrave" horiz-adv-x="282" d="M48 29Q78 37 91 52T104 94V348Q104 402 67 402Q60 402 52 401T42 398L46 435Q88 441 132 451T190 464L195 452Q186 431 179 324T172 98Q172 69 180 56T207 42Q218 42 228 43T242 44L244 40L236
-3Q227 -2 202 -1T147 0Q121 0 88 -5T44 -12L48 29ZM122 568T72 608T7 660L6 671L44 712L54 714Q67 698 113 645T204 542L184 523L175 521Q122 568 72 608Z" />
<glyph unicode="&#xed;" glyph-name="iacute" horiz-adv-x="282" d="M48 29Q78 37 91 52T104 94V348Q104 402 67 402Q60 402 52 401T42 398L46 435Q88 441 132 451T190 464L195 452Q186 431 179 324T172 98Q172 69 180 56T207 42Q218 42 228 43T242 44L244 40L236
-3Q227 -2 202 -1T147 0Q121 0 88 -5T44 -12L48 29ZM58 523L38 542Q83 591 129 645T188 715L198 713L236 672L235 661Q220 650 170 610T67 521L58 523Z" />
<glyph unicode="&#xee;" glyph-name="icircumflex" horiz-adv-x="282" d="M48 29Q78 37 91 52T104 94V348Q104 402 67 402Q60 402 52 401T42 398L46 435Q88 441 132 451T190 464L195 452Q186 431 179 324T172 98Q172 69 180 56T207 42Q218 42 228 43T242 44L244
40L236 -3Q227 -2 202 -1T147 0Q121 0 88 -5T44 -12L48 29ZM12 527L-2 549Q39 591 81 639T136 702H150Q162 688 204 640T288 549L274 527L265 526Q227 560 164 607L143 623Q65 565 21 526L12 527Z" />
<glyph unicode="&#xef;" glyph-name="idieresis" horiz-adv-x="282" d="M48 29Q78 37 91 52T104 94V348Q104 402 67 402Q60 402 52 401T42 398L46 435Q88 441 132 451T190 464L195 452Q186 431 179 324T172 98Q172 69 180 56T207 42Q218 42 228 43T242 44L244
40L236 -3Q227 -2 202 -1T147 0Q121 0 88 -5T44 -12L48 29ZM40 536T29 549T18 579Q18 600 32 614T68 629Q87 629 98 617T109 586Q109 565 95 551T59 536Q40 536 29 549ZM186 536T175 549T164 579Q164 600 178 614T214 629Q233 629 244 617T255 586Q255 565 241
551T205 536Q186 536 175 549Z" />
<glyph unicode="&#xf0;" glyph-name="eth" horiz-adv-x="508" d="M185 -12T140 15T69 92T43 206Q43 273 73 329T154 419T266 453Q280 453 296 447T325 435T340 427L342 429Q306 511 247 572L114 508L105 511L101 541L219 599Q149 659 53 704L68 737L78 741Q189
693 272 625L410 692L418 687L422 658L301 599Q381 524 423 433T465 242Q465 172 436 114T356 22T243 -12Q185 -12 140 15ZM323 37T353 82T383 206Q383 288 365 358Q321 399 250 399Q191 399 157 356T123 235Q123 177 142 132T194 62T271 37Q323 37 353 82Z" />
<glyph unicode="&#xf1;" glyph-name="ntilde" horiz-adv-x="562" d="M357 37T370 52T383 94L387 292Q387 342 366 369T304 396Q272 396 239 380T181 344Q172 137 172 98Q172 67 180 55T208 42Q219 42 229 43T243 44L245 40L236 -3Q227 -2 201 -1T145 0Q119 0 88
-2T46 -6L51 35Q80 40 92 53T104 94V338Q104 372 93 385T55 399H44L41 403L44 436Q87 443 129 452T184 465L190 457Q188 451 184 432T179 391L181 388Q295 464 328 464Q391 464 428 429T465 335Q465 325 459 243Q451 139 451 98Q451 69 459 56T486 42Q497 42 507
43T521 44L523 40L515 -3Q506 -2 481 -1T426 0Q400 0 367 -5T323 -12L327 29Q357 37 370 52ZM133 572V577L209 666L225 670Q243 670 293 652Q302 649 322 643T351 637Q361 637 375 649T400 674T414 692H420L442 671V666L366 577L350 573Q332 573 282 591Q273 594
253 600T224 606Q213 606 199 594T175 569T161 551H155L133 572Z" />
<glyph unicode="&#xf2;" glyph-name="ograve" horiz-adv-x="498" d="M173 -12T129 16T61 94T36 210Q36 280 66 338T150 430T268 464Q324 464 368 436T437 358T462 242Q462 172 432 114T348 22T230 -12Q173 -12 129 16ZM314 37T347 82T380 206Q380 265 362 311T312
384T238 410Q182 410 149 364T116 239Q116 180 134 134T184 63T258 37Q314 37 347 82ZM241 568T191 608T126 660L125 671L163 712L173 714Q186 698 232 645T323 542L303 523L294 521Q241 568 191 608Z" />
<glyph unicode="&#xf3;" glyph-name="oacute" horiz-adv-x="498" d="M173 -12T129 16T61 94T36 210Q36 280 66 338T150 430T268 464Q324 464 368 436T437 358T462 242Q462 172 432 114T348 22T230 -12Q173 -12 129 16ZM314 37T347 82T380 206Q380 265 362 311T312
384T238 410Q182 410 149 364T116 239Q116 180 134 134T184 63T258 37Q314 37 347 82ZM202 523L182 542Q227 591 273 645T332 715L342 713L380 672L379 661Q364 650 314 610T211 521L202 523Z" />
<glyph unicode="&#xf4;" glyph-name="ocircumflex" horiz-adv-x="498" d="M173 -12T129 16T61 94T36 210Q36 280 66 338T150 430T268 464Q324 464 368 436T437 358T462 242Q462 172 432 114T348 22T230 -12Q173 -12 129 16ZM314 37T347 82T380 206Q380 265 362
311T312 384T238 410Q182 410 149 364T116 239Q116 180 134 134T184 63T258 37Q314 37 347 82ZM120 528L106 550Q147 592 189 640T244 703H258Q270 689 312 641T396 550L382 528L373 527Q335 561 272 608L251 624Q173 566 129 527L120 528Z" />
<glyph unicode="&#xf5;" glyph-name="otilde" horiz-adv-x="498" d="M173 -12T129 16T61 94T36 210Q36 280 66 338T150 430T268 464Q324 464 368 436T437 358T462 242Q462 172 432 114T348 22T230 -12Q173 -12 129 16ZM314 37T347 82T380 206Q380 265 362 311T312
384T238 410Q182 410 149 364T116 239Q116 180 134 134T184 63T258 37Q314 37 347 82ZM96 572V577L172 666L188 670Q206 670 256 652Q265 649 285 643T314 637Q324 637 338 649T363 674T377 692H383L405 671V666L329 577L313 573Q295 573 245 591Q236 594 216 600T187
606Q176 606 162 594T138 569T124 551H118L96 572Z" />
<glyph unicode="&#xf6;" glyph-name="odieresis" horiz-adv-x="498" d="M173 -12T129 16T61 94T36 210Q36 280 66 338T150 430T268 464Q324 464 368 436T437 358T462 242Q462 172 432 114T348 22T230 -12Q173 -12 129 16ZM314 37T347 82T380 206Q380 265 362 311T312
384T238 410Q182 410 149 364T116 239Q116 180 134 134T184 63T258 37Q314 37 347 82ZM143 546T132 559T121 589Q121 610 135 624T171 639Q190 639 201 627T212 596Q212 575 198 561T162 546Q143 546 132 559ZM309 546T298 559T287 589Q287 610 301 624T337 639Q356
639 367 627T378 596Q378 575 364 561T328 546Q309 546 298 559Z" />
<glyph unicode="&#xf7;" glyph-name="divide" horiz-adv-x="506" d="M218 378T204 394T189 435Q189 461 206 479T251 497Q278 497 293 481T308 440Q308 414 291 396T245 378Q218 378 204 394ZM18 243L29 292L268 291Q318 291 389 293T482 297L488 287L480 236L253
235L24 234L18 243ZM218 29T204 45T189 86Q189 112 206 130T251 148Q278 148 293 132T308 91Q308 65 291 47T245 29Q218 29 204 45Z" />
<glyph unicode="&#xf8;" glyph-name="oslash" horiz-adv-x="498" d="M415 405T438 355T462 242Q462 172 432 114T348 22T230 -12Q186 -12 149 5L94 -98L67 -92L65 -82L119 23Q80 52 58 100T36 210Q36 280 66 338T150 430T268 464Q307 464 341 450L388 539L417
532L420 520L373 433Q415 405 438 355ZM182 410T149 364T116 239Q116 195 126 158T156 93L308 387Q277 410 238 410Q182 410 149 364ZM314 37T347 82T380 206Q380 253 368 293T335 361L181 65Q214 37 258 37Q314 37 347 82Z" />
<glyph unicode="&#xf9;" glyph-name="ugrave" horiz-adv-x="541" d="M90 401T53 401Q46 401 38 400T28 397L32 434Q71 440 116 450T175 464L181 452Q171 426 163 334T155 155Q155 57 235 57Q265 57 291 71T356 114V346Q356 376 345 388T306 400L282 399L286 435Q330
441 378 451T440 464L446 452Q437 429 431 327T424 105Q424 83 435 71T465 59Q479 59 492 64T514 76T525 84L539 68Q535 62 521 43T487 6T452 -12Q371 -12 363 69L358 71Q310 34 272 11T219 -12Q155 -12 121 18T86 104L90 347Q90 401 53 401ZM246 568T196 608T131
660L130 671L168 712L178 714Q191 698 237 645T328 542L308 523L299 521Q246 568 196 608Z" />
<glyph unicode="&#xfa;" glyph-name="uacute" horiz-adv-x="541" d="M90 401T53 401Q46 401 38 400T28 397L32 434Q71 440 116 450T175 464L181 452Q171 426 163 334T155 155Q155 57 235 57Q265 57 291 71T356 114V346Q356 376 345 388T306 400L282 399L286 435Q330
441 378 451T440 464L446 452Q437 429 431 327T424 105Q424 83 435 71T465 59Q479 59 492 64T514 76T525 84L539 68Q535 62 521 43T487 6T452 -12Q371 -12 363 69L358 71Q310 34 272 11T219 -12Q155 -12 121 18T86 104L90 347Q90 401 53 401ZM207 523L187 542Q232
591 278 645T337 715L347 713L385 672L384 661Q369 650 319 610T216 521L207 523Z" />
<glyph unicode="&#xfb;" glyph-name="ucircumflex" horiz-adv-x="541" d="M90 401T53 401Q46 401 38 400T28 397L32 434Q71 440 116 450T175 464L181 452Q171 426 163 334T155 155Q155 57 235 57Q265 57 291 71T356 114V346Q356 376 345 388T306 400L282 399L286
435Q330 441 378 451T440 464L446 452Q437 429 431 327T424 105Q424 83 435 71T465 59Q479 59 492 64T514 76T525 84L539 68Q535 62 521 43T487 6T452 -12Q371 -12 363 69L358 71Q310 34 272 11T219 -12Q155 -12 121 18T86 104L90 347Q90 401 53 401ZM125 528L111
550Q152 592 194 640T249 703H263Q275 689 317 641T401 550L387 528L378 527Q340 561 277 608L256 624Q178 566 134 527L125 528Z" />
<glyph unicode="&#xfc;" glyph-name="udieresis" horiz-adv-x="541" d="M90 401T53 401Q46 401 38 400T28 397L32 434Q71 440 116 450T175 464L181 452Q171 426 163 334T155 155Q155 57 235 57Q265 57 291 71T356 114V346Q356 376 345 388T306 400L282 399L286
435Q330 441 378 451T440 464L446 452Q437 429 431 327T424 105Q424 83 435 71T465 59Q479 59 492 64T514 76T525 84L539 68Q535 62 521 43T487 6T452 -12Q371 -12 363 69L358 71Q310 34 272 11T219 -12Q155 -12 121 18T86 104L90 347Q90 401 53 401ZM148 546T137
559T126 589Q126 610 140 624T176 639Q195 639 206 627T217 596Q217 575 203 561T167 546Q148 546 137 559ZM314 546T303 559T292 589Q292 610 306 624T342 639Q361 639 372 627T383 596Q383 575 369 561T333 546Q314 546 303 559Z" />
<glyph unicode="&#xfd;" glyph-name="yacute" horiz-adv-x="446" d="M28 -241T10 -218T-8 -184L-3 -177Q53 -177 101 -131T185 0Q108 244 61 368Q52 393 36 404T-7 416L-9 420L-3 453L80 452Q117 452 153 455T200 459L202 454L196 423Q162 422 151 417T139 397Q139
381 158 314T199 181T227 94H231Q346 369 346 393Q346 419 308 419H262L260 423L266 456Q275 455 306 454T368 452L453 453L446 416Q424 412 413 401T390 359L263 55Q211 -71 178 -132T113 -217T36 -241Q28 -241 10 -218ZM181 523L161 542Q206 591 252 645T311
715L321 713L359 672L358 661Q343 650 293 610T190 521L181 523Z" />
<glyph unicode="&#xfe;" glyph-name="thorn" horiz-adv-x="510" d="M26 -198Q54 -195 66 -185T80 -158T83 -97L85 94V633Q85 657 77 667T47 678Q41 678 23 676L27 713Q99 722 175 742L181 729Q174 718 168 627T158 394Q257 464 279 464Q335 464 379 437T447 361T472
250Q472 179 439 119T348 24T223 -12L152 -8V-111Q152 -150 157 -165T178 -186T234 -189L236 -192L228 -230H165Q79 -230 21 -237L26 -198ZM318 43T356 88T395 213Q395 263 378 305T330 371T263 396Q244 396 214 381T156 342L153 64L251 43Q318 43 356 88Z" />
<glyph unicode="&#xff;" glyph-name="ydieresis" horiz-adv-x="446" d="M28 -241T10 -218T-8 -184L-3 -177Q53 -177 101 -131T185 0Q108 244 61 368Q52 393 36 404T-7 416L-9 420L-3 453L80 452Q117 452 153 455T200 459L202 454L196 423Q162 422 151 417T139
397Q139 381 158 314T199 181T227 94H231Q346 369 346 393Q346 419 308 419H262L260 423L266 456Q275 455 306 454T368 452L453 453L446 416Q424 412 413 401T390 359L263 55Q211 -71 178 -132T113 -217T36 -241Q28 -241 10 -218ZM122 546T111 559T100 589Q100
610 114 624T150 639Q169 639 180 627T191 596Q191 575 177 561T141 546Q122 546 111 559ZM288 546T277 559T266 589Q266 610 280 624T316 639Q335 639 346 627T357 596Q357 575 343 561T307 546Q288 546 277 559Z" />
<glyph unicode="&#x2013;" glyph-name="endash" horiz-adv-x="608" d="M68 233L79 282L318 281L532 287L538 277L530 226L174 225Q125 224 74 224L68 233Z" />
<glyph unicode="&#x2014;" glyph-name="emdash" horiz-adv-x="918" d="M-6 233L5 282L474 281Q558 281 691 283T873 286L918 287L924 277L916 226L204 225Q133 224 81 224T0 224L-6 233Z" />
<glyph unicode="&#x2018;" glyph-name="quoteleft" horiz-adv-x="176" d="M68 414T51 438T34 497Q34 532 59 572T129 651L150 640L152 630Q129 608 115 582T101 532Q101 510 115 492T154 466L155 452Q123 414 92 414Q68 414 51 438Z" />
<glyph unicode="&#x2019;" glyph-name="quoteright" horiz-adv-x="176" d="M26 425L24 435Q47 457 61 483T75 533Q75 555 61 573T22 599L21 613Q53 651 84 651Q108 651 125 627T142 568Q142 533 117 493T47 414L26 425Z" />
<glyph unicode="&#x201a;" glyph-name="quotesinglbase" horiz-adv-x="238" d="M63 -142V-132Q98 -108 120 -75T142 -11Q142 9 133 27T110 59L112 73Q146 99 170 99Q192 99 206 79T221 21Q221 -31 179 -77T81 -157L63 -142Z" />
<glyph unicode="&#x201c;" glyph-name="quotedblleft" horiz-adv-x="331" d="M223 414T206 438T189 497Q189 532 214 572T284 651L305 640L307 630Q284 608 270 582T256 532Q256 510 270 492T309 466L310 452Q278 414 247 414Q223 414 206 438ZM68 414T51 438T34
497Q34 532 59 572T129 651L150 640L152 630Q129 608 115 582T101 532Q101 510 115 492T154 466L155 452Q123 414 92 414Q68 414 51 438Z" />
<glyph unicode="&#x201d;" glyph-name="quotedblright" horiz-adv-x="331" d="M181 425L179 435Q202 457 216 483T230 533Q230 555 216 573T177 599L176 613Q208 651 239 651Q263 651 280 627T297 568Q297 533 272 493T202 414L181 425ZM26 425L24 435Q47 457
61 483T75 533Q75 555 61 573T22 599L21 613Q53 651 84 651Q108 651 125 627T142 568Q142 533 117 493T47 414L26 425Z" />
<glyph unicode="&#x201e;" glyph-name="quotedblbase" horiz-adv-x="397" d="M31 -112V-102Q62 -83 82 -56T103 -3Q103 16 92 32T63 59L65 73Q99 99 123 99Q146 99 161 80T177 28Q177 -21 139 -60T49 -127L31 -112ZM186 -112V-102Q217 -83 237 -56T258 -3Q258
16 247 32T218 59L220 73Q254 99 278 99Q301 99 316 80T332 28Q332 -21 294 -60T204 -127L186 -112Z" />
<glyph unicode="&#x2022;" glyph-name="bullet" horiz-adv-x="340" d="M119 117T90 148T60 225Q60 272 91 305T171 338Q220 338 250 306T281 229Q281 182 249 150T168 117Q119 117 90 148Z" />
<glyph unicode="&#x2039;" glyph-name="guilsinglleft" horiz-adv-x="261" d="M149 95T95 146T24 212V227Q40 242 94 295T196 400L218 385L219 375L112 226L219 71L218 61L196 46Q149 95 95 146Z" />
<glyph unicode="&#x203a;" glyph-name="guilsinglright" horiz-adv-x="261" d="M43 61L42 71L149 220L42 375L43 385L65 400Q112 351 166 300T237 234V219Q221 204 167 151T65 46L43 61Z" />
</font>
</defs>
</svg>
