<?xml version="1.0" standalone="no"?>
<!DOCTYPE svg PUBLIC "-//W3C//DTD SVG 1.1//EN" "http://www.w3.org/Graphics/SVG/1.1/DTD/svg11.dtd">
<svg xmlns="http://www.w3.org/2000/svg">
<defs >
<font id="Oswald" horiz-adv-x="459" ><font-face
    font-family="Oswald"
    units-per-em="1000"
    panose-1="0 0 5 0 0 0 0 0 0 0"
    ascent="1193"
    descent="-289"
    alphabetic="0" />
<glyph unicode=" " glyph-name="space" horiz-adv-x="229" />
<glyph unicode="!" glyph-name="exclam" horiz-adv-x="208" d="M50 810H158L122 173H84L50 810ZM50 110H158V0H50V110Z" />
<glyph unicode="&quot;" glyph-name="quotedbl" horiz-adv-x="266" d="M20 810H117L78 562H20V810ZM159 810H256L217 562H159V810Z" />
<glyph unicode="#" glyph-name="numbersign" horiz-adv-x="486" d="M75 290H32V370H87L101 467H34V548H112L150 810H257L219 548H309L347 810H453L415 548H456V467H404L389 370H453V290H378L336 0H229L271 290H182L141 0H34L75 290ZM283 370L297 467H208L193 370H283Z" />
<glyph unicode="$" glyph-name="dollar" horiz-adv-x="491" d="M247 -8Q148 -6 96 56T39 227L139 254Q144 176 169 128T254 80Q298 80 320 104T343 175Q343 224 322 256T255 331L119 451Q78 488 60 529T41 630Q41 716 89 765T223 817V884H258V817Q341 811 383
760T435 608L339 582Q334 651 313 690T239 730Q142 730 142 641Q142 605 154 582T195 531L332 411Q385 362 416 308T448 184Q448 102 403 52T281 -7V-77H247V-8Z" />
<glyph unicode="%" glyph-name="percent" horiz-adv-x="891" d="M112 380T74 429T36 568V631Q36 723 73 769T193 816Q276 816 313 771T350 636V565Q350 475 313 428T193 380Q112 380 74 429ZM512 811H604L382 0H289L512 811ZM228 461T240 489T253 565V636Q253
684 241 709T193 735Q157 735 146 709T134 635V564Q134 516 146 489T193 461Q228 461 240 489ZM542 -5T542 183V246Q542 337 578 384T698 431Q781 431 818 386T855 250V180Q855 89 818 42T698 -5Q542 -5 542 183ZM733 76T745 103T758 179V251Q758 299 746 324T698
350Q662 350 651 324T639 250V179Q639 131 651 104T698 76Q733 76 745 103Z" />
<glyph unicode="&amp;" glyph-name="ampersand" horiz-adv-x="606" d="M151 -9T105 41T58 173Q58 244 89 300T176 407L154 448Q122 506 105 548T88 638Q88 719 134 768T261 817Q336 817 384 777T433 667Q433 596 390 531T281 402L403 210Q432 266 443 372H549Q549
316 526 252T471 143Q485 125 506 114T550 102V-8H536Q509 -8 487 4T450 28T407 70Q378 34 334 13T233 -9Q151 -9 105 41ZM278 500T302 557T326 667Q326 696 309 712T261 729Q227 729 211 703T195 638Q195 596 208 554T244 460Q278 500 302 557ZM294 80T342 140L218
331Q194 300 180 258T165 173Q165 133 181 107T233 80Q294 80 342 140Z" />
<glyph unicode="&apos;" glyph-name="quotesingle" horiz-adv-x="127" d="M20 810H117L78 562H20V810Z" />
<glyph unicode="(" glyph-name="parenleft" horiz-adv-x="298" d="M179 -193T137 -123T84 49T73 311Q73 472 83 574T136 746T268 817V745Q226 744 206 687T181 548T176 336V265Q176 144 181 64T207 -69T268 -123V-194Q179 -193 137 -123Z" />
<glyph unicode=")" glyph-name="parenright" horiz-adv-x="260" d="M29 -122Q71 -121 91 -64T117 75T122 288V358Q122 479 117 559T91 692T29 746V817Q119 817 161 747T214 575T225 313Q225 152 215 50T162 -122T29 -194V-122Z" />
<glyph unicode="*" glyph-name="asterisk" horiz-adv-x="398" d="M84 507L163 618L45 663L71 731L184 671L172 809H253L240 671L354 731L379 663L261 617L341 507L276 469L212 594L147 469L84 507Z" />
<glyph unicode="+" glyph-name="plus" horiz-adv-x="415" d="M165 375H25V456H165V619H245V456H390V375H245V212H165V375Z" />
<glyph unicode="," glyph-name="comma" horiz-adv-x="187" d="M40 -85Q67 -76 82 -54T98 0H41V115H151V2Q151 -51 128 -82T57 -131L40 -85Z" />
<glyph unicode="-" glyph-name="hyphen" horiz-adv-x="321" d="M49 342H272V261H49V342Z" />
<glyph unicode="." glyph-name="period" horiz-adv-x="188" d="M49 119H156V0H49V119Z" />
<glyph unicode="/" glyph-name="slash" horiz-adv-x="369" d="M247 810H340L121 0H29L247 810Z" />
<glyph unicode="0" glyph-name="zero" horiz-adv-x="517" d="M159 -9T109 56T58 230V579Q58 690 107 753T259 817Q360 817 409 754T459 579V230Q459 120 409 56T259 -9Q159 -9 109 56ZM351 79T351 229V580Q351 649 332 689T259 730Q206 730 186 690T166 580V229Q166
79 259 79Q351 79 351 229Z" />
<glyph unicode="1" glyph-name="one" horiz-adv-x="396" d="M171 670Q169 667 111 656T30 641V722Q152 751 197 810H278V0H171V670Z" />
<glyph unicode="2" glyph-name="two" horiz-adv-x="478" d="M41 76L247 397Q262 421 267 427Q302 483 318 520T334 609Q334 667 315 698T253 729Q157 729 157 580V553H50V581Q50 695 97 756T248 817Q344 817 393 763T442 608Q442 559 431 521T403 454T353 374L167
90H423V0H41V76Z" />
<glyph unicode="3" glyph-name="three" horiz-adv-x="477" d="M141 -9T91 45T40 199V226H146V208Q148 146 167 113T238 80Q292 80 311 117T331 229Q331 297 306 335T225 378Q221 379 210 379V486H224Q281 488 306 516T331 609Q331 669 311 699T239 730Q187 730
168 697T146 600V583H40V610Q40 709 90 763T239 817Q337 817 387 763T438 609Q438 538 407 493T322 432Q377 415 407 363T438 229Q438 116 390 54T238 -9Q141 -9 91 45Z" />
<glyph unicode="4" glyph-name="four" horiz-adv-x="483" d="M275 217H40V329L251 810H377V312H468V217H377V0H275V217ZM275 312V680L143 312H275Z" />
<glyph unicode="5" glyph-name="five" horiz-adv-x="476" d="M138 -8T93 51T47 227H154Q154 159 172 118T245 77Q286 77 306 101T331 164T337 270Q337 331 331 367T305 423T246 443Q215 443 192 424T156 376H65V810H414V703H162L155 479Q198 524 272 524Q365 524
404 461T444 284Q444 146 399 69T243 -8Q138 -8 93 51Z" />
<glyph unicode="6" glyph-name="six" horiz-adv-x="503" d="M157 -9T108 64T58 257V530Q58 661 104 739T257 817Q351 817 402 766T455 620L456 608H348Q348 670 328 699T257 729Q165 729 165 556V433Q181 459 211 474T283 489Q378 489 418 429T458 255Q458 136
409 64T257 -9Q157 -9 108 64ZM307 80T328 121T350 229Q350 290 345 326T320 385T257 408Q226 408 203 392T165 353V232Q165 163 186 122T257 80Q307 80 328 121Z" />
<glyph unicode="7" glyph-name="seven" horiz-adv-x="386" d="M239 726H22V810H346V758L196 0H93L239 726Z" />
<glyph unicode="8" glyph-name="eight" horiz-adv-x="499" d="M144 -9T97 52T50 228Q50 305 75 351T150 427Q60 487 60 608Q60 707 107 762T250 817Q345 817 391 762T438 608Q438 543 415 500T348 427Q397 396 423 350T449 228Q449 114 402 53T250 -9Q144 -9 97
52ZM333 477T333 614Q333 668 314 701T250 734Q206 734 186 701T165 614Q165 554 184 516T250 476Q333 477 333 614ZM304 76T325 115T346 226Q346 291 324 332T250 374Q198 373 175 332T152 226Q152 155 173 116T250 76Q304 76 325 115Z" />
<glyph unicode="9" glyph-name="nine" horiz-adv-x="502" d="M150 -9T99 43T46 192V201H153Q153 139 173 110T246 80Q336 80 336 253V376Q320 350 291 335T218 320Q123 320 84 380T44 554Q44 673 93 745T245 817Q345 817 394 744T444 552V280Q444 149 398 70T245
-9Q150 -9 99 43ZM304 401T336 457V577Q336 729 245 729Q195 729 174 688T152 580Q152 519 157 483T182 424T245 401Q304 401 336 457Z" />
<glyph unicode=":" glyph-name="colon" horiz-adv-x="197" d="M60 529H168V415H60V529ZM60 210H168V96H60V210Z" />
<glyph unicode=";" glyph-name="semicolon" horiz-adv-x="215" d="M59 565H167V446H59V565ZM58 1Q116 5 116 68H59V182H170V70Q170 15 148 -14T76 -46L58 1Z" />
<glyph unicode="&lt;" glyph-name="less" horiz-adv-x="373" d="M29 238V345L315 549V441L110 292L315 143V36L29 238Z" />
<glyph unicode="=" glyph-name="equal" horiz-adv-x="415" d="M54 538H361V456H54V538ZM54 360H361V279H54V360Z" />
<glyph unicode="&gt;" glyph-name="greater" horiz-adv-x="373" d="M58 143L264 293L58 441V549L345 346V239L58 36V143Z" />
<glyph unicode="?" glyph-name="question" horiz-adv-x="487" d="M162 327Q250 403 295 469T341 615Q341 664 316 694T245 724Q205 724 182 702T158 642Q158 624 165 592L65 573Q54 604 54 636Q54 717 104 767T245 817Q340 817 393 763T446 612Q446 548 422 495T358
397T257 300V203H162V327ZM157 110H264V0H157V110Z" />
<glyph unicode="@" glyph-name="at" horiz-adv-x="904" d="M350 -134T258 -88T112 51T59 282Q59 457 116 575T274 751T511 810Q626 810 705 757T822 617T861 426Q861 337 832 262T747 142T621 98Q578 98 551 123T522 190Q513 154 490 129T427 100L413 99Q348 99
313 151T277 279Q277 355 307 431T392 555T514 604Q529 604 547 597T579 579L589 596H667L610 229Q607 210 607 192Q607 175 612 167T633 158Q675 158 709 193T763 287T783 417Q783 503 753 573T661 684T504 726Q400 726 322 672T200 519T156 286Q156 119 243 34T479
-51Q567 -51 661 -24L680 -102Q569 -134 470 -134Q350 -134 258 -88ZM465 181T490 207T525 287L560 520Q545 525 532 525Q492 525 457 492T399 401T377 278Q377 236 392 209T437 181Q465 181 490 207Z" />
<glyph unicode="A" glyph-name="A" horiz-adv-x="492" d="M191 810H300L473 0H366L329 204H164L125 0H19L191 810ZM314 285L246 650L179 285H314Z" />
<glyph unicode="B" glyph-name="B" horiz-adv-x="524" d="M63 810H249Q359 810 412 761T465 607Q465 452 349 436Q421 419 454 369T487 231Q487 122 436 61T279 0H63V810ZM243 472Q313 472 340 502T367 607Q367 661 351 686T301 719T203 726H176V472H243ZM252
81Q302 81 329 96T368 144T379 231Q379 309 347 347T243 386H176V81H252Z" />
<glyph unicode="C" glyph-name="C" horiz-adv-x="515" d="M146 -9T97 62T48 260V546Q48 679 96 748T266 817Q375 817 422 758T470 584V520H363V577Q363 633 358 663T333 711T267 729Q221 729 199 710T169 656T162 563V242Q162 180 172 145T204 95T267 80Q310 80
331 99T357 151T363 241V301H470V241Q470 120 425 56T266 -9Q146 -9 97 62Z" />
<glyph unicode="D" glyph-name="D" horiz-adv-x="527" d="M63 810H239Q370 810 424 750T479 563V265Q479 131 426 66T248 0H63V810ZM240 81Q299 81 325 104T358 166T365 286V549Q365 618 357 654T321 708T237 726H176V81H240Z" />
<glyph unicode="E" glyph-name="E" horiz-adv-x="407" d="M63 810H377V726H176V458H339V378H176V81H379V0H63V810Z" />
<glyph unicode="F" glyph-name="F" horiz-adv-x="391" d="M63 810H376V729H176V459H331V379H176V0H63V810Z" />
<glyph unicode="G" glyph-name="G" horiz-adv-x="535" d="M146 -10T97 59T48 266V537Q48 631 67 691T134 784T265 817Q377 817 426 760T476 581V551H370V576Q370 634 363 665T334 713T267 729Q220 729 197 708T168 650T161 554V254Q161 161 183 121T270 80Q333
80 356 124T380 265V321H277V401H482V0H411L400 93Q362 -10 256 -10Q146 -10 97 59Z" />
<glyph unicode="H" glyph-name="H" horiz-adv-x="561" d="M63 810H176V460H384V810H497V0H384V379H176V0H63V810Z" />
<glyph unicode="I" glyph-name="I" horiz-adv-x="248" d="M69 810H180V0H69V810Z" />
<glyph unicode="J" glyph-name="J" horiz-adv-x="301" d="M7 62Q58 62 82 71T116 106T125 185V810H237V183Q237 110 222 67T169 2T61 -19H7V62Z" />
<glyph unicode="K" glyph-name="K" horiz-adv-x="495" d="M63 810H176V428L362 810H467L307 453L493 0H383L228 380L176 286V0H63V810Z" />
<glyph unicode="L" glyph-name="L" horiz-adv-x="397" d="M63 810H176V81H383V0H63V810Z" />
<glyph unicode="M" glyph-name="M" horiz-adv-x="660" d="M76 810H187L330 153L474 810H584L599 0H508L499 588L362 0H298L162 588L153 0H61L76 810Z" />
<glyph unicode="N" glyph-name="N" horiz-adv-x="528" d="M63 810H140L370 272V810H464V0H392L159 553V0H63V810Z" />
<glyph unicode="O" glyph-name="O" horiz-adv-x="539" d="M151 -9T100 58T48 254V561Q48 687 100 752T270 817Q388 817 439 752T491 561V253Q491 127 439 59T270 -9Q151 -9 100 58ZM333 80T355 117T377 229V584Q377 658 355 693T270 729Q206 729 184 694T162 584V229Q162
154 184 117T270 80Q333 80 355 117Z" />
<glyph unicode="P" glyph-name="P" horiz-adv-x="480" d="M63 810H264Q369 810 416 753T464 586Q464 487 413 432T265 377H176V0H63V810ZM228 458Q278 458 305 469T345 507T357 585Q357 647 348 676T313 717T229 729H176V458H228Z" />
<glyph unicode="Q" glyph-name="Q" horiz-adv-x="541" d="M374 -134T289 -8Q283 -9 270 -9Q151 -9 100 58T48 254V561Q48 687 100 752T270 817Q388 817 440 752T492 561V253Q492 60 373 10Q423 -55 453 -75L435 -164Q374 -134 289 -8ZM334 80T356 117T378 229V584Q378
658 356 693T270 729Q206 729 184 694T162 584V229Q162 154 184 117T270 80Q334 80 356 117Z" />
<glyph unicode="R" glyph-name="R" horiz-adv-x="519" d="M63 810H226Q349 810 406 760T464 595Q464 439 364 406L479 0H370L264 380H176V0H63V810ZM219 461Q292 461 323 490T355 595Q355 645 344 673T305 715T226 729H176V461H219Z" />
<glyph unicode="S" glyph-name="S" horiz-adv-x="473" d="M152 -9T99 54T39 227L139 254Q144 176 169 128T254 80Q298 80 320 104T343 175Q343 225 322 258T255 331L119 451Q78 487 60 528T41 630Q41 719 92 768T231 817Q327 817 376 766T435 608L339 582Q334
653 312 691T231 730Q188 730 165 708T142 641Q142 605 154 581T195 531L332 411Q385 364 416 309T448 184Q448 95 394 43T254 -9Q152 -9 99 54Z" />
<glyph unicode="T" glyph-name="T" horiz-adv-x="413" d="M152 726H15V810H398V726H265V0H152V726Z" />
<glyph unicode="U" glyph-name="U" horiz-adv-x="543" d="M187 -9T140 25T74 120T56 273V810H164V268Q164 176 185 128T272 80Q337 80 358 128T380 268V810H487V273Q487 181 469 120T404 25T272 -9Q187 -9 140 25Z" />
<glyph unicode="V" glyph-name="V" horiz-adv-x="505" d="M23 810H129L257 213L379 810H482L303 0H204L23 810Z" />
<glyph unicode="W" glyph-name="W" horiz-adv-x="729" d="M36 810H130L217 228L326 807H406L516 225L601 810H693L563 0H481L368 600L254 0H168L36 810Z" />
<glyph unicode="X" glyph-name="X" horiz-adv-x="482" d="M182 424L16 810H121L244 524L356 810H461L291 415L469 0H364L232 305L118 0H13L182 424Z" />
<glyph unicode="Y" glyph-name="Y" horiz-adv-x="481" d="M187 286L12 810H117L241 419L363 810H469L295 286V0H187V286Z" />
<glyph unicode="Z" glyph-name="Z" horiz-adv-x="417" d="M38 81L276 729H53V810H396V761L145 81H396V0H38V81Z" />
<glyph unicode="[" glyph-name="bracketleft" horiz-adv-x="340" d="M63 810H283V755H170V-129H283V-184H63V810Z" />
<glyph unicode="\" glyph-name="backslash" horiz-adv-x="369" d="M29 810H121L340 0H247L29 810Z" />
<glyph unicode="]" glyph-name="bracketright" horiz-adv-x="310" d="M26 -129H139V754H26V810H247V-184H26V-129Z" />
<glyph unicode="^" glyph-name="asciicircum" horiz-adv-x="443" d="M168 810H276L410 487H308L222 730L135 487H34L168 810Z" />
<glyph unicode="_" glyph-name="underscore" horiz-adv-x="344" d="M0 -53H344V-134H0V-53Z" />
<glyph unicode="`" glyph-name="grave" horiz-adv-x="278" d="M57 810H164L221 612H167L57 810Z" />
<glyph unicode="a" glyph-name="a" horiz-adv-x="426" d="M125 -8T99 11T57 61T42 126Q42 194 71 236T145 304T270 361V402Q270 459 259 482T212 506Q151 506 151 424V395L45 399Q47 495 89 540T219 586Q302 586 339 541T377 403V139Q377 74 387 0H289Q278 57
275 85Q263 46 234 19T158 -8Q125 -8 99 11ZM221 84T241 100T270 132V296Q227 272 204 255T165 214T149 159Q149 123 162 104T200 84Q221 84 241 100Z" />
<glyph unicode="b" glyph-name="b" horiz-adv-x="447" d="M209 -8T163 42V0H56V810H163V532Q210 586 272 586Q351 586 377 519T404 369V229Q404 -8 261 -8Q209 -8 163 42ZM276 76T286 113T297 229V369Q297 433 285 467T235 502Q200 502 163 473V102Q196 76 239
76Q276 76 286 113Z" />
<glyph unicode="c" glyph-name="c" horiz-adv-x="411" d="M144 -8T107 19T57 96T43 222V355Q43 433 56 483T107 559T212 586Q274 586 308 566T356 507T370 404V370H273V405Q273 462 261 484T213 507Q186 507 173 495T155 456T150 377V195Q150 145 156 119T175
82T214 71Q251 71 262 95T273 171V218H370V178Q370 84 336 38T212 -8Q144 -8 107 19Z" />
<glyph unicode="d" glyph-name="d" horiz-adv-x="442" d="M113 -8T78 46T43 227V339Q43 454 73 520T185 586Q236 586 281 541V810H388V0H281V37Q239 -8 188 -8Q113 -8 78 46ZM247 76T281 98V477Q244 502 213 502Q150 502 150 381V218Q150 148 163 112T215 76Q247
76 281 98Z" />
<glyph unicode="e" glyph-name="e" horiz-adv-x="421" d="M147 -8T110 17T58 93T43 223V355Q43 475 80 530T214 586Q284 586 319 557T366 476T378 334V287H150V171Q150 118 165 95T215 71Q249 71 261 94T273 166V201H377V179Q377 88 338 40T214 -8Q147 -8 110
17ZM273 345V397Q273 456 262 481T213 507Q187 507 174 495T155 456T150 376V345H273Z" />
<glyph unicode="f" glyph-name="f" horiz-adv-x="287" d="M88 499H19V578H88V608Q88 668 97 704T133 761T213 781Q248 781 283 774V696Q263 701 243 701Q214 701 205 683T195 626V578H283V499H195V0H88V499Z" />
<glyph unicode="g" glyph-name="g" horiz-adv-x="435" d="M120 -179T70 -153T20 -70Q20 -32 43 -4T103 41Q76 49 62 66T47 103Q47 133 62 155T111 208Q77 234 61 273T44 380Q44 481 85 533T207 586Q253 586 282 570T326 522Q333 533 355 551T404 582L420 589L447
520Q427 516 392 503T349 483Q356 465 361 433T367 377Q367 282 330 230T207 177Q180 177 152 184Q133 156 133 140Q133 129 144 123T181 114L271 106Q339 100 372 65T405 -35Q405 -179 204 -179Q120 -179 70 -153ZM250 252T263 282T276 380Q276 449 263 480T208
512Q166 512 152 481T137 380Q137 318 151 285T207 252Q250 252 263 282ZM269 -95T296 -82T323 -38Q323 -10 306 3T244 21L153 29Q132 8 121 -8T110 -43Q110 -70 132 -82T212 -95Q269 -95 296 -82Z" />
<glyph unicode="h" glyph-name="h" horiz-adv-x="445" d="M57 810H164V518Q236 586 309 586Q356 586 375 552T395 468V0H288V437Q288 470 278 486T242 502Q207 502 164 464V0H57V810Z" />
<glyph unicode="i" glyph-name="i" horiz-adv-x="229" d="M61 776H168V664H61V776ZM61 578H168V0H61V578Z" />
<glyph unicode="j" glyph-name="j" horiz-adv-x="230" d="M69 776H177V664H69V776ZM-3 -146T-19 -139V-62Q2 -65 9 -65Q42 -65 55 -47T69 5V578H176V-6Q176 -74 139 -110T36 -146Q-3 -146 -19 -139Z" />
<glyph unicode="k" glyph-name="k" horiz-adv-x="429" d="M56 811H163V328L319 578H431L295 352L427 0H320L212 296L163 222V1H56V811Z" />
<glyph unicode="l" glyph-name="l" horiz-adv-x="229" d="M64 810H171V0H64V810Z" />
<glyph unicode="m" glyph-name="m" horiz-adv-x="680" d="M54 578H153V523Q182 555 216 571T289 588Q363 588 383 515Q443 588 527 588Q572 588 600 555T629 454V0H531V447Q531 487 518 502T481 518Q459 518 435 506T391 471V454V0H293V447Q293 487 280 502T243
518Q222 518 198 506T153 471V0H54V578Z" />
<glyph unicode="n" glyph-name="n" horiz-adv-x="439" d="M54 578H161V521Q230 586 302 586Q349 586 369 552T389 468V0H282V437Q282 470 272 486T236 502Q204 502 161 466V0H54V578Z" />
<glyph unicode="o" glyph-name="o" horiz-adv-x="425" d="M121 -8T83 46T44 205V373Q44 477 82 531T213 586Q304 586 342 532T381 373V205Q381 101 343 47T213 -8Q121 -8 83 46ZM242 71T255 88T271 130T274 198V379Q274 422 271 447T255 490T213 507Q184 507 171
490T154 448T151 379V198Q151 155 154 130T170 88T213 71Q242 71 255 88Z" />
<glyph unicode="p" glyph-name="p" horiz-adv-x="446" d="M54 578H161V532Q208 586 271 586Q350 586 376 519T403 369V229Q403 123 371 58T259 -8Q208 -8 161 43V-190H54V578ZM275 76T285 113T296 229V369Q296 433 284 467T234 502Q197 502 161 472V102Q196 76
238 76Q275 76 285 113Z" />
<glyph unicode="q" glyph-name="q" horiz-adv-x="443" d="M282 37Q240 -8 189 -8Q114 -8 79 46T44 227V339Q44 454 74 520T186 586Q237 586 282 541V578H389V-190H282V37ZM250 76T282 98V477Q245 502 214 502Q151 502 151 381V218Q151 148 164 112T216 76Q250 76 282 98Z" />
<glyph unicode="r" glyph-name="r" horiz-adv-x="321" d="M57 578H164V496Q194 545 225 565T292 585Q301 585 309 584V466Q277 478 250 478Q224 478 204 466T164 422V0H57V578Z" />
<glyph unicode="s" glyph-name="s" horiz-adv-x="374" d="M118 -8T75 36T25 154L114 181Q122 125 141 98T197 71Q225 71 240 87T256 132Q256 157 245 177T209 218L110 303Q76 332 58 364T39 444Q39 511 79 548T188 586Q254 586 291 544T335 434L263 407Q256 456
240 481T192 507Q166 507 151 490T135 448Q135 416 164 390L266 296Q305 260 326 225T348 140Q348 68 305 30T188 -8Q118 -8 75 36Z" />
<glyph unicode="t" glyph-name="t" horiz-adv-x="308" d="M83 -8T83 130V507H22V578H83V747H190V578H283V507H190V137Q190 102 201 88T243 74Q263 74 282 77V-2Q242 -8 208 -8Q83 -8 83 130Z" />
<glyph unicode="u" glyph-name="u" horiz-adv-x="440" d="M90 -8T70 26T50 110V578H157V142Q157 109 167 93T203 76Q235 76 278 112V578H385V0H278V57Q209 -8 137 -8Q90 -8 70 26Z" />
<glyph unicode="v" glyph-name="v" horiz-adv-x="385" d="M15 578H123L194 113L266 578H370L260 0H129L15 578Z" />
<glyph unicode="w" glyph-name="w" horiz-adv-x="588" d="M28 578H116L176 152L253 578H335L412 154L472 578H560L464 0H374L295 408L217 0H121L28 578Z" />
<glyph unicode="x" glyph-name="x" horiz-adv-x="389" d="M139 304L12 578H114L199 395L274 578H379L247 291L381 0H279L188 196L110 0H9L139 304Z" />
<glyph unicode="y" glyph-name="y" horiz-adv-x="392" d="M45 -63Q105 -63 127 -54T150 -20Q150 -8 128 86L12 578H120L198 146L273 578H381L243 -32Q229 -93 184 -119T58 -145H45V-63Z" />
<glyph unicode="z" glyph-name="z" horiz-adv-x="347" d="M32 72L209 498H50V578H324V520L146 81H320V0H32V72Z" />
<glyph unicode="{" glyph-name="braceleft" horiz-adv-x="300" d="M189 -191T154 -178T108 -126T98 10V151Q98 207 94 232T77 267T40 276V350Q65 350 77 359T93 394T98 476V616Q98 713 108 751T153 803T277 817V738Q242 738 229 731T213 701T210 616V460Q210 389
193 355T144 313Q176 306 193 272T210 167V10Q210 -53 213 -75T229 -104T277 -112V-191Q189 -191 154 -178Z" />
<glyph unicode="|" glyph-name="bar" horiz-adv-x="239" d="M70 810H169V-148H69L70 810Z" />
<glyph unicode="}" glyph-name="braceright" horiz-adv-x="321" d="M44 -112Q79 -112 92 -105T108 -75T111 10V167Q111 238 128 272T178 313Q145 321 128 355T111 460V616Q111 678 108 700T92 730T44 738V817Q132 817 167 804T213 752T223 616V476Q223 419 227
394T243 359T281 350V276Q255 276 244 267T228 233T223 151V10Q223 -87 213 -125T168 -177T44 -191V-112Z" />
<glyph unicode="~" glyph-name="asciitilde" horiz-adv-x="447" d="M279 363T260 370T215 393Q193 406 177 413T146 420Q133 420 113 409T73 382L35 433Q60 459 95 482T154 506Q171 506 189 499T232 476Q256 463 272 456T302 449Q315 449 331 459T374 489L412
440Q387 411 354 387T296 363Q279 363 260 370Z" />
<glyph unicode="&#xa0;" glyph-name="uni00A0" horiz-adv-x="229" />
<glyph unicode="&#xa1;" glyph-name="exclamdown" horiz-adv-x="208" d="M50 632H158V522H50V632ZM85 458H123L158 -178H50L85 458Z" />
<glyph unicode="&#xa2;" glyph-name="cent" horiz-adv-x="388" d="M178 -6Q99 3 71 59T43 222V355Q43 463 71 519T179 584V656H213V586Q274 586 308 566T356 506T370 404V370H273V405Q273 462 261 484T213 507Q186 507 173 495T155 456T150 377V195Q150 145 156
119T175 82T214 71Q251 71 262 95T273 171V218H370V178Q370 84 336 38T212 -8V-79H178V-6Z" />
<glyph unicode="&#xa3;" glyph-name="sterling" horiz-adv-x="398" d="M2 54L61 80V354H2V434H61V526Q61 618 72 679T121 779T230 817Q370 817 372 644V611H292Q292 666 280 698T230 730Q193 730 181 695T167 598V434H287V354H167V81H371V0H2V54Z" />
<glyph unicode="&#xa4;" glyph-name="currency" horiz-adv-x="550" d="M38 201L118 280Q92 308 78 345T63 423Q63 463 77 500T118 566L38 645L53 660L132 581Q160 608 197 622T275 637Q316 637 353 623T418 581L497 660L512 645L433 566Q458 537 472 501T486 423Q486
382 472 345T432 280L512 201L497 186L418 265Q389 238 353 223T275 209Q234 208 198 223T132 265L53 186L38 201ZM321 252T359 275T419 337T441 423Q441 469 419 508T359 571T275 594Q229 594 192 571T132 509T110 423Q110 377 132 338T191 275T275 252Q321 252
359 275Z" />
<glyph unicode="&#xa5;" glyph-name="yen" horiz-adv-x="457" d="M185 115H96V185H185V250H96V319H174L10 810H115L238 419L360 810H467L304 319H381V250H292V185H381V115H292V0H185V115Z" />
<glyph unicode="&#xa6;" glyph-name="brokenbar" horiz-adv-x="212" d="M63 810H149V400H63V810ZM63 256H149V-153H63V256Z" />
<glyph unicode="&#xa7;" glyph-name="section" horiz-adv-x="427" d="M144 -8T102 34T43 145L124 172Q155 80 214 80Q246 80 264 97T282 147Q282 187 240 218L125 293Q85 318 64 348T42 425Q42 473 65 507T127 557Q92 580 69 611T45 682Q45 745 91 781T214 817Q284
817 325 775T383 667L302 640Q287 679 267 704T213 730Q185 730 169 714T152 669Q152 652 162 638T187 613L316 529Q349 508 367 474T386 395Q386 349 367 317T313 266Q346 238 364 210T383 142Q383 70 337 31T214 -8Q144 -8 102 34ZM260 334T274 351T289 392Q290
411 281 430T253 462L197 500Q178 490 164 470T149 425Q149 409 157 394T178 370L240 325Q260 334 274 351Z" />
<glyph unicode="&#xa8;" glyph-name="dieresis" horiz-adv-x="400" d="M60 810H167V699H60V810ZM231 810H339V699H231V810Z" />
<glyph unicode="&#xa9;" glyph-name="copyright" horiz-adv-x="862" d="M296 -11T206 50T72 207T29 412Q29 520 72 616T205 773T431 834Q566 834 656 774T790 617T833 412Q833 303 791 207T658 50T431 -11Q296 -11 206 50ZM551 33T630 86T748 226T787 412Q787
512 749 598T631 737T434 790Q317 790 238 737T120 598T81 412Q81 312 119 226T237 87T434 33Q551 33 630 86ZM356 124T315 152T260 232T245 364V471Q245 553 260 605T316 684T432 712Q501 712 539 692T592 630T607 523V496H502V523Q502 583 487 606T434 630Q404
630 388 618T366 576T360 494V336Q360 284 367 257T390 218T434 207Q475 207 488 232T502 311V343H607V318Q607 220 569 172T432 124Q356 124 315 152Z" />
<glyph unicode="&#xaa;" glyph-name="ordfeminine" horiz-adv-x="443" d="M134 321T106 352T77 432Q77 481 104 513T171 564T276 605V658Q276 700 267 722T233 745Q181 745 181 657H93Q95 732 132 777T234 822Q312 822 341 775T370 628V327H284V391Q268 360 240
341T178 321Q134 321 106 352ZM233 403T250 417T276 450V563Q225 539 199 515T172 454Q172 430 183 417T213 403Q233 403 250 417Z" />
<glyph unicode="&#xab;" glyph-name="guillemotleft" horiz-adv-x="455" d="M31 269V321L194 549V415L112 295L194 174V41L31 269ZM225 269V321L389 549V415L307 295L389 174V41L225 269Z" />
<glyph unicode="&#xac;" glyph-name="logicalnot" horiz-adv-x="387" d="M305 368H40V449H360V256H305V368Z" />
<glyph unicode="&#xad;" glyph-name="uni00AD" horiz-adv-x="344" d="M58 548H288V467H58V548Z" />
<glyph unicode="&#xae;" glyph-name="registered" horiz-adv-x="888" d="M310 -13T221 47T89 202T46 405Q46 512 88 607T220 763T444 823Q578 823 667 763T799 608T842 405Q842 297 800 202T669 47T444 -13Q310 -13 221 47ZM556 37T633 89T747 224T784 405Q784
502 747 585T634 720T444 771Q331 771 254 720T140 586T103 405Q103 308 140 225T254 89T444 37Q556 37 633 89ZM292 674H448Q617 674 617 520Q617 428 532 392L628 144H531L446 373H385V144H292V674ZM418 423Q459 423 481 432T512 463T521 522Q521 567 503 589T440
612H385V423H418Z" />
<glyph unicode="&#xaf;" glyph-name="overscore" horiz-adv-x="284" d="M46 810H238V745H46V810Z" />
<glyph unicode="&#xb0;" glyph-name="degree" horiz-adv-x="453" d="M148 481T103 526T58 650Q58 728 103 772T226 817Q304 817 349 773T395 650Q395 571 350 526T226 481Q148 481 103 526ZM267 553T290 579T313 650Q313 694 290 720T226 747Q185 747 162 721T139
650Q139 606 162 580T226 553Q267 553 290 579Z" />
<glyph unicode="&#xb1;" glyph-name="plusminus" horiz-adv-x="368" d="M144 262H57V344H144V431H226V344H313V262H226V175H144V262ZM57 82H313V0H57V82Z" />
<glyph unicode="&#xb2;" glyph-name="uni00B2" horiz-adv-x="422" d="M77 494L201 629Q247 678 264 706T281 760Q281 790 267 806T224 823Q187 823 171 799T155 727H76V741Q76 812 112 855T224 898Q289 898 326 863T363 765Q363 718 342 681T266 589L183 503H368V433H77V494Z"
/>
<glyph unicode="&#xb3;" glyph-name="uni00B3" horiz-adv-x="426" d="M147 423T113 459T78 559V575H157V571Q157 498 222 498Q278 498 278 563Q278 596 265 612T221 629H195V695H218Q273 695 273 760Q273 789 259 806T218 823Q157 823 157 750V746H78V762Q78 828
116 863T220 898Q283 898 319 866T355 776Q355 733 337 704T289 664Q360 640 360 554Q360 490 323 457T220 423Q147 423 113 459Z" />
<glyph unicode="&#xb4;" glyph-name="acute" horiz-adv-x="277" d="M115 810H222L110 612H56L115 810Z" />
<glyph unicode="&#xb5;" glyph-name="uni00B5" horiz-adv-x="441" d="M50 578H157V142Q157 109 167 93T203 76Q235 76 278 112V578H385V0H278V57Q239 17 191 2Q174 -3 159 -3V-175H51L50 578Z" />
<glyph unicode="&#xb6;" glyph-name="paragraph" horiz-adv-x="492" d="M199 515Q123 515 78 553T32 662Q32 736 80 773T215 810H429V-96H352V759H275V-96H199V515Z" />
<glyph unicode="&#xb7;" glyph-name="middot" horiz-adv-x="176" d="M36 432H144V322H36V432Z" />
<glyph unicode="&#xb8;" glyph-name="cedilla" horiz-adv-x="352" d="M118 -235T80 -225V-171Q104 -178 131 -178Q158 -178 175 -169T192 -139Q192 -114 172 -102T107 -83V0H161V-56Q211 -56 241 -79T272 -142Q272 -188 238 -211T147 -235Q118 -235 80 -225Z" />
<glyph unicode="&#xb9;" glyph-name="uni00B9" horiz-adv-x="340" d="M172 789L80 753V822L211 888H250V433H172V789Z" />
<glyph unicode="&#xba;" glyph-name="ordmasculine" horiz-adv-x="443" d="M138 320T103 367T67 505V637Q67 727 102 774T222 822Q302 822 339 773T376 637V505Q376 418 339 369T222 320Q138 320 103 367ZM249 398T262 413T279 453T282 517V625Q282 665 279 688T263
727T220 743Q179 743 168 713T156 625V517Q156 459 168 429T220 398Q249 398 262 413Z" />
<glyph unicode="&#xbb;" glyph-name="guillemotright" horiz-adv-x="481" d="M57 174L148 295L57 415V549L230 321V269L57 41V174ZM252 174L343 295L252 415V549L424 321V269L252 41V174Z" />
<glyph unicode="&#xbc;" glyph-name="onequarter" horiz-adv-x="945" d="M184 967L92 931V1000L223 1066H262V611H184V967ZM586 810H678L307 0H215L586 810ZM677 107H505V166L696 455H755V168H799V107H755V0H677V107ZM677 168L676 314L584 168H677Z" />
<glyph unicode="&#xbd;" glyph-name="onehalf" horiz-adv-x="945" d="M405 967L313 931V1000L444 1066H483V611H405V967ZM551 810H643L272 0H180L551 810ZM555 61L679 196Q725 245 742 273T759 327Q759 357 745 373T702 390Q665 390 649 366T633 294H554V308Q554
379 590 422T702 465Q767 465 804 430T841 332Q841 285 820 248T744 156L661 70H846V0H555V61Z" />
<glyph unicode="&#xbe;" glyph-name="threequarters" horiz-adv-x="874" d="M384 598T350 634T315 734V750H394V746Q394 673 459 673Q515 673 515 738Q515 771 502 787T458 804H432V870H455Q510 870 510 935Q510 964 496 981T455 998Q394 998 394 925V921H315V937Q315
1003 353 1038T457 1073Q520 1073 556 1041T592 951Q592 908 574 879T526 839Q597 815 597 729Q597 665 560 632T457 598Q384 598 350 634ZM627 810H719L348 0H256L627 810ZM718 107H546V166L737 455H796V168H840V107H796V0H718V107ZM718 168L717 314L625 168H718Z"
/>
<glyph unicode="&#xbf;" glyph-name="questiondown" horiz-adv-x="487" d="M339 301Q251 225 206 159T160 13Q160 -36 185 -66T256 -96Q296 -96 319 -74T343 -14Q343 4 336 36L436 55Q447 24 447 -8Q447 -89 397 -139T256 -189Q161 -189 108 -135T55 16Q55 80
79 133T143 231T244 328V425H339V301ZM344 518H237V628H344V518Z" />
<glyph unicode="&#xc0;" glyph-name="Agrave" horiz-adv-x="492" d="M191 810H300L473 0H366L329 204H164L125 0H19L191 810ZM314 285L246 650L179 285H314ZM110 1056H217L274 858H221L110 1056Z" />
<glyph unicode="&#xc1;" glyph-name="Aacute" horiz-adv-x="492" d="M191 810H300L473 0H366L329 204H164L125 0H19L191 810ZM314 285L246 650L179 285H314ZM277 1056H384L272 858H218L277 1056Z" />
<glyph unicode="&#xc2;" glyph-name="Acircumflex" horiz-adv-x="492" d="M191 810H300L473 0H366L329 204H164L125 0H19L191 810ZM314 285L246 650L179 285H314ZM191 1042H300L387 867H306L245 988L185 867H105L191 1042Z" />
<glyph unicode="&#xc3;" glyph-name="Atilde" horiz-adv-x="492" d="M191 810H300L473 0H366L329 204H164L125 0H19L191 810ZM314 285L246 650L179 285H314ZM302 932T286 939T248 959Q228 970 216 975T191 981Q173 981 165 972T157 940H96Q96 1048 176 1048Q193
1048 208 1042T244 1023Q264 1011 276 1006T303 1000Q321 1000 328 1009T336 1042H396Q396 991 380 962T322 932Q302 932 286 939Z" />
<glyph unicode="&#xc4;" glyph-name="Adieresis" horiz-adv-x="492" d="M191 810H300L473 0H366L329 204H164L125 0H19L191 810ZM314 285L246 650L179 285H314ZM106 1042H214V931H106V1042ZM278 1042H386V931H278V1042Z" />
<glyph unicode="&#xc5;" glyph-name="Aring" horiz-adv-x="492" d="M191 810H300L473 0H366L329 204H164L125 0H19L191 810ZM314 285L246 650L179 285H314ZM196 828T165 858T134 940Q134 991 164 1021T246 1051Q297 1051 327 1021T358 940Q358 889 327 859T246
828Q196 828 165 858ZM272 882T288 897T304 940Q304 967 289 982T246 998Q219 998 204 983T188 940Q188 913 203 898T246 882Q272 882 288 897Z" />
<glyph unicode="&#xc6;" glyph-name="AE" horiz-adv-x="635" d="M290 810H605V728H400V460H547V379H400V82H605V0H292V205H143L57 0H-51L290 810ZM292 286V605L173 286H292Z" />
<glyph unicode="&#xc7;" glyph-name="Ccedilla" horiz-adv-x="515" d="M146 -9T97 62T48 260V546Q48 679 96 748T266 817Q375 817 422 758T470 584V520H363V577Q363 633 358 663T333 711T267 729Q221 729 199 710T169 656T162 563V242Q162 180 172 145T204 95T267
80Q310 80 331 99T357 151T363 241V301H470V241Q470 120 425 56T266 -9Q146 -9 97 62ZM242 -235T204 -225V-171Q228 -178 255 -178Q282 -178 299 -169T316 -139Q316 -114 296 -102T231 -83V0H285V-56Q335 -56 365 -79T396 -142Q396 -188 362 -211T271 -235Q242
-235 204 -225Z" />
<glyph unicode="&#xc8;" glyph-name="Egrave" horiz-adv-x="407" d="M63 810H377V726H176V458H339V378H176V81H379V0H63V810ZM88 1056H195L252 858H199L88 1056Z" />
<glyph unicode="&#xc9;" glyph-name="Eacute" horiz-adv-x="407" d="M63 810H377V726H176V458H339V378H176V81H379V0H63V810ZM255 1056H362L250 858H196L255 1056Z" />
<glyph unicode="&#xca;" glyph-name="Ecircumflex" horiz-adv-x="407" d="M63 810H377V726H176V458H339V378H176V81H379V0H63V810ZM169 1042H278L365 867H284L223 988L163 867H83L169 1042Z" />
<glyph unicode="&#xcb;" glyph-name="Edieresis" horiz-adv-x="407" d="M63 810H377V726H176V458H339V378H176V81H379V0H63V810ZM84 1042H192V931H84V1042ZM256 1042H364V931H256V1042Z" />
<glyph unicode="&#xcc;" glyph-name="Igrave" horiz-adv-x="248" d="M69 810H180V0H69V810ZM-12 1056H95L152 858H99L-12 1056Z" />
<glyph unicode="&#xcd;" glyph-name="Iacute" horiz-adv-x="248" d="M69 810H180V0H69V810ZM155 1056H262L150 858H96L155 1056Z" />
<glyph unicode="&#xce;" glyph-name="Icircumflex" horiz-adv-x="248" d="M69 810H180V0H69V810ZM69 1042H178L265 867H184L123 988L63 867H-17L69 1042Z" />
<glyph unicode="&#xcf;" glyph-name="Idieresis" horiz-adv-x="248" d="M69 810H180V0H69V810ZM-16 1042H92V931H-16V1042ZM156 1042H264V931H156V1042Z" />
<glyph unicode="&#xd0;" glyph-name="Eth" horiz-adv-x="518" d="M63 388H14V453H63V810H239Q370 810 424 750T479 563V265Q479 131 426 66T248 0H63V388ZM240 81Q299 81 325 104T358 166T365 286V549Q365 618 357 654T321 708T237 726H176V453H237V388H176V81H240Z" />
<glyph unicode="&#xd1;" glyph-name="Ntilde" horiz-adv-x="528" d="M63 810H140L370 272V810H464V0H392L159 553V0H63V810ZM320 932T304 939T266 959Q246 970 234 975T209 981Q191 981 183 972T175 940H114Q114 1048 194 1048Q211 1048 226 1042T262 1023Q282
1011 294 1006T321 1000Q339 1000 346 1009T354 1042H414Q414 991 398 962T340 932Q320 932 304 939Z" />
<glyph unicode="&#xd2;" glyph-name="Ograve" horiz-adv-x="539" d="M151 -9T100 58T48 254V561Q48 687 100 752T270 817Q388 817 439 752T491 561V253Q491 127 439 59T270 -9Q151 -9 100 58ZM333 80T355 117T377 229V584Q377 658 355 693T270 729Q206 729 184
694T162 584V229Q162 154 184 117T270 80Q333 80 355 117ZM134 1056H241L298 858H245L134 1056Z" />
<glyph unicode="&#xd3;" glyph-name="Oacute" horiz-adv-x="539" d="M151 -9T100 58T48 254V561Q48 687 100 752T270 817Q388 817 439 752T491 561V253Q491 127 439 59T270 -9Q151 -9 100 58ZM333 80T355 117T377 229V584Q377 658 355 693T270 729Q206 729 184
694T162 584V229Q162 154 184 117T270 80Q333 80 355 117ZM301 1056H408L296 858H242L301 1056Z" />
<glyph unicode="&#xd4;" glyph-name="Ocircumflex" horiz-adv-x="539" d="M151 -9T100 58T48 254V561Q48 687 100 752T270 817Q388 817 439 752T491 561V253Q491 127 439 59T270 -9Q151 -9 100 58ZM333 80T355 117T377 229V584Q377 658 355 693T270 729Q206 729
184 694T162 584V229Q162 154 184 117T270 80Q333 80 355 117ZM215 1042H324L411 867H330L269 988L209 867H129L215 1042Z" />
<glyph unicode="&#xd5;" glyph-name="Otilde" horiz-adv-x="539" d="M151 -9T100 58T48 254V561Q48 687 100 752T270 817Q388 817 439 752T491 561V253Q491 127 439 59T270 -9Q151 -9 100 58ZM333 80T355 117T377 229V584Q377 658 355 693T270 729Q206 729 184
694T162 584V229Q162 154 184 117T270 80Q333 80 355 117ZM326 932T310 939T272 959Q252 970 240 975T215 981Q197 981 189 972T181 940H120Q120 1048 200 1048Q217 1048 232 1042T268 1023Q288 1011 300 1006T327 1000Q345 1000 352 1009T360 1042H420Q420 991
404 962T346 932Q326 932 310 939Z" />
<glyph unicode="&#xd6;" glyph-name="Odieresis" horiz-adv-x="539" d="M151 -9T100 58T48 254V561Q48 687 100 752T270 817Q388 817 439 752T491 561V253Q491 127 439 59T270 -9Q151 -9 100 58ZM333 80T355 117T377 229V584Q377 658 355 693T270 729Q206 729
184 694T162 584V229Q162 154 184 117T270 80Q333 80 355 117ZM130 1042H238V931H130V1042ZM302 1042H410V931H302V1042Z" />
<glyph unicode="&#xd7;" glyph-name="multiply" horiz-adv-x="383" d="M49 308L138 397L49 486L103 540L191 451L280 540L334 486L245 397L334 308L280 254L191 343L103 254L49 308Z" />
<glyph unicode="&#xd8;" glyph-name="Oslash" horiz-adv-x="540" d="M491 737T491 561V253Q491 127 439 59T270 -9Q217 -9 181 4L160 -74L121 -62L143 21Q93 51 71 109T48 254V561Q48 687 100 752T270 817Q315 817 353 806L373 880L413 870L392 791Q491 737 491
561ZM162 169T174 137L329 717Q307 729 270 729Q206 729 184 694T162 584V229Q162 169 174 137ZM377 584Q377 651 362 681L206 96Q230 80 270 80Q333 80 355 117T377 229V584Z" />
<glyph unicode="&#xd9;" glyph-name="Ugrave" horiz-adv-x="543" d="M187 -9T140 25T74 120T56 273V810H164V268Q164 176 185 128T272 80Q337 80 358 128T380 268V810H487V273Q487 181 469 120T404 25T272 -9Q187 -9 140 25ZM136 1056H243L300 858H247L136 1056Z" />
<glyph unicode="&#xda;" glyph-name="Uacute" horiz-adv-x="543" d="M187 -9T140 25T74 120T56 273V810H164V268Q164 176 185 128T272 80Q337 80 358 128T380 268V810H487V273Q487 181 469 120T404 25T272 -9Q187 -9 140 25ZM303 1056H410L298 858H244L303 1056Z" />
<glyph unicode="&#xdb;" glyph-name="Ucircumflex" horiz-adv-x="543" d="M187 -9T140 25T74 120T56 273V810H164V268Q164 176 185 128T272 80Q337 80 358 128T380 268V810H487V273Q487 181 469 120T404 25T272 -9Q187 -9 140 25ZM217 1042H326L413 867H332L271
988L211 867H131L217 1042Z" />
<glyph unicode="&#xdc;" glyph-name="Udieresis" horiz-adv-x="543" d="M187 -9T140 25T74 120T56 273V810H164V268Q164 176 185 128T272 80Q337 80 358 128T380 268V810H487V273Q487 181 469 120T404 25T272 -9Q187 -9 140 25ZM132 1042H240V931H132V1042ZM304
1042H412V931H304V1042Z" />
<glyph unicode="&#xdd;" glyph-name="Yacute" horiz-adv-x="481" d="M187 286L12 810H117L241 419L363 810H469L295 286V0H187V286ZM272 1056H379L267 858H213L272 1056Z" />
<glyph unicode="&#xde;" glyph-name="Thorn" horiz-adv-x="503" d="M63 810H176V704H293Q391 704 438 642T486 469Q486 233 274 233H176V0H63V810ZM246 324Q315 324 345 355T376 469Q376 546 349 578T259 610H176V324H246Z" />
<glyph unicode="&#xdf;" glyph-name="germandbls" horiz-adv-x="515" d="M223 80Q275 80 303 97T342 147T353 232Q353 298 323 336T231 375V464Q281 464 302 506T324 611Q324 669 307 700T244 731Q199 731 183 702T166 613V0H59V612Q59 709 105 764T241 819Q335
819 382 766T429 611Q429 541 405 498T330 428Q392 412 425 360T459 232Q459 114 403 53T223 -9V80Z" />
<glyph unicode="&#xe0;" glyph-name="agrave" horiz-adv-x="426" d="M125 -8T99 11T57 61T42 126Q42 194 71 236T145 304T270 361V402Q270 459 259 482T212 506Q151 506 151 424V395L45 399Q47 495 89 540T219 586Q302 586 339 541T377 403V139Q377 74 387 0H289Q278
57 275 85Q263 46 234 19T158 -8Q125 -8 99 11ZM221 84T241 100T270 132V296Q227 272 204 255T165 214T149 159Q149 123 162 104T200 84Q221 84 241 100ZM83 824H190L247 626H194L83 824Z" />
<glyph unicode="&#xe1;" glyph-name="aacute" horiz-adv-x="426" d="M125 -8T99 11T57 61T42 126Q42 194 71 236T145 304T270 361V402Q270 459 259 482T212 506Q151 506 151 424V395L45 399Q47 495 89 540T219 586Q302 586 339 541T377 403V139Q377 74 387 0H289Q278
57 275 85Q263 46 234 19T158 -8Q125 -8 99 11ZM221 84T241 100T270 132V296Q227 272 204 255T165 214T149 159Q149 123 162 104T200 84Q221 84 241 100ZM250 824H357L245 626H191L250 824Z" />
<glyph unicode="&#xe2;" glyph-name="acircumflex" horiz-adv-x="426" d="M125 -8T99 11T57 61T42 126Q42 194 71 236T145 304T270 361V402Q270 459 259 482T212 506Q151 506 151 424V395L45 399Q47 495 89 540T219 586Q302 586 339 541T377 403V139Q377 74 387
0H289Q278 57 275 85Q263 46 234 19T158 -8Q125 -8 99 11ZM221 84T241 100T270 132V296Q227 272 204 255T165 214T149 159Q149 123 162 104T200 84Q221 84 241 100ZM164 810H273L360 635H279L218 756L158 635H78L164 810Z" />
<glyph unicode="&#xe3;" glyph-name="atilde" horiz-adv-x="426" d="M125 -8T99 11T57 61T42 126Q42 194 71 236T145 304T270 361V402Q270 459 259 482T212 506Q151 506 151 424V395L45 399Q47 495 89 540T219 586Q302 586 339 541T377 403V139Q377 74 387 0H289Q278
57 275 85Q263 46 234 19T158 -8Q125 -8 99 11ZM221 84T241 100T270 132V296Q227 272 204 255T165 214T149 159Q149 123 162 104T200 84Q221 84 241 100ZM275 700T259 707T221 727Q201 738 189 743T164 749Q146 749 138 740T130 708H69Q69 816 149 816Q166 816
181 810T217 791Q237 779 249 774T276 768Q294 768 301 777T309 810H369Q369 759 353 730T295 700Q275 700 259 707Z" />
<glyph unicode="&#xe4;" glyph-name="adieresis" horiz-adv-x="426" d="M125 -8T99 11T57 61T42 126Q42 194 71 236T145 304T270 361V402Q270 459 259 482T212 506Q151 506 151 424V395L45 399Q47 495 89 540T219 586Q302 586 339 541T377 403V139Q377 74 387
0H289Q278 57 275 85Q263 46 234 19T158 -8Q125 -8 99 11ZM221 84T241 100T270 132V296Q227 272 204 255T165 214T149 159Q149 123 162 104T200 84Q221 84 241 100ZM79 810H187V699H79V810ZM251 810H359V699H251V810Z" />
<glyph unicode="&#xe5;" glyph-name="aring" horiz-adv-x="426" d="M125 -8T99 11T57 61T42 126Q42 194 71 236T145 304T270 361V402Q270 459 259 482T212 506Q151 506 151 424V395L45 399Q47 495 89 540T219 586Q302 586 339 541T377 403V139Q377 74 387 0H289Q278
57 275 85Q263 46 234 19T158 -8Q125 -8 99 11ZM221 84T241 100T270 132V296Q227 272 204 255T165 214T149 159Q149 123 162 104T200 84Q221 84 241 100ZM169 596T138 626T107 708Q107 759 137 789T219 819Q270 819 300 789T331 708Q331 657 300 627T219 596Q169
596 138 626ZM245 650T261 665T277 708Q277 735 262 750T219 766Q192 766 177 751T161 708Q161 681 176 666T219 650Q245 650 261 665Z" />
<glyph unicode="&#xe6;" glyph-name="ae" horiz-adv-x="651" d="M608 201V177Q608 88 570 40T454 -8Q388 -8 356 22T314 109Q286 -8 180 -8Q112 -8 77 29T42 126Q42 201 81 243T196 306L274 327V402Q274 453 261 478T213 504Q150 504 150 409H44Q45 491 89 538T213
586Q255 586 284 566T326 511Q341 545 377 565T462 586Q532 586 567 551T603 453Q603 400 583 369T531 323T452 297L381 282V155Q381 119 394 98T440 77Q474 77 487 103T501 176V201H608ZM381 340L436 353Q473 362 489 380T505 436Q505 464 491 481T446 499Q410
499 396 473T381 397V340ZM274 265L228 250Q149 224 149 149Q149 115 163 95T207 75Q274 75 274 171V265Z" />
<glyph unicode="&#xe7;" glyph-name="ccedilla" horiz-adv-x="411" d="M144 -8T107 19T57 96T43 222V355Q43 433 56 483T107 559T212 586Q274 586 308 566T356 507T370 404V370H273V405Q273 462 261 484T213 507Q186 507 173 495T155 456T150 377V195Q150 145
156 119T175 82T214 71Q251 71 262 95T273 171V218H370V178Q370 84 336 38T212 -8Q144 -8 107 19ZM190 -235T152 -225V-171Q176 -178 203 -178Q230 -178 247 -169T264 -139Q264 -114 244 -102T179 -83V0H233V-56Q283 -56 313 -79T344 -142Q344 -188 310 -211T219
-235Q190 -235 152 -225Z" />
<glyph unicode="&#xe8;" glyph-name="egrave" horiz-adv-x="421" d="M147 -8T110 17T58 93T43 223V355Q43 475 80 530T214 586Q284 586 319 557T366 476T378 334V287H150V171Q150 118 165 95T215 71Q249 71 261 94T273 166V201H377V179Q377 88 338 40T214 -8Q147
-8 110 17ZM273 345V397Q273 456 262 481T213 507Q187 507 174 495T155 456T150 376V345H273ZM75 824H182L239 626H186L75 824Z" />
<glyph unicode="&#xe9;" glyph-name="eacute" horiz-adv-x="421" d="M147 -8T110 17T58 93T43 223V355Q43 475 80 530T214 586Q284 586 319 557T366 476T378 334V287H150V171Q150 118 165 95T215 71Q249 71 261 94T273 166V201H377V179Q377 88 338 40T214 -8Q147
-8 110 17ZM273 345V397Q273 456 262 481T213 507Q187 507 174 495T155 456T150 376V345H273ZM242 824H349L237 626H183L242 824Z" />
<glyph unicode="&#xea;" glyph-name="ecircumflex" horiz-adv-x="421" d="M147 -8T110 17T58 93T43 223V355Q43 475 80 530T214 586Q284 586 319 557T366 476T378 334V287H150V171Q150 118 165 95T215 71Q249 71 261 94T273 166V201H377V179Q377 88 338 40T214
-8Q147 -8 110 17ZM273 345V397Q273 456 262 481T213 507Q187 507 174 495T155 456T150 376V345H273ZM156 810H265L352 635H271L210 756L150 635H70L156 810Z" />
<glyph unicode="&#xeb;" glyph-name="edieresis" horiz-adv-x="421" d="M147 -8T110 17T58 93T43 223V355Q43 475 80 530T214 586Q284 586 319 557T366 476T378 334V287H150V171Q150 118 165 95T215 71Q249 71 261 94T273 166V201H377V179Q377 88 338 40T214 -8Q147
-8 110 17ZM273 345V397Q273 456 262 481T213 507Q187 507 174 495T155 456T150 376V345H273ZM71 810H179V699H71V810ZM243 810H351V699H243V810Z" />
<glyph unicode="&#xec;" glyph-name="igrave" horiz-adv-x="224" d="M61 578H168V0H61V578ZM-21 824H86L143 626H90L-21 824Z" />
<glyph unicode="&#xed;" glyph-name="iacute" horiz-adv-x="224" d="M61 578H168V0H61V578ZM146 824H253L141 626H87L146 824Z" />
<glyph unicode="&#xee;" glyph-name="icircumflex" horiz-adv-x="224" d="M61 578H168V0H61V578ZM60 810H169L256 635H175L114 756L54 635H-26L60 810Z" />
<glyph unicode="&#xef;" glyph-name="idieresis" horiz-adv-x="224" d="M61 578H168V0H61V578ZM-25 810H83V699H-25V810ZM147 810H255V699H147V810Z" />
<glyph unicode="&#xf0;" glyph-name="eth" horiz-adv-x="471" d="M145 -9T99 52T52 225V292Q52 418 85 487T209 557Q266 557 306 521Q297 615 271 655L152 618V672L242 698Q220 723 183 735T77 749L82 819Q178 818 235 796T326 725L442 759V705L353 681Q386 609
401 538T416 377V237Q416 119 374 55T237 -9Q145 -9 99 52ZM278 76T293 112T308 219V436Q271 469 236 469Q192 469 176 426T159 284Q159 206 164 164T185 99T237 76Q278 76 293 112Z" />
<glyph unicode="&#xf1;" glyph-name="ntilde" horiz-adv-x="439" d="M54 578H161V521Q230 586 302 586Q349 586 369 552T389 468V0H282V437Q282 470 272 486T236 502Q204 502 161 466V0H54V578ZM276 700T260 707T222 727Q202 738 190 743T165 749Q147 749 139
740T131 708H70Q70 816 150 816Q167 816 182 810T218 791Q238 779 250 774T277 768Q295 768 302 777T310 810H370Q370 759 354 730T296 700Q276 700 260 707Z" />
<glyph unicode="&#xf2;" glyph-name="ograve" horiz-adv-x="425" d="M121 -8T83 46T44 205V373Q44 477 82 531T213 586Q304 586 342 532T381 373V205Q381 101 343 47T213 -8Q121 -8 83 46ZM242 71T255 88T271 130T274 198V379Q274 422 271 447T255 490T213 507Q184
507 171 490T154 448T151 379V198Q151 155 154 130T170 88T213 71Q242 71 255 88ZM77 824H184L241 626H188L77 824Z" />
<glyph unicode="&#xf3;" glyph-name="oacute" horiz-adv-x="425" d="M121 -8T83 46T44 205V373Q44 477 82 531T213 586Q304 586 342 532T381 373V205Q381 101 343 47T213 -8Q121 -8 83 46ZM242 71T255 88T271 130T274 198V379Q274 422 271 447T255 490T213 507Q184
507 171 490T154 448T151 379V198Q151 155 154 130T170 88T213 71Q242 71 255 88ZM244 824H351L239 626H185L244 824Z" />
<glyph unicode="&#xf4;" glyph-name="ocircumflex" horiz-adv-x="425" d="M121 -8T83 46T44 205V373Q44 477 82 531T213 586Q304 586 342 532T381 373V205Q381 101 343 47T213 -8Q121 -8 83 46ZM242 71T255 88T271 130T274 198V379Q274 422 271 447T255 490T213
507Q184 507 171 490T154 448T151 379V198Q151 155 154 130T170 88T213 71Q242 71 255 88ZM158 810H267L354 635H273L212 756L152 635H72L158 810Z" />
<glyph unicode="&#xf5;" glyph-name="otilde" horiz-adv-x="425" d="M121 -8T83 46T44 205V373Q44 477 82 531T213 586Q304 586 342 532T381 373V205Q381 101 343 47T213 -8Q121 -8 83 46ZM242 71T255 88T271 130T274 198V379Q274 422 271 447T255 490T213 507Q184
507 171 490T154 448T151 379V198Q151 155 154 130T170 88T213 71Q242 71 255 88ZM269 700T253 707T215 727Q195 738 183 743T158 749Q140 749 132 740T124 708H63Q63 816 143 816Q160 816 175 810T211 791Q231 779 243 774T270 768Q288 768 295 777T303 810H363Q363
759 347 730T289 700Q269 700 253 707Z" />
<glyph unicode="&#xf6;" glyph-name="odieresis" horiz-adv-x="425" d="M121 -8T83 46T44 205V373Q44 477 82 531T213 586Q304 586 342 532T381 373V205Q381 101 343 47T213 -8Q121 -8 83 46ZM242 71T255 88T271 130T274 198V379Q274 422 271 447T255 490T213
507Q184 507 171 490T154 448T151 379V198Q151 155 154 130T170 88T213 71Q242 71 255 88ZM73 810H181V699H73V810ZM245 810H353V699H245V810Z" />
<glyph unicode="&#xf7;" glyph-name="divide" horiz-adv-x="346" d="M130 638H215V527H130V638ZM19 450H328V372H19V450ZM130 283H215V172H130V283Z" />
<glyph unicode="&#xf8;" glyph-name="oslash" horiz-adv-x="424" d="M356 521T368 478T381 373V205Q381 101 343 47T213 -8Q166 -8 133 7L96 -95L64 -84L103 25Q44 74 44 205V373Q44 477 82 531T213 586Q260 586 295 570L330 668L367 656L328 548Q356 521 368
478ZM151 163L263 477Q249 507 213 507Q184 507 171 490T154 448T151 379V198V163ZM274 379V398L165 96Q180 71 213 71Q242 71 255 88T271 130T274 198V379Z" />
<glyph unicode="&#xf9;" glyph-name="ugrave" horiz-adv-x="440" d="M90 -8T70 26T50 110V578H157V142Q157 109 167 93T203 76Q235 76 278 112V578H385V0H278V57Q209 -8 137 -8Q90 -8 70 26ZM84 824H191L248 626H195L84 824Z" />
<glyph unicode="&#xfa;" glyph-name="uacute" horiz-adv-x="440" d="M90 -8T70 26T50 110V578H157V142Q157 109 167 93T203 76Q235 76 278 112V578H385V0H278V57Q209 -8 137 -8Q90 -8 70 26ZM251 824H358L246 626H192L251 824Z" />
<glyph unicode="&#xfb;" glyph-name="ucircumflex" horiz-adv-x="440" d="M90 -8T70 26T50 110V578H157V142Q157 109 167 93T203 76Q235 76 278 112V578H385V0H278V57Q209 -8 137 -8Q90 -8 70 26ZM165 810H274L361 635H280L219 756L159 635H79L165 810Z" />
<glyph unicode="&#xfc;" glyph-name="udieresis" horiz-adv-x="440" d="M90 -8T70 26T50 110V578H157V142Q157 109 167 93T203 76Q235 76 278 112V578H385V0H278V57Q209 -8 137 -8Q90 -8 70 26ZM80 810H188V699H80V810ZM252 810H360V699H252V810Z" />
<glyph unicode="&#xfd;" glyph-name="yacute" horiz-adv-x="392" d="M45 -63Q105 -63 127 -54T150 -20Q150 -8 128 86L12 578H120L198 146L273 578H381L243 -32Q229 -93 184 -119T58 -145H45V-63ZM227 824H334L222 626H168L227 824Z" />
<glyph unicode="&#xfe;" glyph-name="thorn" horiz-adv-x="447" d="M55 810H162V532Q209 586 272 586Q351 586 377 519T404 369V229Q404 123 372 58T260 -8Q209 -8 162 43V-190H55V810ZM276 76T286 114T297 229V369Q297 433 285 467T234 502Q198 502 162 472V102Q197
76 239 76Q276 76 286 114Z" />
<glyph unicode="&#xff;" glyph-name="ydieresis" horiz-adv-x="392" d="M45 -63Q105 -63 127 -54T150 -20Q150 -8 128 86L12 578H120L198 146L273 578H381L243 -32Q229 -93 184 -119T58 -145H45V-63ZM56 810H164V699H56V810ZM228 810H336V699H228V810Z" />
<glyph unicode="&#x2013;" glyph-name="endash" horiz-adv-x="494" d="M8 285H487V204H8V285Z" />
<glyph unicode="&#x2014;" glyph-name="emdash" horiz-adv-x="965" d="M8 347H958V269H8V347Z" />
<glyph unicode="&#x2018;" glyph-name="quoteleft" horiz-adv-x="208" d="M31 676Q31 757 54 799T130 843L149 804Q119 801 107 775T95 691H148V579H31V676Z" />
<glyph unicode="&#x2019;" glyph-name="quoteright" horiz-adv-x="208" d="M59 585Q89 587 101 613T113 697H60V810H177V713Q177 632 154 590T78 545L59 585Z" />
<glyph unicode="&#x201a;" glyph-name="quotesinglbase" horiz-adv-x="208" d="M59 -93Q89 -91 101 -65T113 19H60V132H177V35Q177 -46 154 -88T78 -133L59 -93Z" />
<glyph unicode="&#x201c;" glyph-name="quotedblleft" horiz-adv-x="384" d="M31 676Q31 757 54 799T130 843L149 804Q119 801 107 775T95 691H148V579H31V676ZM207 676Q207 757 230 799T306 843L325 804Q295 801 283 775T271 691H324V579H207V676Z" />
<glyph unicode="&#x201d;" glyph-name="quotedblright" horiz-adv-x="384" d="M59 585Q89 587 101 613T113 697H60V810H177V713Q177 632 154 590T78 545L59 585ZM235 585Q265 587 277 613T289 697H236V810H353V713Q353 632 330 590T254 545L235 585Z" />
<glyph unicode="&#x201e;" glyph-name="quotedblbase" horiz-adv-x="384" d="M235 -93Q265 -91 277 -65T289 19H236V132H353V35Q353 -46 330 -88T254 -133L235 -93ZM59 -93Q89 -91 101 -65T113 19H60V132H177V35Q177 -46 154 -88T78 -133L59 -93Z" />
<glyph unicode="&#x2022;" glyph-name="bullet" horiz-adv-x="363" d="M128 272T98 304T68 390Q68 444 98 475T181 507Q235 507 265 475T295 390Q295 335 265 304T181 272Q128 272 98 304Z" />
<glyph unicode="&#x2039;" glyph-name="guilsinglleft" horiz-adv-x="275" d="M43 269V321L242 549V415L125 295L242 174V41L43 269Z" />
<glyph unicode="&#x203a;" glyph-name="guilsinglright" horiz-adv-x="292" d="M60 227L177 348L60 467V602L258 374V321L60 93V227Z" />
</font>
</defs>
</svg>
