<?xml version="1.0" standalone="no"?>
<!DOCTYPE svg PUBLIC "-//W3C//DTD SVG 1.1//EN" "http://www.w3.org/Graphics/SVG/1.1/DTD/svg11.dtd">
<svg xmlns="http://www.w3.org/2000/svg">
<defs >
<font id="OpenSansCondensed" horiz-adv-x="850" ><font-face
    font-family="Open Sans Condensed Light"
    units-per-em="2048"
    panose-1="2 11 3 6 3 5 4 2 2 4"
    ascent="2189"
    descent="-600"
    alphabetic="0" />
<glyph unicode=" " glyph-name="space" horiz-adv-x="385" />
<glyph unicode="!" glyph-name="exclam" horiz-adv-x="451" d="M252 367H197L162 1462H287L252 367ZM147 90Q147 197 225 197Q257 197 280 173T303 90Q303 33 280 9T225 -16Q147 -16 147 90Z" />
<glyph unicode="&quot;" glyph-name="quotedbl" horiz-adv-x="686" d="M256 1462L227 934H166L133 1462H256ZM553 1462L524 934H463L430 1462H553Z" />
<glyph unicode="#" glyph-name="numbersign" horiz-adv-x="868" d="M653 956L608 557H782V467H598L545 0H463L518 467H285L231 0H154L205 467H37V557H215L260 956H82V1042H270L317 1462H399L350 1042H586L635 1462H711L664 1042H829V956H653ZM295 557H528L575
956H340L295 557Z" />
<glyph unicode="$" glyph-name="dollar" horiz-adv-x="819" d="M367 123Q192 123 94 176V279Q146 249 220 232T367 215V709Q219 771 162 848T104 1049Q104 1174 177 1262T367 1370V1556H449V1374Q589 1370 707 1313L670 1227Q553 1281 449 1284V776Q600 714 663
637T727 444Q727 321 652 236T449 129V-119H367V123ZM629 438Q629 523 588 579T449 676V223Q531 242 580 301T629 438ZM201 1055Q201 960 240 906T367 809V1278Q292 1261 247 1200T201 1055Z" />
<glyph unicode="%" glyph-name="percent" horiz-adv-x="1208" d="M184 1028Q184 838 209 744T297 649Q357 649 383 742T410 1028Q410 1405 293 1405Q234 1405 209 1312T184 1028ZM500 1026Q500 806 446 686T295 565Q196 565 145 685T94 1026Q94 1247 144 1365T295
1483Q395 1483 447 1367T500 1026ZM885 1462L410 0H322L797 1462H885ZM799 442Q799 252 824 158T911 63Q971 63 997 156T1024 442Q1024 819 907 819Q848 819 824 726T799 442ZM1114 440Q1114 217 1060 99T909 -20Q811 -20 760 101T709 440Q709 669 760 783T909
897Q1009 897 1061 781T1114 440Z" />
<glyph unicode="&amp;" glyph-name="ampersand" horiz-adv-x="834" d="M727 0L629 178Q556 68 487 24T328 -20Q206 -20 136 79T66 356Q66 447 88 518T153 650T285 788Q211 924 189 1010T166 1204Q166 1336 218 1409T360 1483Q451 1483 503 1408T555 1194Q555 1056
517 959T391 774L627 352Q684 470 684 645H778Q778 551 749 441T680 260L836 0H727ZM162 354Q162 219 209 147T336 74Q408 74 467 120T580 262L326 717Q231 629 197 550T162 354ZM461 1194Q461 1393 356 1393Q310 1393 285 1342T260 1194Q260 1107 284 1011T348
850Q413 916 437 1002T461 1194Z" />
<glyph unicode="&apos;" glyph-name="quotesingle" horiz-adv-x="389" d="M256 1462L227 934H166L133 1462H256Z" />
<glyph unicode="(" glyph-name="parenleft" horiz-adv-x="565" d="M104 561Q104 820 182 1055T401 1462H481Q347 1264 278 1033T209 563Q209 320 281 84T479 -324H401Q258 -157 181 73T104 561Z" />
<glyph unicode=")" glyph-name="parenright" horiz-adv-x="565" d="M461 561Q461 303 385 73T164 -324H86Q215 -143 285 91T356 563Q356 802 287 1032T84 1462H164Q307 1292 384 1055T461 561Z" />
<glyph unicode="*" glyph-name="asterisk" horiz-adv-x="745" d="M434 1556L406 1307L637 1364L651 1257L424 1249L580 1022L483 977L375 1214L258 975L166 1022L315 1249L94 1255L111 1362L340 1307L313 1556H434Z" />
<glyph unicode="+" glyph-name="plus" horiz-adv-x="819" d="M369 682H59V764H369V1198H451V764H760V682H451V250H369V682Z" />
<glyph unicode="," glyph-name="comma" horiz-adv-x="422" d="M307 182Q241 -43 141 -264H78Q153 -9 178 205H293L307 182Z" />
<glyph unicode="-" glyph-name="hyphen" horiz-adv-x="516" d="M53 502V604H463V502H53Z" />
<glyph unicode="." glyph-name="period" horiz-adv-x="422" d="M133 90Q133 197 211 197Q243 197 266 173T289 90Q289 33 266 9T211 -16Q133 -16 133 90Z" />
<glyph unicode="/" glyph-name="slash" horiz-adv-x="713" d="M674 1462L152 0H51L578 1462H674Z" />
<glyph unicode="0" glyph-name="zero" horiz-adv-x="819" d="M729 733Q729 362 649 171T408 -20Q239 -20 164 156T88 733Q88 1483 408 1483Q574 1483 651 1297T729 733ZM190 733Q190 403 242 239T408 74Q627 74 627 733Q627 1389 408 1389Q295 1389 243 1227T190 733Z" />
<glyph unicode="1" glyph-name="one" horiz-adv-x="819" d="M512 0H416V1075Q416 1206 424 1358Q403 1330 326 1253L201 1139L150 1202L432 1462H512V0Z" />
<glyph unicode="2" glyph-name="two" horiz-adv-x="819" d="M729 0H74V78L369 524Q505 731 551 856T598 1135Q598 1253 537 1323T371 1393Q302 1393 251 1373T147 1311L94 1386Q164 1439 228 1461T377 1483Q528 1483 612 1389T696 1135Q696 1025 672 928T603 738T455
496L186 98V90H729V0Z" />
<glyph unicode="3" glyph-name="three" horiz-adv-x="819" d="M696 1137Q696 1000 637 905T459 766V758Q582 731 650 636T719 395Q719 205 623 93T360 -20Q192 -20 84 33V141Q210 68 360 68Q482 68 550 156T618 399Q618 545 539 628T305 711H231V803H311Q439 803
518 892T598 1128Q598 1253 542 1324T383 1395Q314 1395 260 1372T137 1286L76 1350Q150 1422 222 1452T381 1483Q525 1483 610 1388T696 1137Z" />
<glyph unicode="4" glyph-name="four" horiz-adv-x="819" d="M793 332H637V0H541V332H37V416L516 1479H637V422H793V332ZM541 422V1128Q541 1250 549 1366H543L469 1178L137 422H541Z" />
<glyph unicode="5" glyph-name="five" horiz-adv-x="819" d="M365 788Q263 788 158 758L109 821L152 1462H647V1368H233L197 854Q287 874 371 874Q535 874 631 765T727 465Q727 244 622 112T342 -20Q186 -20 98 35V145Q208 68 338 68Q471 68 549 177T627 461Q627
625 557 706T365 788Z" />
<glyph unicode="6" glyph-name="six" horiz-adv-x="819" d="M100 623Q100 1062 207 1272T524 1483Q601 1483 651 1460V1364Q593 1389 516 1389Q372 1389 291 1224T199 741H207Q241 817 300 860T436 903Q572 903 650 782T729 449Q729 230 646 105T422 -20Q265 -20
183 145T100 623ZM424 74Q523 74 576 166T629 444Q629 622 577 716T422 811Q322 811 262 730T201 524Q201 399 229 292T307 129T424 74Z" />
<glyph unicode="7" glyph-name="seven" horiz-adv-x="819" d="M195 0L649 1368H57V1462H748V1380L297 0H195Z" />
<glyph unicode="8" glyph-name="eight" horiz-adv-x="819" d="M412 1483Q550 1483 634 1394T719 1147Q719 905 479 762Q586 690 639 634T721 512T750 362Q750 195 658 88T422 -20Q268 -20 170 82T72 350Q72 476 126 574T317 762Q106 924 106 1143Q106 1294 191
1388T412 1483ZM174 348Q174 222 240 146T414 70Q520 70 583 149T647 367Q647 545 440 688L391 721Q270 643 222 560T174 348ZM410 1393Q316 1393 262 1326T207 1139Q207 1036 252 959T410 807Q519 872 568 954T618 1139Q618 1259 564 1326T410 1393Z" />
<glyph unicode="9" glyph-name="nine" horiz-adv-x="819" d="M711 858Q711 421 602 201T281 -20Q244 -20 203 -13T145 2V98Q200 74 289 74Q434 74 518 242T612 721H604Q570 645 511 602T375 559Q238 559 160 682T82 1014Q82 1232 166 1357T401 1483Q554 1483 632
1322T711 858ZM395 1389Q297 1389 240 1297T182 1018Q182 840 234 746T389 651Q489 651 549 735T610 961Q610 1086 584 1186T509 1337T395 1389Z" />
<glyph unicode=":" glyph-name="colon" horiz-adv-x="422" d="M133 90Q133 197 211 197Q243 197 266 173T289 90Q289 33 266 9T211 -16Q133 -16 133 90ZM133 981Q133 1087 211 1087Q289 1087 289 981Q289 924 266 899T211 874Q133 874 133 981Z" />
<glyph unicode=";" glyph-name="semicolon" horiz-adv-x="422" d="M133 981Q133 1087 211 1087Q289 1087 289 981Q289 924 266 899T211 874Q133 874 133 981ZM307 182Q241 -43 141 -264H78Q153 -9 178 205H293L307 182Z" />
<glyph unicode="&lt;" glyph-name="less" horiz-adv-x="819" d="M762 287L59 690V758L762 1157V1057L162 723L762 389V287Z" />
<glyph unicode="=" glyph-name="equal" horiz-adv-x="819" d="M59 895V977H760V895H59ZM59 465V547H760V465H59Z" />
<glyph unicode="&gt;" glyph-name="greater" horiz-adv-x="819" d="M57 389L657 723L57 1057V1157L760 758V690L57 287V389Z" />
<glyph unicode="?" glyph-name="question" horiz-adv-x="578" d="M190 367V418Q190 532 210 605T289 766Q377 900 403 979T430 1153Q430 1269 385 1331T260 1393Q203 1393 163 1377T82 1333L35 1409Q134 1483 260 1483Q390 1483 460 1400T530 1159Q530 1038 499
957T371 729Q312 641 288 572T264 403V367H190ZM156 90Q156 197 233 197Q265 197 288 173T311 90Q311 33 288 9T233 -16Q156 -16 156 90Z" />
<glyph unicode="@" glyph-name="at" horiz-adv-x="1233" d="M1130 735Q1130 231 905 231Q822 231 786 285T748 438H739Q722 330 685 281T582 231Q494 231 446 324T397 588Q397 1061 659 1061Q747 1061 823 1032L803 555V494Q803 403 829 365T905 326Q973 326 1002
428T1032 741Q1032 931 985 1077T851 1303T653 1384Q520 1384 417 1285T259 1007T203 596Q203 270 305 88T590 -94Q659 -94 718 -74T815 -25V-119Q765 -150 711 -165T584 -180Q354 -180 233 14T111 580Q111 854 177 1056T367 1365T655 1473Q793 1473 902 1380T1071
1119T1130 735ZM496 584Q496 326 600 326Q645 326 670 409T705 666L721 971Q694 979 649 979Q575 979 536 879T496 584Z" />
<glyph unicode="A" glyph-name="A" horiz-adv-x="813" d="M713 0L584 530H229L102 0H0L352 1462H453L813 0H713ZM561 629L432 1174Q412 1266 401 1348Q392 1261 373 1174L248 629H561Z" />
<glyph unicode="B" glyph-name="B" horiz-adv-x="907" d="M160 1462H440Q612 1462 704 1374T797 1114Q797 817 580 774V766Q705 740 766 655T827 416Q827 220 740 110T496 0H160V1462ZM258 811H442Q579 811 637 886T696 1116Q696 1240 632 1306T440 1372H258V811ZM258
721V90H483Q725 90 725 418Q725 564 654 642T455 721H258Z" />
<glyph unicode="C" glyph-name="C" horiz-adv-x="860" d="M573 1391Q408 1391 311 1217T213 733Q213 532 258 383T387 154T582 74Q696 74 778 115V25Q700 -20 573 -20Q434 -20 330 70T168 330T111 735Q111 1085 235 1285T575 1485Q709 1485 809 1423L764 1337Q680
1391 573 1391Z" />
<glyph unicode="D" glyph-name="D" horiz-adv-x="995" d="M885 745Q885 0 420 0H160V1462H426Q652 1462 768 1280T885 745ZM782 739Q782 1048 691 1210T422 1372H258V90H414Q604 90 693 256T782 739Z" />
<glyph unicode="E" glyph-name="E" horiz-adv-x="788" d="M690 0H160V1462H690V1368H258V813H666V719H258V94H690V0Z" />
<glyph unicode="F" glyph-name="F" horiz-adv-x="729" d="M258 0H160V1462H692V1368H258V748H668V653H258V0Z" />
<glyph unicode="G" glyph-name="G" horiz-adv-x="1075" d="M641 737H961V45Q794 -20 614 -20Q375 -20 243 180T111 735Q111 1091 247 1287T631 1483Q797 1483 944 1389L897 1303Q759 1391 631 1391Q426 1391 321 1223T215 733Q215 419 321 247T623 74Q763 74 862
111V643H641V737Z" />
<glyph unicode="H" glyph-name="H" horiz-adv-x="1026" d="M866 0H768V719H258V0H160V1462H258V813H768V1462H866V0Z" />
<glyph unicode="I" glyph-name="I" horiz-adv-x="418" d="M160 0V1462H258V0H160Z" />
<glyph unicode="J" glyph-name="J" horiz-adv-x="401" d="M27 -369Q-40 -369 -90 -344V-252Q-41 -272 25 -272Q88 -272 119 -215T150 -25V1462H248V-23Q248 -195 192 -282T27 -369Z" />
<glyph unicode="K" glyph-name="K" horiz-adv-x="825" d="M825 0H715L371 729L258 580V0H160V1462H258V688Q309 784 690 1462H797L430 819L825 0Z" />
<glyph unicode="L" glyph-name="L" horiz-adv-x="711" d="M160 0V1462H258V94H670V0H160Z" />
<glyph unicode="M" glyph-name="M" horiz-adv-x="1395" d="M641 0L252 1331H244Q254 1121 254 1065V0H160V1462H305L633 344Q677 196 690 92H698Q708 166 760 342L1085 1462H1235V0H1137V1057Q1137 1119 1147 1329H1139L752 0H641Z" />
<glyph unicode="N" glyph-name="N" horiz-adv-x="1090" d="M930 0H805L252 1311H244Q256 1175 256 1049V0H160V1462H287L836 166H842Q834 330 834 440V1462H930V0Z" />
<glyph unicode="O" glyph-name="O" horiz-adv-x="1065" d="M954 733Q954 370 846 175T532 -20Q325 -20 218 176T111 735Q111 1113 217 1298T535 1483Q739 1483 846 1289T954 733ZM213 733Q213 407 294 241T532 74Q689 74 770 239T852 733Q852 1058 772 1223T535
1389Q374 1389 294 1222T213 733Z" />
<glyph unicode="P" glyph-name="P" horiz-adv-x="840" d="M772 1042Q772 816 669 710T362 604H258V0H160V1462H360Q574 1462 673 1361T772 1042ZM258 694H356Q528 694 600 775T672 1042Q672 1219 598 1295T367 1372H258V694Z" />
<glyph unicode="Q" glyph-name="Q" horiz-adv-x="1065" d="M893 -348H768L582 -16L532 -20Q325 -20 218 176T111 735Q111 1113 217 1298T535 1483Q739 1483 846 1289T954 733Q954 442 884 257T680 10L893 -348ZM213 733Q213 407 294 241T532 74Q689 74 770 239T852
733Q852 1058 772 1223T535 1389Q374 1389 294 1222T213 733Z" />
<glyph unicode="R" glyph-name="R" horiz-adv-x="870" d="M258 639V0H160V1462H360Q574 1462 673 1361T772 1059Q772 907 718 809T537 662L827 0H717L444 639H258ZM258 729H395Q528 729 600 811T672 1055Q672 1220 599 1293T367 1366H258V729Z" />
<glyph unicode="S" glyph-name="S" horiz-adv-x="809" d="M721 383Q721 203 621 92T367 -20Q192 -20 86 31V137Q138 108 215 91T367 74Q479 74 551 159T623 375Q623 496 572 567T377 709Q264 766 208 819T125 944T98 1114Q98 1222 142 1306T265 1436T438 1483Q523
1483 592 1464T702 1423L664 1329Q553 1386 438 1386Q330 1386 263 1313T195 1118Q195 995 244 927T436 786Q584 714 652 618T721 383Z" />
<glyph unicode="T" glyph-name="T" horiz-adv-x="711" d="M403 0H305V1368H14V1462H694V1368H403V0Z" />
<glyph unicode="U" glyph-name="U" horiz-adv-x="1012" d="M864 1462V475Q864 -20 510 -20Q333 -20 240 108T147 475V1462H246V463Q246 273 314 174T510 74Q636 74 701 173T766 467V1462H864Z" />
<glyph unicode="V" glyph-name="V" horiz-adv-x="799" d="M698 1462H799L453 0H344L0 1462H102L340 434Q368 316 377 261T395 121Q403 179 412 235T429 329T698 1462Z" />
<glyph unicode="W" glyph-name="W" horiz-adv-x="1395" d="M1284 1462H1384L1073 0H954L731 1094Q725 1121 696 1333L682 1238L659 1096L440 0H324L10 1462H113L319 455Q367 209 381 111Q403 271 438 451L643 1462H754L958 455Q990 291 1004 185L1014 111Q1043
322 1071 455L1284 1462Z" />
<glyph unicode="X" glyph-name="X" horiz-adv-x="715" d="M694 0H592L373 672L119 0H20L326 776L63 1462H166L383 854L594 1462H694L436 754L694 0Z" />
<glyph unicode="Y" glyph-name="Y" horiz-adv-x="686" d="M344 707L582 1462H686L391 571V0H293V571L0 1462H104L344 707Z" />
<glyph unicode="Z" glyph-name="Z" horiz-adv-x="643" d="M602 0H57V88L481 1366H63V1462H590V1372L160 94H602V0Z" />
<glyph unicode="[" glyph-name="bracketleft" horiz-adv-x="645" d="M571 -324H174V1462H571V1372H268V-233H571V-324Z" />
<glyph unicode="\" glyph-name="backslash" horiz-adv-x="713" d="M147 1462L674 0H573L51 1462H147Z" />
<glyph unicode="]" glyph-name="bracketright" horiz-adv-x="645" d="M74 -233H377V1372H74V1462H471V-324H74V-233Z" />
<glyph unicode="^" glyph-name="asciicircum" horiz-adv-x="819" d="M37 758L375 1460H442L782 758H680L410 1348L137 758H37Z" />
<glyph unicode="_" glyph-name="underscore" horiz-adv-x="842" d="M846 -266H-4V-184H846V-266Z" />
<glyph unicode="`" glyph-name="grave" horiz-adv-x="1126" d="M702 1241Q637 1294 554 1389T434 1552V1569H559Q586 1506 641 1417T750 1262V1241H702Z" />
<glyph unicode="a" glyph-name="a" horiz-adv-x="784" d="M565 0L553 152H549Q471 -20 313 -20Q207 -20 143 64T78 291Q78 446 171 536T432 635L549 641V731Q549 883 511 952T385 1022Q292 1022 195 961L154 1036Q267 1106 391 1106Q525 1106 584 1022T643 739V0H565ZM334
61Q436 61 492 161T549 446V559L436 553Q305 546 242 481T178 289Q178 171 220 116T334 61Z" />
<glyph unicode="b" glyph-name="b" horiz-adv-x="893" d="M481 1104Q799 1104 799 545Q799 269 720 125T492 -20Q414 -20 350 23T244 150H236L223 0H145V1556H240V1073L236 942H244Q330 1104 481 1104ZM477 1016Q352 1016 296 906T240 545V520Q240 66 481 66Q591
66 645 183T700 545Q700 780 647 898T477 1016Z" />
<glyph unicode="c" glyph-name="c" horiz-adv-x="635" d="M424 -20Q261 -20 179 121T96 537Q96 815 179 960T426 1106Q527 1106 594 1069L557 985Q490 1016 434 1016Q195 1016 195 539Q195 66 434 66Q505 66 588 98V18Q555 0 507 -10T424 -20Z" />
<glyph unicode="d" glyph-name="d" horiz-adv-x="893" d="M410 -20Q94 -20 94 541Q94 817 173 961T406 1106Q479 1106 544 1064T649 948H657L653 1069V1556H748V0H670L662 152H653Q614 69 552 25T410 -20ZM416 63Q530 63 591 168T653 479V541Q653 787 594 901T412
1016Q295 1016 244 894T193 539Q193 305 246 184T416 63Z" />
<glyph unicode="e" glyph-name="e" horiz-adv-x="803" d="M453 -20Q281 -20 189 126T96 535Q96 813 178 959T416 1106Q551 1106 629 978T707 631V543H193Q195 306 260 188T457 70Q559 70 672 137V45Q568 -20 453 -20ZM410 1020Q214 1020 195 629H612Q612 808 558
914T410 1020Z" />
<glyph unicode="f" glyph-name="f" horiz-adv-x="453" d="M422 1001H252V0H158V1001H20V1055L158 1096V1178Q158 1385 207 1476T377 1567Q447 1567 504 1542L471 1454Q418 1479 375 1479Q326 1479 301 1450T264 1356T252 1176V1085H422V1001Z" />
<glyph unicode="g" glyph-name="g" horiz-adv-x="741" d="M713 1085V1018L565 1001Q595 962 614 890T633 741Q633 583 562 485T373 387H349L328 389Q280 355 253 321T225 242Q225 196 261 171T358 145H426Q571 145 651 70T731 -147Q731 -306 624 -399T340 -492Q193
-492 114 -418T35 -203Q35 -101 87 -29T250 86Q200 108 170 147T139 240Q139 289 171 327T264 410Q181 448 139 533T96 733Q96 906 169 1006T369 1106Q437 1106 483 1085H713ZM129 -195Q129 -298 182 -356T344 -414Q478 -414 556 -344T635 -152Q635 -54 582 -1T426
53H356Q258 53 194 -15T129 -195ZM188 731Q188 598 237 530T367 461Q541 461 541 741Q541 876 497 952T367 1028Q280 1028 234 950T188 731Z" />
<glyph unicode="h" glyph-name="h" horiz-adv-x="870" d="M635 0V748Q635 895 597 956T471 1018Q356 1018 298 916T240 594V0H145V1556H240V1051Q240 982 236 936H244Q276 1017 340 1061T475 1106Q613 1106 671 1016T729 748V0H635Z" />
<glyph unicode="i" glyph-name="i" horiz-adv-x="385" d="M240 0H145V1085H240V0ZM131 1386Q131 1431 149 1456T197 1481Q224 1481 240 1456T256 1386Q256 1343 240 1318T197 1292Q168 1292 150 1317T131 1386Z" />
<glyph unicode="j" glyph-name="j" horiz-adv-x="385" d="M63 -492Q21 -492 -4 -475V-385Q28 -401 59 -401Q106 -401 125 -356T145 -215V1085H240V-201Q240 -350 197 -421T63 -492ZM131 1386Q131 1431 149 1456T197 1481Q224 1481 240 1456T256 1386Q256 1343
240 1318T197 1292Q168 1292 150 1317T131 1386Z" />
<glyph unicode="k" glyph-name="k" horiz-adv-x="711" d="M242 537L303 647L571 1085H674L424 686L696 0H596L360 598L240 440V0H145V1556H240V719L233 537H242Z" />
<glyph unicode="l" glyph-name="l" horiz-adv-x="385" d="M240 0H145V1556H240V0Z" />
<glyph unicode="m" glyph-name="m" horiz-adv-x="1303" d="M1067 0V739Q1067 1012 907 1012Q797 1012 749 917T700 635V0H606V739Q606 877 567 944T446 1012Q338 1012 289 914T240 596V0H145V1085H225L233 934H242Q307 1106 463 1106Q553 1106 605 1058T680 918Q719
1018 776 1062T924 1106Q1047 1106 1104 1012T1161 709V0H1067Z" />
<glyph unicode="n" glyph-name="n" horiz-adv-x="870" d="M635 0V748Q635 1018 475 1018Q353 1018 297 917T240 596V0H145V1085H225L233 934H242Q276 1016 340 1061T477 1106Q603 1106 666 1022T729 750V0H635Z" />
<glyph unicode="o" glyph-name="o" d="M756 545Q756 271 670 126T422 -20Q263 -20 179 125T94 545Q94 1106 426 1106Q582 1106 669 959T756 545ZM193 545Q193 310 249 190T424 70Q657 70 657 545Q657 1016 424 1016Q302 1016 248 898T193 545Z" />
<glyph unicode="p" glyph-name="p" horiz-adv-x="893" d="M494 -20Q412 -20 345 25T242 150H233L240 31V-492H145V1085H223L233 936H242Q282 1018 344 1062T481 1106Q799 1106 799 545Q799 274 721 127T494 -20ZM475 1016Q356 1016 298 911T240 582V551Q240 301
299 184T479 66Q591 66 645 182T700 545Q700 780 649 898T475 1016Z" />
<glyph unicode="q" glyph-name="q" horiz-adv-x="893" d="M406 -20Q255 -20 175 118T94 541Q94 828 178 967T410 1106Q566 1106 649 940H657L672 1085H748V-492H653V-23Q653 44 662 158H653Q567 -20 406 -20ZM420 66Q531 66 592 174T653 492V541Q653 787 594 901T412
1016Q295 1016 244 894T193 539Q193 290 247 178T420 66Z" />
<glyph unicode="r" glyph-name="r" horiz-adv-x="559" d="M446 1106Q497 1106 541 1092L518 997Q482 1012 444 1012Q389 1012 342 956T267 798T240 575V0H145V1085H223L233 895H240Q316 1106 446 1106Z" />
<glyph unicode="s" glyph-name="s" horiz-adv-x="645" d="M571 272Q571 135 499 58T291 -20Q217 -20 161 -1T74 41V152Q111 115 172 93T297 70Q381 70 429 125T477 272Q477 344 443 393T311 506Q200 576 160 618T97 712T74 836Q74 953 153 1029T354 1106Q485 1106
573 1044L524 961Q442 1016 350 1016Q266 1016 216 967T166 836Q166 764 200 716T344 598Q452 527 492 485T551 391T571 272Z" />
<glyph unicode="t" glyph-name="t" horiz-adv-x="449" d="M344 68Q388 68 422 80V0Q378 -20 309 -20Q141 -20 141 231V1001H43V1057L139 1085L170 1343H236V1085H408V1001H236V258Q236 148 260 108T344 68Z" />
<glyph unicode="u" glyph-name="u" horiz-adv-x="870" d="M236 1085V377Q236 216 274 142T393 68Q516 68 573 167T631 489V1085H725V0H645L633 152H625Q590 69 528 25T393 -20Q262 -20 202 73T141 377V1085H236Z" />
<glyph unicode="v" glyph-name="v" horiz-adv-x="653" d="M266 0L10 1085H106L268 387Q296 266 322 123H330Q337 175 350 239T547 1085H643L379 0H266Z" />
<glyph unicode="w" glyph-name="w" horiz-adv-x="1124" d="M748 0L598 735Q596 743 595 752T563 944H561L547 859L524 735L369 0H256L20 1085H115L250 453L313 123H319Q337 266 377 455L512 1085H612L748 453Q764 382 805 123H811Q814 156 840 289T1010 1085H1104L860
0H748Z" />
<glyph unicode="x" glyph-name="x" horiz-adv-x="676" d="M293 563L55 1085H158L340 645L530 1085H629L387 551L641 0H541L338 469L133 0H35L293 563Z" />
<glyph unicode="y" glyph-name="y" horiz-adv-x="653" d="M281 2L10 1085H106L270 408Q299 286 326 133H334Q353 266 387 410L547 1085H643L326 -205Q291 -348 235 -420T84 -492Q46 -492 -2 -475V-389Q38 -403 76 -403Q136 -403 171 -352T233 -186L281 2Z" />
<glyph unicode="z" glyph-name="z" horiz-adv-x="541" d="M494 0H59V76L379 1001H80V1085H479V1008L160 84H494V0Z" />
<glyph unicode="{" glyph-name="braceleft" horiz-adv-x="737" d="M109 604Q186 604 230 624T295 686T315 819V1143Q315 1291 399 1374T633 1462V1382Q521 1380 468 1323T414 1147V831Q414 710 369 652T219 573V565Q325 545 369 487T414 307V-8Q414 -127 467 -184T633
-244V-324Q481 -320 398 -235T315 -4V319Q315 408 296 451T232 514T109 535V604Z" />
<glyph unicode="|" glyph-name="bar" horiz-adv-x="819" d="M457 -492H362V1556H457V-492Z" />
<glyph unicode="}" glyph-name="braceright" horiz-adv-x="737" d="M629 535Q551 535 507 515T442 452T422 319V-4Q422 -151 339 -235T104 -324V-244Q216 -242 270 -185T324 -8V307Q324 428 368 486T518 565V573Q415 593 370 651T324 831V1147Q324 1266 270 1323T104
1382V1462Q254 1458 338 1374T422 1143V819Q422 729 442 687T506 625T629 604V535Z" />
<glyph unicode="~" glyph-name="asciitilde" horiz-adv-x="819" d="M242 739Q201 739 152 707T59 618V717Q134 823 244 823Q283 823 319 814T428 764Q477 736 511 724T580 711Q629 711 676 743T760 827V729Q687 625 580 625Q531 625 497 635T393 684Q334 717 304
728T242 739Z" />
<glyph unicode="&#xa0;" glyph-name="nbspace" horiz-adv-x="532" />
<glyph unicode="&#xa1;" glyph-name="exclamdown" horiz-adv-x="451" d="M287 -391H162L197 705H252L287 -391ZM147 981Q147 1087 225 1087Q257 1087 280 1063T303 981Q303 922 280 898T225 874Q147 874 147 981Z" />
<glyph unicode="&#xa2;" glyph-name="cent" horiz-adv-x="819" d="M438 -20V193Q303 216 236 357T168 745Q168 994 235 1137T438 1309V1483H520V1315Q608 1309 666 1278L629 1192Q559 1221 506 1221Q380 1221 324 1099T268 748Q268 279 506 279Q576 279 659 311V227Q608
197 520 188V-20H438Z" />
<glyph unicode="&#xa3;" glyph-name="sterling" horiz-adv-x="819" d="M506 1483Q640 1483 741 1395L686 1319Q633 1362 593 1377T504 1393Q414 1393 375 1328T336 1120V768H586V682H336V395Q336 181 215 94H737V0H92V82Q160 111 199 192T238 393V682H80V768H238V1122Q238
1305 302 1394T506 1483Z" />
<glyph unicode="&#xa4;" glyph-name="currency" horiz-adv-x="1135" d="M174 723Q174 859 260 969L125 1106L182 1163L317 1026Q426 1116 567 1116Q706 1116 813 1028L948 1163L1008 1106L872 971Q961 863 961 723Q961 583 872 475L1008 338L950 281L813 416Q706
330 567 330Q424 330 317 418L184 283L127 342L260 475Q174 585 174 723ZM252 723Q252 591 343 500T567 408Q700 408 792 500T885 723Q885 808 843 881T727 997T567 1040Q482 1040 409 998T294 882T252 723Z" />
<glyph unicode="&#xa5;" glyph-name="yen" horiz-adv-x="819" d="M332 655L106 1462H203L410 696L612 1462H711L483 655H680V573H459V373H680V291H459V0H356V291H141V373H356V571L354 573H141V655H332Z" />
<glyph unicode="&#xa6;" glyph-name="brokenbar" horiz-adv-x="819" d="M457 758H362V1556H457V758ZM457 -492H362V307H457V-492Z" />
<glyph unicode="&#xa7;" glyph-name="section" horiz-adv-x="698" d="M102 1303Q102 1416 180 1486T377 1556Q436 1556 477 1546T582 1501L543 1427Q493 1457 456 1467T373 1477Q292 1477 244 1432T195 1315Q195 1251 229 1208T373 1100Q482 1037 521 1000T580
919T600 813Q600 742 567 679T481 584Q546 534 573 483T600 369Q600 246 521 172T307 98Q169 98 82 154V254Q122 219 181 200T305 180Q395 180 450 232T506 362Q506 426 473 469T340 573L246 628Q164 676 123 731T82 858Q82 939 121 997T229 1085Q102 1174 102
1303ZM506 807Q506 857 489 892T435 957T299 1040Q236 1020 205 975T174 870Q174 805 227 752T414 635Q506 688 506 807Z" />
<glyph unicode="&#xa8;" glyph-name="dieresis" horiz-adv-x="1126" d="M348 1389Q348 1432 367 1451T412 1470Q435 1470 454 1451T473 1389Q473 1345 454 1325T412 1305Q387 1305 368 1325T348 1389ZM653 1389Q653 1432 672 1451T715 1470Q740 1470 759 1451T778
1389Q778 1345 759 1325T715 1305Q692 1305 673 1325T653 1389Z" />
<glyph unicode="&#xa9;" glyph-name="copyright" horiz-adv-x="1704" d="M897 1092Q755 1092 675 998T594 733Q594 547 668 458T889 369Q973 369 1087 412V324Q985 279 879 279Q692 279 591 394T489 725Q489 933 600 1057T897 1182Q1016 1182 1124 1130L1087 1047Q989
1092 897 1092ZM100 731Q100 931 200 1106T475 1382T852 1483Q1052 1483 1227 1383T1503 1108T1604 731Q1604 534 1507 361T1235 84T852 -20Q645 -20 470 83T198 360T100 731ZM193 731Q193 553 281 402T522 161T852 72Q1030 72 1181 160T1422 401T1511 731Q1511
905 1426 1056T1187 1299T852 1391Q676 1391 524 1303T282 1060T193 731Z" />
<glyph unicode="&#xaa;" glyph-name="ordfeminine" horiz-adv-x="578" d="M406 817L391 901H383Q314 805 211 805Q144 805 101 854T57 989Q57 1080 112 1129T289 1190L381 1198V1270Q381 1344 357 1376T276 1409Q214 1409 143 1370L115 1434Q196 1479 285 1479Q381
1479 422 1429T463 1272V817H406ZM143 987Q143 874 238 874Q306 874 343 925T381 1069V1135L319 1128Q224 1119 184 1088T143 987Z" />
<glyph unicode="&#xab;" glyph-name="guillemotleft" horiz-adv-x="856" d="M82 541L369 907L430 872L211 528L430 184L369 147L82 514V541ZM426 541L715 907L774 872L557 528L774 184L715 147L426 514V541Z" />
<glyph unicode="&#xac;" glyph-name="logicalnot" horiz-adv-x="819" d="M739 250H657V682H59V764H739V250Z" />
<glyph unicode="&#xad;" glyph-name="uni00AD" horiz-adv-x="516" d="M53 502V604H463V502H53Z" />
<glyph unicode="&#xae;" glyph-name="registered" horiz-adv-x="1704" d="M709 731H821Q912 731 964 777T1016 913Q1016 1085 819 1085H709V731ZM1120 918Q1120 743 973 678L1171 291H1057L883 651H709V291H608V1171H819Q962 1171 1041 1109T1120 918ZM100 731Q100
931 200 1106T475 1382T852 1483Q1052 1483 1227 1383T1503 1108T1604 731Q1604 534 1507 361T1235 84T852 -20Q645 -20 470 83T198 360T100 731ZM193 731Q193 553 281 402T522 161T852 72Q1030 72 1181 160T1422 401T1511 731Q1511 905 1426 1056T1187 1299T852
1391Q676 1391 524 1303T282 1060T193 731Z" />
<glyph unicode="&#xaf;" glyph-name="overscore" horiz-adv-x="842" d="M850 1556H-8V1638H850V1556Z" />
<glyph unicode="&#xb0;" glyph-name="degree" horiz-adv-x="877" d="M139 1184Q139 1316 225 1399T438 1483Q564 1483 650 1400T737 1184Q737 1052 651 969T438 885Q308 885 224 968T139 1184ZM229 1184Q229 1093 290 1030T438 967Q524 967 585 1029T647 1184Q647
1276 587 1338T438 1401Q348 1401 289 1337T229 1184Z" />
<glyph unicode="&#xb1;" glyph-name="plusminus" horiz-adv-x="819" d="M369 682H59V764H369V1198H451V764H760V682H451V250H369V682ZM59 0V82H760V0H59Z" />
<glyph unicode="&#xb2;" glyph-name="twosuperior" horiz-adv-x="614" d="M520 586H49V664L227 887Q306 985 343 1041T396 1142T412 1251Q412 1317 375 1357T270 1397Q182 1397 106 1315L51 1376Q145 1483 272 1483Q382 1483 444 1421T506 1251Q506 1164 468 1087T295
844L150 668H520V586Z" />
<glyph unicode="&#xb3;" glyph-name="threesuperior" horiz-adv-x="614" d="M498 1255Q498 1183 462 1130T360 1053V1044Q526 998 526 819Q526 709 451 639T250 569Q151 569 53 612V707Q148 655 252 655Q346 655 389 700T432 819Q432 909 381 956T227 1004H166V1085H231Q316
1085 362 1133T408 1260Q408 1326 369 1362T258 1399Q174 1399 100 1327L47 1395Q146 1485 266 1485Q377 1485 437 1424T498 1255Z" />
<glyph unicode="&#xb4;" glyph-name="acute" horiz-adv-x="1126" d="M434 1241V1262Q561 1428 625 1569H750V1552Q711 1482 632 1391T481 1241H434Z" />
<glyph unicode="&#xb5;" glyph-name="mu" horiz-adv-x="874" d="M240 1085V352Q240 68 397 68Q520 68 577 167T635 489V1085H729V0H649L637 152H629Q595 71 534 26T406 -20Q288 -20 240 86H231Q240 -34 240 -97V-492H145V1085H240Z" />
<glyph unicode="&#xb6;" glyph-name="paragraph" horiz-adv-x="967" d="M768 -260H674V1460H528V-260H434V559Q404 541 365 541Q254 541 202 664T150 1042Q150 1297 213 1426T414 1556H768V-260Z" />
<glyph unicode="&#xb7;" glyph-name="middot" horiz-adv-x="422" d="M133 721Q133 827 211 827Q289 827 289 721Q289 664 266 639T211 614Q133 614 133 721Z" />
<glyph unicode="&#xb8;" glyph-name="cedilla" horiz-adv-x="465" d="M379 -291Q379 -391 317 -441T145 -492Q83 -492 59 -481V-403Q90 -414 137 -414Q215 -414 252 -381T289 -293Q289 -233 245 -203T123 -160L195 0H270L219 -115Q379 -154 379 -291Z" />
<glyph unicode="&#xb9;" glyph-name="onesuperior" horiz-adv-x="614" d="M397 586H311V1200Q311 1286 317 1370Q284 1339 262 1321T131 1225L82 1290L319 1462H397V586Z" />
<glyph unicode="&#xba;" glyph-name="ordmasculine" horiz-adv-x="618" d="M549 1143Q549 978 488 892T311 805Q192 805 131 891T70 1143Q70 1303 133 1391T311 1479Q424 1479 486 1397T549 1143ZM160 1143Q160 1004 196 942T309 879Q391 879 425 941T459 1143Q459
1282 424 1343T309 1405Q240 1405 200 1343T160 1143Z" />
<glyph unicode="&#xbb;" glyph-name="guillemotright" horiz-adv-x="856" d="M774 514L487 147L426 184L645 528L426 872L487 907L774 541V514ZM430 514L141 147L82 184L299 528L82 872L141 907L430 541V514Z" />
<glyph unicode="&#xbc;" glyph-name="onequarter" horiz-adv-x="1430" d="M1304 210H1204V1H1118V210H784V275L1124 883H1204V292H1304V210ZM1118 292V574Q1118 696 1122 744Q1117 732 1081 657T885 292H1118ZM623 586H537V1200Q537 1286 543 1370Q510 1339 488
1321T357 1225L308 1290L545 1462H623V586ZM1136 1462L368 0H276L1044 1462H1136Z" />
<glyph unicode="&#xbd;" glyph-name="onehalf" horiz-adv-x="1430" d="M1335 1H864V79L1042 302Q1121 400 1158 456T1211 557T1227 666Q1227 732 1190 772T1085 812Q997 812 921 730L866 791Q960 898 1087 898Q1197 898 1259 836T1321 666Q1321 579 1283 502T1110
259L965 83H1335V1ZM623 586H537V1200Q537 1286 543 1370Q510 1339 488 1321T357 1225L308 1290L545 1462H623V586ZM1112 1462L344 0H252L1020 1462H1112Z" />
<glyph unicode="&#xbe;" glyph-name="threequarters" horiz-adv-x="1430" d="M1343 210H1243V1H1157V210H823V275L1163 883H1243V292H1343V210ZM1157 292V574Q1157 696 1161 744Q1156 732 1120 657T924 292H1157ZM498 1255Q498 1183 462 1130T360 1053V1044Q526
998 526 819Q526 709 451 639T250 569Q151 569 53 612V707Q148 655 252 655Q346 655 389 700T432 819Q432 909 381 956T227 1004H166V1085H231Q316 1085 362 1133T408 1260Q408 1326 369 1362T258 1399Q174 1399 100 1327L47 1395Q146 1485 266 1485Q377 1485 437
1424T498 1255ZM1177 1462L409 0H317L1085 1462H1177Z" />
<glyph unicode="&#xbf;" glyph-name="questiondown" horiz-adv-x="578" d="M387 705V653Q387 538 366 464T289 305Q221 202 197 150T160 43T147 -82Q147 -198 193 -260T317 -322Q374 -322 414 -306T496 -262L543 -338Q441 -412 317 -412Q185 -412 116 -327T47
-88Q47 -12 58 44T96 156T207 342Q266 434 288 500T311 666V705H387ZM422 981Q422 874 344 874Q312 874 289 898T266 981Q266 1038 289 1062T344 1087Q422 1087 422 981Z" />
<glyph unicode="&#xc0;" glyph-name="Agrave" horiz-adv-x="813" d="M713 0L584 530H229L102 0H0L352 1462H453L813 0H713ZM561 629L432 1174Q412 1266 401 1348Q392 1261 373 1174L248 629H561ZM414 1579Q349 1632 266 1727T146 1890V1907H271Q298 1844 353 1755T462
1600V1579H414Z" />
<glyph unicode="&#xc1;" glyph-name="Aacute" horiz-adv-x="813" d="M713 0L584 530H229L102 0H0L352 1462H453L813 0H713ZM561 629L432 1174Q412 1266 401 1348Q392 1261 373 1174L248 629H561ZM339 1579V1600Q466 1766 530 1907H655V1890Q616 1820 537 1729T386
1579H339Z" />
<glyph unicode="&#xc2;" glyph-name="Acircumflex" horiz-adv-x="813" d="M713 0L584 530H229L102 0H0L352 1462H453L813 0H713ZM561 629L432 1174Q412 1266 401 1348Q392 1261 373 1174L248 629H561ZM591 1579Q559 1610 500 1680L403 1792Q353 1736 303 1678T210
1579H167V1598Q288 1766 353 1907H448Q472 1852 526 1763T638 1598V1579H591Z" />
<glyph unicode="&#xc3;" glyph-name="Atilde" horiz-adv-x="813" d="M713 0L584 530H229L102 0H0L352 1462H453L813 0H713ZM561 629L432 1174Q412 1266 401 1348Q392 1261 373 1174L248 629H561ZM527 1581Q492 1581 458 1601T393 1644T335 1688T284 1708Q252 1708
231 1672T200 1579H126Q138 1676 179 1733T292 1790Q327 1790 360 1770T423 1727T481 1683T534 1663Q569 1663 586 1699T613 1792H687Q678 1691 636 1636T527 1581Z" />
<glyph unicode="&#xc4;" glyph-name="Adieresis" horiz-adv-x="813" d="M713 0L584 530H229L102 0H0L352 1462H453L813 0H713ZM561 629L432 1174Q412 1266 401 1348Q392 1261 373 1174L248 629H561ZM191 1727Q191 1770 210 1789T255 1808Q278 1808 297 1789T316
1727Q316 1683 297 1663T255 1643Q230 1643 211 1663T191 1727ZM496 1727Q496 1770 515 1789T558 1808Q583 1808 602 1789T621 1727Q621 1683 602 1663T558 1643Q535 1643 516 1663T496 1727Z" />
<glyph unicode="&#xc5;" glyph-name="Aring" horiz-adv-x="813" d="M713 0L584 530H229L102 0H0L352 1462H453L813 0H713ZM561 629L432 1174Q412 1266 401 1348Q392 1261 373 1174L248 629H561ZM604 1589Q604 1500 550 1449T405 1398Q312 1398 259 1448T206 1585Q206
1670 259 1720T405 1771Q492 1771 548 1722T604 1589ZM526 1585Q526 1636 495 1668T405 1701Q351 1701 318 1669T284 1585Q284 1532 314 1500T405 1468Q459 1468 492 1500T526 1585Z" />
<glyph unicode="&#xc6;" glyph-name="AE" horiz-adv-x="1153" d="M1055 0H524V530H256L104 0H0L434 1462H1055V1366H623V813H1030V719H623V94H1055V0ZM283 629H524V1364H496L283 629Z" />
<glyph unicode="&#xc7;" glyph-name="Ccedilla" horiz-adv-x="860" d="M573 1391Q408 1391 311 1217T213 733Q213 532 258 383T387 154T582 74Q696 74 778 115V25Q700 -20 573 -20Q434 -20 330 70T168 330T111 735Q111 1085 235 1285T575 1485Q709 1485 809 1423L764
1337Q680 1391 573 1391ZM692 -291Q692 -391 630 -441T458 -492Q396 -492 372 -481V-403Q403 -414 450 -414Q528 -414 565 -381T602 -293Q602 -233 558 -203T436 -160L508 0H583L532 -115Q692 -154 692 -291Z" />
<glyph unicode="&#xc8;" glyph-name="Egrave" horiz-adv-x="788" d="M690 0H160V1462H690V1368H258V813H666V719H258V94H690V0ZM467 1579Q402 1632 319 1727T199 1890V1907H324Q351 1844 406 1755T515 1600V1579H467Z" />
<glyph unicode="&#xc9;" glyph-name="Eacute" horiz-adv-x="788" d="M690 0H160V1462H690V1368H258V813H666V719H258V94H690V0ZM324 1579V1600Q451 1766 515 1907H640V1890Q601 1820 522 1729T371 1579H324Z" />
<glyph unicode="&#xca;" glyph-name="Ecircumflex" horiz-adv-x="788" d="M690 0H160V1462H690V1368H258V813H666V719H258V94H690V0ZM605 1579Q573 1610 514 1680L417 1792Q367 1736 317 1678T224 1579H181V1598Q302 1766 367 1907H462Q486 1852 540 1763T652
1598V1579H605Z" />
<glyph unicode="&#xcb;" glyph-name="Edieresis" horiz-adv-x="788" d="M690 0H160V1462H690V1368H258V813H666V719H258V94H690V0ZM202 1727Q202 1770 221 1789T266 1808Q289 1808 308 1789T327 1727Q327 1683 308 1663T266 1643Q241 1643 222 1663T202 1727ZM507
1727Q507 1770 526 1789T569 1808Q594 1808 613 1789T632 1727Q632 1683 613 1663T569 1643Q546 1643 527 1663T507 1727Z" />
<glyph unicode="&#xcc;" glyph-name="Igrave" horiz-adv-x="418" d="M160 0V1462H258V0H160ZM234 1579Q169 1632 86 1727T-34 1890V1907H91Q118 1844 173 1755T282 1600V1579H234Z" />
<glyph unicode="&#xcd;" glyph-name="Iacute" horiz-adv-x="418" d="M160 0V1462H258V0H160ZM154 1579V1600Q281 1766 345 1907H470V1890Q431 1820 352 1729T201 1579H154Z" />
<glyph unicode="&#xce;" glyph-name="Icircumflex" horiz-adv-x="418" d="M160 0V1462H258V0H160ZM398 1579Q366 1610 307 1680L210 1792Q160 1736 110 1678T17 1579H-26V1598Q95 1766 160 1907H255Q279 1852 333 1763T445 1598V1579H398Z" />
<glyph unicode="&#xcf;" glyph-name="Idieresis" horiz-adv-x="418" d="M160 0V1462H258V0H160ZM-5 1727Q-5 1770 14 1789T59 1808Q82 1808 101 1789T120 1727Q120 1683 101 1663T59 1643Q34 1643 15 1663T-5 1727ZM300 1727Q300 1770 319 1789T362 1808Q387 1808
406 1789T425 1727Q425 1683 406 1663T362 1643Q339 1643 320 1663T300 1727Z" />
<glyph unicode="&#xd0;" glyph-name="Eth" horiz-adv-x="995" d="M885 745Q885 0 420 0H160V700H61V791H160V1462H426Q652 1462 768 1280T885 745ZM782 739Q782 1048 691 1210T422 1372H258V791H483V700H258V90H414Q604 90 693 256T782 739Z" />
<glyph unicode="&#xd1;" glyph-name="Ntilde" horiz-adv-x="1090" d="M930 0H805L252 1311H244Q256 1175 256 1049V0H160V1462H287L836 166H842Q834 330 834 440V1462H930V0ZM685 1581Q650 1581 616 1601T551 1644T493 1688T442 1708Q410 1708 389 1672T358 1579H284Q296
1676 337 1733T450 1790Q485 1790 518 1770T581 1727T639 1683T692 1663Q727 1663 744 1699T771 1792H845Q836 1691 794 1636T685 1581Z" />
<glyph unicode="&#xd2;" glyph-name="Ograve" horiz-adv-x="1065" d="M954 733Q954 370 846 175T532 -20Q325 -20 218 176T111 735Q111 1113 217 1298T535 1483Q739 1483 846 1289T954 733ZM213 733Q213 407 294 241T532 74Q689 74 770 239T852 733Q852 1058 772
1223T535 1389Q374 1389 294 1222T213 733ZM551 1579Q486 1632 403 1727T283 1890V1907H408Q435 1844 490 1755T599 1600V1579H551Z" />
<glyph unicode="&#xd3;" glyph-name="Oacute" horiz-adv-x="1065" d="M954 733Q954 370 846 175T532 -20Q325 -20 218 176T111 735Q111 1113 217 1298T535 1483Q739 1483 846 1289T954 733ZM213 733Q213 407 294 241T532 74Q689 74 770 239T852 733Q852 1058 772
1223T535 1389Q374 1389 294 1222T213 733ZM459 1579V1600Q586 1766 650 1907H775V1890Q736 1820 657 1729T506 1579H459Z" />
<glyph unicode="&#xd4;" glyph-name="Ocircumflex" horiz-adv-x="1065" d="M954 733Q954 370 846 175T532 -20Q325 -20 218 176T111 735Q111 1113 217 1298T535 1483Q739 1483 846 1289T954 733ZM213 733Q213 407 294 241T532 74Q689 74 770 239T852 733Q852 1058
772 1223T535 1389Q374 1389 294 1222T213 733ZM720 1579Q688 1610 629 1680L532 1792Q482 1736 432 1678T339 1579H296V1598Q417 1766 482 1907H577Q601 1852 655 1763T767 1598V1579H720Z" />
<glyph unicode="&#xd5;" glyph-name="Otilde" horiz-adv-x="1065" d="M954 733Q954 370 846 175T532 -20Q325 -20 218 176T111 735Q111 1113 217 1298T535 1483Q739 1483 846 1289T954 733ZM213 733Q213 407 294 241T532 74Q689 74 770 239T852 733Q852 1058 772
1223T535 1389Q374 1389 294 1222T213 733ZM662 1581Q627 1581 593 1601T528 1644T470 1688T419 1708Q387 1708 366 1672T335 1579H261Q273 1676 314 1733T427 1790Q462 1790 495 1770T558 1727T616 1683T669 1663Q704 1663 721 1699T748 1792H822Q813 1691 771
1636T662 1581Z" />
<glyph unicode="&#xd6;" glyph-name="Odieresis" horiz-adv-x="1065" d="M954 733Q954 370 846 175T532 -20Q325 -20 218 176T111 735Q111 1113 217 1298T535 1483Q739 1483 846 1289T954 733ZM213 733Q213 407 294 241T532 74Q689 74 770 239T852 733Q852 1058
772 1223T535 1389Q374 1389 294 1222T213 733ZM326 1727Q326 1770 345 1789T390 1808Q413 1808 432 1789T451 1727Q451 1683 432 1663T390 1643Q365 1643 346 1663T326 1727ZM631 1727Q631 1770 650 1789T693 1808Q718 1808 737 1789T756 1727Q756 1683 737 1663T693
1643Q670 1643 651 1663T631 1727Z" />
<glyph unicode="&#xd7;" glyph-name="multiply" horiz-adv-x="819" d="M350 723L61 1012L119 1069L408 780L700 1073L760 1016L467 723L754 434L696 377L408 666L117 373L59 432L350 723Z" />
<glyph unicode="&#xd8;" glyph-name="Oslash" horiz-adv-x="1065" d="M954 733Q954 370 846 175T532 -20Q374 -20 272 94L178 -94L96 -57L215 180Q111 374 111 735Q111 1113 217 1298T535 1483Q699 1483 805 1352L901 1542L983 1501L860 1262Q954 1072 954 733ZM213
733Q213 451 272 293L756 1251Q677 1389 535 1389Q374 1389 294 1222T213 733ZM532 74Q689 74 770 239T852 733Q852 984 803 1145L322 190Q399 74 532 74Z" />
<glyph unicode="&#xd9;" glyph-name="Ugrave" horiz-adv-x="1012" d="M864 1462V475Q864 -20 510 -20Q333 -20 240 108T147 475V1462H246V463Q246 273 314 174T510 74Q636 74 701 173T766 467V1462H864ZM545 1579Q480 1632 397 1727T277 1890V1907H402Q429 1844
484 1755T593 1600V1579H545Z" />
<glyph unicode="&#xda;" glyph-name="Uacute" horiz-adv-x="1012" d="M864 1462V475Q864 -20 510 -20Q333 -20 240 108T147 475V1462H246V463Q246 273 314 174T510 74Q636 74 701 173T766 467V1462H864ZM423 1579V1600Q550 1766 614 1907H739V1890Q700 1820 621
1729T470 1579H423Z" />
<glyph unicode="&#xdb;" glyph-name="Ucircumflex" horiz-adv-x="1012" d="M864 1462V475Q864 -20 510 -20Q333 -20 240 108T147 475V1462H246V463Q246 273 314 174T510 74Q636 74 701 173T766 467V1462H864ZM695 1579Q663 1610 604 1680L507 1792Q457 1736 407
1678T314 1579H271V1598Q392 1766 457 1907H552Q576 1852 630 1763T742 1598V1579H695Z" />
<glyph unicode="&#xdc;" glyph-name="Udieresis" horiz-adv-x="1012" d="M864 1462V475Q864 -20 510 -20Q333 -20 240 108T147 475V1462H246V463Q246 273 314 174T510 74Q636 74 701 173T766 467V1462H864ZM292 1727Q292 1770 311 1789T356 1808Q379 1808 398
1789T417 1727Q417 1683 398 1663T356 1643Q331 1643 312 1663T292 1727ZM597 1727Q597 1770 616 1789T659 1808Q684 1808 703 1789T722 1727Q722 1683 703 1663T659 1643Q636 1643 617 1663T597 1727Z" />
<glyph unicode="&#xdd;" glyph-name="Yacute" horiz-adv-x="686" d="M344 707L582 1462H686L391 571V0H293V571L0 1462H104L344 707ZM271 1579V1600Q398 1766 462 1907H587V1890Q548 1820 469 1729T318 1579H271Z" />
<glyph unicode="&#xde;" glyph-name="Thorn" horiz-adv-x="840" d="M772 784Q772 334 365 334H258V0H160V1462H258V1192H360Q574 1192 673 1093T772 784ZM258 428H356Q526 428 599 505T672 772Q672 945 601 1020T367 1096H258V428Z" />
<glyph unicode="&#xdf;" glyph-name="germandbls" horiz-adv-x="823" d="M659 1290Q659 1170 568 1052Q521 991 499 947T477 862Q477 806 499 762T588 633L647 563Q700 502 726 438T752 297Q752 147 682 64T492 -20Q444 -20 396 -7T317 33V133Q353 108 394 89T492
70Q570 70 612 128T655 291Q655 353 632 408T526 563Q449 657 417 726T385 862Q385 913 405 958T474 1064Q520 1122 541 1176T563 1294Q563 1477 416 1477Q331 1477 286 1410T240 1214V0H145V1204Q145 1376 218 1471T422 1567Q539 1567 599 1496T659 1290Z" />
<glyph unicode="&#xe0;" glyph-name="agrave" horiz-adv-x="784" d="M565 0L553 152H549Q471 -20 313 -20Q207 -20 143 64T78 291Q78 446 171 536T432 635L549 641V731Q549 883 511 952T385 1022Q292 1022 195 961L154 1036Q267 1106 391 1106Q525 1106 584 1022T643
739V0H565ZM334 61Q436 61 492 161T549 446V559L436 553Q305 546 242 481T178 289Q178 171 220 116T334 61ZM431 1241Q366 1294 283 1389T163 1552V1569H288Q315 1506 370 1417T479 1262V1241H431Z" />
<glyph unicode="&#xe1;" glyph-name="aacute" horiz-adv-x="784" d="M565 0L553 152H549Q471 -20 313 -20Q207 -20 143 64T78 291Q78 446 171 536T432 635L549 641V731Q549 883 511 952T385 1022Q292 1022 195 961L154 1036Q267 1106 391 1106Q525 1106 584 1022T643
739V0H565ZM334 61Q436 61 492 161T549 446V559L436 553Q305 546 242 481T178 289Q178 171 220 116T334 61ZM290 1241V1262Q417 1428 481 1569H606V1552Q567 1482 488 1391T337 1241H290Z" />
<glyph unicode="&#xe2;" glyph-name="acircumflex" horiz-adv-x="784" d="M565 0L553 152H549Q471 -20 313 -20Q207 -20 143 64T78 291Q78 446 171 536T432 635L549 641V731Q549 883 511 952T385 1022Q292 1022 195 961L154 1036Q267 1106 391 1106Q525 1106 584
1022T643 739V0H565ZM334 61Q436 61 492 161T549 446V559L436 553Q305 546 242 481T178 289Q178 171 220 116T334 61ZM574 1243Q542 1274 483 1344L386 1456Q336 1400 286 1342T193 1243H150V1262Q271 1430 336 1571H431Q455 1516 509 1427T621 1262V1243H574Z"
/>
<glyph unicode="&#xe3;" glyph-name="atilde" horiz-adv-x="784" d="M565 0L553 152H549Q471 -20 313 -20Q207 -20 143 64T78 291Q78 446 171 536T432 635L549 641V731Q549 883 511 952T385 1022Q292 1022 195 961L154 1036Q267 1106 391 1106Q525 1106 584 1022T643
739V0H565ZM334 61Q436 61 492 161T549 446V559L436 553Q305 546 242 481T178 289Q178 171 220 116T334 61ZM517 1243Q482 1243 448 1263T383 1306T325 1350T274 1370Q242 1370 221 1334T190 1241H116Q128 1338 169 1395T282 1452Q317 1452 350 1432T413 1389T471
1345T524 1325Q559 1325 576 1361T603 1454H677Q668 1353 626 1298T517 1243Z" />
<glyph unicode="&#xe4;" glyph-name="adieresis" horiz-adv-x="784" d="M565 0L553 152H549Q471 -20 313 -20Q207 -20 143 64T78 291Q78 446 171 536T432 635L549 641V731Q549 883 511 952T385 1022Q292 1022 195 961L154 1036Q267 1106 391 1106Q525 1106 584
1022T643 739V0H565ZM334 61Q436 61 492 161T549 446V559L436 553Q305 546 242 481T178 289Q178 171 220 116T334 61ZM165 1389Q165 1432 184 1451T229 1470Q252 1470 271 1451T290 1389Q290 1345 271 1325T229 1305Q204 1305 185 1325T165 1389ZM470 1389Q470
1432 489 1451T532 1470Q557 1470 576 1451T595 1389Q595 1345 576 1325T532 1305Q509 1305 490 1325T470 1389Z" />
<glyph unicode="&#xe5;" glyph-name="aring" horiz-adv-x="784" d="M565 0L553 152H549Q471 -20 313 -20Q207 -20 143 64T78 291Q78 446 171 536T432 635L549 641V731Q549 883 511 952T385 1022Q292 1022 195 961L154 1036Q267 1106 391 1106Q525 1106 584 1022T643
739V0H565ZM334 61Q436 61 492 161T549 446V559L436 553Q305 546 242 481T178 289Q178 171 220 116T334 61ZM583 1442Q583 1353 529 1302T384 1251Q291 1251 238 1301T185 1438Q185 1523 238 1573T384 1624Q471 1624 527 1575T583 1442ZM505 1438Q505 1489 474
1521T384 1554Q330 1554 297 1522T263 1438Q263 1385 293 1353T384 1321Q438 1321 471 1353T505 1438Z" />
<glyph unicode="&#xe6;" glyph-name="ae" horiz-adv-x="1260" d="M334 61Q436 61 492 161T549 446V559L436 553Q304 546 241 484T178 289Q178 171 220 116T334 61ZM866 1018Q672 1018 651 629H1069V641Q1069 813 1014 915T866 1018ZM385 1022Q292 1022 195 961L154
1036Q201 1065 256 1085T389 1106Q567 1106 618 934Q702 1106 868 1106Q1005 1106 1084 979T1163 631V543H649Q658 66 907 66Q957 66 1016 83T1128 133V45Q1028 -20 905 -20Q800 -20 720 43T600 221Q554 92 483 36T313 -20Q207 -20 143 64T78 291Q78 446 171 536T432
635L549 641V731Q549 877 510 949T385 1022Z" />
<glyph unicode="&#xe7;" glyph-name="ccedilla" horiz-adv-x="635" d="M424 -20Q261 -20 179 121T96 537Q96 815 179 960T426 1106Q527 1106 594 1069L557 985Q490 1016 434 1016Q195 1016 195 539Q195 66 434 66Q505 66 588 98V18Q555 0 507 -10T424 -20ZM539
-291Q539 -391 477 -441T305 -492Q243 -492 219 -481V-403Q250 -414 297 -414Q375 -414 412 -381T449 -293Q449 -233 405 -203T283 -160L355 0H430L379 -115Q539 -154 539 -291Z" />
<glyph unicode="&#xe8;" glyph-name="egrave" horiz-adv-x="803" d="M453 -20Q281 -20 189 126T96 535Q96 813 178 959T416 1106Q551 1106 629 978T707 631V543H193Q195 306 260 188T457 70Q559 70 672 137V45Q568 -20 453 -20ZM410 1020Q214 1020 195 629H612Q612
808 558 914T410 1020ZM465 1241Q400 1294 317 1389T197 1552V1569H322Q349 1506 404 1417T513 1262V1241H465Z" />
<glyph unicode="&#xe9;" glyph-name="eacute" horiz-adv-x="803" d="M453 -20Q281 -20 189 126T96 535Q96 813 178 959T416 1106Q551 1106 629 978T707 631V543H193Q195 306 260 188T457 70Q559 70 672 137V45Q568 -20 453 -20ZM410 1020Q214 1020 195 629H612Q612
808 558 914T410 1020ZM599 1241V1262Q726 1428 790 1569H915V1552Q876 1482 797 1391T646 1241H599Z" />
<glyph unicode="&#xea;" glyph-name="ecircumflex" horiz-adv-x="803" d="M453 -20Q281 -20 189 126T96 535Q96 813 178 959T416 1106Q551 1106 629 978T707 631V543H193Q195 306 260 188T457 70Q559 70 672 137V45Q568 -20 453 -20ZM410 1020Q214 1020 195 629H612Q612
808 558 914T410 1020ZM601 1241Q569 1272 510 1342L413 1454Q363 1398 313 1340T220 1241H177V1260Q298 1428 363 1569H458Q482 1514 536 1425T648 1260V1241H601Z" />
<glyph unicode="&#xeb;" glyph-name="edieresis" horiz-adv-x="803" d="M453 -20Q281 -20 189 126T96 535Q96 813 178 959T416 1106Q551 1106 629 978T707 631V543H193Q195 306 260 188T457 70Q559 70 672 137V45Q568 -20 453 -20ZM410 1020Q214 1020 195 629H612Q612
808 558 914T410 1020ZM195 1389Q195 1432 214 1451T259 1470Q282 1470 301 1451T320 1389Q320 1345 301 1325T259 1305Q234 1305 215 1325T195 1389ZM500 1389Q500 1432 519 1451T562 1470Q587 1470 606 1451T625 1389Q625 1345 606 1325T562 1305Q539 1305 520
1325T500 1389Z" />
<glyph unicode="&#xec;" glyph-name="igrave" horiz-adv-x="385" d="M240 0H145V1085H240V0ZM236 1241Q171 1294 88 1389T-32 1552V1569H93Q120 1506 175 1417T284 1262V1241H236Z" />
<glyph unicode="&#xed;" glyph-name="iacute" horiz-adv-x="385" d="M240 0H145V1085H240V0ZM113 1241V1262Q240 1428 304 1569H429V1552Q390 1482 311 1391T160 1241H113Z" />
<glyph unicode="&#xee;" glyph-name="icircumflex" horiz-adv-x="385" d="M240 0H145V1085H240V0ZM382 1241Q350 1272 291 1342L194 1454Q144 1398 94 1340T1 1241H-42V1260Q79 1428 144 1569H239Q263 1514 317 1425T429 1260V1241H382Z" />
<glyph unicode="&#xef;" glyph-name="idieresis" horiz-adv-x="385" d="M240 0H145V1085H240V0ZM-20 1389Q-20 1432 -1 1451T44 1470Q67 1470 86 1451T105 1389Q105 1345 86 1325T44 1305Q19 1305 0 1325T-20 1389ZM285 1389Q285 1432 304 1451T347 1470Q372 1470
391 1451T410 1389Q410 1345 391 1325T347 1305Q324 1305 305 1325T285 1389Z" />
<glyph unicode="&#xf0;" glyph-name="eth" horiz-adv-x="856" d="M350 1399Q291 1455 238 1495L285 1556Q358 1510 426 1444L614 1554L653 1489L479 1386Q762 1061 762 514Q762 -20 424 -20Q276 -20 185 115T94 469Q94 702 174 828T406 954Q559 954 633 831H641Q588
1126 403 1341L229 1239L190 1305L350 1399ZM666 483Q666 649 602 756T432 864Q315 864 253 762T190 461Q190 280 254 173T430 66Q552 66 609 169T666 483Z" />
<glyph unicode="&#xf1;" glyph-name="ntilde" horiz-adv-x="870" d="M635 0V748Q635 1018 475 1018Q353 1018 297 917T240 596V0H145V1085H225L233 934H242Q276 1016 340 1061T477 1106Q603 1106 666 1022T729 750V0H635ZM566 1243Q531 1243 497 1263T432 1306T374
1350T323 1370Q291 1370 270 1334T239 1241H165Q177 1338 218 1395T331 1452Q366 1452 399 1432T462 1389T520 1345T573 1325Q608 1325 625 1361T652 1454H726Q717 1353 675 1298T566 1243Z" />
<glyph unicode="&#xf2;" glyph-name="ograve" d="M756 545Q756 271 670 126T422 -20Q263 -20 179 125T94 545Q94 1106 426 1106Q582 1106 669 959T756 545ZM193 545Q193 310 249 190T424 70Q657 70 657 545Q657 1016 424 1016Q302 1016 248 898T193 545ZM474 1241Q409
1294 326 1389T206 1552V1569H331Q358 1506 413 1417T522 1262V1241H474Z" />
<glyph unicode="&#xf3;" glyph-name="oacute" d="M756 545Q756 271 670 126T422 -20Q263 -20 179 125T94 545Q94 1106 426 1106Q582 1106 669 959T756 545ZM193 545Q193 310 249 190T424 70Q657 70 657 545Q657 1016 424 1016Q302 1016 248 898T193 545ZM597 1241V1262Q724
1428 788 1569H913V1552Q874 1482 795 1391T644 1241H597Z" />
<glyph unicode="&#xf4;" glyph-name="ocircumflex" d="M756 545Q756 271 670 126T422 -20Q263 -20 179 125T94 545Q94 1106 426 1106Q582 1106 669 959T756 545ZM193 545Q193 310 249 190T424 70Q657 70 657 545Q657 1016 424 1016Q302 1016 248 898T193 545ZM615
1241Q583 1272 524 1342L427 1454Q377 1398 327 1340T234 1241H191V1260Q312 1428 377 1569H472Q496 1514 550 1425T662 1260V1241H615Z" />
<glyph unicode="&#xf5;" glyph-name="otilde" d="M756 545Q756 271 670 126T422 -20Q263 -20 179 125T94 545Q94 1106 426 1106Q582 1106 669 959T756 545ZM193 545Q193 310 249 190T424 70Q657 70 657 545Q657 1016 424 1016Q302 1016 248 898T193 545ZM545 1243Q510
1243 476 1263T411 1306T353 1350T302 1370Q270 1370 249 1334T218 1241H144Q156 1338 197 1395T310 1452Q345 1452 378 1432T441 1389T499 1345T552 1325Q587 1325 604 1361T631 1454H705Q696 1353 654 1298T545 1243Z" />
<glyph unicode="&#xf6;" glyph-name="odieresis" d="M756 545Q756 271 670 126T422 -20Q263 -20 179 125T94 545Q94 1106 426 1106Q582 1106 669 959T756 545ZM193 545Q193 310 249 190T424 70Q657 70 657 545Q657 1016 424 1016Q302 1016 248 898T193 545ZM210
1389Q210 1432 229 1451T274 1470Q297 1470 316 1451T335 1389Q335 1345 316 1325T274 1305Q249 1305 230 1325T210 1389ZM515 1389Q515 1432 534 1451T577 1470Q602 1470 621 1451T640 1389Q640 1345 621 1325T577 1305Q554 1305 535 1325T515 1389Z" />
<glyph unicode="&#xf7;" glyph-name="divide" horiz-adv-x="819" d="M760 764V682H59V764H760ZM332 373Q332 479 410 479Q487 479 487 373Q487 316 465 291T410 266Q332 266 332 373ZM332 1071Q332 1178 410 1178Q487 1178 487 1071Q487 1014 465 990T410 965Q332
965 332 1071Z" />
<glyph unicode="&#xf8;" glyph-name="oslash" d="M68 -102L180 125Q94 271 94 545Q94 1106 426 1106Q543 1106 623 1020L707 1190L782 1149L680 940Q756 792 756 545Q756 271 670 126T422 -20Q309 -20 238 49L143 -143L68 -102ZM193 545Q193 343 231 231L578 930Q522
1016 424 1016Q302 1016 248 898T193 545ZM657 545Q657 725 625 829L283 137Q334 70 424 70Q657 70 657 545Z" />
<glyph unicode="&#xf9;" glyph-name="ugrave" horiz-adv-x="870" d="M236 1085V377Q236 216 274 142T393 68Q516 68 573 167T631 489V1085H725V0H645L633 152H625Q590 69 528 25T393 -20Q262 -20 202 73T141 377V1085H236ZM463 1241Q398 1294 315 1389T195 1552V1569H320Q347
1506 402 1417T511 1262V1241H463Z" />
<glyph unicode="&#xfa;" glyph-name="uacute" horiz-adv-x="870" d="M236 1085V377Q236 216 274 142T393 68Q516 68 573 167T631 489V1085H725V0H645L633 152H625Q590 69 528 25T393 -20Q262 -20 202 73T141 377V1085H236ZM607 1241V1262Q734 1428 798 1569H923V1552Q884
1482 805 1391T654 1241H607Z" />
<glyph unicode="&#xfb;" glyph-name="ucircumflex" horiz-adv-x="870" d="M236 1085V377Q236 216 274 142T393 68Q516 68 573 167T631 489V1085H725V0H645L633 152H625Q590 69 528 25T393 -20Q262 -20 202 73T141 377V1085H236ZM615 1241Q583 1272 524 1342L427
1454Q377 1398 327 1340T234 1241H191V1260Q312 1428 377 1569H472Q496 1514 550 1425T662 1260V1241H615Z" />
<glyph unicode="&#xfc;" glyph-name="udieresis" horiz-adv-x="870" d="M236 1085V377Q236 216 274 142T393 68Q516 68 573 167T631 489V1085H725V0H645L633 152H625Q590 69 528 25T393 -20Q262 -20 202 73T141 377V1085H236ZM218 1389Q218 1432 237 1451T282
1470Q305 1470 324 1451T343 1389Q343 1345 324 1325T282 1305Q257 1305 238 1325T218 1389ZM523 1389Q523 1432 542 1451T585 1470Q610 1470 629 1451T648 1389Q648 1345 629 1325T585 1305Q562 1305 543 1325T523 1389Z" />
<glyph unicode="&#xfd;" glyph-name="yacute" horiz-adv-x="653" d="M281 2L10 1085H106L270 408Q299 286 326 133H334Q353 266 387 410L547 1085H643L326 -205Q291 -348 235 -420T84 -492Q46 -492 -2 -475V-389Q38 -403 76 -403Q136 -403 171 -352T233 -186L281
2ZM253 1241V1262Q380 1428 444 1569H569V1552Q530 1482 451 1391T300 1241H253Z" />
<glyph unicode="&#xfe;" glyph-name="thorn" horiz-adv-x="893" d="M475 1016Q356 1016 298 911T240 582V551Q240 301 299 184T479 66Q589 66 643 179T698 545Q698 790 646 903T475 1016ZM240 936Q279 1017 343 1061T481 1106Q799 1106 799 545Q799 274 721 127T494
-20Q410 -20 342 26T240 150H233L244 31V-492H145V1556H240V1072L236 936H240Z" />
<glyph unicode="&#xff;" glyph-name="ydieresis" horiz-adv-x="653" d="M281 2L10 1085H106L270 408Q299 286 326 133H334Q353 266 387 410L547 1085H643L326 -205Q291 -348 235 -420T84 -492Q46 -492 -2 -475V-389Q38 -403 76 -403Q136 -403 171 -352T233 -186L281
2ZM116 1389Q116 1432 135 1451T180 1470Q203 1470 222 1451T241 1389Q241 1345 222 1325T180 1305Q155 1305 136 1325T116 1389ZM421 1389Q421 1432 440 1451T483 1470Q508 1470 527 1451T546 1389Q546 1345 527 1325T483 1305Q460 1305 441 1325T421 1389Z" />
<glyph unicode="&#x2013;" glyph-name="endash" horiz-adv-x="1024" d="M82 512V594H942V512H82Z" />
<glyph unicode="&#x2014;" glyph-name="emdash" horiz-adv-x="2048" d="M82 512V594H1966V512H82Z" />
<glyph unicode="&#x2018;" glyph-name="quoteleft" horiz-adv-x="315" d="M43 1016Q109 1241 209 1462H272Q197 1207 172 993H57L43 1016Z" />
<glyph unicode="&#x2019;" glyph-name="quoteright" horiz-adv-x="315" d="M272 1440Q208 1222 106 993H43Q118 1248 143 1462H258L272 1440Z" />
<glyph unicode="&#x201a;" glyph-name="quotesinglbase" horiz-adv-x="422" d="M307 182Q241 -43 141 -264H78Q153 -9 178 205H293L307 182Z" />
<glyph unicode="&#x201c;" glyph-name="quotedblleft" horiz-adv-x="598" d="M326 1016Q392 1241 492 1462H555Q480 1207 455 993H340L326 1016ZM43 1016Q109 1241 209 1462H272Q197 1207 172 993H57L43 1016Z" />
<glyph unicode="&#x201d;" glyph-name="quotedblright" horiz-adv-x="598" d="M272 1440Q208 1222 106 993H43Q118 1248 143 1462H258L272 1440ZM555 1440Q491 1222 389 993H326Q401 1248 426 1462H541L555 1440Z" />
<glyph unicode="&#x201e;" glyph-name="quotedblbase" horiz-adv-x="659" d="M262 182Q196 -43 96 -264H33Q108 -9 133 205H248L262 182ZM545 182Q483 -29 379 -264H315Q350 -144 378 -14T416 205H530L545 182Z" />
<glyph unicode="&#x2022;" glyph-name="bullet" horiz-adv-x="770" d="M168 748Q168 868 224 928T385 989Q489 989 545 929T602 748Q602 630 546 568T385 506Q282 506 225 568T168 748Z" />
<glyph unicode="&#x2039;" glyph-name="guilsinglleft" horiz-adv-x="512" d="M82 541L369 907L430 872L211 528L430 184L369 147L82 514V541Z" />
<glyph unicode="&#x203a;" glyph-name="guilsinglright" horiz-adv-x="512" d="M430 514L143 147L82 184L301 528L82 872L143 907L430 541V514Z" />
</font>
</defs>
</svg>
