<?xml version="1.0" standalone="no"?>
<!DOCTYPE svg PUBLIC "-//W3C//DTD SVG 1.1//EN" "http://www.w3.org/Graphics/SVG/1.1/DTD/svg11.dtd">
<svg xmlns="http://www.w3.org/2000/svg">
<defs >
<font id="JosefinSans" horiz-adv-x="582" ><font-face
    font-family="Josefin Sans"
    units-per-em="1000"
    panose-1="0 0 5 0 0 0 0 0 0 0"
    ascent="750"
    descent="-250"
    alphabetic="0" />
<glyph unicode=" " glyph-name="space" horiz-adv-x="316" />
<glyph unicode="!" glyph-name="exclam" horiz-adv-x="202" d="M141 760V187H57V760H141ZM76 4T59 19T42 58Q42 81 59 96T102 112Q127 112 143 97T160 58Q160 34 144 19T102 4Q76 4 59 19Z" />
<glyph unicode="&quot;" glyph-name="quotedbl" horiz-adv-x="339" d="M144 478H64V729H148L144 478ZM279 478H199V729H283L279 478Z" />
<glyph unicode="#" glyph-name="numbersign" horiz-adv-x="578" d="M235 458H337L349 555Q357 619 360 651H446L434 555Q426 491 421 458H524Q520 401 517 376H412L400 273H503L500 244Q496 217 494 190H390L368 0H283L305 190H204L195 116Q190 78 182 0H96L118
190H25Q33 247 35 273H129L141 376H48Q51 394 52 407T54 430L57 458H150L174 651H259L235 458ZM217 303T213 273H315L327 376H226Q217 303 213 273Z" />
<glyph unicode="$" glyph-name="dollar" horiz-adv-x="567" d="M524 116T469 60T319 -7V-68H260V-7Q201 -3 147 17T49 68L92 145Q126 120 171 102T260 79V341Q179 373 132 415T84 534Q84 615 138 666T280 726V790H339V725Q431 717 515 669L478 594Q407 632 339
639V412H340Q396 392 434 369T498 304T524 198Q524 116 469 60ZM184 508T209 483T280 437V639Q235 632 210 607T184 542Q184 508 209 483ZM364 91T393 120T423 197Q423 239 396 267T319 317V82Q364 91 393 120Z" />
<glyph unicode="%" glyph-name="percent" horiz-adv-x="780" d="M236 -2L144 0L559 610H653L236 -2ZM137 267T100 313T63 438Q63 515 100 562T205 609Q272 609 309 562T347 438Q347 361 310 314T205 267Q137 267 100 313ZM145 389T160 362T205 334Q234 334 249
361T264 438Q264 541 205 541Q145 541 145 438Q145 389 160 362ZM513 -16T476 30T439 155Q439 232 476 279T581 326Q648 326 685 279T723 155Q723 78 685 31T581 -16Q513 -16 476 30ZM521 106T536 79T581 51Q610 51 625 78T640 155Q640 258 581 258Q521 258 521
155Q521 106 536 79Z" />
<glyph unicode="&amp;" glyph-name="ampersand" horiz-adv-x="726" d="M560 0L500 80Q468 39 416 15T296 -10Q228 -10 174 18T88 94T57 204Q57 255 82 298T151 373T246 417L214 459Q163 534 163 593Q163 636 184 674T246 735T341 758Q396 758 443 736T523 680L475
615Q407 676 356 676Q314 676 289 650T263 586Q263 550 296 500L488 245L557 425H647L546 168L673 0H560ZM357 77T392 96T448 148L298 348Q262 346 230 327T178 277T158 208Q158 151 201 114T308 77Q357 77 392 96Z" />
<glyph unicode="&apos;" glyph-name="quotesingle" horiz-adv-x="165" d="M124 478H43V729H128L124 478Z" />
<glyph unicode="(" glyph-name="parenleft" horiz-adv-x="403" d="M102 437T150 559T269 755L342 714Q279 640 239 533T199 295Q199 164 239 57T342 -124L269 -166Q199 -91 151 31T102 295Q102 437 150 559Z" />
<glyph unicode=")" glyph-name="parenright" horiz-adv-x="405" d="M313 153T265 31T147 -166L73 -124Q136 -51 176 56T216 295Q216 426 176 533T73 713L147 755Q217 680 265 559T313 295Q313 153 265 31Z" />
<glyph unicode="*" glyph-name="asterisk" horiz-adv-x="335" d="M60 480L30 532Q37 536 77 558L110 576L31 624L58 672Q112 640 139 625V720H199L198 625L280 671L308 623L225 575L306 529L276 477L196 525L195 434H139V525L60 480Z" />
<glyph unicode="+" glyph-name="plus" horiz-adv-x="550" d="M312 416V275H452V193H312V52H227V193H88V275H227V416H312Z" />
<glyph unicode="," glyph-name="comma" horiz-adv-x="203" d="M108 -52L79 -122H3L29 -52Q74 69 81 88H166L108 -52Z" />
<glyph unicode="-" glyph-name="hyphen" horiz-adv-x="304" d="M240 256V174H54V256H240Z" />
<glyph unicode="." glyph-name="period" horiz-adv-x="169" d="M34 75T50 91T87 107Q106 107 122 91T139 53Q139 30 123 15T87 0Q66 0 50 15T34 53Q34 75 50 91Z" />
<glyph unicode="/" glyph-name="slash" horiz-adv-x="385" d="M102 -19H17Q143 321 205 491L299 746H384L102 -19Z" />
<glyph unicode="0" glyph-name="zero" horiz-adv-x="624" d="M231 -3T169 37T71 154T36 332Q36 495 109 580T312 665Q393 665 455 625T553 509T588 332Q588 228 553 152T456 36T312 -3Q231 -3 169 37ZM396 90T441 156T488 334Q487 443 442 507T311 572Q227 572
182 507T136 332Q137 221 182 156T311 90Q396 90 441 156Z" />
<glyph unicode="1" glyph-name="one" horiz-adv-x="330" d="M226 658V0H128V565H53V658H226Z" />
<glyph unicode="2" glyph-name="two" horiz-adv-x="545" d="M502 94V0H54L87 33Q189 135 246 198T341 325T380 448Q380 509 344 541T256 573Q215 573 188 556T148 513T135 461Q135 397 174 356L115 302Q82 322 62 369T41 459Q41 514 68 561T148 637T272 666Q333
666 380 638T454 561T480 456Q480 399 453 342T387 235T281 111L266 94H502Z" />
<glyph unicode="3" glyph-name="three" horiz-adv-x="524" d="M362 412T411 364T460 219Q460 151 429 100T345 20T227 -8Q180 -8 132 12T53 64L103 144Q122 120 156 103T225 86Q282 86 321 124T360 225Q360 281 327 314T235 348Q191 348 150 333L147 337L294 565H92V658H437L286
416Q362 412 411 364Z" />
<glyph unicode="4" glyph-name="four" horiz-adv-x="536" d="M501 234V159H415V0H318V159H13V160L414 666H415V234H501ZM318 234V439L159 234H318Z" />
<glyph unicode="5" glyph-name="five" horiz-adv-x="523" d="M322 430T368 401T439 324T463 215Q463 153 435 102T357 22T245 -8Q194 -8 145 11T65 60L117 136Q137 113 170 99T237 85Q292 85 327 120T363 212Q363 273 330 310T234 348Q201 348 171 339T107 310H106V658H421V565H190V422Q222
430 257 430Q322 430 368 401Z" />
<glyph unicode="6" glyph-name="six" horiz-adv-x="545" d="M357 422T402 395T476 319T504 212Q504 147 472 97T387 20T274 -8Q207 -8 154 24T69 115T38 253Q38 372 122 475T341 664L406 593Q317 549 257 491T169 370Q221 422 306 422Q357 422 402 395ZM327 79T365
116T404 212Q404 269 366 304T270 340Q234 340 204 325T155 283T137 225V207Q137 173 155 144T203 97T270 79Q327 79 365 116Z" />
<glyph unicode="7" glyph-name="seven" horiz-adv-x="490" d="M462 658L198 0H89L320 565H31V658H462Z" />
<glyph unicode="8" glyph-name="eight" horiz-adv-x="523" d="M28 277T66 325T157 396Q124 417 106 445T88 515Q88 558 110 592T172 646T261 666Q309 666 349 647T412 594T435 519Q435 476 417 448T365 396Q419 373 457 325T495 208Q495 151 464 102T379 22T260
-8Q195 -8 142 21T59 101T28 208Q28 277 66 325ZM182 473T206 451T263 429Q295 429 318 451T342 504Q342 539 319 562T263 585Q230 585 206 562T182 504Q182 473 206 451ZM127 175T145 144T193 93T260 74Q297 74 328 93T379 143T398 212Q398 249 380 280T331 329T262
348Q226 348 195 330T146 281T127 212Q127 175 145 144Z" />
<glyph unicode="9" glyph-name="nine" horiz-adv-x="538" d="M334 655T388 626T473 544T504 424Q504 327 458 248T343 111T176 -13L111 59Q198 103 262 153T359 254Q312 216 236 216Q185 216 140 243T66 318T38 425Q38 493 70 545T154 626T268 655Q334 655 388
626ZM138 372T176 335T272 298Q330 298 367 332T405 420V439Q403 492 365 529T272 567Q215 567 177 529T138 431Q138 372 176 335Z" />
<glyph unicode=":" glyph-name="colon" horiz-adv-x="178" d="M34 347T50 363T87 379Q106 379 122 363T138 325Q138 302 122 287T87 272Q66 272 50 287T34 325Q34 347 50 363ZM34 75T50 91T87 107Q106 107 122 91T138 53Q138 30 122 15T87 0Q66 0 50 15T34 53Q34
75 50 91Z" />
<glyph unicode=";" glyph-name="semicolon" horiz-adv-x="204" d="M65 328T81 344T118 360Q137 360 153 344T169 306Q169 283 154 268T118 253Q97 253 81 268T65 306Q65 328 81 344ZM64 -122H-12Q23 -30 55 58L66 88H151L64 -122Z" />
<glyph unicode="&lt;" glyph-name="less" horiz-adv-x="601" d="M241 241L504 87V-15L62 241L504 496V394L241 241Z" />
<glyph unicode="=" glyph-name="equal" horiz-adv-x="717" d="M614 392V310H102V392H614ZM614 196V114H102V196H614Z" />
<glyph unicode="&gt;" glyph-name="greater" horiz-adv-x="590" d="M357 241L93 395V496L536 241L93 -15V88L357 241Z" />
<glyph unicode="?" glyph-name="question" horiz-adv-x="460" d="M167 248Q167 293 179 323T207 370T257 415Q295 447 314 475T333 544Q333 592 300 623T223 655Q176 655 144 626T95 551L18 587Q29 621 56 656T128 717T233 742Q320 741 376 691T432 552Q432 507
420 475T388 420T336 369Q307 343 293 329T270 289T260 227V185H167V248ZM189 4T172 19T155 58Q155 81 172 96T215 112Q240 112 256 97T273 58Q273 34 257 19T215 4Q189 4 172 19Z" />
<glyph unicode="@" glyph-name="at" horiz-adv-x="1027" d="M713 645T801 599T936 472T983 292Q983 212 952 143T864 33T738 -9Q693 -9 663 14T624 80Q592 43 544 17T447 -10Q392 -10 349 13T281 80T258 182Q258 251 288 308T373 398T497 431Q610 431 650 342L668
414H756L719 145Q718 139 718 127Q718 77 760 77Q794 77 825 106T875 184T895 292Q895 370 858 433T750 534T581 571Q418 571 317 502T173 338T130 165Q130 62 171 -8T284 -112T451 -146Q564 -146 673 -78L712 -132Q656 -175 583 -197T437 -219Q325 -219 237 -176T97
-48T45 161Q45 272 103 383T285 570T595 645Q713 645 801 599ZM531 67T570 95T626 173L637 255Q632 299 597 326T511 354Q469 354 434 332T378 273T357 194Q357 139 392 103T483 67Q531 67 570 95Z" />
<glyph unicode="A" glyph-name="A" horiz-adv-x="701" d="M483 190H205L128 0H32L348 753H354L670 0H558L483 190ZM450 274L347 538L240 274H450Z" />
<glyph unicode="B" glyph-name="B" horiz-adv-x="619" d="M488 351T524 307T560 203Q560 134 527 89T439 22T319 0H104V723H291Q402 723 463 678T524 541Q524 484 499 442T426 375Q488 351 524 307ZM201 407H311Q367 407 395 439T424 521Q424 576 390 603T295
630H201V407ZM378 90T419 118T460 202Q460 259 416 286T308 313H201V90H315Q378 90 419 118Z" />
<glyph unicode="C" glyph-name="C" horiz-adv-x="694" d="M600 31T547 12T430 -8Q319 -8 235 41T105 173T59 356Q59 463 105 548T232 682T417 731Q478 731 531 715T626 673L587 582Q504 638 420 638Q350 638 291 601T196 501T160 361Q160 283 192 220T285 122T425
86Q522 86 594 141L635 54Q600 31 547 12Z" />
<glyph unicode="D" glyph-name="D" horiz-adv-x="754" d="M104 723H302Q437 723 525 670T654 532T695 353Q695 248 646 168T515 44T337 0H104V723ZM318 94Q398 94 461 125T559 217T595 360Q595 445 558 506T460 598T327 630H201V94H318Z" />
<glyph unicode="E" glyph-name="E" horiz-adv-x="653" d="M574 723V630H201V410H534V317H201V94H588V0H104V723H574Z" />
<glyph unicode="F" glyph-name="F" horiz-adv-x="589" d="M533 723V630H201V400H492V307H201V0H104V723H533Z" />
<glyph unicode="G" glyph-name="G" horiz-adv-x="752" d="M638 36T568 14T437 -8Q324 -8 238 38T106 166T59 348Q59 466 109 552T244 685T430 731Q491 731 545 717T642 678L610 589Q578 607 530 620T442 634Q358 634 294 600T194 503T159 356Q159 278 194 217T293
123T439 89Q477 89 513 96T573 118V261H429V354H671V62Q638 36 568 14Z" />
<glyph unicode="H" glyph-name="H" horiz-adv-x="781" d="M677 0H580V317H201V0H104V723H201V410H580V723H677V0Z" />
<glyph unicode="I" glyph-name="I" horiz-adv-x="305" d="M201 723V0H104V723H201Z" />
<glyph unicode="J" glyph-name="J" horiz-adv-x="365" d="M261 45T228 -17T137 -113T3 -149V-55Q77 -51 120 -4T164 134V723H261V131Q261 45 228 -17Z" />
<glyph unicode="K" glyph-name="K" horiz-adv-x="680" d="M200 396L212 415L508 723H633L334 413L650 0H527L263 351L202 292L203 0H104V723H203V432L200 396Z" />
<glyph unicode="L" glyph-name="L" horiz-adv-x="622" d="M201 723V94H569V0H104V723H201Z" />
<glyph unicode="M" glyph-name="M" horiz-adv-x="927" d="M823 746V0H727V468L461 91H459L198 455V0H104V746H105L461 242L822 746H823Z" />
<glyph unicode="N" glyph-name="N" horiz-adv-x="838" d="M734 723V-24H731L200 515L202 0H104V745H109L639 200L637 723H734Z" />
<glyph unicode="O" glyph-name="O" horiz-adv-x="857" d="M59 460T109 545T243 680T428 731Q527 731 612 681T747 545T798 361Q798 261 748 176T613 42T428 -8Q328 -8 243 41T109 174T59 361Q59 460 109 545ZM159 286T195 223T293 123T430 86Q504 86 565 122T662
222T698 361Q698 436 662 500T564 601T428 638Q354 638 292 601T195 499T159 360Q159 286 195 223Z" />
<glyph unicode="P" glyph-name="P" horiz-adv-x="595" d="M416 723T482 664T549 499Q549 438 525 385T446 299T308 266H201V0H104V723H298Q416 723 482 664ZM360 360T392 382T439 435T453 497Q453 549 419 589T313 630H201V360H308Q360 360 392 382Z" />
<glyph unicode="Q" glyph-name="Q" horiz-adv-x="888" d="M829 0H504Q466 -8 428 -8Q328 -8 243 41T109 174T59 361Q59 460 109 545T243 680T428 731Q527 731 612 681T747 545T798 361Q798 284 768 215T684 95H829V0ZM159 286T195 223T293 123T430 86Q504 86 565
122T662 222T698 361Q698 435 662 498T564 598T428 635Q354 635 292 598T195 497T159 360Q159 286 195 223Z" />
<glyph unicode="R" glyph-name="R" horiz-adv-x="660" d="M502 0L332 267Q324 266 308 266H201V0H104V723H297Q371 723 429 697T520 621T553 499Q553 432 524 376T433 291L615 0H502ZM384 360T418 401T453 495Q453 527 439 558T393 609T313 630H201V360H306Q384
360 418 401Z" />
<glyph unicode="S" glyph-name="S" d="M439 615T395 628T312 641Q253 641 219 615T184 542Q184 497 224 469T340 412Q396 392 434 369T498 304T524 198Q524 140 495 93T413 19T287 -8Q220 -8 158 13T49 68L92 145Q129 117 181 98T278 78Q336 78 379 108T423 197Q423
247 387 276T284 332Q223 355 183 377T113 437T84 534Q84 619 143 671T298 727Q415 727 515 669L478 594Q439 615 395 628Z" />
<glyph unicode="T" glyph-name="T" d="M531 723V630H337V0H240V630H51V723H531Z" />
<glyph unicode="U" glyph-name="U" horiz-adv-x="732" d="M192 208T215 170T277 109T365 86Q415 86 455 108T519 169T542 256V723H637V253Q637 176 601 117T503 25T365 -8Q290 -8 228 24T131 116T95 253V723H192V256Q192 208 215 170Z" />
<glyph unicode="V" glyph-name="V" horiz-adv-x="719" d="M679 723L360 -34L41 723H156L364 202L565 723H679Z" />
<glyph unicode="W" glyph-name="W" horiz-adv-x="1008" d="M683 -32L514 400L329 -34L41 720H154L341 194L466 522L389 720H485L686 205L864 720H968L683 -32Z" />
<glyph unicode="X" glyph-name="X" horiz-adv-x="673" d="M514 0L326 289L154 0H34L272 373L44 723H167L347 447L511 723H628L399 366L638 0H514Z" />
<glyph unicode="Y" glyph-name="Y" horiz-adv-x="692" d="M664 723L393 241V0H296V241L28 723H148L347 351L545 723H664Z" />
<glyph unicode="Z" glyph-name="Z" horiz-adv-x="713" d="M658 94V0H51L221 253Q425 559 475 630H174Q142 630 117 646T92 691V759H182V746Q182 730 188 727T214 723H647L218 94H658Z" />
<glyph unicode="[" glyph-name="bracketleft" horiz-adv-x="363" d="M312 756V668H202V-64H312V-151H104V756H312Z" />
<glyph unicode="\" glyph-name="backslash" horiz-adv-x="390" d="M377 -19H282L0 746H95L377 -19Z" />
<glyph unicode="]" glyph-name="bracketright" horiz-adv-x="363" d="M51 -151V-64H161V669H51V756H259V-151H51Z" />
<glyph unicode="^" glyph-name="asciicircum" horiz-adv-x="476" d="M277 513Q267 527 256 542T235 571Q226 558 215 543T193 513L173 486H114L235 668L259 632Q304 563 357 486H297L277 513Z" />
<glyph unicode="_" glyph-name="underscore" horiz-adv-x="608" d="M507 82V0H102V82H507Z" />
<glyph unicode="`" glyph-name="grave" horiz-adv-x="274" d="M118 620L190 486H131L14 620H118Z" />
<glyph unicode="a" glyph-name="a" horiz-adv-x="587" d="M506 414V0H413V68Q391 39 349 15T254 -10Q195 -10 148 15T73 90T45 207Q45 275 73 325T150 403T258 431Q311 431 350 408T413 348L420 414H506ZM330 67T366 95T413 173V255Q401 299 363 326T276 354Q239
354 208 336T158 286T139 212Q139 172 158 139T209 87T279 67Q330 67 366 95Z" />
<glyph unicode="b" glyph-name="b" horiz-adv-x="593" d="M402 431T448 404T522 328T549 214Q549 146 520 95T442 17T334 -10Q283 -10 242 10T174 64V0H81V775H174V359Q200 392 245 411T346 431Q402 431 448 404ZM375 70T414 111T454 214Q454 254 436 286T385
338T314 357Q263 357 225 330T174 257V173Q186 128 224 99T314 70Q375 70 414 111Z" />
<glyph unicode="c" glyph-name="c" horiz-adv-x="456" d="M389 16T351 3T272 -10Q205 -10 154 17T74 93T45 208Q45 272 75 321T155 398T263 425Q358 425 420 373L373 312Q353 327 327 337T271 348Q234 348 204 330T156 279T138 208Q138 169 156 137T207 86T280
67Q331 67 369 97L417 39Q389 16 351 3Z" />
<glyph unicode="d" glyph-name="d" horiz-adv-x="593" d="M513 775V0H419V65Q389 30 346 10T250 -10Q192 -10 145 18T72 96T45 213Q45 280 73 329T150 405T261 431Q308 431 351 412T420 358V775H513ZM333 70T370 99T419 177V255Q407 300 368 328T279 357Q241 357
209 339T158 288T139 214Q139 174 158 141T209 89T279 70Q333 70 370 99Z" />
<glyph unicode="e" glyph-name="e" horiz-adv-x="520" d="M327 70T376 106L419 37Q386 15 348 3T273 -10Q204 -10 153 18T73 97T45 210Q45 271 75 321T159 401T275 431Q356 431 410 384T485 251L157 136Q175 105 205 88T275 70Q327 70 376 106ZM211 357T174 317T137
215Q137 200 138 192L379 281Q364 315 337 336T268 357Q211 357 174 317Z" />
<glyph unicode="f" glyph-name="f" horiz-adv-x="380" d="M115 331H44V415H115V589Q115 679 156 727T276 775Q298 775 323 769T367 750L327 682Q312 698 285 698Q247 698 228 672T208 588V415H340V331H208V0H115V331Z" />
<glyph unicode="g" glyph-name="g" horiz-adv-x="599" d="M518 414V-3Q518 -60 489 -106T407 -179T281 -206Q218 -206 173 -185T81 -123L136 -59Q170 -91 204 -107T279 -124Q348 -124 385 -91T424 -2L425 76Q402 37 358 14T255 -10Q198 -10 150 19T74 98T45 209Q45
272 74 322T154 402T261 431Q314 431 359 410T426 356L433 414H518ZM335 67T374 96T425 172V254Q411 299 372 326T282 354Q221 354 180 314T139 212Q139 172 158 139T210 87T282 67Q335 67 374 96Z" />
<glyph unicode="h" glyph-name="h" horiz-adv-x="553" d="M396 430T434 396T473 306V0H379V274Q377 309 358 329T301 350Q265 350 236 330T191 274T174 194V0H81V775H172V339Q195 380 238 405T338 430Q396 430 434 396Z" />
<glyph unicode="i" glyph-name="i" horiz-adv-x="255" d="M174 414V0H81V414H174ZM74 841T91 856T130 871Q152 871 168 856T185 819Q185 797 169 782T130 767Q108 767 91 782T74 819Q74 841 91 856Z" />
<glyph unicode="j" glyph-name="j" horiz-adv-x="260" d="M31 -142Q91 -91 91 1V414H185V-3Q185 -74 162 -122T87 -200L31 -142ZM84 841T101 856T140 871Q162 871 178 856T195 819Q195 797 179 782T140 767Q118 767 101 782T84 819Q84 841 101 856Z" />
<glyph unicode="k" glyph-name="k" horiz-adv-x="499" d="M228 199L174 155V0H81V775H174V252L388 424L445 374L292 251L465 0H356L228 199Z" />
<glyph unicode="l" glyph-name="l" horiz-adv-x="255" d="M174 775V0H81V775H174Z" />
<glyph unicode="m" glyph-name="m" horiz-adv-x="825" d="M672 431T707 397T745 307V0H652V273Q649 346 586 350Q550 350 522 329T477 272T460 197V0H366V273Q363 346 298 350Q263 350 235 329T190 272T174 196V0H81V414H165L172 336Q196 381 237 406T332 431Q382
431 416 408T460 343Q486 384 526 407T612 431Q672 431 707 397Z" />
<glyph unicode="n" glyph-name="n" horiz-adv-x="553" d="M396 430T434 396T473 306V0H379V274Q377 309 358 329T301 350Q246 350 210 306T174 194V0H81V414H165L171 334Q193 379 237 404T338 430Q396 430 434 396Z" />
<glyph unicode="o" glyph-name="o" horiz-adv-x="545" d="M45 272T74 322T156 402T275 431Q341 431 392 402T472 323T501 211Q501 149 473 99T392 19T273 -10Q208 -10 156 17T75 95T45 211Q45 272 74 322ZM139 171T156 138T204 86T272 67Q330 67 368 108T406 210Q406
271 368 312T272 354Q234 354 204 335T157 282T139 210Q139 171 156 138Z" />
<glyph unicode="p" glyph-name="p" horiz-adv-x="593" d="M401 431T448 403T522 325T549 208Q549 143 520 94T440 17T326 -10Q281 -10 240 9T174 62V-199H81V421H162L170 351Q202 387 246 409T343 431Q401 431 448 403ZM347 65T380 83T434 134T454 207Q454 248
436 281T385 333T314 352Q261 352 224 323T174 243V174Q182 126 219 96T308 65Q347 65 380 83Z" />
<glyph unicode="q" glyph-name="q" horiz-adv-x="593" d="M513 421V-199H420V62Q394 30 348 10T247 -10Q191 -10 145 17T72 93T45 208Q45 273 74 324T153 403T263 431Q312 431 352 412T419 358V421H513ZM419 243Q408 292 370 322T279 352Q241 352 209 333T158
281T139 207Q139 167 158 135T209 84T279 65Q332 65 371 95T419 173V243Z" />
<glyph unicode="r" glyph-name="r" horiz-adv-x="376" d="M187 350T216 376T279 416T337 431L333 338Q288 340 252 320T195 265T174 189V0H81V414H164L171 316Q187 350 216 376Z" />
<glyph unicode="s" glyph-name="s" horiz-adv-x="408" d="M152 -9T111 7T43 54L83 108Q108 84 135 71T190 58Q223 58 244 71T265 111Q265 132 252 145T223 164T167 182Q61 216 61 303Q61 355 99 392T207 429Q251 429 285 418T348 383L311 326Q295 343 271 353T224
364Q196 364 176 351T156 314Q156 295 169 283T196 265T251 246Q302 229 330 202T359 129Q359 69 317 30T198 -9Q152 -9 111 7Z" />
<glyph unicode="t" glyph-name="t" horiz-adv-x="360" d="M215 596V413H328V339H215V0H121V339H45V413H121V596H215Z" />
<glyph unicode="u" glyph-name="u" horiz-adv-x="547" d="M466 414V0H382L376 79Q355 37 311 11T213 -16Q156 -16 120 18T81 108V414H174V141Q176 106 194 86T250 64Q284 64 312 84T356 141T373 221V414H466Z" />
<glyph unicode="v" glyph-name="v" horiz-adv-x="494" d="M475 414L254 -12H249L19 414H130L255 150L371 414H475Z" />
<glyph unicode="w" glyph-name="w" horiz-adv-x="675" d="M656 414L465 -25L332 259L211 -25L19 414H111L222 163L299 343L266 414H347L459 157L564 414H656Z" />
<glyph unicode="x" glyph-name="x" horiz-adv-x="466" d="M334 0L223 146L119 0H24L176 208L19 414H135L244 270L337 414H431L287 213L447 0H334Z" />
<glyph unicode="y" glyph-name="y" horiz-adv-x="494" d="M475 414L208 -199H116L211 14L19 414H124L258 119L389 414H475Z" />
<glyph unicode="z" glyph-name="z" horiz-adv-x="463" d="M180 77H411V0H28L263 338H120Q87 338 66 357T45 414V454H116V441Q116 425 123 420T150 414H415L180 77Z" />
<glyph unicode="{" glyph-name="braceleft" horiz-adv-x="354" d="M242 673T231 665T216 635T211 569V452Q211 389 192 355T145 303Q211 257 211 166V35Q211 -9 215 -31T231 -61T263 -69H308V-151H244Q196 -151 173 -146T132 -113T114 -19V140Q114 188 94 225T33
263V345Q73 346 93 383T114 469V636Q114 694 131 720T173 751T244 756H308V673H263Q242 673 231 665Z" />
<glyph unicode="|" glyph-name="bar" horiz-adv-x="274" d="M177 709V-235H92V709H177Z" />
<glyph unicode="}" glyph-name="braceright" horiz-adv-x="371" d="M130 -69T141 -61T156 -31T161 36V167Q161 221 181 253T227 302Q161 348 161 439V570Q161 614 157 635T142 665T109 673H64V756H128Q175 756 198 752T240 721T258 636V478Q258 426 276 385T338
342V259Q294 258 276 217T258 123V-32Q258 -90 241 -116T199 -146T128 -151H64V-69H109Q130 -69 141 -61Z" />
<glyph unicode="~" glyph-name="asciitilde" horiz-adv-x="427" d="M265 436T244 448T194 486Q176 503 164 511T137 519Q115 519 103 496T91 435H33Q28 502 58 547T142 592Q168 592 188 579T233 542Q254 522 267 513T295 504Q316 504 326 527T335 592H394Q395
583 395 567Q395 508 367 472T297 436Q265 436 244 448Z" />
<glyph unicode="&#xa0;" glyph-name="uni00A0" horiz-adv-x="316" />
<glyph unicode="&#xa1;" glyph-name="exclamdown" horiz-adv-x="203" d="M128 543T144 528T160 489Q160 466 144 451T102 435Q77 435 60 450T42 489Q42 513 59 528T102 543Q128 543 144 528ZM57 360H141V-213H57V360Z" />
<glyph unicode="&#xa2;" glyph-name="cent" horiz-adv-x="456" d="M417 39Q394 20 362 8T296 -9V-68H237V-8Q149 3 97 61T45 208Q45 267 71 314T140 389T237 424V481H296V423Q369 416 420 373L373 312Q338 339 296 346V68Q338 72 369 97L417 39ZM138 160T165 124T237
73V344Q193 332 166 295T138 208Q138 160 165 124Z" />
<glyph unicode="&#xa3;" glyph-name="sterling" horiz-adv-x="633" d="M581 180V115Q581 61 551 31T448 0H57V94H102Q124 94 134 101T149 130T154 195V290H89V384H154V538Q154 585 180 621T253 678T363 699Q433 699 480 673T553 597L483 549Q465 576 440 591T365
606Q305 606 278 580T251 504V384H389V290H251V178Q251 119 232 94H428Q464 94 480 104T497 138V180H581Z" />
<glyph unicode="&#xa4;" glyph-name="currency" horiz-adv-x="504" d="M402 408T402 361Q402 315 375 277L405 247L364 206L332 237Q296 212 250 212Q206 212 169 236L138 205L97 246L127 276Q101 315 101 361Q101 406 126 443Q126 443 97 472L138 513L167 484Q210
510 250 510Q296 510 334 483L363 512L404 471L376 443Q402 408 402 361ZM159 323T186 296T251 268Q289 268 316 295T344 361Q344 399 317 426T251 454Q213 454 186 427T159 361Q159 323 186 296Z" />
<glyph unicode="&#xa5;" glyph-name="yen" horiz-adv-x="692" d="M393 301H533V225H393V154H533V77H393V0H296V77H166V154H296V225H165V301H296V303L28 723H148L348 409L545 723H664L393 303V301Z" />
<glyph unicode="&#xa6;" glyph-name="brokenbar" horiz-adv-x="218" d="M155 709V355H70V709H155ZM155 119V-236H70V119H155Z" />
<glyph unicode="&#xa7;" glyph-name="section" horiz-adv-x="572" d="M454 132T475 100T497 22Q497 -31 469 -75T390 -146T276 -172Q211 -172 152 -152T50 -97L98 -17Q189 -85 270 -85Q323 -85 359 -59T396 10Q396 50 361 70T260 107Q176 129 123 167T69 276Q69
331 99 367T179 419Q92 467 92 557Q92 602 115 642T185 707T300 732Q354 731 404 715T494 669L452 597Q388 645 310 648Q254 648 224 625T193 569Q193 530 228 510T335 471Q390 456 429 439T495 388T522 301Q522 252 494 212T416 151Q454 132 475 100ZM164 253T200
229T304 188Q350 191 388 217T427 285Q427 323 388 348T294 383Q236 385 200 360T164 296Q164 253 200 229Z" />
<glyph unicode="&#xa8;" glyph-name="dieresis" horiz-adv-x="416" d="M62 549T78 564T115 580Q135 580 151 565T167 527Q167 505 151 490T115 474Q94 474 78 489T62 527Q62 549 78 564ZM249 549T265 564T302 580Q322 580 338 565T354 527Q354 505 338 490T302
474Q281 474 265 489T249 527Q249 549 265 564Z" />
<glyph unicode="&#xa9;" glyph-name="copyright" horiz-adv-x="847" d="M331 -2T253 42T129 163T83 334Q83 429 128 506T252 627T424 671Q517 671 595 627T718 506T764 334Q764 240 719 163T597 42T424 -2Q331 -2 253 42ZM495 75T554 108T648 201T682 334Q682
408 648 467T555 561T423 595Q351 595 292 561T199 468T164 334Q164 260 197 201T289 109T423 75Q495 75 554 108ZM543 178T508 163T430 147Q379 147 337 172T270 241T245 335Q245 390 269 434T336 502T434 527Q466 527 499 518T552 492L514 421Q487 445 441 445Q399
445 370 414T341 338Q341 293 369 263T442 232Q490 232 524 266L567 202Q543 178 508 163Z" />
<glyph unicode="&#xaa;" glyph-name="ordfeminine" horiz-adv-x="400" d="M339 715V428H267V472Q251 452 225 437T165 422Q107 422 70 461T33 572Q33 618 51 652T98 705T163 724Q199 724 225 711T268 674L272 715H339ZM218 481T240 500T267 551V600Q259 629 237
647T186 666Q152 666 129 641T105 574Q105 535 129 508T187 481Q218 481 240 500Z" />
<glyph unicode="&#xab;" glyph-name="guillemotleft" horiz-adv-x="606" d="M62 250T165 337Q271 426 276 431V345Q257 326 229 302L165 242L221 190Q268 147 276 138V53L53 242Q62 250 165 337ZM283 250T386 337Q492 426 497 431V345Q478 326 450 302L386 242L442
190Q489 147 497 138V53L274 242Q283 250 386 337Z" />
<glyph unicode="&#xac;" glyph-name="logicalnot" horiz-adv-x="501" d="M433 297V112H336V203H69V297H433Z" />
<glyph unicode="&#xad;" glyph-name="uni00AD" horiz-adv-x="600" d="M240 256V174H54V256H240Z" />
<glyph unicode="&#xae;" glyph-name="registered" horiz-adv-x="486" d="M301 721T350 694T427 619T456 512Q456 453 428 406T350 331T243 303Q185 303 137 330T60 405T31 512Q31 571 59 619T136 694T243 721Q301 721 350 694ZM287 356T322 376T378 432T399 512Q399
556 379 592T322 648T243 669Q200 669 165 649T109 592T88 512Q88 468 108 433T164 377T243 356Q287 356 322 376ZM327 533T318 516T291 490L329 408H269L239 482H220V408H168V621H251Q288 621 307 604T327 553Q327 533 318 516ZM221 523H241Q271 523 271 551Q271
564 264 572T242 581H221V523Z" />
<glyph unicode="&#xaf;" glyph-name="overscore" horiz-adv-x="371" d="M309 538V471H63V538H309Z" />
<glyph unicode="&#xb0;" glyph-name="degree" horiz-adv-x="285" d="M37 610T67 639T140 669Q182 669 211 640T241 567Q241 525 212 496T140 466Q97 466 67 495T37 567Q37 610 67 639ZM161 518T175 532T190 567Q190 587 175 601T140 616Q120 616 106 602T91 567Q91
546 105 532T140 518Q161 518 175 532Z" />
<glyph unicode="&#xb1;" glyph-name="plusminus" horiz-adv-x="531" d="M312 578V437H452V355H312V214H227V355H88V437H227V578H312ZM452 171V89H88V171H452Z" />
<glyph unicode="&#xb2;" glyph-name="uni00B2" horiz-adv-x="404" d="M348 384V306H76V357Q146 407 191 452T236 544Q236 616 174 616Q151 616 130 604T97 575L68 636Q85 662 122 678T199 695Q260 693 297 660T334 569Q334 520 302 476T213 384H348Z" />
<glyph unicode="&#xb3;" glyph-name="uni00B3" horiz-adv-x="390" d="M248 543T277 514T307 439Q307 380 268 342T165 303Q100 303 55 350L82 404Q115 365 153 365Q184 365 203 383T222 436Q222 470 203 487T154 504Q127 504 105 494L100 503L178 620H69V688H290L208
548Q248 543 277 514Z" />
<glyph unicode="&#xb4;" glyph-name="acute" horiz-adv-x="276" d="M105 486H45L128 620H232L105 486Z" />
<glyph unicode="&#xb5;" glyph-name="uni00B5" horiz-adv-x="547" d="M466 414V0H382L375 80Q355 37 312 11T213 -16Q194 -16 174 -11V-201H81V414H174V141Q176 106 194 86T250 64Q284 64 312 84T356 141T373 221V414H466Z" />
<glyph unicode="&#xb6;" glyph-name="paragraph" horiz-adv-x="554" d="M159 428T121 450T61 511T39 594Q39 639 61 677T121 737T204 760H453V0H369V678H288V0H204V428Q159 428 121 450Z" />
<glyph unicode="&#xb7;" glyph-name="middot" horiz-adv-x="171" d="M34 308T50 324T87 340Q106 340 122 324T139 286Q139 263 123 248T87 233Q66 233 50 248T34 286Q34 308 50 324Z" />
<glyph unicode="&#xb8;" glyph-name="cedilla" horiz-adv-x="402" d="M260 -45T293 -68T326 -133Q326 -181 287 -206T188 -231Q122 -231 82 -193L112 -154Q123 -166 140 -173T179 -180Q206 -180 226 -168T247 -135Q247 -116 232 -103T182 -90Q151 -90 117 -102L100
-57L170 8L241 5L197 -47Q200 -46 205 -46Q260 -45 293 -68Z" />
<glyph unicode="&#xb9;" glyph-name="uni00B9" horiz-adv-x="271" d="M192 661V288H105V577H45V661H192Z" />
<glyph unicode="&#xba;" glyph-name="ordmasculine" horiz-adv-x="377" d="M33 614T53 648T108 702T189 722Q234 722 269 703T325 649T345 571Q345 506 302 463T189 420Q121 420 77 461T33 571Q33 614 53 648ZM106 533T129 508T188 483Q224 483 247 508T271 570Q271
608 248 633T188 659Q153 659 130 633T106 570Q106 533 129 508Z" />
<glyph unicode="&#xbb;" glyph-name="guillemotright" horiz-adv-x="606" d="M94 53V138Q118 162 150 190Q164 203 179 217T205 242L141 302Q113 326 94 345V431Q115 412 206 337Q237 311 274 280T317 242L94 53ZM315 53V138Q339 162 371 190Q385 203 400 217T426
242L362 302Q334 326 315 345V431Q336 412 427 337Q458 311 495 280T538 242L315 53Z" />
<glyph unicode="&#xbc;" glyph-name="onequarter" horiz-adv-x="811" d="M196 661V288H109V577H49V661H196ZM231 0H143L550 685H638L231 0ZM777 99H733V0H652V99H479L478 124L676 380H733V153H777V99ZM652 153V258L572 153H652Z" />
<glyph unicode="&#xbd;" glyph-name="onehalf" horiz-adv-x="876" d="M196 664V291H109V580H49V664H196ZM808 72V-6H536V45Q606 95 651 140T696 232Q696 304 634 304Q611 304 590 292T557 263L528 324Q545 350 582 366T659 383Q720 381 757 348T794 257Q794 208
762 164T673 72H808ZM224 0H136L543 685H631L224 0Z" />
<glyph unicode="&#xbe;" glyph-name="threequarters" horiz-adv-x="824" d="M499 543T528 514T558 439Q558 380 519 342T416 303Q351 303 306 350L333 404Q366 365 404 365Q435 365 454 383T473 436Q473 470 454 487T405 504Q378 504 356 494L351 503L429 620H320V688H541L459
548Q499 543 528 514ZM253 0H165L572 685H660L253 0ZM771 100H727V1H646V100H473L472 125L670 381H727V154H771V100ZM646 154V259L566 154H646Z" />
<glyph unicode="&#xbf;" glyph-name="questiondown" horiz-adv-x="437" d="M272 535T289 520T306 481Q306 458 289 443T246 427Q221 427 205 442T188 481Q188 505 204 520T246 535Q272 535 289 520ZM294 291Q294 246 282 216T254 169T204 124Q166 92 147 64T128
-5Q128 -53 161 -84T238 -116Q285 -116 317 -87T366 -12L443 -48Q432 -82 405 -117T333 -178T228 -203Q141 -202 85 -152T29 -13Q29 32 41 64T73 119T125 170Q154 196 168 210T191 250T201 312V354H294V291Z" />
<glyph unicode="&#xc0;" glyph-name="Agrave" horiz-adv-x="701" d="M483 190H205L128 0H32L348 753H354L670 0H558L483 190ZM450 274L347 538L240 274H450ZM304 922L376 788H317L200 922H304Z" />
<glyph unicode="&#xc1;" glyph-name="Aacute" horiz-adv-x="701" d="M483 190H205L128 0H32L348 753H354L670 0H558L483 190ZM450 274L347 538L240 274H450ZM379 781H319L402 915H506L379 781Z" />
<glyph unicode="&#xc2;" glyph-name="Acircumflex" horiz-adv-x="701" d="M483 190H205L128 0H32L348 753H354L670 0H558L483 190ZM450 274L347 538L240 274H450ZM427 798L345 884L267 798H180L345 969H346L514 798H427Z" />
<glyph unicode="&#xc3;" glyph-name="Atilde" horiz-adv-x="701" d="M483 190H205L128 0H32L348 753H354L670 0H558L483 190ZM450 274L347 538L240 274H450ZM401 816T383 827T338 861Q322 876 311 883T287 890Q268 890 257 870T247 816H195Q191 875 218 915T292
955Q315 955 333 944T373 911Q392 893 403 885T428 877Q464 877 464 955H516Q517 947 517 933Q517 880 492 848T430 816Q401 816 383 827Z" />
<glyph unicode="&#xc4;" glyph-name="Adieresis" horiz-adv-x="701" d="M483 190H205L128 0H32L348 753H354L670 0H558L483 190ZM450 274L347 538L240 274H450ZM201 863T217 878T254 894Q274 894 290 879T306 841Q306 819 290 804T254 788Q233 788 217 803T201
841Q201 863 217 878ZM388 863T404 878T441 894Q461 894 477 879T493 841Q493 819 477 804T441 788Q420 788 404 803T388 841Q388 863 404 878Z" />
<glyph unicode="&#xc5;" glyph-name="Aring" horiz-adv-x="701" d="M483 190H205L128 0H32L348 753H354L670 0H558L483 190ZM450 274L347 538L240 274H450ZM260 917T286 941T354 966Q394 966 420 941T447 877Q447 838 421 813T354 787Q313 787 287 812T260 877Q260
917 286 941ZM311 856T323 844T354 831Q372 831 384 843T396 875Q396 896 384 908T354 920Q335 920 323 908T311 875Q311 856 323 844Z" />
<glyph unicode="&#xc6;" glyph-name="AE" horiz-adv-x="951" d="M886 94V0H477V179H234L124 0H13L477 723H872V629H574V409H832V315H574V94H886ZM477 256V574L282 256H477Z" />
<glyph unicode="&#xc7;" glyph-name="Ccedilla" horiz-adv-x="694" d="M472 -45T505 -68T538 -133Q538 -181 499 -206T400 -231Q334 -231 294 -193L324 -154Q335 -166 352 -173T391 -180Q418 -180 438 -168T459 -135Q459 -116 444 -103T394 -90Q363 -90 329 -102L312
-57L369 -4Q275 9 205 60T97 188T59 356Q59 463 105 548T232 682T417 731Q478 731 531 715T626 673L587 582Q504 638 420 638Q350 638 291 601T196 501T160 361Q160 283 192 220T285 122T425 86Q522 86 594 141L635 54Q601 32 551 13T442 -8L409 -47Q412 -46 417
-46Q472 -45 505 -68Z" />
<glyph unicode="&#xc8;" glyph-name="Egrave" horiz-adv-x="653" d="M574 723V630H201V410H534V317H201V94H588V0H104V723H574ZM288 910L360 776H301L184 910H288Z" />
<glyph unicode="&#xc9;" glyph-name="Eacute" horiz-adv-x="653" d="M574 723V630H201V410H534V317H201V94H588V0H104V723H574ZM363 769H303L386 903H490L363 769Z" />
<glyph unicode="&#xca;" glyph-name="Ecircumflex" horiz-adv-x="653" d="M574 723V630H201V410H534V317H201V94H588V0H104V723H574ZM411 786L329 872L251 786H164L329 957H330L498 786H411Z" />
<glyph unicode="&#xcb;" glyph-name="Edieresis" horiz-adv-x="653" d="M574 723V630H201V410H534V317H201V94H588V0H104V723H574ZM185 851T201 866T238 882Q258 882 274 867T290 829Q290 807 274 792T238 776Q217 776 201 791T185 829Q185 851 201 866ZM372 851T388
866T425 882Q445 882 461 867T477 829Q477 807 461 792T425 776Q404 776 388 791T372 829Q372 851 388 866Z" />
<glyph unicode="&#xcc;" glyph-name="Igrave" horiz-adv-x="305" d="M201 723V0H104V723H201ZM106 910L178 776H119L2 910H106Z" />
<glyph unicode="&#xcd;" glyph-name="Iacute" horiz-adv-x="305" d="M201 723V0H104V723H201ZM181 769H121L204 903H308L181 769Z" />
<glyph unicode="&#xce;" glyph-name="Icircumflex" horiz-adv-x="305" d="M201 723V0H104V723H201ZM228 786L146 872L68 786H-19L146 957H147L315 786H228Z" />
<glyph unicode="&#xcf;" glyph-name="Idieresis" horiz-adv-x="305" d="M201 723V0H104V723H201ZM3 851T19 866T56 882Q76 882 92 867T108 829Q108 807 92 792T56 776Q35 776 19 791T3 829Q3 851 19 866ZM190 851T206 866T243 882Q263 882 279 867T295 829Q295
807 279 792T243 776Q222 776 206 791T190 829Q190 851 206 866Z" />
<glyph unicode="&#xd0;" glyph-name="Eth" horiz-adv-x="754" d="M437 723T525 670T654 532T695 353Q695 248 646 168T515 44T337 0H104V315H17V403H104V723H302Q437 723 525 670ZM398 94T461 125T559 217T595 360Q595 445 558 506T460 598T327 630H201V403H295V315H201V94H318Q398
94 461 125Z" />
<glyph unicode="&#xd1;" glyph-name="Ntilde" horiz-adv-x="838" d="M734 723V-24H731L200 515L202 0H104V745H109L639 200L637 723H734ZM457 791T439 802T394 836Q378 851 367 858T343 865Q324 865 313 845T303 791H251Q247 850 274 890T348 930Q371 930 389
919T429 886Q448 868 459 860T484 852Q520 852 520 930H572Q573 922 573 908Q573 855 548 823T486 791Q457 791 439 802Z" />
<glyph unicode="&#xd2;" glyph-name="Ograve" horiz-adv-x="857" d="M59 460T109 545T243 680T428 731Q527 731 612 681T747 545T798 361Q798 261 748 176T613 42T428 -8Q328 -8 243 41T109 174T59 361Q59 460 109 545ZM159 286T195 223T293 123T430 86Q504 86
565 122T662 222T698 361Q698 436 662 500T564 601T428 638Q354 638 292 601T195 499T159 360Q159 286 195 223ZM382 903L454 769H395L278 903H382Z" />
<glyph unicode="&#xd3;" glyph-name="Oacute" horiz-adv-x="857" d="M59 460T109 545T243 680T428 731Q527 731 612 681T747 545T798 361Q798 261 748 176T613 42T428 -8Q328 -8 243 41T109 174T59 361Q59 460 109 545ZM159 286T195 223T293 123T430 86Q504 86
565 122T662 222T698 361Q698 436 662 500T564 601T428 638Q354 638 292 601T195 499T159 360Q159 286 195 223ZM457 762H397L480 896H584L457 762Z" />
<glyph unicode="&#xd4;" glyph-name="Ocircumflex" horiz-adv-x="857" d="M59 460T109 545T243 680T428 731Q527 731 612 681T747 545T798 361Q798 261 748 176T613 42T428 -8Q328 -8 243 41T109 174T59 361Q59 460 109 545ZM159 286T195 223T293 123T430 86Q504
86 565 122T662 222T698 361Q698 436 662 500T564 601T428 638Q354 638 292 601T195 499T159 360Q159 286 195 223ZM505 779L423 865L345 779H258L423 950H424L592 779H505Z" />
<glyph unicode="&#xd5;" glyph-name="Otilde" horiz-adv-x="857" d="M59 460T109 545T243 680T428 731Q527 731 612 681T747 545T798 361Q798 261 748 176T613 42T428 -8Q328 -8 243 41T109 174T59 361Q59 460 109 545ZM159 286T195 223T293 123T430 86Q504 86
565 122T662 222T698 361Q698 436 662 500T564 601T428 638Q354 638 292 601T195 499T159 360Q159 286 195 223ZM479 797T461 808T416 842Q400 857 389 864T365 871Q346 871 335 851T325 797H273Q269 856 296 896T370 936Q393 936 411 925T451 892Q470 874 481
866T506 858Q542 858 542 936H594Q595 928 595 914Q595 861 570 829T508 797Q479 797 461 808Z" />
<glyph unicode="&#xd6;" glyph-name="Odieresis" horiz-adv-x="857" d="M59 460T109 545T243 680T428 731Q527 731 612 681T747 545T798 361Q798 261 748 176T613 42T428 -8Q328 -8 243 41T109 174T59 361Q59 460 109 545ZM159 286T195 223T293 123T430 86Q504
86 565 122T662 222T698 361Q698 436 662 500T564 601T428 638Q354 638 292 601T195 499T159 360Q159 286 195 223ZM279 844T295 859T332 875Q352 875 368 860T384 822Q384 800 368 785T332 769Q311 769 295 784T279 822Q279 844 295 859ZM466 844T482 859T519
875Q539 875 555 860T571 822Q571 800 555 785T519 769Q498 769 482 784T466 822Q466 844 482 859Z" />
<glyph unicode="&#xd7;" glyph-name="multiply" horiz-adv-x="518" d="M325 288T373 335L443 263Q390 212 350 169Q350 169 406 113L445 73L371 0L314 57L275 95Q275 95 212 32L182 2Q157 25 110 72L205 167L108 264L180 338L278 240Q325 288 373 335Z" />
<glyph unicode="&#xd8;" glyph-name="Oslash" horiz-adv-x="858" d="M743 566T770 500T798 361Q798 261 748 176T613 42T428 -8Q310 -8 216 58L154 -15L93 41L154 112Q109 162 84 226T59 361Q59 460 109 545T243 680T428 731Q538 731 630 669L693 743L753 687L693
617Q743 566 770 500ZM159 312T174 268T219 188L569 598Q503 638 428 638Q354 638 292 601T195 499T159 360Q159 312 174 268ZM504 86T565 122T662 222T698 361Q698 413 681 460T631 544L279 132Q347 86 430 86Q504 86 565 122Z" />
<glyph unicode="&#xd9;" glyph-name="Ugrave" horiz-adv-x="732" d="M192 208T215 170T277 109T365 86Q415 86 455 108T519 169T542 256V723H637V253Q637 176 601 117T503 25T365 -8Q290 -8 228 24T131 116T95 253V723H192V256Q192 208 215 170ZM319 910L391 776H332L215
910H319Z" />
<glyph unicode="&#xda;" glyph-name="Uacute" horiz-adv-x="732" d="M192 208T215 170T277 109T365 86Q415 86 455 108T519 169T542 256V723H637V253Q637 176 601 117T503 25T365 -8Q290 -8 228 24T131 116T95 253V723H192V256Q192 208 215 170ZM394 769H334L417
903H521L394 769Z" />
<glyph unicode="&#xdb;" glyph-name="Ucircumflex" horiz-adv-x="732" d="M192 208T215 170T277 109T365 86Q415 86 455 108T519 169T542 256V723H637V253Q637 176 601 117T503 25T365 -8Q290 -8 228 24T131 116T95 253V723H192V256Q192 208 215 170ZM442 786L360
872L282 786H195L360 957H361L529 786H442Z" />
<glyph unicode="&#xdc;" glyph-name="Udieresis" horiz-adv-x="732" d="M192 208T215 170T277 109T365 86Q415 86 455 108T519 169T542 256V723H637V253Q637 176 601 117T503 25T365 -8Q290 -8 228 24T131 116T95 253V723H192V256Q192 208 215 170ZM216 851T232
866T269 882Q289 882 305 867T321 829Q321 807 305 792T269 776Q248 776 232 791T216 829Q216 851 232 866ZM403 851T419 866T456 882Q476 882 492 867T508 829Q508 807 492 792T456 776Q435 776 419 791T403 829Q403 851 419 866Z" />
<glyph unicode="&#xdd;" glyph-name="Yacute" horiz-adv-x="692" d="M664 723L393 241V0H296V241L28 723H148L347 351L545 723H664ZM387 766H327L410 900H514L387 766Z" />
<glyph unicode="&#xde;" glyph-name="Thorn" horiz-adv-x="595" d="M425 586T487 528T549 362Q549 301 526 248T451 162T315 129H204V0H104V718H204V586H316Q425 586 487 528ZM378 223T413 264T449 360Q449 416 413 454T307 493H204V223H306Q378 223 413 264Z" />
<glyph unicode="&#xdf;" glyph-name="germandbls" horiz-adv-x="602" d="M109 518T136 566T209 640T314 666Q374 666 417 647T482 595T504 525Q504 481 485 447T430 395Q487 373 520 325T553 197Q553 100 498 45T354 -10Q316 -10 287 1T241 27L277 84Q305 62 345
62Q398 62 428 102T459 202Q459 269 425 308T335 346H329V429Q365 429 387 449T410 503Q410 541 385 565T316 589Q257 589 230 547T203 423V0H109V343H44V420H109V453Q109 518 136 566Z" />
<glyph unicode="&#xe0;" glyph-name="agrave" horiz-adv-x="587" d="M506 414V0H413V68Q391 39 349 15T254 -10Q195 -10 148 15T73 90T45 207Q45 275 73 325T150 403T258 431Q311 431 350 408T413 348L420 414H506ZM330 67T366 95T413 173V255Q401 299 363 326T276
354Q239 354 208 336T158 286T139 212Q139 172 158 139T209 87T279 67Q330 67 366 95ZM265 633L337 499H278L161 633H265Z" />
<glyph unicode="&#xe1;" glyph-name="aacute" horiz-adv-x="587" d="M506 414V0H413V68Q391 39 349 15T254 -10Q195 -10 148 15T73 90T45 207Q45 275 73 325T150 403T258 431Q311 431 350 408T413 348L420 414H506ZM330 67T366 95T413 173V255Q401 299 363 326T276
354Q239 354 208 336T158 286T139 212Q139 172 158 139T209 87T279 67Q330 67 366 95ZM338 492H278L361 626H465L338 492Z" />
<glyph unicode="&#xe2;" glyph-name="acircumflex" horiz-adv-x="587" d="M506 414V0H413V68Q391 39 349 15T254 -10Q195 -10 148 15T73 90T45 207Q45 275 73 325T150 403T258 431Q311 431 350 408T413 348L420 414H506ZM330 67T366 95T413 173V255Q401 299 363
326T276 354Q239 354 208 336T158 286T139 212Q139 172 158 139T209 87T279 67Q330 67 366 95ZM386 499L304 585L226 499H139L304 670H305L473 499H386Z" />
<glyph unicode="&#xe3;" glyph-name="atilde" horiz-adv-x="587" d="M506 414V0H413V68Q391 39 349 15T254 -10Q195 -10 148 15T73 90T45 207Q45 275 73 325T150 403T258 431Q311 431 350 408T413 348L420 414H506ZM330 67T366 95T413 173V255Q401 299 363 326T276
354Q239 354 208 336T158 286T139 212Q139 172 158 139T209 87T279 67Q330 67 366 95ZM357 473T339 484T294 518Q278 533 267 540T243 547Q224 547 213 527T203 473H151Q147 532 174 572T248 612Q271 612 289 601T329 568Q348 550 359 542T384 534Q420 534 420
612H472Q473 604 473 590Q473 537 448 505T386 473Q357 473 339 484Z" />
<glyph unicode="&#xe4;" glyph-name="adieresis" horiz-adv-x="587" d="M506 414V0H413V68Q391 39 349 15T254 -10Q195 -10 148 15T73 90T45 207Q45 275 73 325T150 403T258 431Q311 431 350 408T413 348L420 414H506ZM330 67T366 95T413 173V255Q401 299 363
326T276 354Q239 354 208 336T158 286T139 212Q139 172 158 139T209 87T279 67Q330 67 366 95ZM159 562T175 577T212 593Q232 593 248 578T264 540Q264 518 248 503T212 487Q191 487 175 502T159 540Q159 562 175 577ZM346 562T362 577T399 593Q419 593 435 578T451
540Q451 518 435 503T399 487Q378 487 362 502T346 540Q346 562 362 577Z" />
<glyph unicode="&#xe5;" glyph-name="aring" horiz-adv-x="587" d="M506 414V0H413V68Q391 39 349 15T254 -10Q195 -10 148 15T73 90T45 207Q45 275 73 325T150 403T258 431Q311 431 350 408T413 348L420 414H506ZM330 67T366 95T413 173V255Q401 299 363 326T276
354Q239 354 208 336T158 286T139 212Q139 172 158 139T209 87T279 67Q330 67 366 95ZM204 595T230 619T298 644Q338 644 364 619T391 555Q391 516 365 491T298 465Q257 465 231 490T204 555Q204 595 230 619ZM255 534T267 522T298 509Q316 509 328 521T340 553Q340
574 328 586T298 598Q279 598 267 586T255 553Q255 534 267 522Z" />
<glyph unicode="&#xe6;" glyph-name="ae" horiz-adv-x="815" d="M622 70T671 106L714 37Q681 15 643 3T568 -10Q509 -10 463 10T386 69V64Q357 26 308 8T207 -11Q126 -11 86 24T45 117Q45 176 94 211T213 246Q247 246 280 238T339 214V263Q339 312 310 332T246
353Q173 353 119 288L71 348Q149 430 258 430Q309 430 347 414T408 367Q439 397 481 414T570 431Q651 431 705 384T780 251L452 136Q470 105 500 88T570 70Q622 70 671 106ZM506 357T469 317T432 215Q432 200 433 192L674 281Q659 315 632 336T563 357Q506 357
469 317ZM261 55T294 69T345 105V145Q319 165 293 174T235 183Q197 183 173 168T148 120Q148 90 170 73T233 55Q261 55 294 69Z" />
<glyph unicode="&#xe7;" glyph-name="ccedilla" horiz-adv-x="456" d="M263 -10L233 -45Q236 -44 241 -44Q296 -43 329 -66T362 -131Q362 -179 323 -204T224 -229Q158 -229 118 -191L148 -152Q159 -164 176 -171T215 -178Q242 -178 262 -166T283 -133Q283 -114
268 -101T218 -88Q187 -88 153 -100L136 -55L196 0Q126 20 86 75T45 208Q45 272 75 321T155 398T263 425Q358 425 420 373L373 312Q353 327 327 337T271 348Q234 348 204 330T156 279T138 208Q138 169 156 137T207 86T280 67Q331 67 369 97L417 39Q389 16 351 3T272
-10H263Z" />
<glyph unicode="&#xe8;" glyph-name="egrave" horiz-adv-x="520" d="M327 70T376 106L419 37Q386 15 348 3T273 -10Q204 -10 153 18T73 97T45 210Q45 271 75 321T159 401T275 431Q356 431 410 384T485 251L157 136Q175 105 205 88T275 70Q327 70 376 106ZM211
357T174 317T137 215Q137 200 138 192L379 281Q364 315 337 336T268 357Q211 357 174 317ZM228 634L300 500H241L124 634H228Z" />
<glyph unicode="&#xe9;" glyph-name="eacute" horiz-adv-x="520" d="M327 70T376 106L419 37Q386 15 348 3T273 -10Q204 -10 153 18T73 97T45 210Q45 271 75 321T159 401T275 431Q356 431 410 384T485 251L157 136Q175 105 205 88T275 70Q327 70 376 106ZM211
357T174 317T137 215Q137 200 138 192L379 281Q364 315 337 336T268 357Q211 357 174 317ZM301 493H241L324 627H428L301 493Z" />
<glyph unicode="&#xea;" glyph-name="ecircumflex" horiz-adv-x="520" d="M327 70T376 106L419 37Q386 15 348 3T273 -10Q204 -10 153 18T73 97T45 210Q45 271 75 321T159 401T275 431Q356 431 410 384T485 251L157 136Q175 105 205 88T275 70Q327 70 376 106ZM211
357T174 317T137 215Q137 200 138 192L379 281Q364 315 337 336T268 357Q211 357 174 317ZM349 500L267 586L189 500H102L267 671H268L436 500H349Z" />
<glyph unicode="&#xeb;" glyph-name="edieresis" horiz-adv-x="520" d="M327 70T376 106L419 37Q386 15 348 3T273 -10Q204 -10 153 18T73 97T45 210Q45 271 75 321T159 401T275 431Q356 431 410 384T485 251L157 136Q175 105 205 88T275 70Q327 70 376 106ZM211
357T174 317T137 215Q137 200 138 192L379 281Q364 315 337 336T268 357Q211 357 174 317ZM122 563T138 578T175 594Q195 594 211 579T227 541Q227 519 211 504T175 488Q154 488 138 503T122 541Q122 563 138 578ZM309 563T325 578T362 594Q382 594 398 579T414
541Q414 519 398 504T362 488Q341 488 325 503T309 541Q309 563 325 578Z" />
<glyph unicode="&#xec;" glyph-name="igrave" horiz-adv-x="255" d="M174 414V0H81V414H174ZM343 620L415 486H356L239 620H343Z" />
<glyph unicode="&#xed;" glyph-name="iacute" horiz-adv-x="255" d="M174 414V0H81V414H174ZM161 734H101L184 868H288L161 734Z" />
<glyph unicode="&#xee;" glyph-name="icircumflex" horiz-adv-x="255" d="M174 414V0H81V414H174ZM465 742L383 828L305 742H218L383 913H384L552 742H465Z" />
<glyph unicode="&#xef;" glyph-name="idieresis" horiz-adv-x="255" d="M174 414V0H81V414H174ZM238 549T254 564T291 580Q311 580 327 565T343 527Q343 505 327 490T291 474Q270 474 254 489T238 527Q238 549 254 564ZM425 549T441 564T478 580Q498 580 514 565T530
527Q530 505 514 490T478 474Q457 474 441 489T425 527Q425 549 441 564Z" />
<glyph unicode="&#xf0;" glyph-name="eth" horiz-adv-x="545" d="M422 545T461 444T501 247Q501 180 472 121T390 26T264 -10Q203 -10 153 17T74 95T45 211Q45 272 72 322T147 402T251 431Q294 431 330 412T391 360Q363 479 277 582L189 527L158 589L229 633Q195
667 147 705L215 766Q268 729 310 684L394 736L425 675L355 631Q422 545 461 444ZM330 67T368 108T406 210Q406 271 368 312T272 354Q234 354 204 335T157 282T139 210Q139 171 156 138T204 86T272 67Q330 67 368 108Z" />
<glyph unicode="&#xf1;" glyph-name="ntilde" horiz-adv-x="553" d="M396 430T434 396T473 306V0H379V274Q377 309 358 329T301 350Q246 350 210 306T174 194V0H81V414H165L171 334Q193 379 237 404T338 430Q396 430 434 396ZM328 467T310 478T265 512Q249 527
238 534T214 541Q195 541 184 521T174 467H122Q118 526 145 566T219 606Q242 606 260 595T300 562Q319 544 330 536T355 528Q391 528 391 606H443Q444 598 444 584Q444 531 419 499T357 467Q328 467 310 478Z" />
<glyph unicode="&#xf2;" glyph-name="ograve" horiz-adv-x="545" d="M45 272T74 322T156 402T275 431Q341 431 392 402T472 323T501 211Q501 149 473 99T392 19T273 -10Q208 -10 156 17T75 95T45 211Q45 272 74 322ZM139 171T156 138T204 86T272 67Q330 67 368
108T406 210Q406 271 368 312T272 354Q234 354 204 335T157 282T139 210Q139 171 156 138ZM232 633L304 499H245L128 633H232Z" />
<glyph unicode="&#xf3;" glyph-name="oacute" horiz-adv-x="545" d="M45 272T74 322T156 402T275 431Q341 431 392 402T472 323T501 211Q501 149 473 99T392 19T273 -10Q208 -10 156 17T75 95T45 211Q45 272 74 322ZM139 171T156 138T204 86T272 67Q330 67 368
108T406 210Q406 271 368 312T272 354Q234 354 204 335T157 282T139 210Q139 171 156 138ZM305 492H245L328 626H432L305 492Z" />
<glyph unicode="&#xf4;" glyph-name="ocircumflex" horiz-adv-x="545" d="M45 272T74 322T156 402T275 431Q341 431 392 402T472 323T501 211Q501 149 473 99T392 19T273 -10Q208 -10 156 17T75 95T45 211Q45 272 74 322ZM139 171T156 138T204 86T272 67Q330 67
368 108T406 210Q406 271 368 312T272 354Q234 354 204 335T157 282T139 210Q139 171 156 138ZM353 499L271 585L193 499H106L271 670H272L440 499H353Z" />
<glyph unicode="&#xf5;" glyph-name="otilde" horiz-adv-x="545" d="M45 272T74 322T156 402T275 431Q341 431 392 402T472 323T501 211Q501 149 473 99T392 19T273 -10Q208 -10 156 17T75 95T45 211Q45 272 74 322ZM139 171T156 138T204 86T272 67Q330 67 368
108T406 210Q406 271 368 312T272 354Q234 354 204 335T157 282T139 210Q139 171 156 138ZM324 473T306 484T261 518Q245 533 234 540T210 547Q191 547 180 527T170 473H118Q114 532 141 572T215 612Q238 612 256 601T296 568Q315 550 326 542T351 534Q387 534
387 612H439Q440 604 440 590Q440 537 415 505T353 473Q324 473 306 484Z" />
<glyph unicode="&#xf6;" glyph-name="odieresis" horiz-adv-x="545" d="M45 272T74 322T156 402T275 431Q341 431 392 402T472 323T501 211Q501 149 473 99T392 19T273 -10Q208 -10 156 17T75 95T45 211Q45 272 74 322ZM139 171T156 138T204 86T272 67Q330 67
368 108T406 210Q406 271 368 312T272 354Q234 354 204 335T157 282T139 210Q139 171 156 138ZM126 562T142 577T179 593Q199 593 215 578T231 540Q231 518 215 503T179 487Q158 487 142 502T126 540Q126 562 142 577ZM313 562T329 577T366 593Q386 593 402 578T418
540Q418 518 402 503T366 487Q345 487 329 502T313 540Q313 562 329 577Z" />
<glyph unicode="&#xf7;" glyph-name="divide" horiz-adv-x="507" d="M202 419T218 434T254 450Q274 450 290 435T306 397Q306 374 290 359T254 344Q234 344 218 359T202 397Q202 419 218 434ZM433 291V209H69V291H433ZM202 128T218 143T254 159Q274 159 290 144T306
106Q306 83 290 68T254 53Q234 53 218 68T202 106Q202 128 218 143Z" />
<glyph unicode="&#xf8;" glyph-name="oslash" horiz-adv-x="521" d="M469 336T485 296T501 211Q501 149 473 99T392 19T273 -10Q201 -10 144 24L103 -24L57 19L96 64Q45 125 45 211Q45 272 74 322T156 402T275 431Q340 431 391 403L427 444L474 404L440 365Q469
336 485 296ZM139 170T158 135L335 338Q306 354 272 354Q234 354 204 335T157 282T139 210Q139 170 158 135ZM330 67T368 108T406 210Q406 260 381 296L201 89Q232 67 272 67Q330 67 368 108Z" />
<glyph unicode="&#xf9;" glyph-name="ugrave" horiz-adv-x="547" d="M466 414V0H382L376 79Q355 37 311 11T213 -16Q156 -16 120 18T81 108V414H174V141Q176 106 194 86T250 64Q284 64 312 84T356 141T373 221V414H466ZM234 633L306 499H247L130 633H234Z" />
<glyph unicode="&#xfa;" glyph-name="uacute" horiz-adv-x="547" d="M466 414V0H382L376 79Q355 37 311 11T213 -16Q156 -16 120 18T81 108V414H174V141Q176 106 194 86T250 64Q284 64 312 84T356 141T373 221V414H466ZM307 492H247L330 626H434L307 492Z" />
<glyph unicode="&#xfb;" glyph-name="ucircumflex" horiz-adv-x="547" d="M466 414V0H382L376 79Q355 37 311 11T213 -16Q156 -16 120 18T81 108V414H174V141Q176 106 194 86T250 64Q284 64 312 84T356 141T373 221V414H466ZM355 499L273 585L195 499H108L273
670H274L442 499H355Z" />
<glyph unicode="&#xfc;" glyph-name="udieresis" horiz-adv-x="547" d="M466 414V0H382L376 79Q355 37 311 11T213 -16Q156 -16 120 18T81 108V414H174V141Q176 106 194 86T250 64Q284 64 312 84T356 141T373 221V414H466ZM128 562T144 577T181 593Q201 593 217
578T233 540Q233 518 217 503T181 487Q160 487 144 502T128 540Q128 562 144 577ZM315 562T331 577T368 593Q388 593 404 578T420 540Q420 518 404 503T368 487Q347 487 331 502T315 540Q315 562 331 577Z" />
<glyph unicode="&#xfd;" glyph-name="yacute" horiz-adv-x="494" d="M475 414L208 -199H116L211 14L19 414H124L258 119L389 414H475ZM286 478H226L309 612H413L286 478Z" />
<glyph unicode="&#xfe;" glyph-name="thorn" horiz-adv-x="585" d="M400 431T446 403T520 325T547 208Q547 142 518 93T439 17T324 -10Q277 -10 236 11T172 67V-199H79V775H173V355Q202 390 246 410T342 431Q400 431 446 403ZM345 65T378 83T432 134T452 207Q452
247 433 280T382 333T313 352Q259 352 222 323T173 243V171Q181 124 218 95T306 65Q345 65 378 83Z" />
<glyph unicode="&#xff;" glyph-name="ydieresis" horiz-adv-x="494" d="M475 414L208 -199H116L211 14L19 414H124L258 119L389 414H475ZM107 549T123 564T160 580Q180 580 196 565T212 527Q212 505 196 490T160 474Q139 474 123 489T107 527Q107 549 123 564ZM294
549T310 564T347 580Q367 580 383 565T399 527Q399 505 383 490T347 474Q326 474 310 489T294 527Q294 549 310 564Z" />
<glyph unicode="&#x2013;" glyph-name="endash" horiz-adv-x="516" d="M406 252V170H102V252H406Z" />
<glyph unicode="&#x2014;" glyph-name="emdash" horiz-adv-x="709" d="M609 252V170H101V252H609Z" />
<glyph unicode="&#x2018;" glyph-name="quoteleft" horiz-adv-x="182" d="M150 708Q132 688 121 661T109 606Q109 591 111 584L36 577Q33 592 33 606Q33 645 52 678T102 733L150 708Z" />
<glyph unicode="&#x2019;" glyph-name="quoteright" horiz-adv-x="185" d="M35 588Q53 606 64 633T76 690Q76 697 74 713L149 720Q151 706 151 698Q151 660 131 622T82 564L35 588Z" />
<glyph unicode="&#x201a;" glyph-name="quotesinglbase" horiz-adv-x="185" d="M35 -61Q53 -43 64 -16T76 41Q76 48 74 64L149 71Q151 57 151 49Q151 11 131 -27T82 -85L35 -61Z" />
<glyph unicode="&#x201c;" glyph-name="quotedblleft" horiz-adv-x="293" d="M280 708Q262 688 251 661T239 606Q239 591 241 584L166 577Q163 592 163 606Q163 645 182 678T232 733L280 708ZM155 708Q137 688 126 661T114 606Q114 591 116 584L41 577Q38 592
38 606Q38 645 57 678T107 733L155 708Z" />
<glyph unicode="&#x201d;" glyph-name="quotedblright" horiz-adv-x="291" d="M35 588Q53 606 64 633T76 690Q76 697 74 713L149 720Q151 706 151 698Q151 660 131 622T82 564L35 588ZM153 588Q171 606 182 633T194 690Q194 697 192 713L267 720Q269 706 269 698Q269
660 249 622T200 564L153 588Z" />
<glyph unicode="&#x201e;" glyph-name="quotedblbase" horiz-adv-x="303" d="M35 -60Q53 -42 64 -15T76 42Q76 49 74 65L149 72Q151 58 151 50Q151 12 131 -26T82 -84L35 -60ZM153 -60Q171 -42 182 -15T194 42Q194 49 192 65L267 72Q269 58 269 50Q269 12 249
-26T200 -84L153 -60Z" />
<glyph unicode="&#x2022;" glyph-name="bullet" horiz-adv-x="485" d="M115 339T132 369T178 416T242 434Q277 434 307 417T354 369T372 304Q372 250 334 213T242 176Q189 176 152 213T115 304Q115 339 132 369Z" />
<glyph unicode="&#x2039;" glyph-name="guilsinglleft" horiz-adv-x="371" d="M62 250T165 337Q271 426 276 431V345Q257 326 229 302L165 242L221 190Q268 147 276 138V53L53 242Q62 250 165 337Z" />
<glyph unicode="&#x203a;" glyph-name="guilsinglright" horiz-adv-x="365" d="M94 53V138Q118 162 150 190Q164 203 179 217T205 242L141 302Q113 326 94 345V431Q115 412 206 337Q237 311 274 280T317 242L94 53Z" />
</font>
</defs>
</svg>
