<?xml version="1.0" standalone="no"?>
<!DOCTYPE svg PUBLIC "-//W3C//DTD SVG 1.1//EN" "http://www.w3.org/Graphics/SVG/1.1/DTD/svg11.dtd">
<svg xmlns="http://www.w3.org/2000/svg">
<defs >
<font id="FjallaOne" horiz-adv-x="947" ><font-face
    font-family="Fjalla One"
    units-per-em="2048"
    panose-1="2 0 5 6 4 0 0 2 0 4"
    ascent="2066"
    descent="-508"
    alphabetic="0" />
<glyph unicode=" " glyph-name="space" horiz-adv-x="438" />
<glyph unicode="!" glyph-name="exclam" horiz-adv-x="690" d="M208 1813H481L450 555H243L208 1813ZM191 177Q191 282 233 327T347 373Q422 373 463 325T504 177Q504 86 463 36T346 -14Q275 -14 233 34T191 177Z" />
<glyph unicode="&quot;" glyph-name="quotedbl" horiz-adv-x="1123" d="M206 1876H455L434 1180H231L206 1876ZM668 1876H917L896 1180H693L668 1876Z" />
<glyph unicode="#" glyph-name="numbersign" horiz-adv-x="1108" d="M237 385H96V567H250L269 809H136V991H282L310 1369H489L461 991H699L727 1369H906L878 991H1012V809H865L846 567H972V385H833L805 0H626L654 385H416L388 0H209L237 385ZM668 567L686 809H447L429
567H668Z" />
<glyph unicode="$" glyph-name="dollar" horiz-adv-x="1006" d="M97 346Q97 401 103 447T123 548H324V466Q324 327 366 254T495 181Q569 181 605 218T642 328Q642 356 637 386T618 451T581 524T522 608L259 947Q188 1038 148 1130T108 1336Q108 1411 129 1475T191
1589T290 1671T424 1716V1944H610V1714Q692 1700 747 1664T837 1580T885 1475T900 1361Q900 1306 892 1260T873 1157H673V1239Q673 1375 630 1447T506 1520Q433 1520 396 1480T358 1371Q358 1313 381 1266T443 1168L738 786Q779 732 811 682T864 582T897 480T908
368Q908 294 888 232T829 122T735 42T611 -4V-255H425V-12Q330 -3 267 31T167 114T113 223T97 346Z" />
<glyph unicode="%" glyph-name="percent" horiz-adv-x="1885" d="M479 786Q422 786 365 802T261 864T185 996T156 1221V1328Q156 1419 170 1485T208 1599T265 1675T333 1720T406 1742T480 1748Q514 1748 551 1743T623 1721T691 1677T747 1601T785 1487T799 1328V1221Q799
1084 768 999T690 866T586 803T479 786ZM1085 1727H1266L807 0H625L1085 1727ZM481 945Q544 945 569 999T594 1169V1363Q594 1479 569 1534T481 1589Q415 1589 389 1534T362 1363V1169Q362 1054 388 1000T481 945ZM1087 527Q1087 664 1117 746T1195 873T1300 932T1410
947Q1444 947 1481 942T1553 920T1621 876T1677 800T1715 686T1729 527V420Q1729 328 1715 260T1676 144T1619 65T1552 16T1479 -8T1409 -15Q1371 -15 1333 -9T1259 15T1192 63T1137 142T1101 258T1087 420V527ZM1292 368Q1292 253 1318 199T1411 144Q1474 144
1499 198T1524 368V562Q1524 678 1499 733T1411 788Q1345 788 1319 733T1292 562V368Z" />
<glyph unicode="&amp;" glyph-name="ampersand" horiz-adv-x="1211" d="M55 410Q55 495 83 570T151 708T235 823T313 913L340 942L306 1003Q280 1050 256 1102T214 1208T184 1319T173 1432Q173 1519 203 1589T284 1708T404 1783T551 1810Q653 1810 719 1779T825
1702T879 1602T895 1502Q895 1409 865 1330T792 1185T703 1068T626 980L604 955L862 486Q879 541 888 601T898 724Q898 757 897 785T894 841H1103Q1108 815 1110 785T1113 724Q1113 605 1076 492T974 283L1130 1H862L806 101Q734 46 654 15T491 -16Q395 -16 315
12T177 95T87 228T55 410ZM528 1143Q548 1166 573 1197T622 1267T661 1354T677 1458Q677 1496 667 1524T639 1570T599 1597T551 1606Q528 1606 503 1598T458 1569T424 1516T410 1432Q410 1398 415 1366T433 1297T464 1219T511 1125L528 1143ZM312 445Q312 397 325
350T367 265T440 204T546 180Q596 180 639 200T720 256L436 768Q376 693 344 611T312 445Z" />
<glyph unicode="&apos;" glyph-name="quotesingle" horiz-adv-x="661" d="M206 1876H455L434 1180H231L206 1876Z" />
<glyph unicode="(" glyph-name="parenleft" horiz-adv-x="776" d="M654 -257Q618 -257 577 -254T492 -236T405 -194T321 -116T246 8T186 188T146 435T131 760V957Q131 1137 145 1276T185 1520T245 1698T320 1821T404 1898T491 1941T576 1959T654 1963V1790Q509
1790 435 1592T361 1003V712Q361 506 381 357T438 109T530 -36T654 -83V-257Z" />
<glyph unicode=")" glyph-name="parenright" horiz-adv-x="776" d="M121 -83Q190 -83 245 -36T337 109T395 356T415 712V1003Q415 1391 341 1590T121 1790V1963Q157 1963 199 1959T284 1941T371 1899T455 1821T529 1699T589 1520T629 1276T644 957V760Q644 576
630 435T590 188T530 8T455 -115T372 -193T285 -236T199 -253T121 -257V-83V-83Z" />
<glyph unicode="*" glyph-name="asterisk" horiz-adv-x="1048" d="M167 993L404 1239L79 1300L150 1539L449 1377L403 1727H649L595 1377L896 1534L969 1295L638 1239L873 986L673 840L521 1153L366 844L167 993Z" />
<glyph unicode="+" glyph-name="plus" horiz-adv-x="835" d="M317 691H45V887H317V1200H516V887H790V691H516V368H317V691Z" />
<glyph unicode="," glyph-name="comma" horiz-adv-x="512" d="M155 350H412L266 -327H55L155 350Z" />
<glyph unicode="-" glyph-name="hyphen" horiz-adv-x="997" d="M126 888H871V685H126V888Z" />
<glyph unicode="." glyph-name="period" horiz-adv-x="501" d="M91 179Q91 285 133 331T247 377Q322 377 363 328T404 179Q404 87 363 37T246 -14Q175 -14 133 35T91 179Z" />
<glyph unicode="/" glyph-name="slash" horiz-adv-x="552" d="M323 1884H542L229 -326H10L323 1884Z" />
<glyph unicode="0" glyph-name="zero" horiz-adv-x="1047" d="M105 1220Q105 1332 125 1413T179 1550T257 1640T347 1692T440 1717T526 1723Q563 1723 608 1718T700 1695T790 1644T867 1554T921 1416T942 1220V498Q942 386 922 305T867 166T789 74T699 19T608
-8T526 -15Q486 -15 439 -8T345 18T255 73T178 165T125 304T105 498V1220ZM370 389Q370 283 408 235T526 187Q603 187 641 235T679 389V1314Q679 1426 641 1477T526 1528Q447 1528 409 1477T370 1314V389Z" />
<glyph unicode="1" glyph-name="one" horiz-adv-x="830" d="M152 195H350V1360L138 1173L26 1304L414 1708H607L606 1706L607 1707V195H804V0H152V195Z" />
<glyph unicode="2" glyph-name="two" horiz-adv-x="992" d="M102 152L479 878Q531 977 563 1051T614 1180T640 1277T647 1351Q647 1403 638 1438T610 1495T564 1526T500 1535Q412 1535 373 1463T333 1254V1157H133Q122 1213 114 1259T106 1361Q106 1426 128 1490T199
1607T321 1691T500 1723Q612 1723 691 1697T822 1621T896 1499T920 1336Q920 1284 911 1234T879 1126T822 1000T736 844L399 204H898V0H102V152Z" />
<glyph unicode="3" glyph-name="three" horiz-adv-x="1035" d="M100 348Q100 391 106 442T125 549H327V462Q327 382 340 328T377 241T432 194T502 180Q539 180 569 190T620 225T652 286T663 378V567Q663 621 654 663T623 733T568 777T484 792H375V977H484Q516
977 544 987T593 1021T626 1082T638 1172V1351Q638 1446 601 1490T491 1535Q410 1535 367 1463T323 1254V1157H123Q112 1207 104 1256T96 1361Q96 1426 120 1490T192 1607T315 1691T491 1723Q600 1723 678 1698T805 1625T878 1506T902 1345V1240Q902 1167 884 1111T836
1012T769 941T692 893V885Q742 868 785 841T859 770T909 666T927 521V408Q927 290 893 209T801 79T666 7T502 -15Q306 -15 203 80T100 348Z" />
<glyph unicode="4" glyph-name="four" horiz-adv-x="1100" d="M81 442L579 1708H888V509H1046V306H888V0H647V306H81V442ZM647 509V761L671 1405H641L345 509H647Z" />
<glyph unicode="5" glyph-name="five" horiz-adv-x="1030" d="M126 351Q126 442 151 549H353V409Q353 287 388 234T505 180Q587 180 621 239T655 409V739Q655 803 644 842T614 904T570 935T514 943Q458 943 418 912T352 836H161V1708H895V1479H377V1057Q419 1105
482 1132T615 1159Q774 1159 848 1052T922 737V447Q922 315 888 227T798 85T669 8T517 -15Q422 -15 349 10T227 84T152 199T126 351Z" />
<glyph unicode="6" glyph-name="six" horiz-adv-x="1050" d="M108 1209Q108 1327 129 1411T186 1552T268 1643T362 1695T459 1718T547 1723Q650 1723 723 1697T842 1626T910 1522T931 1398Q931 1363 925 1321T904 1237H707V1289Q707 1367 698 1416T669 1493T619
1532T547 1543Q461 1543 416 1485T370 1297V968Q408 1010 469 1038T612 1067Q670 1067 729 1049T837 983T916 854T947 645V479Q947 342 919 248T837 96T710 11T542 -15Q437 -15 357 13T221 103T137 264T108 507V1209ZM370 410Q370 292 410 236T539 180Q616 180
652 235T688 400V654Q688 716 677 758T646 825T598 862T535 873Q508 873 484 865T438 844T400 814T370 780V410Z" />
<glyph unicode="7" glyph-name="seven" horiz-adv-x="848" d="M543 1480H41V1709H821V1572L351 0H70L543 1480Z" />
<glyph unicode="8" glyph-name="eight" horiz-adv-x="1042" d="M87 519Q87 594 103 652T147 754T215 829T299 884V892Q266 910 233 937T172 1003T128 1096T111 1219V1339Q111 1422 131 1483T183 1587T259 1656T347 1698T438 1718T522 1723Q561 1723 606 1718T697
1698T785 1657T861 1588T914 1484T934 1340V1220Q934 1151 917 1098T873 1005T813 938T746 893V885Q792 862 830 831T897 755T942 653T958 520V415Q958 327 940 261T891 147T817 68T727 19T626 -7T521 -15Q469 -15 417 -8T317 18T226 67T154 146T105 260T87 414V519ZM534
976Q563 976 588 985T633 1018T663 1080T674 1178V1319Q674 1425 639 1480T522 1535Q441 1535 407 1479T372 1317V1177Q372 1120 381 1082T409 1020T452 986T510 976H534ZM350 393Q350 328 364 287T402 222T457 189T521 180Q554 180 585 189T641 222T680 287T695
394V582Q695 638 684 677T651 742T600 779T534 791H509Q436 791 393 741T350 581V393Z" />
<glyph unicode="9" glyph-name="nine" horiz-adv-x="1039" d="M924 499Q924 381 903 297T847 156T768 65T675 13T581 -10T495 -15Q389 -15 314 11T192 82T123 186T101 310Q101 345 107 387T128 471H325V434Q325 356 335 307T366 230T419 191T495 180Q575 180 618
238T662 426V740Q624 698 564 670T423 641Q365 641 305 659T196 725T116 854T85 1063V1229Q85 1365 113 1459T195 1612T322 1697T490 1723Q595 1723 675 1697T811 1610T895 1452T924 1211V499ZM662 1326Q662 1384 652 1424T622 1489T569 1525T493 1536Q416 1536
380 1481T344 1316V1054Q344 992 355 950T386 883T434 846T497 835Q524 835 548 843T594 864T632 894T662 928V1326Z" />
<glyph unicode=":" glyph-name="colon" horiz-adv-x="501" d="M91 1151Q91 1257 133 1303T247 1349Q322 1349 363 1300T404 1151Q404 1059 363 1009T246 958Q175 958 133 1007T91 1151ZM91 179Q91 285 133 331T247 377Q322 377 363 328T404 179Q404 87 363 37T246
-14Q175 -14 133 35T91 179Z" />
<glyph unicode=";" glyph-name="semicolon" horiz-adv-x="501" d="M91 1151Q91 1257 133 1303T247 1349Q322 1349 363 1300T404 1151Q404 1059 363 1009T246 958Q175 958 133 1007T91 1151ZM155 350H412L266 -327H55L155 350Z" />
<glyph unicode="&lt;" glyph-name="less" horiz-adv-x="775" d="M45 862L689 1262V1027L273 792V784L689 548V314L45 715V862Z" />
<glyph unicode="=" glyph-name="equal" horiz-adv-x="916" d="M86 1090H830V895H86V1090ZM86 683H830V488H86V683Z" />
<glyph unicode="&gt;" glyph-name="greater" horiz-adv-x="775" d="M679 862L35 1262V1027L451 792V784L35 548V314L679 715V862Z" />
<glyph unicode="?" glyph-name="question" horiz-adv-x="1026" d="M392 760Q392 800 394 829T402 886T422 940T457 1003L575 1189Q613 1251 635 1317T657 1439Q657 1480 646 1514T615 1572T566 1609T500 1623Q419 1623 381 1551T343 1343V1261H139Q128 1317 120
1363T112 1465Q112 1541 135 1607T207 1722T331 1799T510 1827Q613 1827 690 1800T820 1721T897 1599T923 1439Q923 1389 914 1344T886 1253T839 1160T772 1060L692 952Q663 913 647 885T624 830T614 773T612 701V557H391L392 760ZM360 177Q360 282 402 327T516
373Q591 373 632 325T673 177Q673 86 632 36T515 -14Q444 -14 402 34T360 177Z" />
<glyph unicode="@" glyph-name="at" horiz-adv-x="1649" d="M90 945Q90 1127 122 1262T208 1495T335 1655T489 1754T656 1805T823 1820Q906 1820 993 1808T1161 1763T1315 1671T1442 1519T1527 1292T1559 977V765Q1559 625 1546 506T1499 300T1403 164T1245 115Q1142
115 1081 161T992 308Q957 214 898 165T764 116Q738 116 706 119T641 138T577 183T522 267T484 400T469 594V837Q469 940 482 1014T518 1140T570 1222T631 1271T692 1293T748 1299Q818 1299 867 1264T948 1175L967 1284H1163V450Q1163 406 1170 377T1191 330T1220
306T1254 299Q1276 299 1296 312T1330 368T1352 488T1361 697V977Q1361 1136 1336 1247T1268 1433T1171 1550T1057 1614T937 1640T825 1646Q772 1646 712 1639T592 1606T477 1535T380 1410T313 1218T287 945V474Q287 311 314 197T386 5T492 -117T619 -184T753 -213T884
-219Q913 -219 949 -217T1021 -209T1092 -195T1154 -176V-336Q1134 -350 1098 -362T1017 -383T923 -397T827 -403Q763 -403 684 -392T522 -347T363 -251T225 -88T127 161T90 513V945ZM821 312Q859 312 883 336T923 395V1017Q907 1055 883 1080T822 1106Q800 1106
780 1097T744 1062T719 989T709 864V546Q709 472 717 427T740 356T775 321T821 312Z" />
<glyph unicode="A" glyph-name="A" horiz-adv-x="967" d="M334 1708H632L948 0H686L639 306H327L282 0H19L334 1708ZM609 501L489 1352H478L357 501H609Z" />
<glyph unicode="B" glyph-name="B" horiz-adv-x="1047" d="M146 1708H408Q466 1708 528 1704T649 1687T761 1649T853 1580T916 1474T940 1321V1238Q940 1170 921 1113T869 1013T796 941T712 902V894Q839 871 903 774T968 524V437Q968 344 948 276T890 159T802
79T690 31T560 7T418 0H146V1708ZM450 977Q502 977 545 989T618 1028T665 1097T682 1200V1270Q682 1330 670 1376T631 1454T559 1502T450 1519H400V977H450ZM474 180Q526 180 568 193T641 235T688 308T705 412V545Q705 605 693 651T654 729T582 777T474 794H400V180H474Z"
/>
<glyph unicode="C" glyph-name="C" horiz-adv-x="936" d="M514 -15Q474 -15 428 -9T335 19T246 78T171 180T119 335T99 556V1161Q99 1290 119 1381T172 1535T248 1635T337 1691T428 1717T513 1723Q615 1723 683 1695T793 1617T852 1501T870 1361Q870 1306 865
1260T848 1157H638V1244Q638 1385 607 1455T516 1525Q480 1525 453 1511T408 1464T381 1375T371 1238V458Q371 378 378 325T403 240T447 195T514 181Q539 181 562 192T602 228T630 290T641 379V546H878V388Q878 182 784 84T514 -15Z" />
<glyph unicode="D" glyph-name="D" horiz-adv-x="1061" d="M146 1708H415Q476 1708 541 1705T669 1683T787 1628T885 1523T951 1353T976 1102V606Q976 458 952 355T885 185T788 81T670 25T542 4T415 0H146V1708ZM471 181Q541 181 586 199T658 262T695 386T705
585V1115Q705 1235 695 1313T659 1437T587 1501T471 1519H405V181H471Z" />
<glyph unicode="E" glyph-name="E" horiz-adv-x="830" d="M146 1708H779V1504H405V993H694V789H405V204H789V0H146V1708Z" />
<glyph unicode="F" glyph-name="F" horiz-adv-x="826" d="M146 1708H799V1504H405V993H714V789H405V0H146V1708Z" />
<glyph unicode="G" glyph-name="G" horiz-adv-x="1047" d="M491 -16Q461 -16 421 -10T339 18T255 77T182 179T129 335T109 556V1161Q109 1290 130 1381T186 1535T266 1635T361 1691T458 1717T547 1723Q651 1723 722 1695T838 1617T902 1501T922 1361Q922 1306
916 1260T898 1157H691V1238Q691 1519 540 1519Q499 1519 469 1505T419 1458T390 1369T380 1232V458Q380 378 389 325T418 240T467 195T538 181Q581 181 612 203T663 265T692 357T702 472V695H569V865H954V0H782L754 162Q705 67 642 26T491 -16Z" />
<glyph unicode="H" glyph-name="H" horiz-adv-x="1119" d="M146 1708H405V993H712V1708H971V0H712V789H405V0H146V1708Z" />
<glyph unicode="I" glyph-name="I" horiz-adv-x="551" d="M146 1708H405V0H146V1708Z" />
<glyph unicode="J" glyph-name="J" horiz-adv-x="850" d="M351 -16Q255 -16 190 14T86 95T29 216T12 362Q12 416 19 483T40 619H247L244 411Q244 345 250 301T268 230T300 192T348 180Q371 180 389 189T421 220T441 281T448 378L451 1708H710V414Q710 282 680
198T600 67T485 2T351 -16Z" />
<glyph unicode="K" glyph-name="K" horiz-adv-x="1005" d="M146 1708H405V962H413L709 1708H967L637 907L1004 0H727L413 813H405V0H146V1708Z" />
<glyph unicode="L" glyph-name="L" horiz-adv-x="776" d="M146 1708H405V204H758V0H146V1708Z" />
<glyph unicode="M" glyph-name="M" horiz-adv-x="1442" d="M146 1708H484L648 1047Q674 937 689 838T718 650H726Q740 738 755 837T796 1047L965 1708H1296V0H1054V565Q1054 695 1056 815T1063 1035T1072 1213T1081 1335H1062L804 220H640L380 1335H361Q365 1290
370 1213T379 1036T385 815T388 565V0H146V1708Z" />
<glyph unicode="N" glyph-name="N" horiz-adv-x="1127" d="M146 1708H356L770 565H776Q773 605 768 654T759 765T752 907T749 1085V1708H981V0H769L357 1113H349Q352 1068 357 1016T366 892T373 727T376 502V0H146V1708Z" />
<glyph unicode="O" glyph-name="O" horiz-adv-x="1044" d="M524 -15Q483 -15 435 -9T340 19T250 78T173 180T119 335T99 556V1161Q99 1290 119 1381T174 1535T251 1635T342 1691T437 1717T524 1723Q562 1723 608 1718T701 1694T792 1639T870 1540T924 1385T945
1161V556Q945 429 924 338T869 183T791 81T700 21T607 -8T524 -15ZM524 180Q562 180 590 193T637 238T665 322T675 455V1232Q675 1314 666 1369T638 1457T591 1505T524 1519Q485 1519 456 1505T408 1458T380 1369T370 1232V455Q370 375 379 323T408 238T456 193T524
180Z" />
<glyph unicode="P" glyph-name="P" horiz-adv-x="982" d="M146 1708H405Q454 1708 512 1704T629 1683T742 1632T839 1540T906 1393T932 1179V1119Q932 982 909 885T846 721T756 614T649 554T537 527T430 520H405V0H146V1708ZM418 710Q488 710 536 730T612 794T653
906T666 1071V1225Q666 1301 655 1356T616 1448T539 1501T418 1519H405V710H418Z" />
<glyph unicode="Q" glyph-name="Q" horiz-adv-x="1064" d="M429 -5Q372 6 315 37T212 132T138 298T109 556V1161Q109 1290 129 1381T184 1535T261 1635T352 1691T447 1717T534 1723Q572 1723 618 1718T711 1694T802 1639T880 1540T934 1385T955 1161V556Q955 408
927 308T855 143T756 46T647 -1V-16Q647 -65 658 -95T692 -141T748 -163T826 -169Q840 -169 854 -169T880 -168V-308Q831 -330 788 -338T697 -346Q676 -346 648 -344T590 -332T532 -305T480 -257T443 -181T429 -72V-5ZM534 180Q572 180 600 193T647 238T675 322T685
455V1232Q685 1314 676 1369T648 1457T601 1505T534 1519Q495 1519 466 1505T418 1458T390 1369T380 1232V455Q380 375 389 323T418 238T466 193T534 180Z" />
<glyph unicode="R" glyph-name="R" horiz-adv-x="1048" d="M146 1708H427Q475 1708 532 1704T647 1685T758 1638T853 1553T920 1418T945 1220V1177Q945 982 889 860T724 683L998 0H724L497 639H400V0H146V1708ZM439 826Q507 826 554 841T630 891T672 985T685 1130V1265Q685
1331 673 1379T633 1458T557 1504T439 1519H400V826H439Z" />
<glyph unicode="S" glyph-name="S" horiz-adv-x="956" d="M80 346Q80 401 86 447T106 548H307V465Q307 396 315 343T343 254T395 199T475 180Q549 180 588 220T627 339Q627 379 622 412T603 479T566 548T507 630L237 951Q165 1043 126 1136T87 1336Q87 1421 113
1492T190 1614T313 1694T480 1723Q593 1723 668 1691T789 1607T852 1491T871 1361Q871 1306 863 1260T843 1157H643V1238Q643 1374 604 1446T477 1519Q404 1519 368 1479T332 1370Q332 1334 337 1305T353 1252T379 1204T413 1156L714 792Q796 685 840 587T884 378Q884
287 856 214T774 90T646 12T477 -16Q361 -16 285 15T163 97T99 213T80 346Z" />
<glyph unicode="T" glyph-name="T" horiz-adv-x="866" d="M304 1504H29V1708H837V1504H563V0H304V1504Z" />
<glyph unicode="U" glyph-name="U" horiz-adv-x="1094" d="M140 1708H401V456Q401 376 409 323T434 239T479 194T545 180Q583 180 611 193T658 238T686 323T696 456V1708H954V525Q954 400 934 311T881 162T806 67T718 14T627 -10T545 -15Q508 -15 464 -10T374
13T287 67T212 162T160 310T140 525V1708Z" />
<glyph unicode="V" glyph-name="V" horiz-adv-x="955" d="M19 1708H284L472 355H483L672 1708H936L625 0H329L19 1708Z" />
<glyph unicode="W" glyph-name="W" horiz-adv-x="1479" d="M37 1708H285L400 676L413 435H438L462 706L646 1708H853L1029 706L1049 435H1075L1087 676L1192 1708H1441L1202 0H939L798 821L754 1178H734L691 821L543 0H283L37 1708Z" />
<glyph unicode="X" glyph-name="X" horiz-adv-x="939" d="M345 860L33 1708H310L469 1162H479L638 1708H906L593 859L906 0H639L477 549H460L291 0H33L345 860Z" />
<glyph unicode="Y" glyph-name="Y" horiz-adv-x="959" d="M349 569L5 1708H266L475 891H487L694 1708H954L608 569V0H349V569Z" />
<glyph unicode="Z" glyph-name="Z" horiz-adv-x="865" d="M39 137L545 1504H115V1708H836V1571L329 204H806V0H39V137Z" />
<glyph unicode="[" glyph-name="bracketleft" horiz-adv-x="776" d="M139 1963H644V1771H361V-66H644V-256H139V1963Z" />
<glyph unicode="\" glyph-name="backslash" horiz-adv-x="552" d="M10 1884H229L542 -326H323L10 1884Z" />
<glyph unicode="]" glyph-name="bracketright" horiz-adv-x="776" d="M415 -66V1771H131V1963H636V-256H131V-66H415Z" />
<glyph unicode="^" glyph-name="asciicircum" horiz-adv-x="959" d="M358 1725H591L924 277H705L543 1067L492 1402H467L413 1067L254 277H35L358 1725Z" />
<glyph unicode="_" glyph-name="underscore" horiz-adv-x="1381" d="M1386 -172V-335H-5V-172H1386Z" />
<glyph unicode="`" glyph-name="grave" horiz-adv-x="687" d="M114 1846L283 1983L573 1567L448 1462L114 1846Z" />
<glyph unicode="a" glyph-name="a" horiz-adv-x="924" d="M320 -15Q256 -15 207 10T123 80T72 184T54 316Q54 401 75 467T136 586T237 682T376 765Q414 784 461 803T546 837V1019Q546 1059 543 1093T529 1153T494 1193T431 1208Q404 1208 379 1198T334 1164T303
1100T291 1001V941H98Q89 980 85 1012T80 1077Q80 1154 106 1213T180 1312T294 1372T439 1393Q542 1393 610 1371T718 1303T775 1190T792 1031V0H604L586 118Q545 59 477 22T320 -15ZM432 180Q464 180 494 196T546 237V668Q526 660 501 649T447 620Q420 603 394
579T348 522T315 448T302 355Q302 276 333 228T432 180Z" />
<glyph unicode="b" glyph-name="b" horiz-adv-x="989" d="M130 1819H383V1452L375 1270L376 1269Q393 1293 415 1315T466 1354T529 1382T605 1392Q626 1392 655 1388T716 1368T779 1321T835 1234T875 1097T891 898V481Q891 364 876 282T835 145T778 57T713 9T649
-11T595 -16Q547 -16 509 -4T441 28T389 75T349 128L328 0H130V1819ZM383 279Q391 260 402 242T429 211T464 189T509 180Q537 180 560 190T600 228T626 305T636 431V958Q636 1035 627 1083T601 1160T561 1198T510 1208Q463 1208 433 1181T383 1115V279Z" />
<glyph unicode="c" glyph-name="c" horiz-adv-x="871" d="M451 -15Q277 -15 186 128T94 564V824Q94 955 113 1048T163 1205T235 1306T319 1362T404 1387T481 1393Q551 1393 609 1375T709 1319T774 1224T797 1090Q797 1042 793 1008T780 941H578V987Q578 1091 554
1149T473 1208Q442 1208 419 1194T381 1144T358 1050T350 902V511Q350 421 356 358T377 256T417 198T479 180Q498 180 516 189T547 221T569 279T578 370V413H796V360Q796 164 710 75T451 -15Z" />
<glyph unicode="d" glyph-name="d" horiz-adv-x="988" d="M394 -16Q371 -16 340 -12T276 9T211 57T154 144T114 282T98 481V918Q98 1034 114 1114T158 1246T218 1328T285 1372T349 1389T400 1392Q437 1392 470 1382T530 1356T578 1319T613 1277L614 1278L606 1452V1819H858V0H661L639
128Q622 101 600 75T548 29T480 -4T394 -16ZM480 180Q505 180 524 188T559 210T586 242T606 279V1107Q587 1149 556 1178T479 1208Q451 1208 428 1198T388 1161T362 1085T352 959V431Q352 354 361 305T388 229T428 191T480 180Z" />
<glyph unicode="e" glyph-name="e" horiz-adv-x="922" d="M462 -15Q373 -15 305 18T189 121T118 300T94 564V824Q94 955 113 1048T164 1205T237 1306T323 1362T410 1387T491 1393Q559 1393 622 1373T733 1303T809 1170T838 963Q838 921 836 878T829 794T819 713T805
641H348V501Q348 411 355 350T378 251T423 197T495 180Q518 180 540 189T578 221T605 279T615 370V413H826V360Q826 164 733 75T462 -15ZM602 811Q603 822 604 840T605 879T606 918T606 952Q606 1088 574 1148T479 1208Q446 1208 421 1193T380 1141T356 1044T348
895V811H602Z" />
<glyph unicode="f" glyph-name="f" horiz-adv-x="616" d="M164 1197H45V1377H164V1476Q164 1588 187 1658T250 1768T345 1822T463 1836Q481 1836 503 1834T548 1828T592 1817T631 1802V1624Q589 1635 537 1635Q512 1635 490 1627T450 1601T423 1552T413 1476V1377H604V1197H413V0H164V1197Z"
/>
<glyph unicode="g" glyph-name="g" horiz-adv-x="993" d="M336 -94Q336 -183 369 -220T471 -257Q499 -257 525 -249T570 -218T602 -155T614 -52V165Q580 121 527 90T394 58Q371 58 340 62T276 83T211 131T154 219T114 356T98 556V918Q98 1030 113 1108T154 1240T211
1323T277 1368T343 1388T400 1392Q450 1392 488 1379T555 1345T604 1296T638 1242L661 1378H858V56Q858 -59 836 -151T767 -309T648 -410T474 -445Q406 -445 346 -433T241 -391T170 -308T144 -174Q144 -160 147 -139T157 -94H336ZM480 254Q505 254 524 262T559
285T586 317T606 354V1107Q587 1149 556 1178T479 1208Q451 1208 428 1198T388 1161T362 1085T352 959V506Q352 429 361 380T388 303T428 265T480 254Z" />
<glyph unicode="h" glyph-name="h" horiz-adv-x="1022" d="M130 1819H383V1495L370 1259Q398 1298 430 1323T497 1364T567 1386T638 1393Q759 1393 824 1309T890 1055V0H637V1046Q637 1137 609 1172T527 1208Q489 1208 451 1183T383 1112V0H130V1819Z" />
<glyph unicode="i" glyph-name="i" horiz-adv-x="521" d="M265 1574Q195 1574 155 1616T114 1739Q114 1784 124 1814T154 1863T202 1890T266 1899Q341 1899 380 1861T419 1739Q419 1661 380 1618T265 1574ZM134 1377H387V0H134V1377Z" />
<glyph unicode="j" glyph-name="j" horiz-adv-x="521" d="M265 1574Q195 1574 155 1616T114 1739Q114 1784 124 1814T154 1863T202 1890T266 1899Q341 1899 380 1861T419 1739Q419 1661 380 1618T265 1574ZM134 1377H387V-84Q387 -197 365 -267T304 -376T217 -430T115
-444Q85 -444 54 -439T-7 -420V-273Q1 -274 9 -274T25 -275Q47 -275 67 -267T102 -241T125 -192T134 -116V1377Z" />
<glyph unicode="k" glyph-name="k" horiz-adv-x="942" d="M134 1819H387V772H395L671 1377H914L608 747L943 0H685L395 683H387V0H134V1819Z" />
<glyph unicode="l" glyph-name="l" horiz-adv-x="521" d="M134 1819H387V0H134V1819Z" />
<glyph unicode="m" glyph-name="m" horiz-adv-x="1520" d="M130 1377H326L348 1230V1229Q378 1276 412 1307T482 1358T557 1385T634 1393Q715 1393 771 1354T856 1237Q886 1282 919 1312T989 1360T1062 1385T1137 1393Q1257 1393 1322 1309T1388 1055V0H1135V1046Q1135
1091 1128 1122T1107 1172T1071 1199T1018 1208Q983 1208 948 1183T884 1112Q885 1103 885 1094T885 1076V0H632V1046Q632 1091 625 1122T604 1172T568 1199T515 1208Q481 1208 446 1183T383 1114V0H130V1377Z" />
<glyph unicode="n" glyph-name="n" horiz-adv-x="1020" d="M130 1377H325L348 1230V1229Q378 1276 412 1307T484 1358T559 1385T636 1393Q757 1393 822 1309T888 1055V0H635V1046Q635 1137 607 1172T525 1208Q487 1208 450 1183T383 1114V0H130V1377Z" />
<glyph unicode="o" glyph-name="o" horiz-adv-x="950" d="M477 -15Q433 -15 388 -8T300 21T220 84T154 192T110 357T94 591V807Q94 941 110 1036T155 1197T222 1300T302 1359T390 1386T478 1393Q519 1393 563 1387T649 1362T728 1304T794 1200T839 1039T856 807V591Q856
457 839 360T793 196T726 88T646 23T561 -7T477 -15ZM479 180Q513 180 536 197T574 255T595 360T602 523V862Q602 959 596 1025T575 1131T537 1190T479 1208Q443 1208 419 1190T378 1132T355 1025T348 862V523Q348 426 355 361T378 255T418 198T479 180Z" />
<glyph unicode="p" glyph-name="p" horiz-adv-x="990" d="M383 -78V-445H130V1377H328L351 1232Q368 1260 391 1289T446 1340T517 1377T606 1392Q627 1392 656 1388T717 1368T780 1321T836 1234T876 1097T892 898V481Q892 364 877 282T836 145T779 58T714 10T650
-10T596 -15Q516 -15 463 16T375 91L383 -78ZM383 281Q391 261 402 243T429 211T464 189T510 180Q538 180 561 190T601 228T627 305T637 431V958Q637 1035 628 1083T602 1160T562 1198T511 1208Q463 1208 433 1180T383 1113V281Z" />
<glyph unicode="q" glyph-name="q" horiz-adv-x="988" d="M394 -15Q371 -15 340 -11T276 10T211 58T154 145T114 282T98 481V898Q98 1015 113 1097T153 1234T209 1320T272 1368T333 1388T384 1392Q433 1392 472 1378T542 1342T596 1291T637 1234L661 1377H858V-446H606V-79L613
89Q579 46 526 16T394 -15ZM480 180Q505 180 524 188T559 210T586 242T606 279V1107Q587 1149 556 1178T479 1208Q451 1208 428 1198T388 1160T362 1083T352 957V431Q352 354 361 305T388 229T428 191T480 180Z" />
<glyph unicode="r" glyph-name="r" horiz-adv-x="788" d="M130 1377H315L337 1237Q379 1315 433 1354T545 1393Q654 1393 706 1326T758 1125Q758 1108 756 1085T749 1036T738 985T724 938H548V1066Q548 1108 543 1135T528 1178T507 1201T481 1208Q451 1208 426
1189T383 1134V0H130V1377Z" />
<glyph unicode="s" glyph-name="s" horiz-adv-x="829" d="M76 288Q76 333 84 375T101 442H279Q279 367 286 317T311 236T356 193T426 180Q483 180 509 212T535 286Q535 308 529 328T512 368T485 410T449 456L264 674Q228 719 195 765T136 861T95 965T79 1079Q79
1159 106 1218T180 1316T288 1374T417 1393Q492 1393 552 1375T655 1321T721 1232T744 1107Q744 1059 736 1014T719 937H544Q543 1005 538 1056T520 1140T483 1191T421 1208Q388 1208 366 1198T331 1170T312 1132T306 1089Q306 1041 329 1000T390 911L592 674Q614
647 643 609T698 524T742 422T760 307Q760 234 737 175T669 73T559 8T409 -15Q340 -15 279 0T173 51T102 145T76 288Z" />
<glyph unicode="t" glyph-name="t" horiz-adv-x="675" d="M159 1197H52V1377H181L232 1734H412V1377H632V1197H412V321Q412 276 420 249T444 206T479 185T521 180Q558 180 586 189T641 214V74Q619 47 594 30T541 3T486 -12T431 -16Q378 -16 329 -2T242 51T182
161T159 343V1197Z" />
<glyph unicode="u" glyph-name="u" horiz-adv-x="1021" d="M132 1377H385V342Q385 251 413 216T495 180Q533 180 569 201T634 261V1377H887V0H694L669 147H668Q638 100 605 69T535 19T460 -8T384 -16Q263 -16 198 68T132 322V1377Z" />
<glyph unicode="v" glyph-name="v" horiz-adv-x="874" d="M16 1377H268L401 645L434 352H442L480 645L612 1377H856L542 0H326L16 1377Z" />
<glyph unicode="w" glyph-name="w" horiz-adv-x="1338" d="M35 1377H276L375 631L399 352H407L437 631L569 1377H782L918 631L955 352H963L980 631L1067 1377H1303L1080 0H847L704 766L672 977H664L635 766L505 0H262L35 1377Z" />
<glyph unicode="x" glyph-name="x" horiz-adv-x="902" d="M311 699L39 1377H298L445 926H447L603 1377H845L584 723L877 0H618L448 475H440L268 0H25L311 699Z" />
<glyph unicode="y" glyph-name="y" horiz-adv-x="898" d="M78 -265Q135 -273 183 -262T265 -218T320 -134T344 -8L18 1377H275L420 615L462 352H470L499 615L616 1377H865L575 -51Q556 -150 527 -224T454 -347T350 -420T210 -445Q145 -445 77 -420L78 -265V-265Z" />
<glyph unicode="z" glyph-name="z" horiz-adv-x="703" d="M22 126L408 1185H55V1377H679V1251L292 192H681V0H22V126Z" />
<glyph unicode="{" glyph-name="braceleft" horiz-adv-x="896" d="M284 551Q284 611 274 651T244 715T195 751T128 764L76 767V946L127 949Q165 951 194 962T243 997T273 1061T283 1161V1580Q283 1683 309 1756T381 1875T487 1943T615 1964Q647 1964 686 1957T765
1938V1784H727Q665 1784 624 1777T556 1754T519 1712T508 1646V1245Q508 1171 501 1112T475 1005T425 924T346 869V843Q392 822 423 788T473 708T500 601T508 468V63Q508 24 519 -2T556 -45T623 -69T727 -76H765V-229Q726 -242 687 -249T615 -256Q547 -256 487
-235T382 -168T311 -48T284 129V551Z" />
<glyph unicode="|" glyph-name="bar" horiz-adv-x="714" d="M247 1884H467V-326H247V1884Z" />
<glyph unicode="}" glyph-name="braceright" horiz-adv-x="896" d="M169 -76Q230 -76 272 -69T340 -46T377 -3T388 63V468Q388 541 396 601T422 707T472 788T549 843V869Q502 890 471 924T422 1005T396 1111T388 1245V1646Q388 1685 377 1711T340 1754T272 1777T169
1784H131V1938Q170 1950 209 1957T281 1964Q348 1964 408 1943T514 1876T586 1756T613 1580V1161Q613 1101 623 1062T653 998T702 962T769 949L820 946V767L768 764Q730 762 701 751T652 716T622 651T612 551V129Q612 25 586 -48T514 -167T409 -235T281 -256Q248
-256 209 -249T131 -229V-76H169Z" />
<glyph unicode="~" glyph-name="asciitilde" horiz-adv-x="1304" d="M130 450Q120 580 141 666T204 805T304 878T428 900Q494 900 544 877T633 819T702 744T760 669T815 611T876 588Q945 588 970 660T972 869H1164Q1186 752 1172 664T1118 517T1021 429T900 399Q832
399 780 422T687 479T613 553T552 628T494 685T434 708Q396 708 370 689T329 636T311 555T316 450H130V450Z" />
<glyph unicode="&#xa0;" glyph-name="nbspace" horiz-adv-x="438" />
<glyph unicode="&#xa1;" glyph-name="exclamdown" horiz-adv-x="690" d="M208 -424H481L450 834H243L208 -424ZM191 1212Q191 1107 233 1062T347 1016Q422 1016 463 1064T504 1212Q504 1303 463 1353T346 1403Q275 1403 233 1355T191 1212Z" />
<glyph unicode="&#xa2;" glyph-name="cent" horiz-adv-x="899" d="M395 -8Q326 5 274 44T185 154T131 325T113 564V824Q113 926 124 1004T156 1142T204 1243T262 1313T327 1357T394 1381V1623H580V1386Q633 1377 676 1354T750 1294T797 1207T814 1090Q814 1042
810 1008T797 941H605V987Q605 1091 577 1149T492 1208Q461 1208 438 1193T399 1141T375 1044T367 895V501Q367 411 373 350T395 251T436 197T498 180Q517 180 536 189T570 221T595 279T605 370V423H810V360Q810 198 754 110T581 -4V-258H395V-8V-8Z" />
<glyph unicode="&#xa3;" glyph-name="sterling" horiz-adv-x="1006" d="M98 152Q140 171 160 213T188 313T196 443T195 591V701H66V880H195V1224Q195 1348 217 1441T287 1597T407 1691T581 1723Q676 1723 742 1694T851 1615T912 1503T932 1371Q932 1323 925 1268T906
1157H705V1228Q705 1309 696 1364T669 1454T628 1504T574 1520Q543 1520 520 1506T481 1459T458 1368T450 1224V880H729V701H450V563Q450 442 433 355T372 204H908V0H98V152Z" />
<glyph unicode="&#xa4;" glyph-name="currency" horiz-adv-x="1287" d="M116 513L297 674Q279 717 270 763T261 858Q261 965 299 1056L116 1220L254 1375L429 1213Q469 1238 518 1251T628 1265Q694 1265 748 1249T847 1204L1032 1375L1171 1220L974 1045Q1010
961 1010 858Q1010 769 975 687L1171 513L1032 358L848 528Q804 498 750 481T628 464Q568 464 518 478T427 518L254 358L116 513ZM628 691Q669 691 700 705T751 743T782 796T792 855Q792 892 782 925T752 984T700 1024T628 1039Q591 1039 565 1024T521 984T495
925T486 855Q486 824 494 795T521 742T565 705T628 691Z" />
<glyph unicode="&#xa5;" glyph-name="yen" horiz-adv-x="1006" d="M137 396H373V547H137V727H373L38 1708H299L497 992H509L707 1708H968L631 727H866V547H631V396H866V217H631V0H373V217H137V396Z" />
<glyph unicode="&#xa6;" glyph-name="brokenbar" horiz-adv-x="714" d="M247 1884H467V940H247V1884ZM247 683H467V-326H247V683Z" />
<glyph unicode="&#xa7;" glyph-name="section" horiz-adv-x="1062" d="M166 -45Q166 11 172 57T193 160H373V51Q373 -10 384 -54T416 -127T462 -170T519 -184Q553 -184 578 -172T621 -138T647 -87T656 -25Q656 6 647 33T619 91T568 156T493 237L336 397Q288 446
251 491T188 582T149 678T136 791Q136 901 185 985T321 1120Q281 1165 252 1208T203 1295T175 1385T166 1482Q166 1558 191 1621T266 1730T384 1801T543 1827Q638 1827 705 1798T815 1723T877 1619T897 1503Q897 1447 891 1400T870 1297H690V1406Q690 1467 679
1511T647 1585T600 1628T543 1642Q509 1642 484 1630T441 1596T415 1545T406 1482Q406 1452 415 1424T443 1366T494 1301T570 1221L726 1060Q774 1011 811 967T874 876T913 779T926 666Q926 556 876 472T741 336Q781 291 810 248T859 162T887 72T897 -25Q897 -100
871 -163T797 -272T678 -343T519 -369Q424 -369 357 -340T248 -265T186 -161T166 -45ZM619 461Q655 491 678 535T701 635Q701 665 694 693T671 749T630 808T569 873L442 996Q407 966 385 922T362 823Q362 793 369 765T392 709T433 650T494 584L619 461Z" />
<glyph unicode="&#xa8;" glyph-name="dieresis" horiz-adv-x="948" d="M688 1566Q610 1566 581 1606T552 1728Q552 1771 558 1803T580 1856T622 1888T688 1899Q770 1899 802 1858T834 1728Q834 1651 802 1609T688 1566ZM251 1566Q173 1566 144 1606T114 1728Q114
1771 120 1803T142 1856T184 1888T251 1899Q333 1899 364 1858T396 1728Q396 1651 365 1609T251 1566Z" />
<glyph unicode="&#xa9;" glyph-name="copyright" horiz-adv-x="1458" d="M104 1030Q104 1185 134 1298T213 1490T328 1618T462 1694T602 1730T732 1740Q790 1740 858 1731T996 1696T1130 1622T1244 1494T1324 1301T1354 1030V694Q1354 537 1324 423T1244 230T1129
103T995 29T857 -6T730 -15Q670 -15 601 -6T461 31T327 106T213 234T134 426T104 694V1030ZM260 670Q260 547 282 459T341 309T426 211T526 153T631 127T730 120Q774 120 826 126T930 151T1031 208T1116 306T1176 456T1200 670V1054Q1200 1179 1178 1268T1118 1418T1033
1516T932 1572T828 1598T732 1604Q686 1604 633 1598T528 1571T427 1514T342 1415T282 1266T260 1054V670ZM756 292Q724 292 687 297T612 318T541 364T480 443T437 564T421 736V993Q421 1093 437 1164T480 1284T542 1361T614 1405T687 1425T755 1430Q834 1430 887
1407T973 1347T1020 1266T1034 1179Q1034 1136 1029 1100T1016 1020H852V1076Q852 1169 826 1216T750 1263Q723 1263 702 1252T666 1216T645 1147T637 1040V673Q637 611 644 570T666 504T703 469T756 459Q798 459 825 495T853 611V696H1038V622Q1038 461 966 377T756
292Z" />
<glyph unicode="&#xaa;" glyph-name="ordfeminine" horiz-adv-x="836" d="M309 649Q244 649 199 671T124 729T82 811T69 905Q69 988 101 1049T181 1155T283 1228T383 1276Q402 1284 434 1297T499 1320V1479Q499 1533 480 1565T408 1597Q381 1597 359 1589T320
1562T295 1513T286 1438V1392H104Q96 1430 93 1457T90 1514Q90 1560 108 1604T164 1683T263 1739T409 1761Q510 1761 572 1736T668 1670T715 1578T727 1472V668H555L538 740Q520 722 495 706T439 677T375 657T309 649ZM400 814Q431 814 455 825T499 852V1175Q482
1169 470 1165T433 1150Q410 1141 384 1124T337 1081T301 1022T287 949Q287 889 316 852T400 814Z" />
<glyph unicode="&#xab;" glyph-name="guillemotleft" horiz-adv-x="1336" d="M144 717V867L533 1273L670 1149L387 790L666 430L529 305L144 717ZM651 717V867L1040 1273L1177 1149L894 790L1173 430L1036 305L651 717Z" />
<glyph unicode="&#xac;" glyph-name="logicalnot" horiz-adv-x="991" d="M45 887H905V368H707V692H45V887Z" />
<glyph unicode="&#xad;" glyph-name="uni00AD" horiz-adv-x="1707" />
<glyph unicode="&#xae;" glyph-name="registered" horiz-adv-x="1479" d="M740 184Q683 184 614 193T474 230T337 305T219 430T136 617T104 879V1045Q104 1196 135 1306T219 1494T337 1620T475 1694T615 1730T742 1740Q797 1740 865 1731T1003 1697T1140 1624T1259
1499T1343 1310T1375 1045V879Q1375 725 1343 614T1259 426T1140 301T1002 228T863 193T740 184ZM740 330Q787 330 841 336T948 363T1050 419T1136 516T1196 663T1220 871V1053Q1220 1174 1198 1261T1139 1408T1052 1504T950 1561T843 1587T742 1594Q693 1594 638
1587T530 1560T428 1502T342 1404T282 1258T260 1053V871Q260 752 282 666T341 520T426 423T528 365T636 337T740 330ZM478 1387H661Q699 1387 741 1385T824 1375T903 1351T970 1307T1016 1237T1033 1135V1105Q1033 1030 1000 976T904 893L1091 562H884L756 842H661V562H478V1387ZM692
968Q770 968 801 1000T833 1102V1144Q833 1171 826 1192T803 1229T760 1253T692 1261H661V968H692Z" />
<glyph unicode="&#xaf;" glyph-name="overscore" horiz-adv-x="851" d="M114 1826H737V1633H114V1826Z" />
<glyph unicode="&#xb0;" glyph-name="degree" horiz-adv-x="889" d="M439 1072Q355 1072 292 1102T188 1182T127 1296T106 1428Q106 1499 125 1565T186 1683T290 1764T439 1795Q525 1795 589 1765T697 1684T761 1567T783 1428Q783 1363 762 1300T697 1186T590
1104T439 1072ZM436 1265Q473 1265 500 1279T546 1315T574 1367T583 1425Q583 1460 574 1492T547 1548T501 1587T436 1602Q402 1602 378 1588T337 1548T314 1491T306 1425Q306 1394 314 1366T338 1315T378 1279T436 1265Z" />
<glyph unicode="&#xb1;" glyph-name="plusminus" horiz-adv-x="916" d="M357 860H86V1055H357V1369H556V1055H830V860H556V537H357V860ZM86 364H830V169H86V364Z" />
<glyph unicode="&#xb2;" glyph-name="twosuperior" horiz-adv-x="864" d="M116 795L382 1193Q421 1250 444 1294T479 1373T494 1435T498 1488Q498 1545 475 1570T407 1596Q362 1596 335 1558T307 1445V1392H123Q120 1411 117 1426T113 1453T110 1478T109 1504Q109
1561 129 1608T190 1689T287 1742T418 1761Q467 1761 523 1751T627 1712T705 1629T737 1488Q737 1450 731 1413T708 1334T663 1244T592 1134L394 850H738V677H116V795Z" />
<glyph unicode="&#xb3;" glyph-name="threesuperior" horiz-adv-x="861" d="M401 666Q316 666 257 687T159 744T104 823T86 913Q86 944 89 974T100 1046H286V1000Q286 952 295 920T319 867T356 839T401 830Q462 830 487 863T513 946V1019Q513 1093 480 1125T397
1158H317V1293H397Q419 1293 438 1299T471 1321T494 1360T503 1418V1489Q503 1512 498 1532T480 1566T449 1589T401 1597Q379 1597 360 1589T327 1562T304 1513T296 1438V1392H114Q106 1430 103 1457T100 1514Q100 1560 117 1604T172 1683T268 1739T409 1761Q461
1761 517 1751T619 1711T695 1632T725 1500V1437Q717 1367 688 1313T593 1230V1222Q661 1194 698 1138T735 1011V946Q735 859 703 805T622 719T514 677T401 666Z" />
<glyph unicode="&#xb4;" glyph-name="acute" horiz-adv-x="687" d="M114 1567L404 1983L573 1846L239 1462L114 1567Z" />
<glyph unicode="&#xb5;" glyph-name="mu" horiz-adv-x="1036" d="M121 1377H383V344Q383 298 390 267T411 217T448 190T500 181Q535 181 567 193T632 244V1377H898V0H692L675 96Q660 73 639 53T593 17T542 -7T490 -16Q456 -16 426 -6T364 43L356 44L363 -328H122L121
1377Z" />
<glyph unicode="&#xb6;" glyph-name="paragraph" horiz-adv-x="1101" d="M683 1708H941V0H683V1708ZM481 520Q447 520 406 524T322 548T240 604T168 709T118 876T99 1119V1179Q99 1305 118 1393T168 1539T239 1632T322 1682T405 1703T481 1708H512V520H481Z" />
<glyph unicode="&#xb7;" glyph-name="middot" horiz-adv-x="561" d="M121 793Q121 899 163 945T277 991Q352 991 393 942T434 793Q434 701 393 651T276 600Q205 600 163 649T121 793Z" />
<glyph unicode="&#xb8;" glyph-name="cedilla" horiz-adv-x="594" d="M478 -104Q482 -175 473 -226T445 -312T402 -368T352 -400T304 -415T265 -419Q223 -419 190 -412T114 -389L121 -238Q129 -239 137 -239T154 -239Q188 -239 215 -232T262 -206T293 -150T308
-56L310 -12L403 136L472 -1L478 -104Z" />
<glyph unicode="&#xb9;" glyph-name="onesuperior" horiz-adv-x="770" d="M160 839H287V1450L154 1338L66 1470L331 1726H509V839H643V677H160V839Z" />
<glyph unicode="&#xba;" glyph-name="ordmasculine" horiz-adv-x="919" d="M471 666Q435 666 395 672T317 695T245 739T184 807T143 906T127 1039V1389Q127 1502 160 1574T244 1688T355 1745T471 1761Q507 1761 546 1755T624 1732T696 1688T757 1619T798 1520T814
1387V1040Q814 964 799 907T757 809T697 740T624 696T547 673T471 666ZM471 830Q542 830 567 882T593 1039V1387Q593 1493 568 1545T471 1597Q400 1597 374 1546T348 1389V1040Q348 933 374 882T471 830Z" />
<glyph unicode="&#xbb;" glyph-name="guillemotright" horiz-adv-x="1368" d="M693 717V867L304 1273L167 1149L450 790L171 430L308 305L693 717ZM1214 717V867L825 1273L688 1149L971 790L692 430L829 305L1214 717Z" />
<glyph unicode="&#xbc;" glyph-name="onequarter" horiz-adv-x="1825" d="M1002 281L1375 1069H1632V339H1719V185H1632V1H1410V185H1002V281ZM1410 339V376L1436 796H1424L1223 339H1410ZM590 0L1049 1709H1231L772 0H590ZM201 839H328V1450L195 1338L107 1470L372
1726H550V839H684V677H201V839Z" />
<glyph unicode="&#xbd;" glyph-name="onehalf" horiz-adv-x="1861" d="M590 0L1049 1709H1231L772 0H590ZM201 839H328V1450L195 1338L107 1470L372 1726H550V839H684V677H201V839ZM1123 119L1389 517Q1428 574 1451 618T1486 697T1501 759T1505 812Q1505 869
1482 894T1414 920Q1369 920 1342 882T1314 769V716H1130Q1127 735 1124 750T1120 777T1117 802T1116 828Q1116 885 1136 932T1197 1013T1294 1066T1425 1085Q1474 1085 1530 1075T1634 1036T1712 953T1744 812Q1744 774 1738 737T1715 658T1670 568T1599 458L1401
174H1745V1H1123V119Z" />
<glyph unicode="&#xbe;" glyph-name="threequarters" horiz-adv-x="1869" d="M1046 281L1419 1069H1677V339H1763V185H1677V1H1454V185H1046V281ZM1454 339V376L1481 796H1468L1267 339H1454ZM632 0L1091 1709H1273L814 0H632ZM431 666Q346 666 287 687T189 744T134
823T116 913Q116 944 119 974T130 1046H316V1000Q316 952 325 920T349 867T386 839T431 830Q492 830 517 863T543 946V1019Q543 1093 510 1125T427 1158H347V1293H427Q449 1293 468 1299T501 1321T524 1360T533 1418V1489Q533 1512 528 1532T510 1566T479 1589T431
1597Q409 1597 390 1589T357 1562T334 1513T326 1438V1392H144Q136 1430 133 1457T130 1514Q130 1560 147 1604T202 1683T298 1739T439 1761Q491 1761 547 1751T649 1711T725 1632T755 1500V1437Q747 1367 718 1313T623 1230V1222Q691 1194 728 1138T765 1011V946Q765
859 733 805T652 719T544 677T431 666Z" />
<glyph unicode="&#xbf;" glyph-name="questiondown" horiz-adv-x="1026" d="M624 629Q624 589 622 560T614 503T594 449T559 386L441 200Q403 138 381 72T359 -50Q359 -91 370 -125T401 -183T450 -220T516 -234Q597 -234 635 -162T673 46V128H877Q888 72 896 26T904
-76Q904 -152 881 -218T809 -333T685 -410T506 -438Q403 -438 326 -411T196 -332T119 -210T93 -50Q93 0 102 45T130 136T177 229T244 329L324 437Q353 476 369 504T392 559T402 616T404 688V832H625L624 629ZM656 1212Q656 1107 614 1062T500 1016Q425 1016 384
1064T343 1212Q343 1303 384 1353T501 1403Q572 1403 614 1355T656 1212Z" />
<glyph unicode="&#xc0;" glyph-name="Agrave" horiz-adv-x="967" d="M334 1708H632L948 0H686L639 306H327L282 0H19L334 1708ZM609 501L489 1352H478L357 501H609ZM140 1899L269 2066L590 1850L485 1733L140 1899Z" />
<glyph unicode="&#xc1;" glyph-name="Aacute" horiz-adv-x="967" d="M334 1708H632L948 0H686L639 306H327L282 0H19L334 1708ZM609 501L489 1352H478L357 501H609ZM379 1850L700 2066L829 1899L484 1733L379 1850Z" />
<glyph unicode="&#xc2;" glyph-name="Acircumflex" horiz-adv-x="967" d="M334 1708H632L948 0H686L639 306H327L282 0H19L334 1708ZM609 501L489 1352H478L357 501H609ZM526 1886L486 1942L446 1886L362 1756H114L364 2066H598L844 1756H595L526 1886Z" />
<glyph unicode="&#xc3;" glyph-name="Atilde" horiz-adv-x="967" d="M334 1708H632L948 0H686L639 306H327L282 0H19L334 1708ZM609 501L489 1352H478L357 501H609ZM907 1729Q845 1729 801 1746T715 1798Q691 1819 675 1835T645 1862T620 1878T593 1884Q572 1884
561 1867T550 1820V1748H372Q372 1754 371 1765T370 1789T369 1813T368 1829Q368 1896 386 1941T434 2015T505 2054T589 2066Q648 2066 688 2049T769 1999Q782 1987 797 1972T829 1943T862 1920T895 1911Q917 1911 931 1925T945 1969V2047H1104Q1110 2011 1112
1986T1115 1941Q1115 1889 1098 1850T1052 1783T985 1743T907 1729Z" />
<glyph unicode="&#xc4;" glyph-name="Adieresis" horiz-adv-x="967" d="M334 1708H632L948 0H686L639 306H327L282 0H19L334 1708ZM609 501L489 1352H478L357 501H609ZM699 1751Q621 1751 592 1792T563 1909Q563 1948 569 1977T591 2026T633 2056T699 2066Q781
2066 813 2028T845 1909Q845 1873 838 1844T813 1794T768 1762T699 1751ZM262 1751Q184 1751 155 1792T125 1909Q125 1948 131 1977T153 2026T195 2056T262 2066Q344 2066 375 2028T407 1909Q407 1873 400 1844T375 1794T331 1762T262 1751Z" />
<glyph unicode="&#xc5;" glyph-name="Aring" horiz-adv-x="964" d="M302 1526Q234 1567 202 1634T169 1776Q169 1834 187 1886T244 1978T342 2041T483 2065Q565 2065 625 2042T726 1980T787 1889T807 1776Q807 1740 798 1704T771 1635T726 1574T662 1524L947 0H687L640
306H324L279 0H18L302 1526ZM482 1643Q522 1643 551 1654T600 1684T630 1726T640 1772Q640 1829 601 1866T482 1903Q410 1903 377 1866T343 1772Q343 1748 351 1725T377 1683T420 1654T482 1643ZM610 501L488 1356H477L354 501H610Z" />
<glyph unicode="&#xc6;" glyph-name="AE" horiz-adv-x="1266" d="M443 1708H1240V1503H846V995H1153V771H846V205H1240V0H590V306H335L272 0H11L443 1708ZM590 492V1356H553L374 492H590Z" />
<glyph unicode="&#xc7;" glyph-name="Ccedilla" horiz-adv-x="936" d="M514 -15Q474 -15 428 -9T335 19T246 78T171 180T119 335T99 556V1161Q99 1290 119 1381T172 1535T248 1635T337 1691T428 1717T513 1723Q615 1723 683 1695T793 1617T852 1501T870 1361Q870
1306 865 1260T848 1157H638V1244Q638 1385 607 1455T516 1525Q480 1525 453 1511T408 1464T381 1375T371 1238V458Q371 378 378 325T403 240T447 195T514 181Q539 181 562 192T602 228T630 290T641 379V546H878V388Q878 182 784 84T514 -15ZM609 -104Q613 -175
604 -226T576 -312T533 -368T483 -400T435 -415T396 -419Q354 -419 321 -412T245 -389L252 -238Q260 -239 268 -239T285 -239Q319 -239 346 -232T393 -206T424 -150T439 -56L441 -12L534 136L603 -1L609 -104Z" />
<glyph unicode="&#xc8;" glyph-name="Egrave" horiz-adv-x="830" d="M146 1708H779V1504H405V993H694V789H405V204H789V0H146V1708ZM135 1899L264 2066L585 1850L480 1733L135 1899Z" />
<glyph unicode="&#xc9;" glyph-name="Eacute" horiz-adv-x="830" d="M146 1708H779V1504H405V993H694V789H405V204H789V0H146V1708ZM374 1850L695 2066L824 1899L479 1733L374 1850Z" />
<glyph unicode="&#xca;" glyph-name="Ecircumflex" horiz-adv-x="830" d="M146 1708H779V1504H405V993H694V789H405V204H789V0H146V1708ZM778 1886L738 1942L698 1886L614 1756H366L616 2066H850L1096 1756H847L778 1886Z" />
<glyph unicode="&#xcb;" glyph-name="Edieresis" horiz-adv-x="830" d="M146 1708H779V1504H405V993H694V789H405V204H789V0H146V1708ZM694 1751Q616 1751 587 1792T558 1909Q558 1948 564 1977T586 2026T628 2056T694 2066Q776 2066 808 2028T840 1909Q840 1873
833 1844T808 1794T763 1762T694 1751ZM257 1751Q179 1751 150 1792T120 1909Q120 1948 126 1977T148 2026T190 2056T257 2066Q339 2066 370 2028T402 1909Q402 1873 395 1844T370 1794T326 1762T257 1751Z" />
<glyph unicode="&#xcc;" glyph-name="Igrave" horiz-adv-x="551" d="M146 1708H405V0H146V1708ZM-69 1899L60 2066L381 1850L276 1733L-69 1899Z" />
<glyph unicode="&#xcd;" glyph-name="Iacute" horiz-adv-x="551" d="M146 1708H405V0H146V1708ZM169 1850L490 2066L619 1899L274 1733L169 1850Z" />
<glyph unicode="&#xce;" glyph-name="Icircumflex" horiz-adv-x="551" d="M146 1708H405V0H146V1708ZM317 1886L277 1942L237 1886L153 1756H-95L155 2066H389L635 1756H386L317 1886Z" />
<glyph unicode="&#xcf;" glyph-name="Idieresis" horiz-adv-x="551" d="M146 1708H405V0H146V1708ZM490 1751Q412 1751 383 1792T354 1909Q354 1948 360 1977T382 2026T424 2056T490 2066Q572 2066 604 2028T636 1909Q636 1873 629 1844T604 1794T559 1762T490
1751ZM53 1751Q-25 1751 -54 1792T-84 1909Q-84 1948 -78 1977T-56 2026T-14 2056T53 2066Q135 2066 166 2028T198 1909Q198 1873 191 1844T166 1794T122 1762T53 1751Z" />
<glyph unicode="&#xd0;" glyph-name="Eth" horiz-adv-x="1037" d="M128 817H43V1019H128V1725H406Q454 1725 512 1720T630 1697T746 1640T845 1536T915 1370T941 1129V606Q941 462 915 361T846 192T746 87T631 29T513 5T406 0H128V817ZM418 180Q487 180 535 202T614
271T658 389T672 558V1149Q672 1240 660 1309T618 1425T539 1495T418 1519H387V1019H545V817H387V180H418Z" />
<glyph unicode="&#xd1;" glyph-name="Ntilde" horiz-adv-x="1123" d="M401 1708H611L1025 565H1031Q1028 605 1023 654T1014 765T1007 907T1004 1085V1708H1236V0H1024L612 1113H604Q607 1068 612 1016T621 892T628 727T631 502V0H401V1708ZM728 1729Q666 1729
622 1746T536 1798Q512 1819 496 1835T466 1862T441 1878T414 1884Q393 1884 382 1867T371 1820V1748H193Q193 1754 192 1765T191 1789T190 1813T189 1829Q189 1896 207 1941T255 2015T326 2054T410 2066Q469 2066 509 2049T590 1999Q603 1987 618 1972T650 1943T683
1920T716 1911Q738 1911 752 1925T766 1969V2047H925Q931 2011 933 1986T936 1941Q936 1889 919 1850T873 1783T806 1743T728 1729Z" />
<glyph unicode="&#xd2;" glyph-name="Ograve" horiz-adv-x="1070" d="M537 -15Q496 -15 448 -9T353 19T263 78T186 180T132 335T112 556V1161Q112 1290 132 1381T187 1535T264 1635T355 1691T450 1717T537 1723Q575 1723 621 1718T714 1694T805 1639T883 1540T937
1385T958 1161V556Q958 429 937 338T882 183T804 81T713 21T620 -8T537 -15ZM537 180Q575 180 603 193T650 238T678 322T688 455V1232Q688 1314 679 1369T651 1457T604 1505T537 1519Q498 1519 469 1505T421 1458T393 1369T383 1232V455Q383 375 392 323T421 238T469
193T537 180ZM188 1899L317 2066L638 1850L533 1733L188 1899Z" />
<glyph unicode="&#xd3;" glyph-name="Oacute" horiz-adv-x="1070" d="M537 -15Q496 -15 448 -9T353 19T263 78T186 180T132 335T112 556V1161Q112 1290 132 1381T187 1535T264 1635T355 1691T450 1717T537 1723Q575 1723 621 1718T714 1694T805 1639T883 1540T937
1385T958 1161V556Q958 429 937 338T882 183T804 81T713 21T620 -8T537 -15ZM537 180Q575 180 603 193T650 238T678 322T688 455V1232Q688 1314 679 1369T651 1457T604 1505T537 1519Q498 1519 469 1505T421 1458T393 1369T383 1232V455Q383 375 392 323T421 238T469
193T537 180ZM427 1850L748 2066L877 1899L532 1733L427 1850Z" />
<glyph unicode="&#xd4;" glyph-name="Ocircumflex" horiz-adv-x="1070" d="M537 -15Q496 -15 448 -9T353 19T263 78T186 180T132 335T112 556V1161Q112 1290 132 1381T187 1535T264 1635T355 1691T450 1717T537 1723Q575 1723 621 1718T714 1694T805 1639T883
1540T937 1385T958 1161V556Q958 429 937 338T882 183T804 81T713 21T620 -8T537 -15ZM537 180Q575 180 603 193T650 238T678 322T688 455V1232Q688 1314 679 1369T651 1457T604 1505T537 1519Q498 1519 469 1505T421 1458T393 1369T383 1232V455Q383 375 392 323T421
238T469 193T537 180ZM574 1886L534 1942L494 1886L410 1756H162L412 2066H646L892 1756H643L574 1886Z" />
<glyph unicode="&#xd5;" glyph-name="Otilde" horiz-adv-x="1070" d="M537 -15Q496 -15 448 -9T353 19T263 78T186 180T132 335T112 556V1161Q112 1290 132 1381T187 1535T264 1635T355 1691T450 1717T537 1723Q575 1723 621 1718T714 1694T805 1639T883 1540T937
1385T958 1161V556Q958 429 937 338T882 183T804 81T713 21T620 -8T537 -15ZM537 180Q575 180 603 193T650 238T678 322T688 455V1232Q688 1314 679 1369T651 1457T604 1505T537 1519Q498 1519 469 1505T421 1458T393 1369T383 1232V455Q383 375 392 323T421 238T469
193T537 180ZM698 1729Q636 1729 592 1746T506 1798Q482 1819 466 1835T436 1862T411 1878T384 1884Q363 1884 352 1867T341 1820V1748H163Q163 1754 162 1765T161 1789T160 1813T159 1829Q159 1896 177 1941T225 2015T296 2054T380 2066Q439 2066 479 2049T560
1999Q573 1987 588 1972T620 1943T653 1920T686 1911Q708 1911 722 1925T736 1969V2047H895Q901 2011 903 1986T906 1941Q906 1889 889 1850T843 1783T776 1743T698 1729Z" />
<glyph unicode="&#xd6;" glyph-name="Odieresis" horiz-adv-x="1070" d="M537 -15Q496 -15 448 -9T353 19T263 78T186 180T132 335T112 556V1161Q112 1290 132 1381T187 1535T264 1635T355 1691T450 1717T537 1723Q575 1723 621 1718T714 1694T805 1639T883 1540T937
1385T958 1161V556Q958 429 937 338T882 183T804 81T713 21T620 -8T537 -15ZM537 180Q575 180 603 193T650 238T678 322T688 455V1232Q688 1314 679 1369T651 1457T604 1505T537 1519Q498 1519 469 1505T421 1458T393 1369T383 1232V455Q383 375 392 323T421 238T469
193T537 180ZM747 1751Q669 1751 640 1792T611 1909Q611 1948 617 1977T639 2026T681 2056T747 2066Q829 2066 861 2028T893 1909Q893 1873 886 1844T861 1794T816 1762T747 1751ZM310 1751Q232 1751 203 1792T173 1909Q173 1948 179 1977T201 2026T243 2056T310
2066Q392 2066 423 2028T455 1909Q455 1873 448 1844T423 1794T379 1762T310 1751Z" />
<glyph unicode="&#xd7;" glyph-name="multiply" horiz-adv-x="860" d="M66 551L300 790L66 1029L196 1161L430 922L665 1161L795 1029L560 790L795 551L665 419L430 657L196 419L66 551Z" />
<glyph unicode="&#xd8;" glyph-name="Oslash" horiz-adv-x="1039" d="M299 -171H174L735 1878H860L299 -171ZM524 -15Q483 -15 435 -9T340 19T250 78T173 180T119 335T99 556V1161Q99 1290 119 1381T174 1535T251 1635T342 1691T437 1717T524 1723Q562 1723 608
1718T701 1694T792 1639T870 1540T924 1385T945 1161V556Q945 429 924 338T869 183T791 81T700 21T607 -8T524 -15ZM524 180Q562 180 590 193T637 238T665 322T675 455V1232Q675 1314 666 1369T638 1457T591 1505T524 1519Q485 1519 456 1505T408 1458T380 1369T370
1232V455Q370 375 379 323T408 238T456 193T524 180Z" />
<glyph unicode="&#xd9;" glyph-name="Ugrave" horiz-adv-x="1105" d="M144 1708H405V456Q405 376 413 323T438 239T483 194T549 180Q587 180 615 193T662 238T690 323T700 456V1708H958V525Q958 400 938 311T885 162T810 67T722 14T631 -10T549 -15Q512 -15 468
-10T378 13T291 67T216 162T164 310T144 525V1708ZM216 1899L345 2066L666 1850L561 1733L216 1899Z" />
<glyph unicode="&#xda;" glyph-name="Uacute" horiz-adv-x="1105" d="M144 1708H405V456Q405 376 413 323T438 239T483 194T549 180Q587 180 615 193T662 238T690 323T700 456V1708H958V525Q958 400 938 311T885 162T810 67T722 14T631 -10T549 -15Q512 -15 468
-10T378 13T291 67T216 162T164 310T144 525V1708ZM455 1850L776 2066L905 1899L560 1733L455 1850Z" />
<glyph unicode="&#xdb;" glyph-name="Ucircumflex" horiz-adv-x="1105" d="M144 1708H405V456Q405 376 413 323T438 239T483 194T549 180Q587 180 615 193T662 238T690 323T700 456V1708H958V525Q958 400 938 311T885 162T810 67T722 14T631 -10T549 -15Q512 -15
468 -10T378 13T291 67T216 162T164 310T144 525V1708ZM602 1886L562 1942L522 1886L438 1756H190L440 2066H674L920 1756H671L602 1886Z" />
<glyph unicode="&#xdc;" glyph-name="Udieresis" horiz-adv-x="1105" d="M144 1708H405V456Q405 376 413 323T438 239T483 194T549 180Q587 180 615 193T662 238T690 323T700 456V1708H958V525Q958 400 938 311T885 162T810 67T722 14T631 -10T549 -15Q512 -15
468 -10T378 13T291 67T216 162T164 310T144 525V1708ZM775 1751Q697 1751 668 1792T639 1909Q639 1948 645 1977T667 2026T709 2056T775 2066Q857 2066 889 2028T921 1909Q921 1873 914 1844T889 1794T844 1762T775 1751ZM338 1751Q260 1751 231 1792T201 1909Q201
1948 207 1977T229 2026T271 2056T338 2066Q420 2066 451 2028T483 1909Q483 1873 476 1844T451 1794T407 1762T338 1751Z" />
<glyph unicode="&#xdd;" glyph-name="Yacute" horiz-adv-x="959" d="M349 569L5 1708H266L475 891H487L694 1708H954L608 569V0H349V569ZM375 1850L696 2066L825 1899L480 1733L375 1850Z" />
<glyph unicode="&#xde;" glyph-name="Thorn" horiz-adv-x="1002" d="M146 1708H403V1453H414Q462 1453 519 1449T634 1428T745 1378T840 1286T907 1139T932 925V864Q932 727 909 630T846 466T756 359T649 298T537 271T430 264H405V0H146V1708ZM418 455Q488 455
536 475T612 539T653 651T666 817V970Q666 1046 655 1101T616 1193T539 1247T418 1265H405V455H418Z" />
<glyph unicode="&#xdf;" glyph-name="germandbls" horiz-adv-x="1036" d="M134 1408Q134 1514 162 1593T242 1724T368 1802T534 1828Q635 1828 708 1802T830 1728T901 1616T924 1474Q924 1432 918 1393T900 1313T869 1229T825 1134Q801 1095 787 1067T765 1017T755
979T752 948Q752 913 764 878T801 790L893 593Q910 546 924 508T947 434T962 366T967 297Q967 237 952 180T905 79T822 8T698 -19Q652 -19 614 -11T542 11V187Q553 184 560 183T575 181T589 180T607 180Q625 180 643 185T676 204T700 240T710 296Q710 347 692 399T648
509L576 670Q548 732 529 788T510 907Q510 934 514 959T529 1011T557 1069T598 1140Q628 1191 645 1231T672 1305T683 1371T686 1436Q686 1477 676 1512T646 1574T597 1614T529 1629Q499 1629 474 1622T429 1597T398 1553T387 1485V-443H134V1408Z" />
<glyph unicode="&#xe0;" glyph-name="agrave" horiz-adv-x="924" d="M334 -15Q270 -15 221 10T137 80T86 184T68 316Q68 401 89 467T150 586T251 682T390 765Q428 784 475 803T560 837V1019Q560 1059 557 1093T543 1153T508 1193T445 1208Q418 1208 393 1198T348
1164T317 1100T305 1001V941H112Q103 980 99 1012T94 1077Q94 1154 120 1213T194 1312T308 1372T453 1393Q556 1393 624 1371T732 1303T789 1190T806 1031V0H618L600 118Q559 59 491 22T334 -15ZM446 180Q478 180 508 196T560 237V668Q540 660 515 649T461 620Q434
603 408 579T362 522T329 448T316 355Q316 276 347 228T446 180ZM345 1846L514 1983L804 1567L679 1462L345 1846Z" />
<glyph unicode="&#xe1;" glyph-name="aacute" horiz-adv-x="924" d="M334 -15Q270 -15 221 10T137 80T86 184T68 316Q68 401 89 467T150 586T251 682T390 765Q428 784 475 803T560 837V1019Q560 1059 557 1093T543 1153T508 1193T445 1208Q418 1208 393 1198T348
1164T317 1100T305 1001V941H112Q103 980 99 1012T94 1077Q94 1154 120 1213T194 1312T308 1372T453 1393Q556 1393 624 1371T732 1303T789 1190T806 1031V0H618L600 118Q559 59 491 22T334 -15ZM446 180Q478 180 508 196T560 237V668Q540 660 515 649T461 620Q434
603 408 579T362 522T329 448T316 355Q316 276 347 228T446 180ZM297 1567L587 1983L756 1846L422 1462L297 1567Z" />
<glyph unicode="&#xe2;" glyph-name="acircumflex" horiz-adv-x="924" d="M334 -15Q270 -15 221 10T137 80T86 184T68 316Q68 401 89 467T150 586T251 682T390 765Q428 784 475 803T560 837V1019Q560 1059 557 1093T543 1153T508 1193T445 1208Q418 1208 393 1198T348
1164T317 1100T305 1001V941H112Q103 980 99 1012T94 1077Q94 1154 120 1213T194 1312T308 1372T453 1393Q556 1393 624 1371T732 1303T789 1190T806 1031V0H618L600 118Q559 59 491 22T334 -15ZM446 180Q478 180 508 196T560 237V668Q540 660 515 649T461 620Q434
603 408 579T362 522T329 448T316 355Q316 276 347 228T446 180ZM732 1697L681 1869L631 1697L537 1485H319L589 2066H763L1039 1485H820L732 1697Z" />
<glyph unicode="&#xe3;" glyph-name="atilde" horiz-adv-x="924" d="M334 -15Q270 -15 221 10T137 80T86 184T68 316Q68 401 89 467T150 586T251 682T390 765Q428 784 475 803T560 837V1019Q560 1059 557 1093T543 1153T508 1193T445 1208Q418 1208 393 1198T348
1164T317 1100T305 1001V941H112Q103 980 99 1012T94 1077Q94 1154 120 1213T194 1312T308 1372T453 1393Q556 1393 624 1371T732 1303T789 1190T806 1031V0H618L600 118Q559 59 491 22T334 -15ZM446 180Q478 180 508 196T560 237V668Q540 660 515 649T461 620Q434
603 408 579T362 522T329 448T316 355Q316 276 347 228T446 180ZM845 1587Q783 1587 739 1607T653 1665Q629 1686 613 1702T583 1729T558 1745T531 1751Q510 1751 499 1734T488 1687V1615H310Q310 1621 309 1632T308 1656T307 1680T306 1697Q306 1767 324 1814T372
1890T443 1931T527 1943Q586 1943 626 1924T707 1866Q720 1854 735 1839T767 1810T800 1787T833 1778Q855 1778 869 1792T883 1837V1924H1042Q1048 1889 1050 1863T1053 1818Q1053 1761 1036 1718T990 1645T923 1602T845 1587Z" />
<glyph unicode="&#xe4;" glyph-name="adieresis" horiz-adv-x="924" d="M334 -15Q270 -15 221 10T137 80T86 184T68 316Q68 401 89 467T150 586T251 682T390 765Q428 784 475 803T560 837V1019Q560 1059 557 1093T543 1153T508 1193T445 1208Q418 1208 393 1198T348
1164T317 1100T305 1001V941H112Q103 980 99 1012T94 1077Q94 1154 120 1213T194 1312T308 1372T453 1393Q556 1393 624 1371T732 1303T789 1190T806 1031V0H618L600 118Q559 59 491 22T334 -15ZM446 180Q478 180 508 196T560 237V668Q540 660 515 649T461 620Q434
603 408 579T362 522T329 448T316 355Q316 276 347 228T446 180ZM894 1566Q816 1566 787 1606T758 1728Q758 1771 764 1803T786 1856T828 1888T894 1899Q976 1899 1008 1858T1040 1728Q1040 1651 1008 1609T894 1566ZM457 1566Q379 1566 350 1606T320 1728Q320
1771 326 1803T348 1856T390 1888T457 1899Q539 1899 570 1858T602 1728Q602 1651 571 1609T457 1566Z" />
<glyph unicode="&#xe5;" glyph-name="aring" horiz-adv-x="924" d="M334 -15Q270 -15 221 10T137 80T86 184T68 316Q68 401 89 467T150 586T251 682T390 765Q428 784 475 803T560 837V1019Q560 1059 557 1093T543 1153T508 1193T445 1208Q418 1208 393 1198T348
1164T317 1100T305 1001V941H112Q103 980 99 1012T94 1077Q94 1154 120 1213T194 1312T308 1372T453 1393Q556 1393 624 1371T732 1303T789 1190T806 1031V0H618L600 118Q559 59 491 22T334 -15ZM446 180Q478 180 508 196T560 237V668Q540 660 515 649T461 620Q434
603 408 579T362 522T329 448T316 355Q316 276 347 228T446 180ZM679 1451Q599 1451 540 1477T442 1545T384 1643T365 1757Q365 1817 383 1873T440 1971T538 2039T679 2065Q761 2065 821 2040T922 1973T983 1874T1003 1757Q1003 1701 983 1647T923 1549T822 1478T679
1451ZM678 1614Q718 1614 747 1626T796 1658T826 1703T836 1753Q836 1784 826 1811T797 1858T748 1890T678 1902Q642 1902 616 1890T573 1858T547 1810T539 1753Q539 1727 547 1702T573 1658T616 1626T678 1614Z" />
<glyph unicode="&#xe6;" glyph-name="ae" horiz-adv-x="1349" d="M42 314Q42 398 62 464T123 583T222 679T361 761Q399 780 443 799T524 833V1010Q524 1048 522 1084T510 1147T478 1191T416 1208Q389 1208 364 1198T319 1164T288 1101T276 1002V936H83Q74 975
70 1007T65 1072Q65 1148 91 1206T165 1305T279 1365T424 1385Q472 1385 510 1376T580 1352T636 1317T680 1273H688Q715 1305 745 1326T808 1361T872 1380T933 1386Q995 1386 1054 1366T1158 1296T1231 1165T1259 958Q1259 875 1250 790T1225 638H777V499Q777 409
783 347T806 246T851 190T923 172Q946 172 968 181T1007 212T1035 270T1046 361V411H1251V358Q1251 164 1165 74T915 -16Q820 -16 750 27T636 151H628Q577 72 501 28T339 -16Q259 -16 203 10T111 82T59 188T42 314ZM1024 807Q1025 818 1026 837T1027 877T1028 919T1028
953Q1028 1089 999 1148T907 1208Q874 1208 850 1193T809 1141T785 1045T777 897V807H1024ZM287 353Q287 275 318 226T417 176Q449 176 476 192T524 233V665Q504 657 483 646T432 617Q405 600 379 576T333 519T300 445T287 353Z" />
<glyph unicode="&#xe7;" glyph-name="ccedilla" horiz-adv-x="871" d="M451 -15Q277 -15 186 128T94 564V824Q94 955 113 1048T163 1205T235 1306T319 1362T404 1387T481 1393Q551 1393 609 1375T709 1319T774 1224T797 1090Q797 1042 793 1008T780 941H578V987Q578
1091 554 1149T473 1208Q442 1208 419 1194T381 1144T358 1050T350 902V511Q350 421 356 358T377 256T417 198T479 180Q498 180 516 189T547 221T569 279T578 370V413H796V360Q796 164 710 75T451 -15ZM549 -99Q553 -170 544 -221T516 -307T473 -363T423 -395T375
-410T336 -414Q294 -414 261 -407T185 -384L192 -233Q200 -234 208 -234T225 -234Q259 -234 286 -227T333 -201T364 -145T379 -51L381 -7L474 141L543 4L549 -99Z" />
<glyph unicode="&#xe8;" glyph-name="egrave" horiz-adv-x="924" d="M468 -15Q379 -15 311 18T195 121T124 300T100 564V824Q100 955 119 1048T170 1205T243 1306T329 1362T416 1387T497 1393Q565 1393 628 1373T739 1303T815 1170T844 963Q844 921 842 878T835
794T825 713T811 641H354V501Q354 411 361 350T384 251T429 197T501 180Q524 180 546 189T584 221T611 279T621 370V413H832V360Q832 164 739 75T468 -15ZM608 811Q609 822 610 840T611 879T612 918T612 952Q612 1088 580 1148T485 1208Q452 1208 427 1193T386
1141T362 1044T354 895V811H608ZM152 1846L321 1983L611 1567L486 1462L152 1846Z" />
<glyph unicode="&#xe9;" glyph-name="eacute" horiz-adv-x="924" d="M468 -15Q379 -15 311 18T195 121T124 300T100 564V824Q100 955 119 1048T170 1205T243 1306T329 1362T416 1387T497 1393Q565 1393 628 1373T739 1303T815 1170T844 963Q844 921 842 878T835
794T825 713T811 641H354V501Q354 411 361 350T384 251T429 197T501 180Q524 180 546 189T584 221T611 279T621 370V413H832V360Q832 164 739 75T468 -15ZM608 811Q609 822 610 840T611 879T612 918T612 952Q612 1088 580 1148T485 1208Q452 1208 427 1193T386
1141T362 1044T354 895V811H608ZM361 1567L651 1983L820 1846L486 1462L361 1567Z" />
<glyph unicode="&#xea;" glyph-name="ecircumflex" horiz-adv-x="924" d="M468 -15Q379 -15 311 18T195 121T124 300T100 564V824Q100 955 119 1048T170 1205T243 1306T329 1362T416 1387T497 1393Q565 1393 628 1373T739 1303T815 1170T844 963Q844 921 842 878T835
794T825 713T811 641H354V501Q354 411 361 350T384 251T429 197T501 180Q524 180 546 189T584 221T611 279T621 370V413H832V360Q832 164 739 75T468 -15ZM608 811Q609 822 610 840T611 879T612 918T612 952Q612 1088 580 1148T485 1208Q452 1208 427 1193T386
1141T362 1044T354 895V811H608ZM539 1697L488 1869L438 1697L344 1485H126L396 2066H570L846 1485H627L539 1697Z" />
<glyph unicode="&#xeb;" glyph-name="edieresis" horiz-adv-x="924" d="M468 -15Q379 -15 311 18T195 121T124 300T100 564V824Q100 955 119 1048T170 1205T243 1306T329 1362T416 1387T497 1393Q565 1393 628 1373T739 1303T815 1170T844 963Q844 921 842 878T835
794T825 713T811 641H354V501Q354 411 361 350T384 251T429 197T501 180Q524 180 546 189T584 221T611 279T621 370V413H832V360Q832 164 739 75T468 -15ZM608 811Q609 822 610 840T611 879T612 918T612 952Q612 1088 580 1148T485 1208Q452 1208 427 1193T386
1141T362 1044T354 895V811H608ZM701 1566Q623 1566 594 1606T565 1728Q565 1771 571 1803T593 1856T635 1888T701 1899Q783 1899 815 1858T847 1728Q847 1651 815 1609T701 1566ZM264 1566Q186 1566 157 1606T127 1728Q127 1771 133 1803T155 1856T197 1888T264
1899Q346 1899 377 1858T409 1728Q409 1651 378 1609T264 1566Z" />
<glyph unicode="&#xec;" glyph-name="igrave" horiz-adv-x="521" d="M134 1377H387V0H134V1377ZM-72 1846L97 1983L387 1567L262 1462L-72 1846Z" />
<glyph unicode="&#xed;" glyph-name="iacute" horiz-adv-x="521" d="M134 1377H387V0H134V1377ZM136 1567L426 1983L595 1846L261 1462L136 1567Z" />
<glyph unicode="&#xee;" glyph-name="icircumflex" horiz-adv-x="521" d="M134 1377H387V0H134V1377ZM315 1697L264 1869L214 1697L120 1485H-98L172 2066H346L622 1485H403L315 1697Z" />
<glyph unicode="&#xef;" glyph-name="idieresis" horiz-adv-x="521" d="M134 1377H387V0H134V1377ZM477 1566Q399 1566 370 1606T341 1728Q341 1771 347 1803T369 1856T411 1888T477 1899Q559 1899 591 1858T623 1728Q623 1651 591 1609T477 1566ZM40 1566Q-38
1566 -67 1606T-97 1728Q-97 1771 -91 1803T-69 1856T-27 1888T40 1899Q122 1899 153 1858T185 1728Q185 1651 154 1609T40 1566Z" />
<glyph unicode="&#xf0;" glyph-name="eth" horiz-adv-x="970" d="M489 -15Q445 -15 399 -9T308 19T226 81T158 190T111 357T94 597V795Q94 932 113 1028T162 1189T230 1291T308 1348T384 1372T447 1377Q460 1377 478 1377T514 1375T545 1371T563 1367Q543 1445
506 1512T426 1632L323 1509L196 1615L299 1743Q258 1766 214 1779T120 1793V1959Q201 1959 274 1939T411 1882L522 2020L654 1904L547 1777Q627 1697 688 1589T790 1352T852 1081T873 789V597Q873 460 856 361T809 194T741 85T660 22T573 -8T489 -15ZM491 180Q528
180 551 197T586 255T603 360T607 520V1158Q593 1182 568 1195T491 1208Q459 1208 436 1196T398 1149T376 1049T368 881V520Q368 425 372 361T390 256T428 198T491 180Z" />
<glyph unicode="&#xf1;" glyph-name="ntilde" horiz-adv-x="1021" d="M131 1377H326L349 1230V1229Q379 1276 413 1307T485 1358T560 1385T637 1393Q758 1393 823 1309T889 1055V0H636V1046Q636 1137 608 1172T526 1208Q488 1208 451 1183T384 1114V0H131V1377ZM702
1587Q640 1587 596 1607T510 1665Q486 1686 470 1702T440 1729T415 1745T388 1751Q367 1751 356 1734T345 1687V1615H167Q167 1621 166 1632T165 1656T164 1680T163 1697Q163 1767 181 1814T229 1890T300 1931T384 1943Q443 1943 483 1924T564 1866Q577 1854 592
1839T624 1810T657 1787T690 1778Q712 1778 726 1792T740 1837V1924H899Q905 1889 907 1863T910 1818Q910 1761 893 1718T847 1645T780 1602T702 1587Z" />
<glyph unicode="&#xf2;" glyph-name="ograve" horiz-adv-x="958" d="M481 -15Q437 -15 392 -8T304 21T224 84T158 192T114 357T98 591V807Q98 941 114 1036T159 1197T226 1300T306 1359T394 1386T482 1393Q523 1393 567 1387T653 1362T732 1304T798 1200T843 1039T860
807V591Q860 457 843 360T797 196T730 88T650 23T565 -7T481 -15ZM483 180Q517 180 540 197T578 255T599 360T606 523V862Q606 959 600 1025T579 1131T541 1190T483 1208Q447 1208 423 1190T382 1132T359 1025T352 862V523Q352 426 359 361T382 255T422 198T483
180ZM144 1846L313 1983L603 1567L478 1462L144 1846Z" />
<glyph unicode="&#xf3;" glyph-name="oacute" horiz-adv-x="958" d="M481 -15Q437 -15 392 -8T304 21T224 84T158 192T114 357T98 591V807Q98 941 114 1036T159 1197T226 1300T306 1359T394 1386T482 1393Q523 1393 567 1387T653 1362T732 1304T798 1200T843 1039T860
807V591Q860 457 843 360T797 196T730 88T650 23T565 -7T481 -15ZM483 180Q517 180 540 197T578 255T599 360T606 523V862Q606 959 600 1025T579 1131T541 1190T483 1208Q447 1208 423 1190T382 1132T359 1025T352 862V523Q352 426 359 361T382 255T422 198T483
180ZM353 1567L643 1983L812 1846L478 1462L353 1567Z" />
<glyph unicode="&#xf4;" glyph-name="ocircumflex" horiz-adv-x="958" d="M481 -15Q437 -15 392 -8T304 21T224 84T158 192T114 357T98 591V807Q98 941 114 1036T159 1197T226 1300T306 1359T394 1386T482 1393Q523 1393 567 1387T653 1362T732 1304T798 1200T843
1039T860 807V591Q860 457 843 360T797 196T730 88T650 23T565 -7T481 -15ZM483 180Q517 180 540 197T578 255T599 360T606 523V862Q606 959 600 1025T579 1131T541 1190T483 1208Q447 1208 423 1190T382 1132T359 1025T352 862V523Q352 426 359 361T382 255T422
198T483 180ZM531 1697L480 1869L430 1697L336 1485H118L388 2066H562L838 1485H619L531 1697Z" />
<glyph unicode="&#xf5;" glyph-name="otilde" horiz-adv-x="958" d="M481 -15Q437 -15 392 -8T304 21T224 84T158 192T114 357T98 591V807Q98 941 114 1036T159 1197T226 1300T306 1359T394 1386T482 1393Q523 1393 567 1387T653 1362T732 1304T798 1200T843 1039T860
807V591Q860 457 843 360T797 196T730 88T650 23T565 -7T481 -15ZM483 180Q517 180 540 197T578 255T599 360T606 523V862Q606 959 600 1025T579 1131T541 1190T483 1208Q447 1208 423 1190T382 1132T359 1025T352 862V523Q352 426 359 361T382 255T422 198T483
180ZM901 1587Q839 1587 795 1607T709 1665Q685 1686 669 1702T639 1729T614 1745T587 1751Q566 1751 555 1734T544 1687V1615H366Q366 1621 365 1632T364 1656T363 1680T362 1697Q362 1767 380 1814T428 1890T499 1931T583 1943Q642 1943 682 1924T763 1866Q776
1854 791 1839T823 1810T856 1787T889 1778Q911 1778 925 1792T939 1837V1924H1098Q1104 1889 1106 1863T1109 1818Q1109 1761 1092 1718T1046 1645T979 1602T901 1587Z" />
<glyph unicode="&#xf6;" glyph-name="odieresis" horiz-adv-x="958" d="M481 -15Q437 -15 392 -8T304 21T224 84T158 192T114 357T98 591V807Q98 941 114 1036T159 1197T226 1300T306 1359T394 1386T482 1393Q523 1393 567 1387T653 1362T732 1304T798 1200T843
1039T860 807V591Q860 457 843 360T797 196T730 88T650 23T565 -7T481 -15ZM483 180Q517 180 540 197T578 255T599 360T606 523V862Q606 959 600 1025T579 1131T541 1190T483 1208Q447 1208 423 1190T382 1132T359 1025T352 862V523Q352 426 359 361T382 255T422
198T483 180ZM693 1566Q615 1566 586 1606T557 1728Q557 1771 563 1803T585 1856T627 1888T693 1899Q775 1899 807 1858T839 1728Q839 1651 807 1609T693 1566ZM256 1566Q178 1566 149 1606T119 1728Q119 1771 125 1803T147 1856T189 1888T256 1899Q338 1899 369
1858T401 1728Q401 1651 370 1609T256 1566Z" />
<glyph unicode="&#xf7;" glyph-name="divide" horiz-adv-x="835" d="M418 1043Q358 1043 321 1085T283 1205Q283 1292 320 1327T419 1363Q482 1363 514 1325T547 1205Q547 1130 514 1087T418 1043ZM45 887H790V691H45V887ZM417 215Q357 215 320 257T282 377Q282
464 319 499T418 535Q481 535 513 497T546 377Q546 302 513 259T417 215Z" />
<glyph unicode="&#xf8;" glyph-name="oslash" horiz-adv-x="958" d="M217 -171H100L740 1541H857L217 -171ZM477 -15Q433 -15 388 -8T300 21T220 84T154 192T110 357T94 591V807Q94 941 110 1036T155 1197T222 1300T302 1359T390 1386T478 1393Q519 1393 563 1387T649
1362T728 1304T794 1200T839 1039T856 807V591Q856 457 839 360T793 196T726 88T646 23T561 -7T477 -15ZM479 180Q513 180 536 197T574 255T595 360T602 523V862Q602 959 596 1025T575 1131T537 1190T479 1208Q443 1208 419 1190T378 1132T355 1025T348 862V523Q348
426 355 361T378 255T418 198T479 180Z" />
<glyph unicode="&#xf9;" glyph-name="ugrave" horiz-adv-x="1021" d="M132 1377H385V342Q385 251 413 216T495 180Q533 180 569 201T634 261V1377H887V0H694L669 147H668Q638 100 605 69T535 19T460 -8T384 -16Q263 -16 198 68T132 322V1377ZM187 1846L356 1983L646
1567L521 1462L187 1846Z" />
<glyph unicode="&#xfa;" glyph-name="uacute" horiz-adv-x="1021" d="M132 1377H385V342Q385 251 413 216T495 180Q533 180 569 201T634 261V1377H887V0H694L669 147H668Q638 100 605 69T535 19T460 -8T384 -16Q263 -16 198 68T132 322V1377ZM396 1567L686 1983L855
1846L521 1462L396 1567Z" />
<glyph unicode="&#xfb;" glyph-name="ucircumflex" horiz-adv-x="1021" d="M132 1377H385V342Q385 251 413 216T495 180Q533 180 569 201T634 261V1377H887V0H694L669 147H668Q638 100 605 69T535 19T460 -8T384 -16Q263 -16 198 68T132 322V1377ZM574 1697L523
1869L473 1697L379 1485H161L431 2066H605L881 1485H662L574 1697Z" />
<glyph unicode="&#xfc;" glyph-name="udieresis" horiz-adv-x="1021" d="M132 1377H385V342Q385 251 413 216T495 180Q533 180 569 201T634 261V1377H887V0H694L669 147H668Q638 100 605 69T535 19T460 -8T384 -16Q263 -16 198 68T132 322V1377ZM736 1566Q658
1566 629 1606T600 1728Q600 1771 606 1803T628 1856T670 1888T736 1899Q818 1899 850 1858T882 1728Q882 1651 850 1609T736 1566ZM299 1566Q221 1566 192 1606T162 1728Q162 1771 168 1803T190 1856T232 1888T299 1899Q381 1899 412 1858T444 1728Q444 1651 413
1609T299 1566Z" />
<glyph unicode="&#xfd;" glyph-name="yacute" horiz-adv-x="898" d="M85 -265Q142 -273 190 -262T272 -218T327 -134T351 -8L25 1377H282L427 615L469 352H477L506 615L623 1377H872L582 -51Q563 -150 534 -224T461 -347T357 -420T217 -445Q152 -445 84 -420L85
-265V-265ZM338 1567L628 1983L797 1846L463 1462L338 1567Z" />
<glyph unicode="&#xfe;" glyph-name="thorn" horiz-adv-x="989" d="M383 -59V-443H130V1810H383V1445L375 1264L376 1263Q393 1287 415 1309T466 1348T529 1375T605 1385Q626 1385 655 1381T716 1361T779 1314T835 1228T875 1092T891 894V479Q891 363 876 281T835
144T778 57T713 9T649 -11T595 -16Q556 -16 522 -6T458 20T407 56T369 95L383 -59ZM383 279Q391 260 402 242T429 211T464 189T509 180Q537 180 560 190T600 228T626 304T636 430V948Q636 1024 627 1072T601 1149T561 1187T510 1197Q463 1197 433 1173T383 1115V279Z"
/>
<glyph unicode="&#xff;" glyph-name="ydieresis" horiz-adv-x="898" d="M85 -265Q142 -273 190 -262T272 -218T327 -134T351 -8L25 1377H282L427 615L469 352H477L506 615L623 1377H872L582 -51Q563 -150 534 -224T461 -347T357 -420T217 -445Q152 -445 84 -420L85
-265V-265ZM935 1566Q857 1566 828 1606T799 1728Q799 1771 805 1803T827 1856T869 1888T935 1899Q1017 1899 1049 1858T1081 1728Q1081 1651 1049 1609T935 1566ZM498 1566Q420 1566 391 1606T361 1728Q361 1771 367 1803T389 1856T431 1888T498 1899Q580 1899
611 1858T643 1728Q643 1651 612 1609T498 1566Z" />
<glyph unicode="&#x2013;" glyph-name="endash" horiz-adv-x="1381" d="M126 888H1254V685H126V888Z" />
<glyph unicode="&#x2014;" glyph-name="emdash" horiz-adv-x="1647" d="M126 888H1521V685H126V888Z" />
<glyph unicode="&#x2018;" glyph-name="quoteleft" horiz-adv-x="620" d="M162 1404L312 1876H509L430 1479V1180H162V1404Z" />
<glyph unicode="&#x2019;" glyph-name="quoteright" horiz-adv-x="620" d="M448 1652L298 1180H101L180 1577V1876H448V1652Z" />
<glyph unicode="&#x201a;" glyph-name="quotesinglbase" horiz-adv-x="620" d="M448 14L298 -458H101L180 -61V238H448V14Z" />
<glyph unicode="&#x201c;" glyph-name="quotedblleft" horiz-adv-x="1092" d="M162 1404L312 1876H509L430 1479V1180H162V1404ZM634 1404L784 1876H981L902 1479V1180H634V1404Z" />
<glyph unicode="&#x201d;" glyph-name="quotedblright" horiz-adv-x="1088" d="M448 1654L298 1182H101L180 1579V1878H448V1654ZM916 1654L766 1182H569L648 1579V1878H916V1654Z" />
<glyph unicode="&#x201e;" glyph-name="quotedblbase" horiz-adv-x="1092" d="M448 14L298 -458H101L180 -61V238H448V14ZM920 14L770 -458H573L652 -61V238H920V14Z" />
<glyph unicode="&#x2022;" glyph-name="bullet" horiz-adv-x="711" d="M350 532Q295 532 255 551T187 603T147 678T134 764Q134 812 147 856T186 933T253 987T350 1008Q407 1008 449 988T520 935T563 857T577 764Q577 722 563 681T521 606T450 553T350 532Z" />
<glyph unicode="&#x2039;" glyph-name="guilsinglleft" horiz-adv-x="834" d="M144 717V867L533 1273L670 1149L387 790L666 430L529 305L144 717Z" />
<glyph unicode="&#x203a;" glyph-name="guilsinglright" horiz-adv-x="834" d="M680 717V867L291 1273L154 1149L437 790L158 430L295 305L680 717Z" />
</font>
</defs>
</svg>
